<svg width="1690" height="922" viewBox="0 0 1690 922" fill="none" xmlns="http://www.w3.org/2000/svg">
<path d="M53.7115 94C38.0719 94 25.3459 106.985 25.3459 122.942C25.3459 138.9 38.0713 151.885 53.7115 151.885C69.3511 151.885 82.077 138.901 82.077 122.942C82.077 106.985 69.3511 94 53.7115 94ZM53.7115 140.308C44.3268 140.308 36.6925 132.518 36.6925 122.942C36.6925 113.367 44.3268 105.577 53.7115 105.577C63.0967 105.577 70.731 113.367 70.731 122.942C70.731 132.518 63.0967 140.308 53.7115 140.308Z" fill="#FDFAF6"/>
<path d="M252.269 302.385C227.244 302.385 206.885 323.159 206.885 348.692C206.885 374.226 227.244 395 252.269 395C277.294 395 297.653 374.226 297.653 348.692C297.654 323.158 277.294 302.385 252.269 302.385ZM252.269 383.423C233.499 383.423 218.23 367.844 218.23 348.692C218.23 329.541 233.499 313.961 252.269 313.961C271.039 313.961 286.307 329.541 286.307 348.692C286.307 367.844 271.04 383.423 252.269 383.423Z" fill="#FDFAF6"/>
<path d="M178.519 111.365C125.339 111.365 82.0764 155.508 82.0764 209.769C82.0764 264.03 125.339 308.173 178.519 308.173C231.698 308.173 274.961 264.031 274.961 209.769C274.961 155.508 231.699 111.365 178.519 111.365ZM178.519 296.596C131.594 296.596 93.423 257.648 93.423 209.769C93.423 161.89 131.594 122.943 178.519 122.943C225.444 122.943 263.615 161.89 263.615 209.769C263.615 257.649 225.444 296.596 178.519 296.596Z" fill="#FDFAF6"/>
<path d="M178.519 146.096C144.109 146.096 116.115 174.66 116.115 209.769C116.115 212.969 118.652 215.558 121.788 215.558C124.924 215.558 127.461 212.969 127.461 209.769C127.461 181.042 150.364 157.673 178.518 157.673C181.654 157.673 184.191 155.084 184.191 151.885C184.193 148.685 181.655 146.096 178.519 146.096Z" fill="#FDFAF6"/>
<path d="M150.907 316.296C148.154 314.753 144.707 315.788 143.207 318.591C133.234 337.155 114.154 348.692 93.423 348.692C62.1432 348.692 36.6919 322.724 36.6919 290.808C36.6919 267.688 50.1375 246.812 70.9517 237.638C73.8274 236.371 75.1514 232.963 73.9103 230.029C72.6693 227.09 69.3177 225.75 66.4535 227.01C41.4788 238.022 25.3459 263.064 25.3459 290.808C25.3459 329.111 55.8831 360.269 93.423 360.269C118.298 360.269 141.19 346.431 153.156 324.153C154.664 321.35 153.655 317.833 150.907 316.296Z" fill="#FDFAF6"/>
<path d="M93.4231 325.538C74.6531 325.538 59.3845 309.959 59.3845 290.808C59.3845 287.608 56.8471 285.019 53.7116 285.019C50.576 285.019 48.0386 287.608 48.0386 290.808C48.0386 316.342 68.3982 337.115 93.4231 337.115C96.5586 337.115 99.096 334.526 99.096 331.327C99.096 328.128 96.5586 325.538 93.4231 325.538Z" fill="#FDFAF6"/>
<path d="M303.366 0C287.726 0 275 12.9847 275 28.9424C275 44.9001 287.725 57.8849 303.366 57.8849C319.005 57.8849 331.731 44.9007 331.731 28.9424C331.731 12.9847 319.005 0 303.366 0ZM303.366 46.3076C293.981 46.3076 286.347 38.518 286.347 28.9424C286.347 19.3669 293.981 11.5773 303.366 11.5773C312.751 11.5773 320.385 19.3669 320.385 28.9424C320.385 38.518 312.751 46.3076 303.366 46.3076Z" fill="#FDFAF6"/>
<path d="M100.404 765C65.9945 765 38 793.564 38 828.673C38 831.873 40.5375 834.462 43.673 834.462C46.8085 834.462 49.346 831.873 49.346 828.673C49.346 799.946 72.2488 776.577 100.403 776.577C103.539 776.577 106.076 773.988 106.076 770.789C106.078 767.589 103.54 765 100.404 765Z" fill="#FDFAF6"/>
<path d="M96.4425 725C43.263 725 0 769.143 0 823.404C0 877.665 43.263 921.808 96.4425 921.808C149.622 921.808 192.885 877.666 192.885 823.404C192.885 769.142 149.623 725 96.4425 725ZM96.4425 910.231C49.5179 910.231 11.3465 871.283 11.3465 823.404C11.3465 775.525 49.5179 736.577 96.4425 736.577C143.367 736.577 181.538 775.525 181.538 823.404C181.539 871.284 143.368 910.231 96.4425 910.231Z" fill="#FDFAF6"/>
<path d="M257.443 424C204.263 424 161 468.143 161 522.404C161 576.665 204.263 620.808 257.443 620.808C310.622 620.808 353.885 576.666 353.885 522.404C353.885 468.142 310.623 424 257.443 424ZM257.443 609.231C210.518 609.231 172.347 570.283 172.347 522.404C172.347 474.525 210.518 435.577 257.443 435.577C304.367 435.577 342.538 474.525 342.538 522.404C342.539 570.284 304.368 609.231 257.443 609.231Z" fill="#FDFAF6"/>
<path d="M106.366 395C90.7259 395 78 407.985 78 423.942C78 439.9 90.7253 452.885 106.366 452.885C122.005 452.885 134.731 439.901 134.731 423.942C134.731 407.985 122.005 395 106.366 395ZM106.366 441.308C96.9808 441.308 89.3466 433.518 89.3466 423.942C89.3466 414.367 96.9808 406.577 106.366 406.577C115.751 406.577 123.385 414.367 123.385 423.942C123.385 433.518 115.751 441.308 106.366 441.308Z" fill="#FDFAF6"/>
<path d="M360.384 661C335.36 661 315 681.774 315 707.308C315 732.841 335.36 753.615 360.384 753.615C385.409 753.615 405.769 732.841 405.769 707.308C405.77 681.774 385.409 661 360.384 661ZM360.384 742.038C341.615 742.038 326.346 726.459 326.346 707.308C326.346 688.156 341.615 672.577 360.384 672.577C379.154 672.577 394.423 688.156 394.423 707.308C394.423 726.459 379.155 742.038 360.384 742.038Z" fill="#FDFAF6"/>
<path d="M1465.62 371.392C1410.69 371.392 1366 414.7 1366 467.934C1366 521.168 1410.69 564.478 1465.62 564.478C1520.55 564.478 1565.24 521.168 1565.24 467.934C1565.24 414.7 1520.55 371.392 1465.62 371.392ZM1465.62 551.509C1418.07 551.509 1379.38 514.018 1379.38 467.934C1379.38 421.851 1418.07 384.36 1465.62 384.36C1513.17 384.36 1551.85 421.851 1551.85 467.934C1551.85 514.018 1513.17 551.509 1465.62 551.509Z" fill="#FDFAF6"/>
<path d="M1465.62 407.415C1461.92 407.415 1458.93 410.317 1458.93 413.899C1458.93 417.481 1461.92 420.383 1465.62 420.383C1492.67 420.383 1514.68 441.714 1514.68 467.934C1514.68 471.516 1517.68 474.418 1521.37 474.418C1525.07 474.418 1528.07 471.516 1528.07 467.934C1528.07 434.564 1500.05 407.415 1465.62 407.415Z" fill="#FDFAF6"/>
<path d="M1632.14 317.377C1600.24 317.377 1574.29 342.531 1574.29 373.448C1574.29 404.366 1600.24 429.519 1632.14 429.519C1664.05 429.519 1690 404.365 1690 373.448C1690 342.531 1664.05 317.377 1632.14 317.377ZM1632.14 416.551C1607.62 416.551 1587.67 397.216 1587.67 373.449C1587.67 349.682 1607.62 330.346 1632.14 330.346C1656.67 330.346 1676.62 349.682 1676.62 373.449C1676.62 397.216 1656.67 416.551 1632.14 416.551Z" fill="#FDFAF6"/>
<path d="M1635.42 393.536C1622.19 393.536 1611.42 383.099 1611.42 370.268C1611.42 366.687 1608.42 363.784 1604.73 363.784C1601.03 363.784 1598.03 366.687 1598.03 370.268C1598.03 390.249 1614.81 406.505 1635.42 406.505C1639.12 406.505 1642.12 403.603 1642.12 400.021C1642.12 396.439 1639.12 393.536 1635.42 393.536Z" fill="#FDFAF6"/>
<path d="M1476.05 340.489C1497.94 340.489 1515.76 323.226 1515.76 302.006C1515.76 280.786 1497.94 263.522 1476.05 263.522C1454.15 263.522 1436.34 280.786 1436.34 302.006C1436.34 323.226 1454.15 340.489 1476.05 340.489ZM1476.05 276.491C1490.56 276.491 1502.38 287.937 1502.38 302.006C1502.38 316.075 1490.56 327.521 1476.05 327.521C1461.53 327.521 1449.72 316.075 1449.72 302.006C1449.72 287.937 1461.53 276.491 1476.05 276.491Z" fill="#FDFAF6"/>
<path d="M1620.38 474C1595.36 474 1575 494.774 1575 520.308C1575 545.841 1595.36 566.615 1620.38 566.615C1645.41 566.615 1665.77 545.841 1665.77 520.308C1665.77 494.774 1645.41 474 1620.38 474ZM1620.38 555.038C1601.61 555.038 1586.35 539.459 1586.35 520.308C1586.35 501.156 1601.61 485.577 1620.38 485.577C1639.15 485.577 1654.42 501.156 1654.42 520.308C1654.42 539.459 1639.15 555.038 1620.38 555.038Z" fill="#FDFAF6"/>
<path d="M160.391 670.752C147.152 670.752 136.382 660.314 136.382 647.484C136.382 643.902 133.386 641 129.691 641C125.996 641 123 643.902 123 647.484C123 667.465 139.773 683.721 160.391 683.721C164.086 683.721 167.081 680.818 167.081 677.237C167.081 673.655 164.086 670.752 160.391 670.752Z" fill="#FDFAF6"/>
<path d="M156.857 598C124.955 598 99 623.154 99 654.071C99 684.989 124.955 710.142 156.857 710.142C188.76 710.142 214.714 684.988 214.714 654.071C214.714 623.154 188.76 598 156.857 598ZM156.857 697.174C132.333 697.174 112.382 677.839 112.382 654.072C112.382 630.305 132.333 610.969 156.857 610.969C181.381 610.969 201.333 630.305 201.333 654.072C201.333 677.839 181.382 697.174 156.857 697.174Z" fill="#FDFAF6"/>
<path d="M1603.37 95C1587.73 95 1575 107.985 1575 123.942C1575 139.9 1587.73 152.885 1603.37 152.885C1619.01 152.885 1631.73 139.901 1631.73 123.942C1631.73 107.985 1619.01 95 1603.37 95ZM1603.37 141.308C1593.98 141.308 1586.35 133.518 1586.35 123.942C1586.35 114.367 1593.98 106.577 1603.37 106.577C1612.75 106.577 1620.39 114.367 1620.39 123.942C1620.39 133.518 1612.75 141.308 1603.37 141.308Z" fill="#FDFAF6"/>
<path d="M1620.37 651C1604.73 651 1592 663.985 1592 679.942C1592 695.9 1604.73 708.885 1620.37 708.885C1636.01 708.885 1648.73 695.901 1648.73 679.942C1648.73 663.985 1636.01 651 1620.37 651ZM1620.37 697.308C1610.98 697.308 1603.35 689.518 1603.35 679.942C1603.35 670.367 1610.98 662.577 1620.37 662.577C1629.75 662.577 1637.39 670.367 1637.39 679.942C1637.39 689.518 1629.75 697.308 1620.37 697.308Z" fill="#FDFAF6"/>
</svg>
