<svg width="26" height="26" viewBox="0 0 26 26" fill="none" xmlns="http://www.w3.org/2000/svg">
<path d="M-nan -nanL11.7419 2.51613H10.4839C9.78906 2.51613 9.22581 1.95287 9.22581 1.25806C9.22581 0.563255 8.66255 0 7.96774 0H4.6129C3.91809 0 3.35484 0.563255 3.35484 1.25806C3.35484 1.95287 2.79158 2.51613 2.09677 2.51613H0.83871C0.61627 2.51613 0.402941 2.60449 0.245652 2.76178C0.0883638 2.91907 0 3.1324 0 3.35484V25.1613C0 25.3837 0.0883638 25.5971 0.245652 25.7543C0.402941 25.9116 0.61627 26 0.83871 26H11.7419C11.9644 26 12.1777 25.9116 12.335 25.7543C12.4923 25.5971 12.5806 25.3837 12.5806 25.1613V3.35484C12.5806 3.1324 12.4923 2.91907 12.335 2.76178C12.1777 2.60449 11.9644 2.51613 11.7419 2.51613L-nan -nanZM11.3226 24.3226C11.3226 24.4338 11.2784 24.5405 11.1998 24.6191C11.1211 24.6978 11.0144 24.7419 10.9032 24.7419H1.67742C1.5662 24.7419 1.45954 24.6978 1.38089 24.6191C1.30225 24.5405 1.25806 24.4338 1.25806 24.3226V4.19355C1.25806 4.08233 1.30225 3.97566 1.38089 3.89702C1.45954 3.81838 1.5662 3.77419 1.67742 3.77419H10.9032C11.0144 3.77419 11.1211 3.81838 11.1998 3.89702C11.2784 3.97566 11.3226 4.08233 11.3226 4.19355V24.3226Z" fill="black"/>
<path d="M4.68416 13.9088C4.40785 15.2732 5.87102 14.8113 5.87102 13.4193C5.87102 13.308 5.9152 13.2014 5.99384 13.1227C6.07249 13.0441 6.17915 12.9999 6.29037 12.9999C6.40159 12.9999 6.50826 13.0441 6.5869 13.1227C6.66555 13.2014 6.70973 13.308 6.70973 13.4193C6.70973 14.8165 8.17475 15.2812 7.89625 13.912C7.85813 13.7245 7.80474 13.5338 7.73834 13.3409C7.26119 11.9547 5.3177 11.9537 4.84105 13.3401C4.775 13.5322 4.72196 13.7221 4.68416 13.9088Z" fill="black"/>
<path d="M2.0968 19.7096C2.0968 22.0256 3.97432 23.9031 6.29035 23.9031C8.60638 23.9031 10.4839 22.0256 10.4839 19.7096V8.80634C10.4839 6.49031 8.60638 4.61279 6.29035 4.61279C3.97432 4.61279 2.0968 6.49031 2.0968 8.80634V19.7096ZM5.96745 9.79602C6.0068 9.74853 6.05614 9.71031 6.11195 9.68407C6.16776 9.65783 6.22868 9.64423 6.29035 9.64423C6.35202 9.64423 6.41294 9.65783 6.46875 9.68407C6.52456 9.71031 6.5739 9.74853 6.61325 9.79602C6.7097 9.90505 8.80648 12.4841 8.80648 14.5809C8.80648 15.7028 8.19968 16.4874 7.54072 16.9894C7.07183 17.3466 6.7097 17.8621 6.7097 18.4515C6.7097 18.5627 6.66552 18.6694 6.58688 18.748C6.50823 18.8267 6.40157 18.8709 6.29035 18.8709C6.17913 18.8709 6.07247 18.8267 5.99382 18.748C5.91518 18.6694 5.871 18.5627 5.871 18.4515C5.871 17.8642 5.50366 17.3519 5.03652 16.996C4.3789 16.4949 3.77422 15.7008 3.77422 14.5809C3.77422 12.4841 5.871 9.90505 5.96745 9.79602Z" fill="black"/>
<path d="M23.0645 22.6453C23.0645 23.3126 22.7994 23.9526 22.3275 24.4244C21.8556 24.8963 21.2157 25.1614 20.5483 25.1614C19.881 25.1614 19.241 24.8963 18.7692 24.4244C18.2973 23.9526 18.0322 23.3126 18.0322 22.6453V19.2904C18.0322 18.4007 17.6788 17.5474 17.0496 16.9182C16.4205 16.289 15.5671 15.9356 14.6774 15.9356H13.8387C13.6071 15.9356 13.4193 16.1233 13.4193 16.3549C13.4193 16.5865 13.6071 16.7743 13.8387 16.7743H14.6774C15.3447 16.7743 15.9847 17.0394 16.4565 17.5113C16.9284 17.9831 17.1935 18.6231 17.1935 19.2904V22.6453C17.1935 23.535 17.547 24.3883 18.1761 25.0175C18.8053 25.6466 19.6586 26.0001 20.5483 26.0001C21.4381 26.0001 22.2914 25.6466 22.9206 25.0175C23.5497 24.3883 23.9032 23.535 23.9032 22.6453V10.0646C23.9032 9.83301 23.7154 9.64526 23.4838 9.64526C23.2522 9.64526 23.0645 9.83302 23.0645 10.0646V22.6453Z" fill="black"/>
<path d="M25.5807 4.19345C25.3491 4.19345 25.1613 4.0057 25.1613 3.7741V2.51603C25.1613 2.40481 25.1171 2.29815 25.0385 2.21951C24.9599 2.14086 24.8532 2.09668 24.742 2.09668C24.6307 2.09668 24.5241 2.14086 24.4454 2.21951C24.3668 2.29815 24.3226 2.40481 24.3226 2.51603V3.35474C24.3226 3.81795 23.9471 4.19345 23.4839 4.19345C23.0207 4.19345 22.6452 3.81795 22.6452 3.35474V2.51603C22.6452 2.40481 22.601 2.29815 22.5224 2.21951C22.4437 2.14086 22.3371 2.09668 22.2258 2.09668C22.1146 2.09668 22.008 2.14086 21.9293 2.21951C21.8507 2.29815 21.8065 2.40481 21.8065 2.51603V3.7741C21.8065 4.0057 21.6187 4.19345 21.3871 4.19345C21.2759 4.19345 21.1692 4.23764 21.0906 4.31628C21.012 4.39492 20.9678 4.50159 20.9678 4.61281C20.9678 4.72403 21.012 4.83069 21.0906 4.90934C21.2192 5.03796 21.3871 5.17962 21.3871 5.36152V6.29023C21.3871 6.62389 21.5197 6.94388 21.7556 7.17981C21.8412 7.26536 21.9377 7.33731 22.042 7.39428C22.3469 7.56083 22.6452 7.82992 22.6452 8.17732C22.6452 8.52473 22.9268 8.80636 23.2742 8.80636H23.6936C24.041 8.80636 24.3226 8.52473 24.3226 8.17732C24.3226 7.82992 24.6209 7.56083 24.9258 7.39428C25.0301 7.33731 25.1267 7.26536 25.2122 7.17981C25.4481 6.94388 25.5807 6.62389 25.5807 6.29023V5.36152C25.5807 5.17962 25.7486 5.03796 25.8772 4.90934C25.9558 4.83069 26 4.72403 26 4.61281C26 4.50159 25.9558 4.39492 25.8772 4.31628C25.7986 4.23764 25.6919 4.19345 25.5807 4.19345Z" fill="black"/>
</svg>
