<svg width="26" height="26" viewBox="0 0 26 26" fill="none" xmlns="http://www.w3.org/2000/svg">
<path d="M24.4715 13.716C24.9285 14.173 25.1875 14.7926 25.1875 15.4375C25.1875 16.0824 24.9285 16.702 24.4715 17.159C24.0145 17.616 23.3949 17.875 22.75 17.875H3.25C2.60355 17.875 1.98352 17.616 1.52648 17.159C1.06945 16.702 0.8125 16.0824 0.8125 15.4375C0.8125 14.7926 1.06945 14.173 1.52648 13.716C1.98352 13.259 2.60355 13 3.25 13H22.75C23.3949 13 24.0145 13.259 24.4715 13.716ZM24.1363 19.7387C24.2887 19.891 24.375 20.0992 24.375 20.3125V21.125C24.375 21.9426 24.0348 22.816 23.4254 23.4254C22.816 24.0348 21.9426 24.375 21.125 24.375H4.875C4.01324 24.375 3.18652 24.0348 2.57715 23.4254C1.96727 22.816 1.625 21.9426 1.625 21.125V20.3125C1.625 20.0992 1.71082 19.891 1.86316 19.7387C2.01551 19.5863 2.22219 19.5 2.4375 19.5H23.5625C23.7758 19.5 23.984 19.5863 24.1363 19.7387ZM2.55887 11.2125C2.33238 11.1008 2.13434 10.9434 1.97895 10.7453C1.82355 10.5473 1.7159 10.3187 1.66309 10.075C1.61027 9.82617 1.61484 9.57227 1.67527 9.32852C2.79195 4.9268 7.43945 1.625 13 1.625C18.5605 1.625 23.207 4.9268 24.3242 9.32852C24.3852 9.57227 24.3902 9.82617 24.3344 10.075C24.2836 10.3187 24.177 10.5473 24.0195 10.7453C23.8215 10.9434 23.6691 11.1008 23.4406 11.2125C23.2172 11.3191 22.9684 11.375 22.7145 11.375H3.28402C3.03316 11.375 2.78484 11.3191 2.55887 11.2125ZM18.9262 5.92617C18.7738 6.07852 18.6875 6.28672 18.6875 6.5C18.6875 6.6625 18.7332 6.81992 18.8246 6.95195C18.916 7.08398 18.9973 7.19063 19.1902 7.25156C19.3375 7.2668 19.5 7.32773 19.6574 7.29727C19.8148 7.2668 19.9621 7.19063 20.0738 7.07383C20.1906 6.96211 20.2668 6.81484 20.2973 6.65742C20.3277 6.5 20.2668 6.3375 20.2516 6.19023C20.1906 5.99727 20.084 5.91602 19.952 5.82461C19.8199 5.7332 19.6625 5.6418 19.5 5.6418C19.2867 5.6418 19.0785 5.77383 18.9262 5.92617ZM12.4262 4.30066C12.2738 4.45301 12.1875 4.65969 12.1875 4.875C12.1875 5.03547 12.2332 5.19492 12.3246 5.32695C12.416 5.45898 12.4973 5.56563 12.6902 5.62656C12.8375 5.6418 13 5.70273 13.1574 5.67227C13.3148 5.6418 13.4621 5.56563 13.5738 5.44883C13.6906 5.33711 13.7668 5.18984 13.7973 5.03344C13.8277 4.87602 13.7668 4.7125 13.7516 4.56422C13.6906 4.41543 13.584 4.28848 13.452 4.19961C13.3199 4.11023 13.1625 4.0168 13 4.0168C12.7867 4.0168 12.5785 4.14832 12.4262 4.30066ZM5.92617 5.92617C5.77383 6.07852 5.6875 6.28672 5.6875 6.5C5.6875 6.6625 5.7332 6.81992 5.82461 6.95195C5.91602 7.08398 5.99727 7.19063 6.19023 7.25156C6.3375 7.2668 6.5 7.32773 6.65742 7.29727C6.81484 7.2668 6.96211 7.19063 7.07383 7.07383C7.19063 6.96211 7.2668 6.81484 7.29727 6.65742C7.32773 6.5 7.2668 6.3375 7.25156 6.19023C7.19063 5.99727 7.08398 5.91602 6.95195 5.82461C6.81992 5.7332 6.6625 5.6418 6.5 5.6418C6.28672 5.6418 6.07852 5.77383 5.92617 5.92617Z" fill="black"/>
</svg>
