<svg width="1903" height="674" viewBox="0 0 1903 674" fill="none" xmlns="http://www.w3.org/2000/svg">
<path d="M427.576 459.321C428.769 459.321 429.736 458.104 429.736 456.603C429.736 455.101 428.769 453.884 427.576 453.884C426.384 453.884 425.417 455.101 425.417 456.603C425.417 458.104 426.384 459.321 427.576 459.321Z" stroke="white" stroke-width="6" stroke-miterlimit="10"/>
<path d="M413.281 451.52C417.047 451.52 420.1 447.677 420.1 442.935C420.1 438.194 417.047 434.35 413.281 434.35C409.515 434.35 406.462 438.194 406.462 442.935C406.462 447.677 409.515 451.52 413.281 451.52Z" stroke="white" stroke-width="6" stroke-miterlimit="10"/>
<path d="M554.074 410.202C555.812 410.202 557.221 408.429 557.221 406.241C557.221 404.053 555.812 402.279 554.074 402.279C552.336 402.279 550.927 404.053 550.927 406.241C550.927 408.429 552.336 410.202 554.074 410.202Z" stroke="#C8D9D2" stroke-width="6" stroke-miterlimit="10"/>
<path d="M480.219 54.729C482.537 54.729 484.415 52.364 484.415 49.4466C484.415 46.5292 482.537 44.1642 480.219 44.1642C477.902 44.1642 476.024 46.5292 476.024 49.4466C476.024 52.364 477.902 54.729 480.219 54.729Z" stroke="#C8D9D2" stroke-width="6" stroke-miterlimit="10"/>
<path d="M548.83 394.348C554.622 394.348 559.319 388.436 559.319 381.142C559.319 373.849 554.622 367.936 548.83 367.936C543.037 367.936 538.341 373.849 538.341 381.142C538.341 388.436 543.037 394.348 548.83 394.348Z" fill="#C8D9D2"/>
<path d="M104.819 344.94C112.931 344.94 119.506 336.661 119.506 326.449C119.506 316.237 112.931 307.958 104.819 307.958C96.7084 307.958 90.1331 316.237 90.1331 326.449C90.1331 336.661 96.7084 344.94 104.819 344.94Z" fill="#C8D9D2"/>
<path d="M1129.69 416.982C1137.8 416.982 1144.37 408.703 1144.37 398.491C1144.37 388.279 1137.8 380 1129.69 380C1121.58 380 1115 388.279 1115 398.491C1115 408.703 1121.58 416.982 1129.69 416.982Z" fill="#C8D9D2"/>
<path d="M41.8035 338.052C43.6446 338.052 45.1372 336.173 45.1372 333.855C45.1372 331.536 43.6446 329.657 41.8035 329.657C39.9624 329.657 38.4698 331.536 38.4698 333.855C38.4698 336.173 39.9624 338.052 41.8035 338.052Z" stroke="#C8D9D2" stroke-width="6" stroke-miterlimit="10"/>
<path d="M70.6958 431.871C72.537 431.871 74.0295 429.992 74.0295 427.674C74.0295 425.356 72.537 423.477 70.6958 423.477C68.8547 423.477 67.3622 425.356 67.3622 427.674C67.3622 429.992 68.8547 431.871 70.6958 431.871Z" stroke="white" stroke-width="6" stroke-miterlimit="10"/>
<path d="M469.246 480.91C470.868 480.91 472.183 479.255 472.183 477.212C472.183 475.17 470.868 473.514 469.246 473.514C467.624 473.514 466.309 475.17 466.309 477.212C466.309 479.255 467.624 480.91 469.246 480.91Z" stroke="white" stroke-width="6" stroke-miterlimit="10"/>
<path d="M488.62 396.217C490.242 396.217 491.557 394.562 491.557 392.519C491.557 390.477 490.242 388.821 488.62 388.821C486.998 388.821 485.683 390.477 485.683 392.519C485.683 394.562 486.998 396.217 488.62 396.217Z" stroke="white" stroke-width="6" stroke-miterlimit="10"/>
<path d="M224.081 171.827C225.274 171.827 226.241 170.61 226.241 169.109C226.241 167.607 225.274 166.39 224.081 166.39C222.889 166.39 221.922 167.607 221.922 169.109C221.922 170.61 222.889 171.827 224.081 171.827Z" stroke="white" stroke-width="6" stroke-miterlimit="10"/>
<path d="M232.364 159.834C236.13 159.834 239.183 155.99 239.183 151.249C239.183 146.507 236.13 142.663 232.364 142.663C228.598 142.663 225.545 146.507 225.545 151.249C225.545 155.99 228.598 159.834 232.364 159.834Z" stroke="white" stroke-width="6" stroke-miterlimit="10"/>
<path d="M237.569 461.652C237.569 471.569 225.162 479.61 209.857 479.61C194.551 479.61 182.142 471.569 182.142 461.652C182.142 456.449 185.555 451.765 191.01 448.483C193.067 447.243 193.237 444.333 191.354 442.834C188.176 440.305 186.282 437.113 186.282 433.639C186.282 429.637 188.813 425.986 192.925 423.314C194.781 422.109 195.051 419.477 193.445 417.956C191.375 415.993 190.169 413.639 190.169 411.108C190.169 407.672 192.394 404.56 195.986 402.314C197.902 401.116 198.173 398.458 196.546 396.9C194.92 395.341 193.961 393.449 193.961 391.429C193.961 388.453 196.017 385.779 199.299 383.948C201.252 382.855 201.677 380.228 200.149 378.597C198.571 376.912 197.633 374.802 197.633 372.514C197.633 366.987 203.105 362.507 209.859 362.507C216.612 362.507 222.081 366.98 222.081 372.514C222.081 374.802 221.146 376.909 219.566 378.595C218.038 380.228 218.465 382.853 220.417 383.948C223.691 385.779 225.753 388.453 225.753 391.429C225.753 393.449 224.803 395.327 223.167 396.9C221.531 398.472 221.812 401.123 223.728 402.314C227.321 404.557 229.545 407.669 229.545 411.108C229.545 413.639 228.34 415.993 226.271 417.956C224.663 419.477 224.932 422.109 226.791 423.314C230.904 425.986 233.432 429.625 233.432 433.639C233.432 437.113 231.536 440.305 228.361 442.834C226.478 444.333 226.641 447.243 228.705 448.483C234.155 451.762 237.569 456.444 237.569 461.652Z" fill="#907B00"/>
<path d="M474.575 551.971C474.575 563.642 462.166 573.105 446.86 573.105C431.555 573.105 419.146 563.642 419.146 551.971C419.146 545.85 422.56 540.333 428.014 536.472C430.071 535.012 430.243 531.587 428.36 529.824C425.181 526.849 423.287 523.089 423.287 518.996C423.287 514.274 425.819 509.987 429.93 506.844C431.787 505.432 432.056 502.329 430.45 500.538C428.38 498.229 427.174 495.458 427.174 492.478C427.174 488.433 429.399 484.771 432.991 482.12C434.907 480.708 435.177 477.579 433.552 475.738C431.927 473.897 430.966 471.678 430.966 469.3C430.966 465.797 433.023 462.655 436.304 460.496C438.256 459.211 438.682 456.12 437.155 454.199C435.577 452.214 434.638 449.726 434.638 447.04C434.638 440.536 440.111 435.27 446.862 435.27C453.614 435.27 459.086 440.543 459.086 447.04C459.086 449.733 458.151 452.219 456.572 454.197C455.042 456.117 455.468 459.208 457.422 460.496C460.696 462.652 462.758 465.797 462.758 469.3C462.758 471.675 461.809 473.888 460.173 475.738C458.537 477.588 458.817 480.71 460.734 482.12C464.325 484.761 466.55 488.422 466.55 492.478C466.55 495.458 465.344 498.229 463.274 500.538C461.668 502.329 461.938 505.425 463.794 506.844C467.907 509.987 470.437 514.274 470.437 518.996C470.437 523.082 468.541 526.842 465.365 529.824C463.482 531.587 463.646 535.003 465.711 536.472C471.161 540.333 474.575 545.846 474.575 551.971Z" fill="#907B00"/>
<path d="M1413.43 514.144C1413.43 524.062 1401.02 532.103 1385.71 532.103C1370.41 532.103 1358 524.062 1358 514.144C1358 508.942 1361.41 504.257 1366.87 500.976C1368.92 499.735 1369.09 496.826 1367.21 495.326C1364.03 492.798 1362.14 489.606 1362.14 486.131C1362.14 482.13 1364.67 478.479 1368.78 475.807C1370.64 474.601 1370.91 471.97 1369.3 470.449C1367.23 468.486 1366.03 466.132 1366.03 463.601C1366.03 460.164 1368.25 457.052 1371.84 454.806C1373.76 453.608 1374.03 450.951 1372.4 449.392C1370.78 447.834 1369.82 445.941 1369.82 443.922C1369.82 440.946 1371.87 438.272 1375.16 436.44C1377.11 435.348 1377.53 432.721 1376.01 431.09C1374.43 429.404 1373.49 427.295 1373.49 425.007C1373.49 419.48 1378.96 415 1385.72 415C1392.47 415 1397.94 419.473 1397.94 425.007C1397.94 427.295 1397 429.402 1395.42 431.087C1393.9 432.721 1394.32 435.346 1396.27 436.44C1399.55 438.272 1401.61 440.946 1401.61 443.922C1401.61 445.941 1400.66 447.82 1399.02 449.392C1397.39 450.965 1397.67 453.615 1399.59 454.806C1403.18 457.05 1405.4 460.162 1405.4 463.601C1405.4 466.132 1404.2 468.486 1402.13 470.449C1400.52 471.97 1400.79 474.601 1402.65 475.807C1406.76 478.479 1409.29 482.118 1409.29 486.131C1409.29 489.606 1407.39 492.798 1404.22 495.326C1402.34 496.826 1402.5 499.735 1404.56 500.976C1410.01 504.255 1413.43 508.937 1413.43 514.144Z" fill="#907B00"/>
<path d="M1650.43 604.463C1650.43 616.135 1638.02 625.598 1622.72 625.598C1607.41 625.598 1595 616.135 1595 604.463C1595 598.343 1598.42 592.825 1603.87 588.965C1605.93 587.505 1606.1 584.08 1604.22 582.317C1601.04 579.341 1599.15 575.582 1599.15 571.488C1599.15 566.766 1601.68 562.48 1605.79 559.337C1607.64 557.925 1607.91 554.822 1606.31 553.03C1604.24 550.721 1603.03 547.951 1603.03 544.97C1603.03 540.926 1605.26 537.263 1608.85 534.613C1610.77 533.2 1611.03 530.072 1609.41 528.231C1607.78 526.39 1606.82 524.17 1606.82 521.793C1606.82 518.29 1608.88 515.147 1612.16 512.989C1614.11 511.703 1614.54 508.612 1613.01 506.692C1611.43 504.707 1610.5 502.219 1610.5 499.533C1610.5 493.029 1615.97 487.763 1622.72 487.763C1629.47 487.763 1634.94 493.036 1634.94 499.533C1634.94 502.226 1634.01 504.712 1632.43 506.689C1630.9 508.61 1631.33 511.701 1633.28 512.989C1636.55 515.145 1638.62 518.29 1638.62 521.793C1638.62 524.168 1637.67 526.381 1636.03 528.231C1634.39 530.081 1634.67 533.203 1636.59 534.613C1640.18 537.254 1642.41 540.914 1642.41 544.97C1642.41 547.951 1641.2 550.721 1639.13 553.03C1637.53 554.822 1637.8 557.917 1639.65 559.337C1643.77 562.48 1646.29 566.766 1646.29 571.488C1646.29 575.575 1644.4 579.334 1641.22 582.317C1639.34 584.08 1639.5 587.496 1641.57 588.965C1647.02 592.825 1650.43 598.338 1650.43 604.463Z" fill="#907B00"/>
<path d="M560.501 446C522.116 446 491 479.578 491 521C491 562.422 522.116 596 560.501 596C598.886 596 630 562.42 630 521C630 479.58 598.886 446 560.501 446ZM560.158 548.565C545.914 548.565 534.364 536.103 534.364 520.738C534.364 505.373 545.914 492.911 560.158 492.911C574.403 492.911 585.95 505.371 585.95 520.738C585.95 536.105 574.403 548.565 560.158 548.565Z" fill="#423C52"/>
<path d="M570.534 446.832C534.635 446.832 505.532 479.514 505.532 519.83C505.532 560.145 534.635 592.832 570.534 592.832C606.433 592.832 635.532 560.147 635.532 519.83C635.532 479.512 606.433 446.832 570.534 446.832ZM570.214 546.661C556.89 546.661 546.09 534.532 546.09 519.577C546.09 504.622 556.89 492.492 570.214 492.492C583.537 492.492 594.335 504.622 594.335 519.577C594.335 534.532 583.535 546.661 570.214 546.661Z" fill="white" stroke="#423C52" stroke-width="5" stroke-miterlimit="10" stroke-linecap="round"/>
<path d="M160.512 545.031C195.804 545.031 224.414 535.704 224.414 524.198C224.414 512.692 195.804 503.365 160.512 503.365C125.22 503.365 96.6097 512.692 96.6097 524.198C96.6097 535.704 125.22 545.031 160.512 545.031Z" fill="white" stroke="#423C52" stroke-width="5" stroke-miterlimit="10" stroke-linecap="round"/>
<path d="M160.755 521.696C174.002 521.696 184.741 519.213 184.741 516.15C184.741 513.087 174.002 510.604 160.755 510.604C147.508 510.604 136.769 513.087 136.769 516.15C136.769 519.213 147.508 521.696 160.755 521.696Z" fill="#423C52"/>
<path d="M226.471 538.864C226.471 548.751 224.601 557.011 222.092 559.108C214.613 567.905 189.872 574.362 160.51 574.362C131.148 574.362 106.399 567.903 98.9224 559.104C96.4171 556.985 94.553 548.729 94.553 538.859C94.553 528.989 96.4227 520.733 98.9224 518.614C97.4136 520.389 96.6078 522.261 96.6078 524.191C96.6078 528.115 99.9339 531.783 105.713 534.916C108.767 536.521 111.912 537.838 115.121 538.857C126.7 542.668 142.759 545.024 160.51 545.024C178.261 545.024 194.321 542.67 205.9 538.857C209.111 537.839 212.257 536.521 215.312 534.914C221.09 531.783 224.412 528.111 224.412 524.191C224.412 522.256 223.605 520.387 222.092 518.61C224.599 520.71 226.471 528.984 226.471 538.864Z" fill="#423C52"/>
<path d="M75.7619 514.611C106.903 493.702 127.81 466.512 122.459 453.879C117.109 441.247 87.5265 447.956 56.3856 468.864C25.2447 489.773 4.33753 516.963 9.68815 529.596C15.0388 542.229 44.621 535.52 75.7619 514.611Z" fill="white" stroke="#423C52" stroke-width="5" stroke-miterlimit="10" stroke-linecap="round"/>
<path d="M65.1258 488.851C76.8148 481.003 85.1357 471.914 83.711 468.55C82.2864 465.187 71.6557 468.822 59.9667 476.671C48.2777 484.519 39.9568 493.608 41.3814 496.971C42.806 500.335 53.4367 496.699 65.1258 488.851Z" fill="#423C52"/>
<path d="M131.102 468.754C135.697 479.601 137.891 489.787 136.655 493.579C134.144 507.671 115.318 529.415 89.4114 546.809C63.505 564.202 38.6606 571.778 27.9715 566.547C24.78 565.714 19.2906 557.748 14.6967 546.912C10.1029 536.077 7.91726 525.902 9.1419 522.101C8.63896 524.947 8.79788 527.473 9.70281 529.594C11.5276 533.899 16.1682 535.949 22.7252 535.973C25.7279 535.973 29.1364 535.559 32.8589 534.725C44.8474 532.049 60.1152 525.123 75.7776 514.606C91.44 504.088 104.515 491.986 112.958 480.943C115.576 477.513 117.761 474.182 119.429 471.037C123.071 464.175 124.29 458.177 122.473 453.872C121.574 451.753 119.992 450.174 117.831 449.119C121.011 449.938 126.508 457.907 131.102 468.754Z" fill="#423C52"/>
<path d="M385.249 536.853C416.729 512.603 437.156 482.464 430.874 469.537C424.592 456.61 393.979 465.789 362.499 490.039C331.019 514.289 310.592 544.428 316.874 557.355C323.156 570.283 353.769 561.103 385.249 536.853Z" fill="#C8D9D2" stroke="#423C52" stroke-width="5" stroke-miterlimit="10" stroke-linecap="round"/>
<path d="M372.727 510.47C384.544 501.367 392.766 491.198 391.094 487.756C389.421 484.313 378.486 488.902 366.67 498.004C354.854 507.106 346.631 517.276 348.304 520.718C349.976 524.16 360.911 519.572 372.727 510.47Z" fill="#423C52"/>
<path d="M440.72 484.585C446.114 495.684 448.958 506.258 447.868 510.34C445.998 525.366 427.457 549.617 401.266 569.793C375.076 589.97 349.476 599.72 338 594.981C334.614 594.329 328.438 586.328 323.042 575.243C317.646 564.158 314.815 553.586 315.889 549.499C315.515 552.529 315.814 555.182 316.868 557.352C319.011 561.761 323.973 563.597 330.846 563.145C333.991 562.938 337.536 562.251 341.388 561.109C353.797 557.432 369.409 549.047 385.243 536.849C401.077 524.65 414.115 510.966 422.362 498.73C424.925 494.928 427.027 491.265 428.603 487.831C432.047 480.343 433.008 473.942 430.867 469.531C429.811 467.358 428.063 465.811 425.75 464.856C429.141 465.482 435.326 473.486 440.72 484.585Z" fill="#423C52"/>
<path d="M232.23 510.711C239.456 500.511 224.93 469.352 199.784 441.115C174.639 412.878 148.397 398.256 141.171 408.456C133.945 418.656 148.472 449.816 173.617 478.053C198.763 506.29 225.005 520.911 232.23 510.711Z" fill="#C8D9D2" stroke="#423C52" stroke-width="5" stroke-miterlimit="10" stroke-linecap="round"/>
<path d="M209.02 471.835C210.944 469.12 204.852 458.326 195.414 447.727C185.975 437.128 176.764 430.737 174.84 433.453C172.917 436.169 179.009 446.962 188.447 457.561C197.886 468.16 207.097 474.551 209.02 471.835Z" fill="#423C52"/>
<path d="M224.697 525.58C218.47 534.377 211.921 540.236 208.804 540.09C197.908 541.907 176.139 527.767 155.131 504.161C134.123 480.555 120.486 454.903 120.682 441.054C120.22 437.161 124.092 428.302 130.311 419.515C136.529 410.727 143.072 404.868 146.203 405.002C144.004 405.369 142.251 406.389 141.034 408.107C138.56 411.603 138.627 417.542 140.789 424.981C141.78 428.387 143.208 432.109 145.037 436.045C150.919 448.756 160.929 463.761 173.624 478.033C186.319 492.306 199.289 503.125 209.978 509.041C213.297 510.881 216.397 512.247 219.198 513.094C225.304 514.951 229.995 514.356 232.473 510.865C233.692 509.142 234.292 506.828 234.331 504.038C234.795 507.913 230.923 516.781 224.697 525.58Z" fill="#423C52"/>
<path d="M544.361 555.844C546.243 543.124 518.356 525.916 482.075 517.409C445.794 508.901 414.857 512.316 412.975 525.036C411.094 537.755 438.98 554.964 475.261 563.471C511.543 571.979 542.48 568.564 544.361 555.844Z" fill="white" stroke="#423C52" stroke-width="5" stroke-miterlimit="10" stroke-linecap="round"/>
<path d="M504.893 537.382C505.394 533.995 494.76 528.661 481.142 525.467C467.524 522.274 456.078 522.431 455.577 525.818C455.076 529.205 465.709 534.539 479.328 537.733C492.946 540.926 504.392 540.769 504.893 537.382Z" fill="#423C52"/>
<path d="M544.352 572.522C542.731 583.444 539.44 592.133 536.499 593.849C527.337 601.77 500.732 602.945 470.418 595.869C440.105 588.792 415.614 575.688 409.339 564.158C407.096 561.22 406.535 551.639 408.152 540.728C409.769 529.817 413.055 521.136 415.986 519.405C414.137 521.004 412.995 522.878 412.682 525.013C412.037 529.349 414.868 534.193 420.322 539.061C422.82 541.286 425.867 543.513 429.386 545.686C440.715 552.689 456.908 559.167 475.235 563.444C493.561 567.722 510.527 568.986 523.099 567.564C527.008 567.126 530.493 566.425 533.464 565.474C539.943 563.404 543.976 560.149 544.619 555.822C544.937 553.685 544.411 551.422 543.14 549.094C545.399 552.018 545.974 561.601 544.352 572.522Z" fill="#423C52"/>
<path d="M332.323 328.781C328.356 333.515 255.743 459.976 222.827 486.929C189.911 513.883 290.209 475.084 290.209 475.084C290.209 475.084 360.509 394.513 369.285 352.971C378.061 311.43 332.323 328.781 332.323 328.781Z" fill="#907B00" stroke="white" stroke-width="5" stroke-miterlimit="10"/>
<path d="M264.081 467.979C223.634 467.979 190.846 509.259 190.846 560.184C190.846 611.108 223.634 652.391 264.081 652.391C304.528 652.391 337.315 611.108 337.315 560.184C337.315 509.259 304.528 467.979 264.081 467.979ZM263.721 594.072C258.345 594.071 253.091 592.063 248.622 588.302C244.153 584.54 240.671 579.195 238.615 572.942C236.559 566.689 236.022 559.808 237.072 553.171C238.122 546.534 240.711 540.437 244.513 535.653C248.315 530.868 253.158 527.611 258.431 526.292C263.703 524.974 269.168 525.653 274.133 528.244C279.099 530.836 283.343 535.223 286.328 540.851C289.313 546.48 290.905 553.096 290.904 559.864C290.904 564.358 290.2 568.808 288.834 572.96C287.468 577.112 285.465 580.884 282.941 584.061C280.417 587.239 277.42 589.759 274.122 591.479C270.825 593.198 267.29 594.082 263.721 594.082V594.072Z" fill="#423C52" stroke="white" stroke-width="5" stroke-miterlimit="10"/>
<path d="M681.108 111.058C662.634 108.975 644.032 102.073 637.703 116.472C629.071 136.103 647.824 224.129 545.105 291.376C482.439 332.404 454.534 346.717 437.086 359.803C405.763 383.291 374.804 438.731 360.933 455.661C349.278 469.884 314.774 514.478 279.041 532.651C270.022 514.617 258.474 508.035 256.563 507.037C277.186 489.641 308.41 459.884 322.924 428.688C336.898 398.654 338.961 365.761 362.99 352.967L332.327 328.777C332.327 328.777 458.135 190.332 477.662 142.809C495.966 98.257 493.741 53.26 498.239 37.0408C497.776 46.2356 509.983 58.9991 565.481 47.5727C557.441 50.9436 554.13 54.9454 550.982 62.0405C538.943 89.1588 556.176 184.727 501.831 219.583C502.224 219.39 552.487 194.461 573.666 155.083C586.083 131.997 593.859 103.455 600.253 90.3334L600.485 89.8626C637.776 69.6628 655.456 106.939 681.108 111.058Z" fill="#B59B00"/>
<path d="M629.604 84.7732C622.024 113.899 611.701 210.092 547.201 254.135C491.858 291.922 461.62 306.962 443.587 319.403" stroke="white" stroke-width="5" stroke-miterlimit="10" stroke-linecap="round"/>
<path d="M625.077 83.2666C616.967 116.381 604.595 208.835 543.635 249.117C490.66 284.123 461.049 300.239 442.784 312.487" stroke="white" stroke-width="5" stroke-miterlimit="10" stroke-linecap="round"/>
<path d="M681.132 111.063H681.106C662.632 108.98 644.032 102.078 637.701 116.477C629.071 136.107 647.828 224.117 545.103 291.381C484.445 331.105 454.534 346.721 437.086 359.807C405.763 383.296 374.804 438.735 360.933 455.665C349.341 469.804 314.526 513.883 278.226 532.322" stroke="white" stroke-width="5" stroke-miterlimit="10"/>
<path d="M566.87 47.2784C557.8 50.3952 554.551 53.9027 550.978 62.0358C539.044 89.2271 556.172 186.3 501.827 219.579C502.218 219.386 552.483 194.456 573.661 155.078C586.079 131.993 593.853 103.45 600.25 90.3288" stroke="white" stroke-width="5" stroke-miterlimit="10"/>
<path d="M332.323 328.781C332.323 328.781 457.639 190.012 477.658 142.814C498.905 92.7086 491.604 38.2954 500.93 32.7847" stroke="white" stroke-width="5" stroke-miterlimit="10"/>
<path d="M256.315 508.104C276.838 490.305 308.309 458.669 322.926 428.693C335.713 402.469 338.424 373.435 355.479 358.214" stroke="white" stroke-width="5" stroke-miterlimit="10"/>
<path d="M501.824 219.581C501.824 219.581 491.523 224.126 474.9 228.672" stroke="white" stroke-width="5" stroke-miterlimit="10" stroke-linecap="round"/>
<path d="M678.077 70.3854C698.379 70.3864 718.191 62.5319 734.83 47.8856L735 47.735C734.83 47.8856 731.135 100.78 700.631 110.149C694.564 112.014 687.848 111.797 681.132 111.053H681.106C655.26 106.903 637.505 69.0836 599.62 90.3192C605.554 78.1348 610.929 71.0468 617.097 70.5454L678.077 70.3854Z" fill="#423C52"/>
<path d="M648.355 28.1049C651.646 29.5879 651.1 35.6377 647.628 36.1603C627.016 39.2088 589.106 44.164 566.868 47.2784C488.698 63.7283 494.719 32.9636 502.611 29.6067L569.933 2.04588C576.907 -0.809958 584.437 -0.672526 591.342 2.43665L648.355 28.1049Z" fill="#423C52"/>
<path d="M280.696 356.145C282.319 356.145 283.635 354.488 283.635 352.444C283.635 350.4 282.319 348.744 280.696 348.744C279.072 348.744 277.756 350.4 277.756 352.444C277.756 354.488 279.072 356.145 280.696 356.145Z" stroke="white" stroke-width="6" stroke-miterlimit="10"/>
<path d="M1104.94 450.401C1106.56 450.401 1107.88 448.744 1107.88 446.701C1107.88 444.657 1106.56 443 1104.94 443C1103.32 443 1102 444.657 1102 446.701C1102 448.744 1103.32 450.401 1104.94 450.401Z" stroke="white" stroke-width="6" stroke-miterlimit="10"/>
<path d="M304.729 359.744C305.887 359.744 306.826 358.561 306.826 357.103C306.826 355.644 305.887 354.461 304.729 354.461C303.57 354.461 302.631 355.644 302.631 357.103C302.631 358.561 303.57 359.744 304.729 359.744Z" stroke="white" stroke-width="6" stroke-miterlimit="10"/>
<path d="M274.262 343.2C277.158 343.2 279.506 340.244 279.506 336.597C279.506 332.95 277.158 329.994 274.262 329.994C271.365 329.994 269.017 332.95 269.017 336.597C269.017 340.244 271.365 343.2 274.262 343.2Z" stroke="white" stroke-width="6" stroke-miterlimit="10"/>
<path d="M1108.24 431.206C1111.14 431.206 1113.49 428.25 1113.49 424.603C1113.49 420.956 1111.14 418 1108.24 418C1105.35 418 1103 420.956 1103 424.603C1103 428.25 1105.35 431.206 1108.24 431.206Z" stroke="white" stroke-width="6" stroke-miterlimit="10"/>
<path d="M269.017 314.601C275.158 314.601 280.137 308.333 280.137 300.602C280.137 292.87 275.158 286.602 269.017 286.602C262.877 286.602 257.898 292.87 257.898 300.602C257.898 308.333 262.877 314.601 269.017 314.601Z" stroke="white" stroke-width="6" stroke-miterlimit="10"/>
<path d="M279.043 532.656C267.077 538.739 254.791 541.601 243.358 539.633C243.262 539.616 243.171 539.566 243.096 539.488C243.021 539.41 242.965 539.307 242.934 539.191C242.903 539.075 242.899 538.951 242.921 538.832C242.943 538.713 242.992 538.604 243.061 538.517C245.304 535.728 251.921 527.908 250.781 524.683C249.395 520.768 243.878 529.445 236.685 522.727C236.685 522.727 244.94 516.842 256.565 507.042C258.482 508.04 270.023 514.622 279.043 532.656Z" fill="#A0505A"/>
<path d="M405.86 226.427L337.855 303.007C331.368 310.312 330.813 322.854 336.615 331.021L339.179 334.631C344.981 342.798 354.943 343.497 361.429 336.192L429.434 259.611C435.92 252.307 436.476 239.764 430.674 231.597L428.11 227.988C422.308 219.821 412.346 219.122 405.86 226.427Z" fill="#423C52"/>
<path d="M405.86 226.162L337.856 302.743C331.369 310.047 330.814 322.59 336.616 330.757L339.18 334.366C344.981 342.533 354.943 343.232 361.43 335.927L429.434 259.347C435.921 252.042 436.476 239.5 430.674 231.333L428.11 227.723C422.309 219.556 412.347 218.857 405.86 226.162Z" stroke="white" stroke-width="5" stroke-miterlimit="10"/>
<path d="M429.728 250.554C434.15 245.574 433.979 236.249 429.345 229.726C424.712 223.204 417.37 221.953 412.948 226.934C408.525 231.914 408.697 241.239 413.33 247.761C417.964 254.284 425.305 255.534 429.728 250.554Z" stroke="white" stroke-width="5" stroke-miterlimit="10"/>
<path d="M427.804 261.223L420.23 269.771C414.434 270.414 407.98 267.181 403.25 260.534C397.871 252.973 396.225 243.114 398.452 235.405L404.785 228.262C400.335 235.365 401.186 246.826 407.113 255.152C412.946 263.347 421.715 265.724 427.804 261.223Z" fill="#FFDB00"/>
<path d="M424.276 254.953L347.967 317.92C340.688 323.926 338.654 336.224 343.425 345.388L345.533 349.438C350.303 358.603 360.071 361.163 367.35 355.157L443.659 292.19C450.938 286.184 452.971 273.886 448.201 264.722L446.093 260.672C441.322 251.507 431.555 248.947 424.276 254.953Z" fill="#423C52"/>
<path d="M424.276 254.953L347.967 317.92C340.688 323.926 338.654 336.224 343.425 345.388L345.533 349.438C350.303 358.603 360.071 361.163 367.35 355.157L443.659 292.19C450.938 286.184 452.971 273.886 448.201 264.722L446.093 260.672C441.322 251.507 431.555 248.947 424.276 254.953Z" stroke="white" stroke-width="5" stroke-miterlimit="10"/>
<path d="M445.165 284.344C450.284 280.12 451.154 270.395 447.108 262.622C443.062 254.85 435.633 251.973 430.514 256.197C425.395 260.421 424.525 270.146 428.571 277.918C432.617 285.691 440.046 288.568 445.165 284.344Z" stroke="white" stroke-width="5" stroke-miterlimit="10"/>
<path d="M436.001 297.68L428.291 304.057C422.704 303.389 416.998 299.062 413.262 291.885C408.885 283.474 408.44 273.507 411.527 266.376L418.572 260.567C413.376 266.687 412.858 278.074 417.68 287.337C422.132 295.901 429.717 299.902 436.001 297.68Z" fill="#FFDB00"/>
<path d="M441.227 357.602C438.568 359.367 436.085 361.451 433.935 363.251C427.204 368.875 420.831 375.358 414.274 382.823C437.708 339.721 429.182 305.02 429.182 305.02L438.905 297C448.837 324.328 441.227 357.602 441.227 357.602Z" fill="#423C52"/>
<path d="M341.846 345.57L340.103 346.204L340.258 346.486L340.757 351.258C340.995 353.536 340.651 355.851 339.775 357.867C338.899 359.883 337.536 361.496 335.883 362.472L327.671 367.317C325.448 368.628 323.22 367.107 321.767 364.617C316.736 355.996 313.466 340.813 316.732 333.513L324.5 332.042C326.286 331.704 328.11 331.902 329.823 332.62C331.537 333.337 333.092 334.554 334.361 336.171L339.277 334.382C340.255 334.024 341.306 334.171 342.199 334.788C343.092 335.406 343.754 336.446 344.039 337.677L344.471 339.561C344.612 340.172 344.657 340.813 344.602 341.446C344.547 342.08 344.393 342.693 344.149 343.251C343.905 343.81 343.576 344.302 343.181 344.7C342.786 345.098 342.332 345.394 341.846 345.57Z" fill="#A0505A"/>
<path d="M316.732 333.513C314.776 338.878 309.926 343.61 304.73 343.61C297.73 343.61 292.056 336.809 292.056 328.421C292.056 320.034 297.73 313.233 304.73 313.233H305.013C307.64 313.132 310.226 314.077 312.402 315.936C320.28 322.762 325.205 318.487 332.781 318.904C338.158 319.196 339.916 330.554 340.342 334.184C339.979 334.185 339.617 334.25 339.267 334.377L334.352 336.166C333.082 334.549 331.528 333.333 329.814 332.615C328.101 331.898 326.277 331.7 324.491 332.037L316.732 333.513Z" fill="#EB7500"/>
<path d="M291.28 315.874C293.799 315.874 295.842 313.427 295.842 310.408C295.842 307.39 293.799 304.942 291.28 304.942C288.76 304.942 286.718 307.39 286.718 310.408C286.718 313.427 288.76 315.874 291.28 315.874Z" fill="#EB7500"/>
<path d="M331.97 338.037L312.351 344.158C312.114 344.232 311.891 344.365 311.696 344.548C311.5 344.732 311.335 344.963 311.211 345.228C311.087 345.493 311.007 345.786 310.974 346.09C310.941 346.395 310.957 346.705 311.02 347.002L311.601 349.725C312.06 351.872 313.171 353.706 314.695 354.829C316.219 355.953 318.032 356.276 319.744 355.728L328.139 353.04C329.003 352.764 329.815 352.274 330.527 351.599C331.24 350.924 331.838 350.078 332.288 349.109C332.738 348.14 333.03 347.068 333.147 345.955C333.265 344.842 333.205 343.711 332.972 342.628L331.97 338.037Z" stroke="#423C52" stroke-width="5" stroke-miterlimit="10" stroke-linecap="round"/>
<path d="M338.467 341.879C338.287 341.093 338.362 340.249 338.675 339.533C338.989 338.817 339.516 338.286 340.14 338.059" stroke="#423C52" stroke-width="5" stroke-miterlimit="10" stroke-linecap="round"/>
<path d="M315.875 343.188C315.875 343.188 321.26 343.188 322.5 354.723" stroke="#423C52" stroke-width="5" stroke-miterlimit="10" stroke-linecap="round"/>
<path d="M318.484 350.625C318.882 350.465 319.013 349.577 318.775 348.642C318.538 347.707 318.022 347.079 317.624 347.24C317.226 347.4 317.095 348.288 317.333 349.223C317.57 350.158 318.086 350.786 318.484 350.625Z" fill="#423C52"/>
<path d="M326.707 348.683C327.242 348.488 327.471 347.443 327.22 346.347C326.968 345.252 326.331 344.522 325.797 344.716C325.262 344.911 325.032 345.956 325.284 347.052C325.535 348.147 326.172 348.877 326.707 348.683Z" fill="#423C52"/>
<path d="M324.25 360.314C324.785 360.12 325.055 359.251 324.854 358.375C324.653 357.498 324.056 356.945 323.521 357.139C322.987 357.334 322.716 358.202 322.918 359.079C323.119 359.956 323.715 360.509 324.25 360.314Z" stroke="#423C52" stroke-width="5" stroke-miterlimit="10"/>
<path d="M323.811 358.555C320.363 360.106 318.514 364.021 319.617 368.416C322.279 379.009 329.564 405.111 342.535 399.708C359.987 392.441 347.63 368.689 343.895 356.745C343.007 353.904 344.16 350.966 346.445 349.944" stroke="white" stroke-width="5" stroke-miterlimit="10" stroke-linecap="round"/>
<path d="M181.568 170.215C182.364 170.215 183.01 169.402 183.01 168.4C183.01 167.397 182.364 166.585 181.568 166.585C180.772 166.585 180.127 167.397 180.127 168.4C180.127 169.402 180.772 170.215 181.568 170.215Z" fill="#EB7500"/>
<path d="M181.568 179.741C182.364 179.741 183.01 178.929 183.01 177.927C183.01 176.924 182.364 176.112 181.568 176.112C180.772 176.112 180.127 176.924 180.127 177.927C180.127 178.929 180.772 179.741 181.568 179.741Z" fill="#EB7500"/>
<path d="M181.568 189.268C182.364 189.268 183.01 188.456 183.01 187.453C183.01 186.451 182.364 185.638 181.568 185.638C180.772 185.638 180.127 186.451 180.127 187.453C180.127 188.456 180.772 189.268 181.568 189.268Z" fill="#EB7500"/>
<path d="M174.226 167.164C175.022 167.164 175.668 166.351 175.668 165.349C175.668 164.347 175.022 163.534 174.226 163.534C173.43 163.534 172.785 164.347 172.785 165.349C172.785 166.351 173.43 167.164 174.226 167.164Z" fill="#EB7500"/>
<path d="M174.226 174.977C175.022 174.977 175.668 174.164 175.668 173.162C175.668 172.159 175.022 171.347 174.226 171.347C173.43 171.347 172.785 172.159 172.785 173.162C172.785 174.164 173.43 174.977 174.226 174.977Z" fill="#EB7500"/>
<path d="M174.226 184.504C175.022 184.504 175.668 183.691 175.668 182.689C175.668 181.686 175.022 180.874 174.226 180.874C173.43 180.874 172.785 181.686 172.785 182.689C172.785 183.691 173.43 184.504 174.226 184.504Z" fill="#EB7500"/>
<path d="M174.226 193.745C175.022 193.745 175.668 192.933 175.668 191.93C175.668 190.928 175.022 190.115 174.226 190.115C173.43 190.115 172.785 190.928 172.785 191.93C172.785 192.933 173.43 193.745 174.226 193.745Z" fill="#EB7500"/>
<path d="M188.909 174.977C189.705 174.977 190.35 174.164 190.35 173.162C190.35 172.159 189.705 171.347 188.909 171.347C188.113 171.347 187.467 172.159 187.467 173.162C187.467 174.164 188.113 174.977 188.909 174.977Z" fill="#EB7500"/>
<path d="M188.909 184.504C189.705 184.504 190.35 183.691 190.35 182.689C190.35 181.686 189.705 180.874 188.909 180.874C188.113 180.874 187.467 181.686 187.467 182.689C187.467 183.691 188.113 184.504 188.909 184.504Z" fill="#EB7500"/>
<path d="M166.884 170.215C167.68 170.215 168.325 169.402 168.325 168.4C168.325 167.397 167.68 166.585 166.884 166.585C166.088 166.585 165.442 167.397 165.442 168.4C165.442 169.402 166.088 170.215 166.884 170.215Z" fill="#EB7500"/>
<path d="M166.884 179.741C167.68 179.741 168.325 178.929 168.325 177.927C168.325 176.924 167.68 176.112 166.884 176.112C166.088 176.112 165.442 176.924 165.442 177.927C165.442 178.929 166.088 179.741 166.884 179.741Z" fill="#EB7500"/>
<path d="M166.884 189.268C167.68 189.268 168.325 188.456 168.325 187.453C168.325 186.451 167.68 185.638 166.884 185.638C166.088 185.638 165.442 186.451 165.442 187.453C165.442 188.456 166.088 189.268 166.884 189.268Z" fill="#EB7500"/>
<path d="M159.541 167.449C160.338 167.449 160.983 166.636 160.983 165.634C160.983 164.631 160.338 163.819 159.541 163.819C158.745 163.819 158.1 164.631 158.1 165.634C158.1 166.636 158.745 167.449 159.541 167.449Z" fill="#EB7500"/>
<path d="M159.541 174.977C160.338 174.977 160.983 174.164 160.983 173.162C160.983 172.159 160.338 171.347 159.541 171.347C158.745 171.347 158.1 172.159 158.1 173.162C158.1 174.164 158.745 174.977 159.541 174.977Z" fill="#EB7500"/>
<path d="M159.541 184.504C160.338 184.504 160.983 183.691 160.983 182.689C160.983 181.686 160.338 180.874 159.541 180.874C158.745 180.874 158.1 181.686 158.1 182.689C158.1 183.691 158.745 184.504 159.541 184.504Z" fill="#EB7500"/>
<path d="M159.541 193.461C160.338 193.461 160.983 192.648 160.983 191.646C160.983 190.643 160.338 189.831 159.541 189.831C158.745 189.831 158.1 190.643 158.1 191.646C158.1 192.648 158.745 193.461 159.541 193.461Z" fill="#EB7500"/>
<path d="M152.201 170.215C152.997 170.215 153.643 169.402 153.643 168.4C153.643 167.397 152.997 166.585 152.201 166.585C151.405 166.585 150.76 167.397 150.76 168.4C150.76 169.402 151.405 170.215 152.201 170.215Z" fill="#EB7500"/>
<path d="M152.201 179.741C152.997 179.741 153.643 178.929 153.643 177.927C153.643 176.924 152.997 176.112 152.201 176.112C151.405 176.112 150.76 176.924 150.76 177.927C150.76 178.929 151.405 179.741 152.201 179.741Z" fill="#EB7500"/>
<path d="M152.201 189.268C152.997 189.268 153.643 188.456 153.643 187.453C153.643 186.451 152.997 185.638 152.201 185.638C151.405 185.638 150.76 186.451 150.76 187.453C150.76 188.456 151.405 189.268 152.201 189.268Z" fill="#EB7500"/>
<path d="M144.859 174.977C145.655 174.977 146.3 174.164 146.3 173.162C146.3 172.159 145.655 171.347 144.859 171.347C144.063 171.347 143.417 172.159 143.417 173.162C143.417 174.164 144.063 174.977 144.859 174.977Z" fill="#EB7500"/>
<path d="M144.859 184.504C145.655 184.504 146.3 183.691 146.3 182.689C146.3 181.686 145.655 180.874 144.859 180.874C144.063 180.874 143.417 181.686 143.417 182.689C143.417 183.691 144.063 184.504 144.859 184.504Z" fill="#EB7500"/>
<path d="M137.517 179.741C138.313 179.741 138.958 178.929 138.958 177.927C138.958 176.924 138.313 176.112 137.517 176.112C136.72 176.112 136.075 176.924 136.075 177.927C136.075 178.929 136.72 179.741 137.517 179.741Z" fill="#EB7500"/>
<path d="M210.911 178.715C207.226 182.121 202.821 185.059 197.874 187.394C189.771 191.22 180.218 193.43 169.982 193.43C156.52 193.43 144.234 189.609 134.886 183.308C132.786 181.895 131.434 180.353 129.651 178.706C131.507 176.968 132.943 175.358 135.138 173.882C144.455 167.606 156.64 163.809 169.982 163.809C180.314 163.809 189.956 166.088 198.109 170.031C202.959 172.387 207.282 175.323 210.911 178.715Z" stroke="#EB7500" stroke-width="6" stroke-linejoin="round"/>
<path d="M120.312 190.372C121.335 190.632 122.377 190.762 123.421 190.761C128.544 190.761 132.947 187.7 134.886 183.317C132.858 181.956 130.908 180.419 129.051 178.715C125.358 182.168 122.387 186.102 120.312 190.372Z" fill="#EB7500"/>
<path d="M210.911 178.715C207.226 182.121 202.821 185.059 197.874 187.394C196.96 186.252 196.24 184.889 195.755 183.387C195.27 181.885 195.032 180.275 195.054 178.654C195.076 177.033 195.358 175.435 195.883 173.955C196.408 172.474 197.165 171.143 198.109 170.041C202.959 172.387 207.282 175.323 210.911 178.715Z" fill="#EB7500"/>
<path d="M129.051 178.715C130.982 176.92 133.017 175.308 135.138 173.892C133.347 169.184 128.781 165.836 123.421 165.836C122.238 165.833 121.058 166 119.904 166.333C121.987 170.886 125.109 175.069 129.051 178.715Z" fill="#EB7500"/>
<path d="M166.372 163.913L179.379 164.459C177.722 162.319 165.442 157.192 159.267 158.245L166.372 163.913Z" fill="#EB7500"/>
<path d="M168.088 193.006L181.095 192.46C179.441 194.598 167.159 199.725 160.983 198.672L168.088 193.006Z" fill="#EB7500"/>
<path d="M201.365 180.419C202.275 180.419 203.014 179.49 203.014 178.343C203.014 177.197 202.275 176.267 201.365 176.267C200.454 176.267 199.715 177.197 199.715 178.343C199.715 179.49 200.454 180.419 201.365 180.419Z" fill="#C8D9D2"/>
<path d="M221.352 219.962C221.358 220.794 221.506 221.614 221.785 222.368C222.064 223.122 222.468 223.792 222.969 224.333C218.326 226.292 212.852 227.424 206.992 227.424C199.282 227.424 192.244 225.468 186.889 222.245C185.687 221.52 184.913 220.732 183.898 219.891C184.962 219.002 185.784 218.178 187.041 217.422C192.377 214.207 199.358 212.262 207 212.262C212.917 212.262 218.44 213.439 223.111 215.449C222.57 215.99 222.132 216.676 221.828 217.456C221.524 218.237 221.361 219.093 221.352 219.962Z" fill="#EB7500"/>
<path d="M187.028 217.486L186.871 222.194C185.665 224.633 182.928 226.332 179.742 226.332C179.093 226.334 178.446 226.262 177.808 226.116C177.808 226.116 177.821 226.092 177.829 226.083C179.074 225.877 180.216 225.103 181.039 223.909C181.863 222.715 182.31 221.183 182.297 219.602C182.284 218.02 181.811 216.5 180.968 215.328C180.125 214.156 178.971 213.413 177.722 213.239C178.388 213.081 179.064 213.002 179.742 213.004C183.073 213.009 185.915 214.868 187.028 217.486Z" fill="#EB7500"/>
<path d="M224.795 220.664C225.254 220.664 225.626 220.196 225.626 219.619C225.626 219.041 225.254 218.573 224.795 218.573C224.337 218.573 223.965 219.041 223.965 219.619C223.965 220.196 224.337 220.664 224.795 220.664Z" fill="#EB7500"/>
<path d="M219.727 214.105C219.059 214.819 218.522 215.707 218.154 216.708C217.786 217.709 217.596 218.799 217.596 219.902C217.596 221.005 217.786 222.095 218.154 223.096C218.522 224.097 219.059 224.985 219.727 225.699" stroke="#C8D9D2" stroke-width="4" stroke-miterlimit="10" stroke-linecap="round"/>
<path d="M216.343 213.545C214.836 215.242 214.004 217.5 214.004 219.901C214.004 222.302 214.836 224.557 216.343 226.257" stroke="#C8D9D2" stroke-width="4" stroke-miterlimit="10" stroke-linecap="round"/>
<path d="M213.125 212.985C211.485 214.83 210.58 217.288 210.58 219.903C210.58 222.519 211.485 224.969 213.125 226.822" stroke="#C8D9D2" stroke-width="4" stroke-miterlimit="10" stroke-linecap="round"/>
<path d="M209.853 212.702C208.146 214.626 207.206 217.175 207.206 219.903C207.206 222.632 208.14 225.174 209.853 227.102" stroke="#C8D9D2" stroke-width="4" stroke-miterlimit="10" stroke-linecap="round"/>
<path d="M206.383 212.61C204.653 214.557 203.7 217.144 203.7 219.908C203.7 222.672 204.653 225.249 206.383 227.205" stroke="#C8D9D2" stroke-width="4" stroke-miterlimit="10" stroke-linecap="round"/>
<path d="M203.094 212.422C201.322 214.418 200.344 217.074 200.344 219.903C200.344 222.733 201.322 225.381 203.094 227.382" stroke="#C8D9D2" stroke-width="4" stroke-miterlimit="10" stroke-linecap="round"/>
<path d="M199.476 213.171C197.879 214.967 197.001 217.359 197.001 219.903C197.001 222.448 197.879 224.833 199.476 226.634" stroke="#C8D9D2" stroke-width="4" stroke-miterlimit="10" stroke-linecap="round"/>
<path d="M196.277 213.545C194.813 215.193 194.005 217.382 194.005 219.715C194.005 222.048 194.813 224.235 196.277 225.887" stroke="#C8D9D2" stroke-width="4" stroke-miterlimit="10" stroke-linecap="round"/>
<path d="M193.119 214.666C192.516 215.31 192.031 216.113 191.698 217.017C191.366 217.921 191.193 218.906 191.193 219.902C191.193 220.899 191.366 221.883 191.698 222.788C192.031 223.692 192.516 224.494 193.119 225.139" stroke="#C8D9D2" stroke-width="4" stroke-miterlimit="10" stroke-linecap="round"/>
<path d="M190.036 215.694C189.551 216.212 189.161 216.857 188.893 217.583C188.626 218.31 188.488 219.101 188.488 219.902C188.488 220.703 188.626 221.494 188.893 222.221C189.161 222.948 189.551 223.592 190.036 224.11" stroke="#C8D9D2" stroke-width="4" stroke-miterlimit="10" stroke-linecap="round"/>
<path d="M229.017 218.788C229.17 218.899 229.297 219.058 229.385 219.25C229.473 219.442 229.519 219.66 229.519 219.882C229.519 220.104 229.473 220.322 229.385 220.514C229.297 220.706 229.17 220.866 229.017 220.977C227.09 222.34 225.063 223.466 222.963 224.338C218.321 226.299 212.846 227.432 206.987 227.432C199.276 227.432 192.239 225.473 186.884 222.253C185.682 221.528 184.908 220.739 183.892 219.899C184.956 219.009 185.779 218.185 187.035 217.427C192.371 214.214 199.353 212.269 206.994 212.269C212.912 212.269 218.435 213.446 223.105 215.454C225.156 216.326 227.135 217.442 229.017 218.788V218.788Z" stroke="#EB7500" stroke-width="6" stroke-linejoin="round"/>
<path d="M495.169 420.153C494.731 420.264 494.285 420.32 493.838 420.32C491.645 420.32 489.76 419.009 488.928 417.132C489.796 416.55 490.631 415.891 491.426 415.162C492.915 416.51 494.186 418.204 495.169 420.153Z" fill="#423C52"/>
<path d="M491.426 415.162C490.6 414.394 489.729 413.703 488.822 413.095C489.588 411.078 491.544 409.647 493.838 409.647C494.345 409.646 494.85 409.718 495.343 409.861C494.451 411.81 493.115 413.601 491.426 415.162Z" fill="#423C52"/>
<path d="M458.054 414.037C457.903 414.155 457.778 414.32 457.691 414.516C457.604 414.712 457.559 414.933 457.559 415.157C457.559 415.382 457.604 415.603 457.691 415.799C457.778 415.995 457.903 416.16 458.054 416.278C459.406 417.312 460.834 418.179 462.319 418.867C465.789 420.515 469.88 421.457 474.262 421.457C480.025 421.457 485.294 419.809 489.287 417.128C490.187 416.52 490.766 415.861 491.531 415.157C490.734 414.414 490.121 413.724 489.181 413.091C485.191 410.405 479.973 408.778 474.262 408.778C469.839 408.778 465.709 409.755 462.218 411.443C460.767 412.138 459.373 413.007 458.054 414.037Z" fill="#423C52"/>
<path d="M509.007 428.26C508.851 428.299 508.693 428.319 508.534 428.319C507.754 428.319 507.083 427.848 506.788 427.184C507.097 426.976 507.393 426.74 507.676 426.478C508.206 426.959 508.658 427.564 509.007 428.26Z" fill="#423C52"/>
<path d="M507.676 426.485C507.379 426.21 507.067 425.964 506.741 425.748C507.014 425.042 507.711 424.522 508.526 424.522C508.707 424.521 508.887 424.546 509.063 424.597C508.709 425.34 508.237 425.983 507.676 426.485Z" fill="#423C52"/>
<path d="M495.803 426.078C495.75 426.12 495.706 426.179 495.676 426.249C495.645 426.318 495.629 426.396 495.629 426.476C495.629 426.555 495.645 426.633 495.676 426.703C495.706 426.772 495.75 426.831 495.803 426.873C496.283 427.243 496.791 427.553 497.319 427.799C498.681 428.421 500.12 428.733 501.569 428.719C503.626 428.719 505.496 428.138 506.917 427.177C507.196 426.968 507.463 426.732 507.713 426.471C507.451 426.197 507.171 425.95 506.877 425.734C505.458 424.778 503.602 424.202 501.569 424.202C500.107 424.186 498.655 424.505 497.284 425.143C496.768 425.394 496.272 425.707 495.803 426.078Z" fill="#423C52"/>
<path d="M439.976 411.82C439.821 411.861 439.662 411.881 439.503 411.881C438.722 411.881 438.05 411.41 437.755 410.746C438.064 410.536 438.361 410.3 438.645 410.04C439.175 410.521 439.627 411.125 439.976 411.82Z" fill="#423C52"/>
<path d="M438.645 410.045C438.348 409.771 438.036 409.526 437.71 409.31C437.983 408.604 438.679 408.081 439.496 408.081C439.676 408.082 439.855 408.108 440.03 408.159C439.676 408.9 439.204 409.542 438.645 410.045Z" fill="#423C52"/>
<path d="M426.772 409.644C426.719 409.687 426.674 409.746 426.644 409.815C426.613 409.885 426.597 409.964 426.597 410.043C426.597 410.123 426.613 410.202 426.644 410.271C426.674 410.341 426.719 410.4 426.772 410.442C427.254 410.811 427.762 411.121 428.291 411.368C429.652 411.988 431.09 412.299 432.538 412.286C434.595 412.286 436.465 411.704 437.886 410.746C438.165 410.536 438.432 410.3 438.684 410.04C438.421 409.768 438.142 409.522 437.848 409.305C436.427 408.35 434.571 407.771 432.538 407.771C431.077 407.755 429.624 408.074 428.253 408.712C427.737 408.963 427.241 409.275 426.772 409.644Z" fill="#423C52"/>
<path d="M461.543 404.814C461.352 404.862 461.157 404.887 460.962 404.887C460 404.887 459.176 404.313 458.813 403.491C459.193 403.237 459.558 402.949 459.905 402.629C460.557 403.219 461.113 403.96 461.543 404.814Z" fill="#423C52"/>
<path d="M459.905 402.629C459.544 402.293 459.163 401.991 458.767 401.725C459.101 400.845 459.958 400.217 460.962 400.217C461.183 400.216 461.404 400.248 461.62 400.311C461.181 401.224 460.598 402.014 459.905 402.629Z" fill="#423C52"/>
<path d="M445.309 402.138C445.242 402.189 445.187 402.261 445.149 402.347C445.111 402.433 445.091 402.53 445.091 402.628C445.091 402.727 445.111 402.823 445.149 402.909C445.187 402.995 445.242 403.067 445.309 403.119C445.901 403.573 446.527 403.954 447.178 404.256C448.853 405.02 450.623 405.402 452.404 405.386C454.924 405.386 457.226 404.68 458.978 403.503C459.322 403.248 459.651 402.96 459.959 402.641C459.636 402.306 459.293 402.004 458.931 401.737C457.185 400.56 454.902 399.854 452.404 399.854C450.606 399.84 448.82 400.239 447.135 401.031C446.5 401.326 445.888 401.697 445.309 402.138Z" fill="#423C52"/>
<path d="M522.845 414.458C522.66 414.505 522.472 414.528 522.284 414.527C521.369 414.527 520.584 413.981 520.238 413.199C520.6 412.957 520.948 412.682 521.28 412.377C521.902 412.939 522.433 413.645 522.845 414.458Z" fill="#423C52"/>
<path d="M521.285 412.377C520.94 412.058 520.577 411.771 520.199 411.518C520.518 410.678 521.334 410.08 522.289 410.08C522.501 410.079 522.711 410.109 522.917 410.169C522.5 411.039 521.944 411.791 521.285 412.377Z" fill="#423C52"/>
<path d="M507.382 411.909C507.318 411.958 507.264 412.026 507.227 412.109C507.19 412.192 507.17 412.285 507.17 412.38C507.17 412.475 507.19 412.568 507.227 412.65C507.264 412.733 507.318 412.802 507.382 412.85C507.945 413.283 508.54 413.645 509.158 413.933C510.756 414.664 512.445 415.03 514.145 415.014C516.547 415.014 518.739 414.331 520.406 413.208C520.734 412.965 521.047 412.69 521.341 412.387C521.033 412.068 520.706 411.781 520.362 411.527C518.699 410.407 516.525 409.729 514.145 409.729C512.432 409.713 510.732 410.089 509.127 410.84C508.52 411.126 507.935 411.484 507.382 411.909Z" fill="#423C52"/>
<path d="M450.762 142.753C450.169 142.906 449.566 142.985 448.96 142.988C446.064 142.988 443.564 141.3 442.401 138.859C437.016 142.388 430.009 144.537 422.343 144.537C416.411 144.537 410.869 143.257 406.172 141.037C403.482 139.802 400.939 138.109 398.613 136.006C400.895 133.914 403.392 132.222 406.036 130.976C410.751 128.678 416.347 127.353 422.343 127.353C429.936 127.353 436.886 129.471 442.248 133.002C443.336 130.373 445.933 128.53 448.964 128.53C449.65 128.529 450.335 128.626 451.004 128.819C449.798 131.456 447.993 133.876 445.712 135.987L445.725 135.999H445.712C447.844 138.007 449.56 140.281 450.762 142.753Z" fill="#E5F1EF"/>
<path d="M185.493 381.177C183.8 382.708 181.948 383.942 179.99 384.842C176.571 386.455 172.538 387.39 168.221 387.39C162.612 387.39 157.496 385.819 153.57 383.225C152.728 385.021 150.902 386.264 148.781 386.264C148.342 386.264 147.904 386.209 147.473 386.1C148.442 384.177 149.694 382.507 151.162 381.177C149.498 379.64 148.17 377.882 147.301 375.954C147.788 375.813 148.286 375.742 148.785 375.742C151.005 375.742 152.899 377.105 153.688 379.037C157.595 376.448 162.673 374.897 168.224 374.897C172.584 374.897 176.655 375.857 180.093 377.521C182.016 378.428 183.832 379.658 185.493 381.177Z" fill="#E5F1EF"/>
<path d="M63.6358 286.602C64.609 287.826 65.381 289.28 65.9078 290.88C66.4345 292.48 66.7056 294.196 66.7056 295.928C66.7056 297.66 66.4345 299.375 65.9078 300.975C65.381 302.575 64.609 304.029 63.6358 305.253L63.2843 305.696C62.3114 306.92 61.5396 308.373 61.013 309.973C60.4864 311.573 60.2154 313.288 60.2154 315.02C60.2154 316.752 60.4864 318.467 61.013 320.066C61.5396 321.666 62.3114 323.12 63.2843 324.344C64.2575 325.568 65.0295 327.022 65.5563 328.622C66.083 330.222 66.3541 331.938 66.3541 333.67C66.3541 335.402 66.083 337.117 65.5563 338.717C65.0295 340.317 64.2575 341.771 63.2843 342.995L62.9347 343.438C61.9617 344.662 61.1899 346.115 60.6634 347.715C60.1368 349.315 59.8657 351.03 59.8657 352.762C59.8657 354.494 60.1368 356.209 60.6634 357.808C61.1899 359.408 61.9617 360.862 62.9347 362.086C63.9076 363.31 64.6794 364.764 65.206 366.364C65.7325 367.964 66.0036 369.679 66.0036 371.41C66.0036 373.142 65.7325 374.857 65.206 376.457C64.6794 378.057 63.9076 379.511 62.9347 380.735L62.5832 381.177C61.6099 382.402 60.8379 383.855 60.3112 385.455C59.7844 387.055 59.5133 388.771 59.5133 390.503C59.5133 392.235 59.7844 393.95 60.3112 395.55C60.8379 397.15 61.6099 398.604 62.5832 399.828V399.828C63.5561 401.052 64.3279 402.506 64.8545 404.106C65.381 405.706 65.6521 407.421 65.6521 409.152C65.6521 410.884 65.381 412.599 64.8545 414.199C64.3279 415.799 63.5561 417.252 62.5832 418.477L62.2317 418.919C61.2585 420.144 60.4864 421.597 59.9597 423.197C59.4329 424.797 59.1618 426.513 59.1618 428.245C59.1618 429.977 59.4329 431.692 59.9597 433.292C60.4864 434.892 61.2585 436.346 62.2317 437.57V437.57C63.2046 438.794 63.9764 440.248 64.503 441.848C65.0295 443.448 65.3006 445.163 65.3006 446.894C65.3006 448.626 65.0295 450.341 64.503 451.941C63.9764 453.541 63.2046 454.995 62.2317 456.219L61.8802 456.661C60.907 457.886 60.1349 459.339 59.6082 460.939C59.0814 462.539 58.8103 464.255 58.8103 465.987C58.8103 467.719 59.0814 469.434 59.6082 471.034C60.1349 472.634 60.907 474.088 61.8802 475.312V475.312C62.8538 476.536 63.6258 477.989 64.1521 479.589C64.6783 481.189 64.9482 482.905 64.9464 484.636" stroke="#907B00" stroke-width="6" stroke-miterlimit="10" stroke-linecap="round"/>
<path d="M53.2478 286.602C54.221 287.826 54.993 289.28 55.5198 290.88C56.0465 292.48 56.3176 294.196 56.3176 295.928C56.3176 297.66 56.0465 299.375 55.5198 300.975C54.993 302.575 54.221 304.029 53.2478 305.253L52.8963 305.696C51.9233 306.92 51.1515 308.373 50.625 309.973C50.0984 311.573 49.8274 313.288 49.8274 315.02C49.8274 316.752 50.0984 318.467 50.625 320.066C51.1515 321.666 51.9233 323.12 52.8963 324.344V324.344C53.8695 325.568 54.6415 327.022 55.1683 328.622C55.695 330.222 55.9661 331.938 55.9661 333.67C55.9661 335.402 55.695 337.117 55.1683 338.717C54.6415 340.317 53.8695 341.771 52.8963 342.995L52.5448 343.438C51.5718 344.662 50.8 346.115 50.2735 347.715C49.7469 349.315 49.4759 351.03 49.4759 352.762C49.4759 354.494 49.7469 356.209 50.2735 357.808C50.8 359.408 51.5718 360.862 52.5448 362.086V362.086C53.5177 363.31 54.2895 364.764 54.8161 366.364C55.3427 367.964 55.6137 369.679 55.6137 371.41C55.6137 373.142 55.3427 374.857 54.8161 376.457C54.2895 378.057 53.5177 379.511 52.5448 380.735L52.1933 381.177C51.2201 382.402 50.448 383.855 49.9213 385.455C49.3945 387.055 49.1234 388.771 49.1234 390.503C49.1234 392.235 49.3945 393.95 49.9213 395.55C50.448 397.15 51.2201 398.604 52.1933 399.828V399.828C53.1662 401.052 53.938 402.506 54.4646 404.106C54.9912 405.706 55.2622 407.421 55.2622 409.152C55.2622 410.884 54.9912 412.599 54.4646 414.199C53.938 415.799 53.1662 417.252 52.1933 418.477L51.8418 418.919C50.8686 420.144 50.0965 421.597 49.5698 423.197C49.043 424.797 48.7719 426.513 48.7719 428.245C48.7719 429.977 49.043 431.692 49.5698 433.292C50.0965 434.892 50.8686 436.346 51.8418 437.57V437.57C52.8147 438.794 53.5865 440.248 54.1131 441.848C54.6396 443.448 54.9107 445.163 54.9107 446.894C54.9107 448.626 54.6396 450.341 54.1131 451.941C53.5865 453.541 52.8147 454.995 51.8418 456.219L51.4903 456.661C50.5171 457.886 49.745 459.339 49.2183 460.939C48.6915 462.539 48.4204 464.255 48.4204 465.987C48.4204 467.719 48.6915 469.434 49.2183 471.034C49.745 472.634 50.5171 474.088 51.4903 475.312V475.312C52.4632 476.536 53.235 477.99 53.7616 479.59C54.2881 481.19 54.5592 482.905 54.5592 484.636C54.5592 486.368 54.2881 488.083 53.7616 489.683C53.235 491.283 52.4632 492.737 51.4903 493.961" stroke="#907B00" stroke-width="6" stroke-miterlimit="10" stroke-linecap="round"/>
<path d="M72.199 354.101H73.8667V363.397C73.8667 365.435 73.2238 367.39 72.0793 368.831C70.9348 370.271 69.3826 371.081 67.7641 371.081H66.0963V361.785C66.0963 359.747 66.7393 357.793 67.8837 356.352C69.0282 354.911 70.5805 354.101 72.199 354.101Z" fill="#907B00"/>
<path d="M50.1291 315.354H48.6166C47.1483 315.354 45.7401 314.62 44.7019 313.313C43.6637 312.006 43.0804 310.233 43.0804 308.384V299.952H44.593C45.3206 299.952 46.0412 300.133 46.7133 300.483C47.3855 300.834 47.9961 301.349 48.5103 301.997C49.0245 302.645 49.4321 303.415 49.7099 304.261C49.9877 305.108 50.1301 306.015 50.1291 306.932V315.364V315.354Z" fill="#907B00"/>
<path d="M48.4222 464.488H46.9096C46.1826 464.488 45.4627 464.308 44.791 463.958C44.1194 463.608 43.5091 463.094 42.995 462.447C42.4809 461.8 42.0731 461.031 41.7949 460.186C41.5167 459.34 41.3735 458.434 41.3735 457.518V449.086H42.8879C44.3562 449.086 45.7643 449.82 46.8026 451.128C47.8408 452.435 48.4241 454.208 48.4241 456.056V464.488H48.4222Z" fill="#907B00"/>
<path d="M60.0741 396.688H58.7354C57.4367 396.688 56.1912 396.038 55.2729 394.882C54.3546 393.726 53.8387 392.158 53.8387 390.523V384.715H55.1774C56.4748 384.715 57.7191 385.364 58.6372 386.518C59.5553 387.672 60.0721 389.238 60.0741 390.871V396.678V396.688Z" fill="#907B00"/>
<path d="M475.545 317.357L475.235 317.746C474.378 318.825 473.698 320.106 473.234 321.516C472.77 322.926 472.531 324.437 472.531 325.964C472.531 327.49 472.77 329.001 473.234 330.411C473.698 331.821 474.378 333.102 475.235 334.182V334.182C476.092 335.261 476.772 336.542 477.236 337.951C477.7 339.361 477.938 340.872 477.938 342.398C477.938 343.924 477.7 345.435 477.236 346.845C476.772 348.255 476.092 349.536 475.235 350.615L474.924 351.006C473.194 353.185 472.223 356.141 472.223 359.222C472.223 362.304 473.194 365.259 474.924 367.439V367.439C475.782 368.518 476.461 369.799 476.925 371.209C477.389 372.619 477.628 374.13 477.628 375.656C477.628 377.182 477.389 378.693 476.925 380.103C476.461 381.513 475.782 382.794 474.924 383.873L474.616 384.263C473.759 385.342 473.079 386.623 472.615 388.033C472.151 389.443 471.912 390.954 471.912 392.48C471.912 394.006 472.151 395.517 472.615 396.927C473.079 398.337 473.759 399.618 474.616 400.697V400.697C475.473 401.776 476.153 403.057 476.617 404.467C477.081 405.877 477.32 407.388 477.32 408.915C477.32 410.441 477.081 411.952 476.617 413.362C476.153 414.772 475.473 416.053 474.616 417.133L474.306 417.521C473.448 418.6 472.768 419.881 472.305 421.291C471.841 422.701 471.602 424.213 471.602 425.739C471.602 427.265 471.841 428.776 472.305 430.186C472.768 431.596 473.448 432.878 474.306 433.957V433.957C475.163 435.036 475.843 436.317 476.306 437.727C476.77 439.136 477.009 440.647 477.009 442.173C477.009 443.699 476.77 445.211 476.306 446.62C475.843 448.03 475.163 449.311 474.306 450.39L473.995 450.781C472.265 452.961 471.293 455.916 471.293 458.998C471.293 462.079 472.265 465.035 473.995 467.214V467.214C474.852 468.293 475.532 469.575 475.996 470.985C476.46 472.395 476.699 473.906 476.699 475.432C476.699 476.958 476.46 478.47 475.996 479.88C475.532 481.29 474.852 482.571 473.995 483.65L473.687 484.038C472.83 485.117 472.15 486.398 471.686 487.808C471.222 489.218 470.983 490.729 470.983 492.255C470.983 493.781 471.222 495.292 471.686 496.702C472.15 498.112 472.83 499.393 473.687 500.472V500.472C474.544 501.551 475.224 502.832 475.688 504.242C476.151 505.652 476.39 507.163 476.39 508.689C476.39 510.215 476.151 511.726 475.688 513.136C475.224 514.545 474.544 515.826 473.687 516.905L473.376 517.294C472.519 518.373 471.839 519.654 471.375 521.064C470.911 522.474 470.673 523.985 470.673 525.512C470.673 527.038 470.911 528.549 471.375 529.959C471.839 531.369 472.519 532.65 473.376 533.73V533.73" stroke="#907B00" stroke-width="6" stroke-miterlimit="10" stroke-linecap="round"/>
<path d="M475.366 284.662C474.508 285.742 473.828 287.023 473.365 288.433C472.901 289.843 472.662 291.354 472.662 292.88C472.662 294.407 472.901 295.918 473.365 297.328C473.828 298.738 474.508 300.019 475.366 301.098C477.096 303.278 478.067 306.233 478.067 309.315C478.067 312.396 477.096 315.352 475.366 317.532" stroke="#907B00" stroke-width="6" stroke-miterlimit="10" stroke-linecap="round"/>
<path d="M478.519 273.299L479.266 273.244L479.6 280.511C479.693 282.545 479.141 284.543 478.065 286.065C476.988 287.587 475.475 288.508 473.86 288.625L473.113 288.68L472.779 281.413C472.686 279.379 473.238 277.381 474.315 275.859C475.391 274.337 476.904 273.416 478.519 273.299Z" fill="#907B00"/>
<path d="M472.505 393.569H471.828C470.36 393.569 468.952 392.834 467.914 391.527C466.875 390.22 466.292 388.447 466.292 386.599V380.007H466.969C468.437 380.007 469.845 380.742 470.883 382.049C471.922 383.356 472.505 385.129 472.505 386.978V393.569Z" fill="#907B00"/>
<path d="M484.08 367.439C485.81 369.619 486.782 372.574 486.782 375.656C486.782 378.737 485.81 381.693 484.08 383.872L483.77 384.263C482.913 385.342 482.233 386.623 481.769 388.033C481.305 389.443 481.066 390.954 481.066 392.48C481.066 394.006 481.305 395.517 481.769 396.927C482.233 398.337 482.913 399.618 483.77 400.697V400.697C484.627 401.776 485.307 403.057 485.771 404.467C486.235 405.877 486.473 407.388 486.473 408.915C486.473 410.441 486.235 411.952 485.771 413.362C485.307 414.772 484.627 416.053 483.77 417.132L483.459 417.521C482.602 418.6 481.922 419.881 481.458 421.291C480.995 422.701 480.756 424.213 480.756 425.739C480.756 427.265 480.995 428.776 481.458 430.186C481.922 431.596 482.602 432.877 483.459 433.957V433.957C484.317 435.036 484.996 436.317 485.46 437.726C485.924 439.136 486.163 440.647 486.163 442.173C486.163 443.699 485.924 445.21 485.46 446.62C484.996 448.03 484.317 449.311 483.459 450.39L483.151 450.781C482.294 451.86 481.614 453.141 481.15 454.551C480.686 455.96 480.447 457.471 480.447 458.997C480.447 460.524 480.686 462.035 481.15 463.444C481.614 464.854 482.294 466.135 483.151 467.214V467.214C484.881 469.394 485.853 472.35 485.853 475.432C485.853 478.514 484.881 481.47 483.151 483.65L482.841 484.038C481.983 485.117 481.304 486.398 480.84 487.808C480.376 489.218 480.137 490.729 480.137 492.255C480.137 493.781 480.376 495.292 480.84 496.702C481.304 498.112 481.983 499.393 482.841 500.472V500.472C483.698 501.551 484.378 502.832 484.841 504.242C485.305 505.651 485.544 507.163 485.544 508.689C485.544 510.215 485.305 511.726 484.841 513.135C484.378 514.545 483.698 515.826 482.841 516.905L482.53 517.294C480.8 519.474 479.828 522.43 479.828 525.511C479.828 528.593 480.8 531.549 482.53 533.729" stroke="#907B00" stroke-width="6" stroke-miterlimit="10" stroke-linecap="round"/>
<path d="M491.832 460.508H492.58V467.786C492.58 469.824 491.937 471.778 490.792 473.219C489.648 474.66 488.096 475.47 486.477 475.47H485.729V468.191C485.729 466.153 486.372 464.199 487.517 462.758C488.661 461.317 490.213 460.508 491.832 460.508Z" fill="#907B00"/>
<path d="M478.488 327.315C479.647 327.315 480.586 326.132 480.586 324.674C480.586 323.215 479.647 322.032 478.488 322.032C477.329 322.032 476.39 323.215 476.39 324.674C476.39 326.132 477.329 327.315 478.488 327.315Z" stroke="white" stroke-width="5" stroke-miterlimit="10"/>
<path d="M1388.49 459.738C1347.95 459.738 1315.08 495.177 1315.08 538.896C1315.08 582.615 1347.95 618.055 1388.49 618.055C1429.03 618.055 1461.9 582.613 1461.9 538.896C1461.9 495.18 1429.03 459.738 1388.49 459.738ZM1388.13 567.989C1373.08 567.989 1360.88 554.837 1360.88 538.62C1360.88 522.403 1373.08 509.25 1388.13 509.25C1403.17 509.25 1415.37 522.4 1415.37 538.62C1415.37 554.839 1403.17 567.989 1388.13 567.989Z" fill="#423C52"/>
<path d="M1394.04 461.935C1356.5 461.935 1326.07 497.375 1326.07 541.092C1326.07 584.808 1356.5 620.253 1394.04 620.253C1431.57 620.253 1462 584.811 1462 541.092C1462 497.372 1431.57 461.935 1394.04 461.935ZM1393.7 570.187C1379.77 570.187 1368.48 557.034 1368.48 540.817C1368.48 524.6 1379.77 511.448 1393.7 511.448C1407.63 511.448 1418.92 524.6 1418.92 540.817C1418.92 557.034 1407.63 570.187 1393.7 570.187Z" fill="white" stroke="#423C52" stroke-width="5" stroke-miterlimit="10" stroke-linecap="round"/>
<path d="M912.463 565.199C955.44 565.199 990.28 555.502 990.28 543.539C990.28 531.577 955.44 521.879 912.463 521.879C869.486 521.879 834.646 531.577 834.646 543.539C834.646 555.502 869.486 565.199 912.463 565.199Z" fill="white" stroke="#423C52" stroke-width="5" stroke-miterlimit="10" stroke-linecap="round"/>
<path d="M689.817 587.32C732.794 587.32 767.633 577.623 767.633 565.66C767.633 553.698 732.794 544 689.817 544C646.84 544 612 553.698 612 565.66C612 577.623 646.84 587.32 689.817 587.32Z" fill="white" stroke="#423C52" stroke-width="5" stroke-miterlimit="10" stroke-linecap="round"/>
<path d="M912.759 540.937C928.891 540.937 941.968 538.356 941.968 535.171C941.968 531.986 928.891 529.405 912.759 529.405C896.627 529.405 883.55 531.986 883.55 535.171C883.55 538.356 896.627 540.937 912.759 540.937Z" fill="#423C52"/>
<path d="M684.209 570.532C700.341 570.532 713.418 567.951 713.418 564.766C713.418 561.582 700.341 559 684.209 559C668.077 559 655 561.582 655 564.766C655 567.951 668.077 570.532 684.209 570.532Z" fill="#423C52"/>
<path d="M992.784 558.787C992.784 569.066 990.507 577.654 987.452 579.835C978.345 588.981 948.216 595.695 912.461 595.695C876.706 595.695 846.567 588.979 837.463 579.83C834.412 577.628 832.142 569.044 832.142 558.782C832.142 548.52 834.418 539.937 837.463 537.734C835.625 539.579 834.644 541.525 834.644 543.532C834.644 547.612 838.694 551.425 845.732 554.683C849.451 556.351 853.281 557.721 857.189 558.78C871.289 562.742 890.845 565.192 912.461 565.192C934.077 565.192 953.634 562.744 967.735 558.78C971.645 557.721 975.476 556.351 979.196 554.68C986.231 551.425 990.277 547.607 990.277 543.532C990.277 541.52 989.294 539.577 987.452 537.729C990.505 539.912 992.784 548.515 992.784 558.787Z" fill="#423C52"/>
<path d="M809.259 533.572C847.181 511.833 872.64 483.563 866.125 470.429C859.609 457.295 823.585 464.27 785.663 486.009C747.742 507.748 722.282 536.017 728.798 549.152C735.313 562.286 771.337 555.31 809.259 533.572Z" fill="white" stroke="#423C52" stroke-width="5" stroke-miterlimit="10" stroke-linecap="round"/>
<path d="M796.307 506.789C810.541 498.629 820.674 489.179 818.939 485.682C817.204 482.185 804.258 485.965 790.024 494.125C775.79 502.285 765.657 511.734 767.392 515.231C769.127 518.728 782.072 514.948 796.307 506.789Z" fill="#423C52"/>
<path d="M876.649 485.894C882.245 497.172 884.916 507.762 883.411 511.705C880.353 526.355 857.428 548.963 825.88 567.047C794.333 585.131 764.079 593.007 751.062 587.569C747.176 586.703 740.491 578.421 734.897 567.155C729.303 555.889 726.641 545.311 728.133 541.358C727.52 544.317 727.714 546.944 728.816 549.149C731.038 553.625 736.689 555.757 744.674 555.781C748.33 555.781 752.481 555.351 757.014 554.484C771.613 551.701 790.205 544.501 809.278 533.566C828.351 522.63 844.272 510.048 854.555 498.567C857.742 495.001 860.404 491.538 862.435 488.268C866.87 481.134 868.354 474.897 866.141 470.421C865.046 468.218 863.12 466.576 860.488 465.479C864.361 466.331 871.055 474.616 876.649 485.894Z" fill="#423C52"/>
<path d="M1186.14 556.696C1224.47 531.483 1249.35 500.148 1241.7 486.708C1234.05 473.267 1196.77 482.811 1158.43 508.024C1120.1 533.237 1095.22 564.572 1102.87 578.012C1110.52 591.453 1147.8 581.909 1186.14 556.696Z" fill="#C8D9D2" stroke="#423C52" stroke-width="5" stroke-miterlimit="10" stroke-linecap="round"/>
<path d="M1170.89 529.266C1185.28 519.802 1195.29 509.229 1193.25 505.65C1191.22 502.071 1177.9 506.842 1163.51 516.305C1149.12 525.769 1139.11 536.342 1141.15 539.921C1143.18 543.5 1156.5 538.729 1170.89 529.266Z" fill="#423C52"/>
<path d="M1253.69 502.353C1260.25 513.893 1263.72 524.887 1262.39 529.131C1260.11 544.753 1237.53 569.967 1205.64 590.944C1173.75 611.922 1142.57 622.059 1128.6 617.132C1124.47 616.454 1116.95 608.135 1110.38 596.61C1103.81 585.085 1100.37 574.093 1101.67 569.845C1101.22 572.995 1101.58 575.753 1102.87 578.009C1105.47 582.594 1111.52 584.503 1119.89 584.033C1123.72 583.817 1128.03 583.103 1132.72 581.916C1147.83 578.093 1166.85 569.375 1186.13 556.692C1205.41 544.009 1221.29 529.782 1231.33 517.06C1234.45 513.107 1237.01 509.299 1238.93 505.728C1243.12 497.943 1244.29 491.288 1241.69 486.702C1240.4 484.443 1238.27 482.835 1235.46 481.841C1239.59 482.492 1247.12 490.813 1253.69 502.353Z" fill="#423C52"/>
<path d="M999.798 529.517C1008.6 518.911 990.907 486.515 960.287 457.157C929.666 427.799 897.71 412.597 888.911 423.202C880.112 433.807 897.801 466.204 928.422 495.562C959.043 524.919 990.999 540.122 999.798 529.517Z" fill="#C8D9D2" stroke="#423C52" stroke-width="5" stroke-miterlimit="10" stroke-linecap="round"/>
<path d="M971.534 489.098C973.877 486.274 966.458 475.052 954.964 464.032C943.471 453.013 932.254 446.368 929.911 449.192C927.569 452.015 934.987 463.237 946.481 474.257C957.974 485.277 969.191 491.921 971.534 489.098Z" fill="#423C52"/>
<path d="M990.623 544.976C983.042 554.122 975.066 560.214 971.271 560.062C958.001 561.951 931.492 547.249 905.91 522.706C880.328 498.163 863.721 471.493 863.96 457.094C863.398 453.046 868.113 443.836 875.686 434.7C883.258 425.564 891.225 419.472 895.038 419.611C892.361 419.993 890.225 421.053 888.743 422.84C885.731 426.474 885.813 432.649 888.445 440.383C889.652 443.925 891.391 447.794 893.618 451.886C900.781 465.102 912.971 480.703 928.43 495.542C943.89 510.381 959.684 521.629 972.7 527.78C976.742 529.694 980.517 531.113 983.927 531.994C991.363 533.925 997.076 533.306 1000.09 529.677C1001.58 527.885 1002.31 525.479 1002.36 522.579C1002.92 526.607 998.205 535.827 990.623 544.976Z" fill="#423C52"/>
<path d="M1379.89 576.441C1382.19 563.217 1348.23 545.325 1304.05 536.48C1259.86 527.635 1222.19 531.185 1219.9 544.41C1217.61 557.635 1251.57 575.526 1295.75 584.371C1339.93 593.216 1377.6 589.666 1379.89 576.441Z" fill="white" stroke="#423C52" stroke-width="5" stroke-miterlimit="10" stroke-linecap="round"/>
<path d="M1331.83 557.246C1332.44 553.725 1319.49 548.179 1302.91 544.859C1286.33 541.539 1272.39 541.702 1271.78 545.223C1271.17 548.745 1284.12 554.291 1300.7 557.611C1317.28 560.931 1331.22 560.768 1331.83 557.246Z" fill="#423C52"/>
<path d="M1379.88 593.781C1377.91 605.137 1373.9 614.171 1370.32 615.955C1359.16 624.191 1326.76 625.412 1289.85 618.055C1252.94 610.698 1223.11 597.073 1215.47 585.085C1212.74 582.031 1212.06 572.069 1214.03 560.725C1216 549.381 1220 540.355 1223.57 538.556C1221.31 540.218 1219.92 542.166 1219.54 544.386C1218.76 548.894 1222.2 553.931 1228.85 558.993C1231.89 561.305 1235.6 563.621 1239.88 565.88C1253.68 573.161 1273.4 579.896 1295.72 584.343C1318.03 588.791 1338.69 590.105 1354 588.627C1358.76 588.171 1363.01 587.442 1366.62 586.453C1374.51 584.302 1379.42 580.917 1380.21 576.419C1380.6 574.196 1379.96 571.844 1378.41 569.424C1381.16 572.463 1381.86 582.427 1379.88 593.781Z" fill="#423C52"/>
<path d="M1176.59 581.957C1217.84 581.957 1251.28 571.733 1251.28 559.12C1251.28 546.508 1217.84 536.283 1176.59 536.283C1135.35 536.283 1101.91 546.508 1101.91 559.12C1101.91 571.733 1135.35 581.957 1176.59 581.957Z" fill="white" stroke="#423C52" stroke-width="5" stroke-miterlimit="10" stroke-linecap="round"/>
<path d="M1176.88 556.377C1192.36 556.377 1204.91 553.655 1204.91 550.297C1204.91 546.94 1192.36 544.218 1176.88 544.218C1161.39 544.218 1148.84 546.94 1148.84 550.297C1148.84 553.655 1161.39 556.377 1176.88 556.377Z" fill="#423C52"/>
<path d="M761.174 579.202C761.174 590.04 758.988 599.095 756.056 601.394C747.316 611.037 718.4 618.115 684.085 618.115C649.769 618.115 620.845 611.034 612.107 601.389C609.179 599.066 607 590.017 607 579.197C607 568.377 609.185 559.328 612.107 557.005C610.343 558.951 609.401 561.002 609.401 563.118C609.401 567.42 613.289 571.44 620.043 574.875C623.613 576.634 627.288 578.078 631.039 579.194C644.571 583.372 663.339 585.955 684.085 585.955C704.83 585.955 723.6 583.375 737.133 579.194C740.885 578.079 744.562 576.634 748.133 574.872C754.885 571.44 758.768 567.415 758.768 563.118C758.768 560.997 757.824 558.948 756.056 557C758.986 559.302 761.174 568.372 761.174 579.202Z" fill="#423C52"/>
<path d="M1077.54 548.611C1113.94 525.691 1138.37 495.885 1132.12 482.038C1125.87 468.19 1091.29 475.544 1054.9 498.464C1018.5 521.384 994.069 551.19 1000.32 565.037C1006.58 578.885 1041.15 571.531 1077.54 548.611Z" fill="white" stroke="#423C52" stroke-width="5" stroke-miterlimit="10" stroke-linecap="round"/>
<path d="M1065.11 520.373C1078.77 511.77 1088.5 501.807 1086.83 498.12C1085.17 494.433 1072.74 498.418 1059.08 507.021C1045.42 515.624 1035.7 525.587 1037.36 529.274C1039.03 532.961 1051.45 528.976 1065.11 520.373Z" fill="#423C52"/>
<path d="M1142.22 498.343C1147.59 510.234 1150.15 521.399 1148.71 525.556C1145.78 541.003 1123.77 564.839 1093.5 583.905C1063.22 602.972 1034.18 611.276 1021.69 605.542C1017.96 604.629 1011.55 595.897 1006.18 584.019C1000.81 572.141 998.253 560.988 999.684 556.821C999.096 559.941 999.282 562.71 1000.34 565.035C1002.47 569.754 1007.9 572.002 1015.56 572.028C1019.07 572.028 1023.05 571.573 1027.4 570.66C1041.41 567.726 1059.26 560.134 1077.56 548.605C1095.87 537.076 1111.15 523.809 1121.02 511.705C1124.07 507.945 1126.63 504.294 1128.58 500.846C1132.83 493.324 1134.26 486.749 1132.14 482.029C1131.08 479.707 1129.24 477.976 1126.71 476.82C1130.43 477.718 1136.85 486.452 1142.22 498.343Z" fill="#423C52"/>
<path d="M1439.24 572.992C1476.04 546.409 1499.91 513.372 1492.57 499.201C1485.23 485.03 1449.45 495.092 1412.66 521.675C1375.87 548.258 1351.99 581.295 1359.33 595.466C1366.68 609.637 1402.45 599.575 1439.24 572.992Z" fill="#C8D9D2" stroke="#423C52" stroke-width="5" stroke-miterlimit="10" stroke-linecap="round"/>
<path d="M1424.61 544.071C1438.42 534.093 1448.03 522.946 1446.08 519.172C1444.12 515.399 1431.34 520.429 1417.53 530.407C1403.72 540.384 1394.11 551.532 1396.07 555.305C1398.02 559.079 1410.8 554.049 1424.61 544.071Z" fill="#423C52"/>
<path d="M1504.07 515.697C1510.38 527.863 1513.7 539.455 1512.43 543.929C1510.24 560.4 1488.57 586.984 1457.96 609.101C1427.35 631.218 1397.44 641.906 1384.02 636.712C1380.07 635.997 1372.85 627.226 1366.54 615.074C1360.24 602.923 1356.93 591.334 1358.18 586.855C1357.75 590.176 1358.09 593.084 1359.33 595.463C1361.83 600.296 1367.63 602.309 1375.66 601.814C1379.34 601.587 1383.48 600.833 1387.98 599.582C1402.49 595.551 1420.73 586.359 1439.24 572.988C1457.74 559.616 1472.98 544.615 1482.62 531.202C1485.61 527.035 1488.07 523.02 1489.91 519.255C1493.94 511.047 1495.06 504.03 1492.56 499.195C1491.32 496.813 1489.28 495.117 1486.58 494.07C1490.54 494.756 1497.77 503.53 1504.07 515.697Z" fill="#423C52"/>
<path d="M1260.41 544.336C1268.85 533.155 1251.88 498.998 1222.49 468.045C1193.1 437.092 1162.43 421.064 1153.99 432.245C1145.54 443.427 1162.52 477.583 1191.91 508.536C1221.3 539.489 1251.97 555.517 1260.41 544.336Z" fill="#C8D9D2" stroke="#423C52" stroke-width="5" stroke-miterlimit="10" stroke-linecap="round"/>
<path d="M1233.28 501.721C1235.53 498.744 1228.41 486.912 1217.38 475.294C1206.35 463.675 1195.59 456.67 1193.34 459.647C1191.09 462.624 1198.21 474.456 1209.24 486.074C1220.27 497.692 1231.04 504.698 1233.28 501.721Z" fill="#423C52"/>
<path d="M1251.6 560.635C1244.33 570.278 1236.67 576.701 1233.03 576.541C1220.3 578.533 1194.86 563.032 1170.3 537.155C1145.75 511.279 1129.81 483.16 1130.04 467.979C1129.5 463.711 1134.03 454.001 1141.3 444.368C1148.56 434.735 1156.21 428.312 1159.87 428.459C1157.3 428.862 1155.25 429.979 1153.83 431.863C1150.94 435.695 1151.01 442.205 1153.54 450.36C1154.7 454.093 1156.37 458.173 1158.51 462.488C1165.38 476.422 1177.08 492.87 1191.92 508.515C1206.75 524.16 1221.91 536.02 1234.4 542.505C1238.28 544.522 1241.91 546.019 1245.18 546.948C1252.32 548.984 1257.8 548.331 1260.69 544.504C1262.12 542.616 1262.82 540.079 1262.86 537.021C1263.41 541.269 1258.88 550.989 1251.6 560.635Z" fill="#423C52"/>
<path d="M1625.2 593.81C1627.4 579.867 1594.81 561.003 1552.41 551.678C1510 542.352 1473.85 546.095 1471.65 560.038C1469.45 573.981 1502.04 592.845 1544.44 602.17C1586.85 611.496 1623 607.753 1625.2 593.81Z" fill="white" stroke="#423C52" stroke-width="5" stroke-miterlimit="10" stroke-linecap="round"/>
<path d="M1579.07 573.572C1579.66 569.859 1567.23 564.012 1551.32 560.511C1535.4 557.011 1522.02 557.183 1521.44 560.896C1520.85 564.609 1533.28 570.456 1549.19 573.956C1565.11 577.457 1578.49 577.285 1579.07 573.572Z" fill="#423C52"/>
<path d="M1625.19 612.091C1623.29 624.065 1619.45 633.589 1616.01 635.47C1605.3 644.153 1574.21 645.441 1538.78 637.684C1503.36 629.927 1474.73 615.562 1467.4 602.923C1464.78 599.703 1464.12 589.2 1466.01 577.24C1467.9 565.28 1471.74 555.763 1475.17 553.866C1473.01 555.618 1471.67 557.672 1471.31 560.013C1470.55 564.766 1473.86 570.077 1480.23 575.413C1483.15 577.851 1486.72 580.293 1490.83 582.674C1504.07 590.351 1522.99 597.452 1544.41 602.141C1565.83 606.83 1585.66 608.216 1600.35 606.657C1604.92 606.177 1608.99 605.408 1612.47 604.365C1620.04 602.097 1624.75 598.528 1625.5 593.786C1625.87 591.443 1625.26 588.963 1623.77 586.411C1626.41 589.616 1627.09 600.121 1625.19 612.091Z" fill="#423C52"/>
<path d="M1066.51 305.074C1067.62 306.364 1068.51 307.896 1069.11 309.582C1069.72 311.268 1070.03 313.075 1070.03 314.9C1070.03 316.725 1069.72 318.532 1069.11 320.218C1068.51 321.904 1067.62 323.436 1066.51 324.725L1066.11 325.192C1064.99 326.482 1064.11 328.013 1063.5 329.699C1062.9 331.385 1062.59 333.191 1062.59 335.016C1062.59 336.841 1062.9 338.648 1063.5 340.333C1064.11 342.019 1064.99 343.55 1066.11 344.84C1067.22 346.13 1068.11 347.662 1068.71 349.348C1069.31 351.034 1069.62 352.841 1069.62 354.666C1069.62 356.491 1069.31 358.298 1068.71 359.984C1068.11 361.67 1067.22 363.202 1066.11 364.491L1065.71 364.958C1064.59 366.248 1063.71 367.779 1063.1 369.465C1062.5 371.151 1062.19 372.957 1062.19 374.782C1062.19 376.607 1062.5 378.414 1063.1 380.099C1063.71 381.785 1064.59 383.317 1065.71 384.606C1066.82 385.896 1067.7 387.428 1068.31 389.113C1068.91 390.799 1069.22 392.606 1069.22 394.431C1069.22 396.255 1068.91 398.062 1068.31 399.748C1067.7 401.434 1066.82 402.965 1065.71 404.255L1065.3 404.721C1064.19 406.011 1063.3 407.543 1062.7 409.229C1062.1 410.915 1061.78 412.722 1061.78 414.547C1061.78 416.372 1062.1 418.179 1062.7 419.865C1063.3 421.551 1064.19 423.082 1065.3 424.372V424.372C1066.42 425.662 1067.3 427.194 1067.9 428.879C1068.51 430.565 1068.82 432.372 1068.82 434.197C1068.82 436.021 1068.51 437.828 1067.9 439.514C1067.3 441.2 1066.42 442.731 1065.3 444.021L1064.9 444.487C1063.78 445.777 1062.9 447.309 1062.3 448.995C1061.69 450.681 1061.38 452.488 1061.38 454.313C1061.38 456.138 1061.69 457.945 1062.3 459.631C1062.9 461.317 1063.78 462.848 1064.9 464.138V464.138C1066.01 465.428 1066.9 466.96 1067.5 468.645C1068.11 470.331 1068.42 472.138 1068.42 473.963C1068.42 475.787 1068.11 477.594 1067.5 479.28C1066.9 480.966 1066.01 482.497 1064.9 483.787L1064.5 484.253C1063.38 485.543 1062.5 487.075 1061.89 488.761C1061.29 490.447 1060.98 492.254 1060.98 494.079C1060.98 495.904 1061.29 497.711 1061.89 499.397C1062.5 501.083 1063.38 502.614 1064.5 503.904V503.904C1065.61 505.193 1066.5 506.725 1067.1 508.411C1067.7 510.097 1068.01 511.904 1068.01 513.729" stroke="#907B00" stroke-width="6" stroke-miterlimit="10" stroke-linecap="round"/>
<path d="M1054.61 305.074C1055.72 306.364 1056.61 307.896 1057.21 309.582C1057.81 311.268 1058.12 313.075 1058.12 314.9C1058.12 316.725 1057.81 318.532 1057.21 320.218C1056.61 321.904 1055.72 323.436 1054.61 324.725L1054.2 325.192C1053.09 326.482 1052.2 328.013 1051.6 329.699C1051 331.385 1050.69 333.191 1050.69 335.016C1050.69 336.841 1051 338.648 1051.6 340.333C1052.2 342.019 1053.09 343.55 1054.2 344.84V344.84C1055.32 346.13 1056.2 347.662 1056.81 349.348C1057.41 351.034 1057.72 352.841 1057.72 354.666C1057.72 356.491 1057.41 358.298 1056.81 359.984C1056.2 361.67 1055.32 363.202 1054.2 364.491L1053.8 364.958C1052.69 366.248 1051.8 367.779 1051.2 369.465C1050.59 371.151 1050.28 372.957 1050.28 374.782C1050.28 376.607 1050.59 378.414 1051.2 380.099C1051.8 381.785 1052.69 383.317 1053.8 384.606V384.606C1054.92 385.896 1055.8 387.428 1056.4 389.113C1057.01 390.799 1057.32 392.606 1057.32 394.431C1057.32 396.255 1057.01 398.062 1056.4 399.748C1055.8 401.434 1054.92 402.965 1053.8 404.255L1053.4 404.721C1052.28 406.011 1051.4 407.543 1050.79 409.229C1050.19 410.915 1049.88 412.722 1049.88 414.547C1049.88 416.372 1050.19 418.179 1050.79 419.865C1051.4 421.551 1052.28 423.082 1053.4 424.372V424.372C1054.51 425.662 1055.4 427.194 1056 428.879C1056.6 430.565 1056.91 432.372 1056.91 434.197C1056.91 436.021 1056.6 437.828 1056 439.514C1055.4 441.2 1054.51 442.731 1053.4 444.021L1052.99 444.487C1051.88 445.777 1051 447.309 1050.39 448.995C1049.79 450.681 1049.48 452.488 1049.48 454.313C1049.48 456.138 1049.79 457.945 1050.39 459.631C1051 461.317 1051.88 462.848 1052.99 464.138V464.138C1054.11 465.428 1054.99 466.96 1055.6 468.645C1056.2 470.331 1056.51 472.138 1056.51 473.963C1056.51 475.787 1056.2 477.594 1055.6 479.28C1054.99 480.966 1054.11 482.497 1052.99 483.787L1052.59 484.253C1051.48 485.543 1050.59 487.075 1049.99 488.761C1049.39 490.447 1049.07 492.254 1049.07 494.079C1049.07 495.904 1049.39 497.711 1049.99 499.397C1050.59 501.083 1051.48 502.614 1052.59 503.904V503.904C1053.71 505.194 1054.59 506.726 1055.19 508.411C1055.8 510.097 1056.11 511.904 1056.11 513.729C1056.11 515.553 1055.8 517.36 1055.19 519.046C1054.59 520.732 1053.71 522.263 1052.59 523.553" stroke="#907B00" stroke-width="6" stroke-miterlimit="10" stroke-linecap="round"/>
<path d="M1076.32 376.193H1078.23V385.988C1078.23 388.135 1077.49 390.194 1076.18 391.712C1074.87 393.23 1073.09 394.083 1071.24 394.083H1069.33V384.289C1069.33 382.142 1070.06 380.082 1071.38 378.564C1072.69 377.046 1074.47 376.193 1076.32 376.193Z" fill="#907B00"/>
<path d="M1051.03 335.368H1049.3C1047.62 335.368 1046 334.594 1044.81 333.217C1043.62 331.84 1042.96 329.972 1042.96 328.024V319.14H1044.69C1045.52 319.14 1046.35 319.33 1047.12 319.7C1047.89 320.069 1048.59 320.611 1049.18 321.294C1049.77 321.977 1050.23 322.788 1050.55 323.68C1050.87 324.572 1051.03 325.528 1051.03 326.494V335.378V335.368Z" fill="#907B00"/>
<path d="M1049.08 492.5H1047.34C1046.51 492.5 1045.69 492.31 1044.92 491.941C1044.15 491.572 1043.45 491.031 1042.86 490.349C1042.27 489.667 1041.8 488.858 1041.48 487.967C1041.16 487.075 1041 486.121 1041 485.156V476.272H1042.74C1044.42 476.272 1046.03 477.046 1047.22 478.423C1048.41 479.8 1049.08 481.668 1049.08 483.616V492.5H1049.08Z" fill="#907B00"/>
<path d="M1062.43 421.064H1060.89C1059.41 421.064 1057.98 420.379 1056.93 419.161C1055.87 417.943 1055.28 416.291 1055.28 414.568V408.449H1056.82C1058.3 408.449 1059.73 409.132 1060.78 410.348C1061.83 411.564 1062.43 413.214 1062.43 414.935V421.054V421.064Z" fill="#907B00"/>
<path d="M1538.48 337.479L1538.13 337.888C1537.14 339.025 1536.36 340.375 1535.83 341.861C1535.3 343.346 1535.03 344.939 1535.03 346.547C1535.03 348.155 1535.3 349.747 1535.83 351.233C1536.36 352.718 1537.14 354.068 1538.13 355.205V355.205C1539.11 356.342 1539.89 357.692 1540.42 359.177C1540.95 360.663 1541.22 362.255 1541.22 363.863C1541.22 365.47 1540.95 367.062 1540.42 368.548C1539.89 370.033 1539.11 371.383 1538.13 372.52L1537.77 372.932C1535.79 375.228 1534.67 378.342 1534.67 381.589C1534.67 384.836 1535.79 387.95 1537.77 390.246V390.246C1538.75 391.383 1539.53 392.733 1540.06 394.218C1540.59 395.704 1540.87 397.296 1540.87 398.904C1540.87 400.512 1540.59 402.104 1540.06 403.589C1539.53 405.074 1538.75 406.424 1537.77 407.561L1537.42 407.973C1536.43 409.11 1535.66 410.459 1535.12 411.945C1534.59 413.43 1534.32 415.022 1534.32 416.63C1534.32 418.238 1534.59 419.83 1535.12 421.315C1535.66 422.801 1536.43 424.151 1537.42 425.287V425.287C1538.4 426.424 1539.18 427.774 1539.71 429.26C1540.24 430.746 1540.51 432.338 1540.51 433.946C1540.51 435.554 1540.24 437.146 1539.71 438.632C1539.18 440.118 1538.4 441.468 1537.42 442.605L1537.06 443.014C1536.08 444.151 1535.3 445.501 1534.77 446.986C1534.24 448.472 1533.96 450.064 1533.96 451.672C1533.96 453.28 1534.24 454.873 1534.77 456.358C1535.3 457.844 1536.08 459.194 1537.06 460.331V460.331C1538.04 461.468 1538.82 462.818 1539.35 464.303C1539.88 465.788 1540.16 467.381 1540.16 468.988C1540.16 470.596 1539.88 472.188 1539.35 473.674C1538.82 475.159 1538.04 476.509 1537.06 477.646L1536.71 478.057C1534.72 480.354 1533.61 483.468 1533.61 486.715C1533.61 489.962 1534.72 493.076 1536.71 495.372V495.372C1537.69 496.509 1538.47 497.859 1539 499.345C1539.53 500.83 1539.8 502.423 1539.8 504.031C1539.8 505.639 1539.53 507.231 1539 508.717C1538.47 510.202 1537.69 511.552 1536.71 512.689L1536.35 513.099C1535.37 514.235 1534.59 515.585 1534.06 517.071C1533.53 518.556 1533.25 520.148 1533.25 521.756C1533.25 523.364 1533.53 524.956 1534.06 526.441C1534.59 527.927 1535.37 529.276 1536.35 530.413V530.413C1537.33 531.55 1538.11 532.9 1538.64 534.385C1539.18 535.871 1539.45 537.463 1539.45 539.071C1539.45 540.678 1539.18 542.271 1538.64 543.756C1538.11 545.241 1537.33 546.591 1536.35 547.728L1536 548.137C1535.01 549.274 1534.23 550.624 1533.7 552.11C1533.17 553.595 1532.9 555.188 1532.9 556.796C1532.9 558.404 1533.17 559.996 1533.7 561.482C1534.23 562.967 1535.01 564.317 1536 565.454V565.454" stroke="#907B00" stroke-width="6" stroke-miterlimit="10" stroke-linecap="round"/>
<path d="M1538.28 303.031C1537.29 304.168 1536.51 305.517 1535.98 307.003C1535.45 308.489 1535.18 310.081 1535.18 311.689C1535.18 313.297 1535.45 314.889 1535.98 316.375C1536.51 317.861 1537.29 319.211 1538.28 320.348C1540.26 322.644 1541.37 325.758 1541.37 329.005C1541.37 332.252 1540.26 335.366 1538.28 337.662" stroke="#907B00" stroke-width="6" stroke-miterlimit="10" stroke-linecap="round"/>
<path d="M1541.89 291.057L1542.74 291L1543.13 298.656C1543.23 300.8 1542.6 302.905 1541.37 304.508C1540.13 306.111 1538.4 307.082 1536.55 307.206L1535.69 307.263L1535.31 299.607C1535.2 297.463 1535.84 295.358 1537.07 293.755C1538.3 292.152 1540.04 291.181 1541.89 291.057Z" fill="#907B00"/>
<path d="M1535 417.777H1534.22C1532.54 417.777 1530.93 417.003 1529.74 415.626C1528.55 414.249 1527.88 412.381 1527.88 410.433V403.488H1528.65C1530.34 403.488 1531.95 404.262 1533.14 405.639C1534.33 407.017 1535 408.885 1535 410.832V417.777Z" fill="#907B00"/>
<path d="M1548.26 390.246C1550.24 392.543 1551.36 395.657 1551.36 398.904C1551.36 402.15 1550.24 405.264 1548.26 407.561L1547.91 407.973C1546.92 409.11 1546.14 410.459 1545.61 411.945C1545.08 413.43 1544.81 415.022 1544.81 416.63C1544.81 418.238 1545.08 419.83 1545.61 421.315C1546.14 422.801 1546.92 424.151 1547.91 425.287V425.287C1548.89 426.425 1549.67 427.774 1550.2 429.26C1550.73 430.746 1551 432.338 1551 433.946C1551 435.554 1550.73 437.146 1550.2 438.632C1549.67 440.118 1548.89 441.468 1547.91 442.605L1547.55 443.014C1546.57 444.151 1545.79 445.501 1545.26 446.986C1544.73 448.472 1544.45 450.064 1544.45 451.672C1544.45 453.281 1544.73 454.873 1545.26 456.358C1545.79 457.844 1546.57 459.194 1547.55 460.331V460.331C1548.53 461.468 1549.31 462.818 1549.84 464.303C1550.37 465.788 1550.65 467.381 1550.65 468.988C1550.65 470.596 1550.37 472.188 1549.84 473.674C1549.31 475.159 1548.53 476.509 1547.55 477.646L1547.2 478.057C1546.21 479.194 1545.44 480.544 1544.9 482.029C1544.37 483.515 1544.1 485.107 1544.1 486.715C1544.1 488.323 1544.37 489.915 1544.9 491.4C1545.44 492.886 1546.21 494.235 1547.2 495.372V495.372C1549.18 497.669 1550.29 500.784 1550.29 504.031C1550.29 507.278 1549.18 510.392 1547.2 512.689L1546.84 513.099C1545.86 514.235 1545.08 515.585 1544.55 517.071C1544.02 518.556 1543.74 520.148 1543.74 521.756C1543.74 523.364 1544.02 524.956 1544.55 526.441C1545.08 527.927 1545.86 529.276 1546.84 530.413V530.413C1547.82 531.55 1548.6 532.9 1549.13 534.385C1549.66 535.871 1549.94 537.463 1549.94 539.071C1549.94 540.679 1549.66 542.271 1549.13 543.756C1548.6 545.241 1547.82 546.591 1546.84 547.728L1546.48 548.137C1544.5 550.434 1543.39 553.549 1543.39 556.796C1543.39 560.043 1544.5 563.157 1546.48 565.454" stroke="#907B00" stroke-width="6" stroke-miterlimit="10" stroke-linecap="round"/>
<path d="M1557.14 488.306H1558V495.975C1558 498.122 1557.26 500.181 1555.95 501.699C1554.64 503.217 1552.86 504.07 1551.01 504.07H1550.15V496.401C1550.15 494.254 1550.89 492.195 1552.2 490.677C1553.51 489.159 1555.29 488.306 1557.14 488.306Z" fill="#907B00"/>
<path d="M1541.85 347.97C1543.18 347.97 1544.26 346.724 1544.26 345.188C1544.26 343.651 1543.18 342.405 1541.85 342.405C1540.53 342.405 1539.45 343.651 1539.45 345.188C1539.45 346.724 1540.53 347.97 1541.85 347.97Z" stroke="white" stroke-width="5" stroke-miterlimit="10"/>
<path d="M1454.09 384.766C1455.33 384.766 1456.34 383.765 1456.34 382.531C1456.34 381.297 1455.33 380.297 1454.09 380.297C1452.85 380.297 1451.84 381.297 1451.84 382.531C1451.84 383.765 1452.85 384.766 1454.09 384.766Z" fill="#EB7500"/>
<path d="M1454.09 396.494C1455.33 396.494 1456.34 395.493 1456.34 394.259C1456.34 393.025 1455.33 392.025 1454.09 392.025C1452.85 392.025 1451.84 393.025 1451.84 394.259C1451.84 395.493 1452.85 396.494 1454.09 396.494Z" fill="#EB7500"/>
<path d="M1454.09 408.221C1455.33 408.221 1456.34 407.221 1456.34 405.987C1456.34 404.753 1455.33 403.753 1454.09 403.753C1452.85 403.753 1451.84 404.753 1451.84 405.987C1451.84 407.221 1452.85 408.221 1454.09 408.221Z" fill="#EB7500"/>
<path d="M1442.65 381.01C1443.89 381.01 1444.89 380.01 1444.89 378.776C1444.89 377.542 1443.89 376.541 1442.65 376.541C1441.41 376.541 1440.4 377.542 1440.4 378.776C1440.4 380.01 1441.41 381.01 1442.65 381.01Z" fill="#EB7500"/>
<path d="M1442.65 390.628C1443.89 390.628 1444.89 389.628 1444.89 388.394C1444.89 387.16 1443.89 386.16 1442.65 386.16C1441.41 386.16 1440.4 387.16 1440.4 388.394C1440.4 389.628 1441.41 390.628 1442.65 390.628Z" fill="#EB7500"/>
<path d="M1442.65 402.356C1443.89 402.356 1444.89 401.356 1444.89 400.122C1444.89 398.888 1443.89 397.887 1442.65 397.887C1441.41 397.887 1440.4 398.888 1440.4 400.122C1440.4 401.356 1441.41 402.356 1442.65 402.356Z" fill="#EB7500"/>
<path d="M1442.65 413.734C1443.89 413.734 1444.89 412.733 1444.89 411.499C1444.89 410.265 1443.89 409.265 1442.65 409.265C1441.41 409.265 1440.4 410.265 1440.4 411.499C1440.4 412.733 1441.41 413.734 1442.65 413.734Z" fill="#EB7500"/>
<path d="M1465.53 390.628C1466.77 390.628 1467.77 389.628 1467.77 388.394C1467.77 387.16 1466.77 386.16 1465.53 386.16C1464.29 386.16 1463.28 387.16 1463.28 388.394C1463.28 389.628 1464.29 390.628 1465.53 390.628Z" fill="#EB7500"/>
<path d="M1465.53 402.356C1466.77 402.356 1467.77 401.356 1467.77 400.122C1467.77 398.888 1466.77 397.887 1465.53 397.887C1464.29 397.887 1463.28 398.888 1463.28 400.122C1463.28 401.356 1464.29 402.356 1465.53 402.356Z" fill="#EB7500"/>
<path d="M1431.21 384.766C1432.45 384.766 1433.45 383.765 1433.45 382.531C1433.45 381.297 1432.45 380.297 1431.21 380.297C1429.97 380.297 1428.96 381.297 1428.96 382.531C1428.96 383.765 1429.97 384.766 1431.21 384.766Z" fill="#EB7500"/>
<path d="M1431.21 396.494C1432.45 396.494 1433.45 395.493 1433.45 394.259C1433.45 393.025 1432.45 392.025 1431.21 392.025C1429.97 392.025 1428.96 393.025 1428.96 394.259C1428.96 395.493 1429.97 396.494 1431.21 396.494Z" fill="#EB7500"/>
<path d="M1431.21 408.221C1432.45 408.221 1433.45 407.221 1433.45 405.987C1433.45 404.753 1432.45 403.753 1431.21 403.753C1429.97 403.753 1428.96 404.753 1428.96 405.987C1428.96 407.221 1429.97 408.221 1431.21 408.221Z" fill="#EB7500"/>
<path d="M1419.77 381.361C1421.01 381.361 1422.01 380.36 1422.01 379.126C1422.01 377.892 1421.01 376.892 1419.77 376.892C1418.52 376.892 1417.52 377.892 1417.52 379.126C1417.52 380.36 1418.52 381.361 1419.77 381.361Z" fill="#EB7500"/>
<path d="M1419.77 390.628C1421.01 390.628 1422.01 389.628 1422.01 388.394C1422.01 387.16 1421.01 386.16 1419.77 386.16C1418.52 386.16 1417.52 387.16 1417.52 388.394C1417.52 389.628 1418.52 390.628 1419.77 390.628Z" fill="#EB7500"/>
<path d="M1419.77 402.356C1421.01 402.356 1422.01 401.356 1422.01 400.122C1422.01 398.888 1421.01 397.887 1419.77 397.887C1418.52 397.887 1417.52 398.888 1417.52 400.122C1417.52 401.356 1418.52 402.356 1419.77 402.356Z" fill="#EB7500"/>
<path d="M1419.77 413.383C1421.01 413.383 1422.01 412.382 1422.01 411.148C1422.01 409.915 1421.01 408.914 1419.77 408.914C1418.52 408.914 1417.52 409.915 1417.52 411.148C1417.52 412.382 1418.52 413.383 1419.77 413.383Z" fill="#EB7500"/>
<path d="M1408.33 384.766C1409.57 384.766 1410.57 383.765 1410.57 382.531C1410.57 381.297 1409.57 380.297 1408.33 380.297C1407.09 380.297 1406.08 381.297 1406.08 382.531C1406.08 383.765 1407.09 384.766 1408.33 384.766Z" fill="#EB7500"/>
<path d="M1408.33 396.494C1409.57 396.494 1410.57 395.493 1410.57 394.259C1410.57 393.025 1409.57 392.025 1408.33 392.025C1407.09 392.025 1406.08 393.025 1406.08 394.259C1406.08 395.493 1407.09 396.494 1408.33 396.494Z" fill="#EB7500"/>
<path d="M1408.33 408.221C1409.57 408.221 1410.57 407.221 1410.57 405.987C1410.57 404.753 1409.57 403.753 1408.33 403.753C1407.09 403.753 1406.08 404.753 1406.08 405.987C1406.08 407.221 1407.09 408.221 1408.33 408.221Z" fill="#EB7500"/>
<path d="M1396.89 390.628C1398.13 390.628 1399.13 389.628 1399.13 388.394C1399.13 387.16 1398.13 386.16 1396.89 386.16C1395.65 386.16 1394.64 387.16 1394.64 388.394C1394.64 389.628 1395.65 390.628 1396.89 390.628Z" fill="#EB7500"/>
<path d="M1396.89 402.356C1398.13 402.356 1399.13 401.356 1399.13 400.122C1399.13 398.888 1398.13 397.887 1396.89 397.887C1395.65 397.887 1394.64 398.888 1394.64 400.122C1394.64 401.356 1395.65 402.356 1396.89 402.356Z" fill="#EB7500"/>
<path d="M1385.44 396.494C1386.69 396.494 1387.69 395.493 1387.69 394.259C1387.69 393.025 1386.69 392.025 1385.44 392.025C1384.2 392.025 1383.2 393.025 1383.2 394.259C1383.2 395.493 1384.2 396.494 1385.44 396.494Z" fill="#EB7500"/>
<path d="M1499.81 395.23C1494.07 399.423 1487.21 403.04 1479.5 405.915C1466.87 410.624 1451.99 413.345 1436.03 413.345C1415.06 413.345 1395.91 408.642 1381.35 400.884C1378.07 399.145 1375.97 397.247 1373.19 395.219C1376.08 393.08 1378.32 391.098 1381.74 389.281C1396.26 381.555 1415.24 376.88 1436.03 376.88C1452.13 376.88 1467.16 379.686 1479.86 384.54C1487.42 387.44 1494.16 391.054 1499.81 395.23Z" stroke="#EB7500" stroke-width="6" stroke-linejoin="round"/>
<path d="M1358.64 409.581C1360.23 409.901 1361.85 410.061 1363.48 410.059C1371.46 410.059 1378.32 406.291 1381.35 400.895C1378.19 399.22 1375.15 397.327 1372.25 395.23C1366.5 399.481 1361.87 404.324 1358.64 409.581Z" fill="#EB7500"/>
<path d="M1499.81 395.23C1494.07 399.423 1487.21 403.04 1479.5 405.915C1478.07 404.508 1476.95 402.83 1476.2 400.981C1475.44 399.132 1475.07 397.151 1475.1 395.155C1475.14 393.16 1475.58 391.192 1476.4 389.37C1477.21 387.547 1478.39 385.908 1479.86 384.551C1487.42 387.441 1494.16 391.054 1499.81 395.23Z" fill="#EB7500"/>
<path d="M1372.25 395.23C1375.26 393.02 1378.43 391.035 1381.74 389.292C1378.95 383.496 1371.83 379.375 1363.48 379.375C1361.64 379.372 1359.8 379.577 1358 379.987C1361.25 385.591 1366.11 390.741 1372.25 395.23Z" fill="#EB7500"/>
<path d="M1430.41 377.008L1450.68 377.68C1448.1 375.046 1428.96 368.734 1419.34 370.029L1430.41 377.008Z" fill="#EB7500"/>
<path d="M1433.08 412.823L1453.35 412.151C1450.77 414.782 1431.63 421.094 1422.01 419.799L1433.08 412.823Z" fill="#EB7500"/>
<path d="M1484.94 397.328C1486.36 397.328 1487.51 396.184 1487.51 394.772C1487.51 393.361 1486.36 392.216 1484.94 392.216C1483.52 392.216 1482.37 393.361 1482.37 394.772C1482.37 396.184 1483.52 397.328 1484.94 397.328Z" fill="#C8D9D2"/>
<path d="M1521.45 446.871C1522.16 446.871 1522.74 446.295 1522.74 445.585C1522.74 444.874 1522.16 444.298 1521.45 444.298C1520.73 444.298 1520.15 444.874 1520.15 445.585C1520.15 446.295 1520.73 446.871 1521.45 446.871Z" fill="#EB7500"/>
<path d="M1890.36 673.571C1890.06 673.63 1889.76 673.661 1889.46 673.661C1887.96 673.661 1886.67 672.954 1886.11 671.942C1886.7 671.63 1887.27 671.275 1887.81 670.881C1888.83 671.607 1889.69 672.52 1890.36 673.571Z" fill="#423C52"/>
<path d="M1887.81 670.882C1887.25 670.467 1886.65 670.096 1886.04 669.769C1886.56 668.685 1887.89 667.911 1889.46 667.911C1889.8 667.911 1890.15 667.95 1890.48 668.027C1889.8 669.152 1888.89 670.123 1887.81 670.882Z" fill="#423C52"/>
<path d="M1865.07 670.276C1864.96 670.339 1864.88 670.428 1864.82 670.534C1864.76 670.64 1864.73 670.759 1864.73 670.88C1864.73 671.001 1864.76 671.12 1864.82 671.226C1864.88 671.332 1864.96 671.421 1865.07 671.484C1865.99 672.043 1866.96 672.512 1867.98 672.884C1870.59 673.824 1873.35 674.295 1876.12 674.275C1880.05 674.275 1883.64 673.406 1886.37 671.957C1886.9 671.643 1887.41 671.289 1887.9 670.896C1887.39 670.483 1886.86 670.111 1886.29 669.783C1883.57 668.334 1880.01 667.465 1876.12 667.465C1873.32 667.448 1870.54 667.939 1867.91 668.914C1866.92 669.277 1865.97 669.733 1865.07 670.276Z" fill="#423C52"/>
<path d="M1767.26 366.958C1766.34 367.147 1765.4 367.244 1764.45 367.248C1759.94 367.248 1756.05 365.17 1754.23 362.165C1745.84 366.509 1734.92 369.155 1722.98 369.155C1713.73 369.155 1705.1 367.578 1697.78 364.846C1693.59 363.325 1689.62 361.242 1686 358.653C1689.56 356.078 1693.45 353.994 1697.57 352.46C1704.91 349.632 1713.63 348 1722.98 348C1734.81 348 1745.64 350.608 1753.99 354.955C1755.69 351.718 1759.74 349.449 1764.46 349.449C1765.53 349.448 1766.6 349.567 1767.64 349.805C1765.76 353.051 1762.95 356.03 1759.39 358.63L1759.41 358.644H1759.39C1762.71 361.116 1765.39 363.915 1767.26 366.958Z" fill="#E5F1EF"/>
<path d="M1332.26 468.958C1331.34 469.147 1330.4 469.244 1329.45 469.248C1324.94 469.248 1321.05 467.17 1319.23 464.165C1310.84 468.509 1299.92 471.155 1287.98 471.155C1278.73 471.155 1270.1 469.578 1262.78 466.846C1258.59 465.325 1254.62 463.242 1251 460.653C1254.56 458.078 1258.45 455.994 1262.57 454.46C1269.91 451.632 1278.63 450 1287.98 450C1299.81 450 1310.64 452.608 1318.99 456.955C1320.69 453.718 1324.74 451.449 1329.46 451.449C1330.53 451.448 1331.6 451.567 1332.64 451.805C1330.76 455.051 1327.95 458.03 1324.39 460.63L1324.41 460.644H1324.39C1327.71 463.116 1330.39 465.915 1332.26 468.958Z" fill="#E5F1EF"/>
</svg>
