<svg width="967" height="686" viewBox="0 0 967 686" fill="none" xmlns="http://www.w3.org/2000/svg">
<path d="M657.037 120.669C657.037 120.861 657.037 121.052 657.037 121.247H967C966.96 115.46 964.92 109.926 961.328 105.854C957.735 101.781 952.88 99.5004 947.823 99.509H917.399L918.126 99.3111C914.948 92.0457 910.064 85.937 904.022 81.6703C897.98 77.4035 891.018 75.1474 883.918 75.155C881.966 75.1546 880.016 75.3221 878.085 75.6559C878.411 73.2425 878.575 70.8042 878.576 68.3622C878.576 37.5695 852.813 12.5966 821.042 12.5966C791.979 12.5966 767.939 33.5015 764.063 60.6217C757.3 55.4371 749.341 52.6768 741.2 52.693C719.285 52.693 701.385 72.2994 700.239 96.982C695.554 93.7026 690.163 91.9813 684.67 92.011C669.419 92.0238 657.037 104.847 657.037 120.669Z" fill="#E5F1EF"/>
<path d="M185.968 156.34C223.695 156.34 254.278 121.342 254.278 78.1701C254.278 34.998 223.695 0 185.968 0C148.241 0 117.658 34.998 117.658 78.1701C117.658 121.342 148.241 156.34 185.968 156.34Z" fill="#C8D9D2"/>
<path d="M0 173.177C0 173.318 0 173.458 0 173.598H225.908C225.878 169.381 224.392 165.349 221.773 162.381C219.155 159.413 215.617 157.751 211.931 157.757H189.757L190.287 157.613C187.971 152.318 184.411 147.865 180.007 144.755C175.604 141.646 170.53 140.001 165.355 140.007C163.932 140.014 162.512 140.14 161.106 140.387C161.343 138.629 161.462 136.853 161.463 135.075C161.463 112.629 142.684 94.4295 119.531 94.4295C98.3414 94.4295 80.8289 109.658 78.0017 129.44C73.0749 125.655 67.2736 123.638 61.3396 123.646C45.3774 123.646 32.3427 137.937 31.5063 155.925C28.0911 153.535 24.1616 152.281 20.1584 152.304C9.02529 152.304 0 161.646 0 173.177Z" fill="#E5F1EF"/>
<path d="M866.506 354.573C866.506 410.926 853.496 463.804 830.723 509.484C783.622 603.971 694.761 667.672 592.892 667.672C441.774 667.672 319.284 527.492 319.284 354.573C319.284 283.423 340.025 217.814 374.966 165.232C389.052 144.033 405.43 124.964 423.709 108.481C470.271 66.5052 529.026 41.478 592.898 41.478C632.163 41.4155 670.977 51.0617 706.683 69.7565C754.397 94.6753 794.838 134.78 823.177 185.283C851.517 235.786 866.558 294.554 866.506 354.573Z" fill="#BECDC8"/>
<path d="M687.219 194.465L680.109 206.672C679.86 207.099 679.717 207.596 679.696 208.109C679.674 208.622 679.775 209.132 679.986 209.584C680.198 210.037 680.513 210.415 680.898 210.679C681.283 210.943 681.723 211.082 682.172 211.082H694.39C695.047 211.082 695.677 211.38 696.142 211.911C696.606 212.443 696.868 213.163 696.869 213.915C696.869 214.667 697.13 215.389 697.595 215.921C698.059 216.453 698.69 216.751 699.347 216.751H699.83C700.487 216.751 701.117 216.453 701.582 215.921C702.047 215.389 702.308 214.667 702.308 213.915V208.81C702.308 208.085 702.066 207.388 701.631 206.86L691.069 194.098C690.814 193.791 690.501 193.553 690.155 193.402C689.808 193.251 689.437 193.191 689.067 193.226C688.698 193.261 688.34 193.391 688.02 193.605C687.7 193.819 687.426 194.113 687.219 194.465Z" fill="#B59B00"/>
<path d="M671.981 192.799H662.78C659.778 192.799 656.81 193.538 654.078 194.965C651.347 196.392 648.915 198.475 646.949 201.073L640.191 209.987V221.949C640.193 222.468 640.105 222.981 639.932 223.461C639.76 223.941 639.506 224.376 639.186 224.743C638.865 225.11 638.485 225.401 638.066 225.599C637.647 225.796 637.198 225.897 636.745 225.896H628.132L592.505 272.871L592.468 272.922C591.137 274.672 590.19 276.762 589.708 279.016C589.226 281.27 589.222 283.623 589.697 285.879L593.163 302.305C593.335 303.126 593.261 303.99 592.953 304.758C592.645 305.525 592.121 306.153 591.465 306.54C590.809 306.926 590.058 307.05 589.333 306.891C588.608 306.731 587.951 306.298 587.467 305.661L573.509 287.101C572.134 285.271 570.43 283.802 568.514 282.794C566.597 281.787 564.513 281.266 562.404 281.266H545.482C543.447 281.265 541.431 281.723 539.55 282.614C537.669 283.504 535.96 284.81 534.52 286.457C533.08 288.104 531.938 290.059 531.158 292.211C530.379 294.363 529.978 296.67 529.977 298.999V305.061C529.979 309.275 531.442 313.315 534.046 316.294C536.65 319.273 540.181 320.947 543.862 320.947H556.836C557.902 320.947 558.952 321.242 559.896 321.806C560.841 322.37 561.653 323.187 562.263 324.187C562.873 325.188 563.263 326.342 563.4 327.551C563.536 328.761 563.415 329.99 563.048 331.135C562.413 333.097 562.181 335.201 562.37 337.282C562.559 339.363 563.164 341.367 564.138 343.138H573.749C574.638 343.138 575.518 343.339 576.34 343.728C577.161 344.118 577.908 344.689 578.537 345.408C579.165 346.128 579.664 346.982 580.004 347.923C580.344 348.863 580.519 349.87 580.518 350.888V362.055L586.128 368.338C586.312 368.546 586.423 368.823 586.442 369.119C586.462 369.414 586.387 369.707 586.232 369.944C586.077 370.181 585.853 370.347 585.6 370.41C585.348 370.473 585.084 370.429 584.857 370.287L555.093 351.494C547.719 346.84 539.434 344.399 531.012 344.402H516.898C513.429 344.402 510 343.558 506.838 341.926C503.676 340.294 500.853 337.911 498.557 334.935L449.606 271.55C448.477 270.088 447.089 268.917 445.534 268.115C443.98 267.313 442.294 266.898 440.589 266.898H436.878C434.059 266.898 431.355 265.617 429.362 263.336C427.369 261.055 426.249 257.961 426.249 254.736V216.219C426.249 212.313 425.51 208.454 424.082 204.906C422.655 201.359 420.573 198.207 417.98 195.668L410.209 188.058C399.863 177.922 387.914 170.153 375.008 165.172C387.074 147.026 400.826 130.433 416.022 115.685H478.622L510.814 101.892C511.698 100.377 516.452 100.195 517.545 101.516L527.931 115.685H577.889C578.526 115.685 579.15 115.883 579.696 116.258C580.242 116.632 580.688 117.17 580.987 117.813C581.286 118.456 581.427 119.18 581.394 119.907C581.361 120.635 581.156 121.338 580.8 121.942L574.831 132.092C573.33 134.644 571.305 136.736 568.932 138.182C566.559 139.629 563.913 140.386 561.224 140.387H555.743C554.442 140.386 553.154 140.679 551.952 141.247C550.751 141.816 549.658 142.65 548.738 143.702C547.818 144.754 547.088 146.003 546.59 147.377C546.091 148.752 545.834 150.226 545.834 151.714V154.563C545.835 157.231 546.658 159.812 548.158 161.854C549.657 163.897 551.738 165.269 554.034 165.73L592.692 173.474C594.069 173.751 595.483 173.692 596.839 173.298C598.195 172.905 599.463 172.187 600.559 171.192C601.655 170.197 602.554 168.948 603.197 167.526C603.84 166.105 604.213 164.543 604.29 162.945H601.563C601.14 162.946 600.721 162.851 600.33 162.666C599.939 162.481 599.583 162.21 599.284 161.868C598.984 161.525 598.747 161.119 598.585 160.671C598.423 160.224 598.34 159.744 598.34 159.26V154.713C598.338 153.745 598.003 152.816 597.408 152.128C596.813 151.439 596.005 151.045 595.159 151.031C594.3 151.035 593.475 150.65 592.863 149.961C592.251 149.271 591.903 148.332 591.894 147.349C591.894 146.865 591.977 146.386 592.139 145.939C592.301 145.492 592.538 145.086 592.837 144.744C593.137 144.402 593.492 144.131 593.882 143.946C594.273 143.762 594.692 143.667 595.114 143.667H639.298C641.288 143.667 643.256 144.134 645.082 145.04C646.907 145.945 648.55 147.27 649.91 148.932L676.375 181.198C679.997 185.589 677.262 192.799 671.981 192.799Z" fill="#B59B00"/>
<path d="M460.128 80.7418L448.577 102.85C448.398 104.662 444.244 107.316 442.744 106.713L431.817 101.462C440.874 93.8966 450.329 86.9769 460.128 80.7418Z" fill="#B59B00"/>
<path d="M654.736 584.652V587.345C654.737 588.138 654.601 588.924 654.335 589.657C654.07 590.39 653.682 591.055 653.191 591.616C652.701 592.177 652.119 592.622 651.479 592.926C650.838 593.229 650.152 593.385 649.458 593.385H641.147L635.771 608.955C635.489 609.768 635.462 610.669 635.694 611.502C635.927 612.336 636.406 613.052 637.048 613.527C637.621 613.951 638.102 614.519 638.455 615.186C638.808 615.853 639.025 616.604 639.089 617.381C639.153 618.158 639.062 618.941 638.824 619.672C638.585 620.403 638.205 621.063 637.712 621.602L627.585 632.651C627.074 634.133 626.888 635.734 627.041 637.317C627.195 638.9 627.685 640.415 628.467 641.732C629.25 643.049 630.302 644.127 631.532 644.872C632.761 645.617 634.132 646.007 635.523 646.007H644.836C645.566 645.995 646.277 646.269 646.852 646.784C647.427 647.299 647.83 648.023 647.995 648.837C648.084 649.353 648.073 649.884 647.962 650.394C647.851 650.904 647.643 651.379 647.353 651.786C647.062 652.193 646.696 652.521 646.282 652.747C645.868 652.973 645.415 653.092 644.956 653.094H625.943C619.656 653.094 613.626 650.237 609.178 645.152C604.731 640.066 602.229 633.168 602.224 625.974V605.643C602.225 603.835 602.427 602.035 602.824 600.286L621.423 517.311C622.804 511.147 622.424 504.64 620.337 498.742C618.25 492.845 614.567 487.867 609.827 484.54L600.738 478.159L580.727 436.831C578.901 433.067 577.941 428.833 577.939 424.528V420.45C577.939 416.304 578.826 412.222 580.522 408.559C582.218 404.896 584.672 401.764 587.67 399.437L592.755 395.48C594.611 394.046 596.137 392.121 597.204 389.869C598.272 387.617 598.85 385.104 598.889 382.542L599.032 373.861C599.08 370.822 600.169 367.927 602.064 365.799C603.959 363.67 606.508 362.478 609.164 362.48H638.236C641.659 362.48 645.047 363.264 648.2 364.786C651.354 366.307 654.209 368.536 656.599 371.34L668.845 385.73C669.914 386.986 671.192 387.985 672.605 388.666C674.017 389.347 675.534 389.697 677.067 389.696H683.092C686.134 389.694 689.106 390.738 691.622 392.693C694.139 394.648 696.084 397.423 697.206 400.659L701.329 414.905L749.077 434.048C751.082 435.024 752.793 436.653 753.995 438.733C755.198 440.813 755.84 443.251 755.841 445.745V451.386C755.839 453.127 755.527 454.849 754.922 456.446C754.317 458.043 753.434 459.482 752.325 460.674L744.161 469.391C742.917 470.723 741.924 472.334 741.246 474.123C740.568 475.912 740.218 477.842 740.219 479.792V496.163C740.219 501.388 738.405 506.398 735.177 510.092C731.949 513.787 727.57 515.862 723.005 515.862H718.736C715.039 515.862 711.493 517.543 708.878 520.535C706.264 523.526 704.795 527.584 704.795 531.815V534.575L674.538 574.04C673.457 575.45 672.126 576.579 670.633 577.353C669.14 578.126 667.52 578.526 665.881 578.526L659.329 579.033C658.083 579.129 656.916 579.762 656.063 580.805C655.211 581.848 654.736 583.223 654.736 584.652Z" fill="#B59B00"/>
<path d="M755.615 102.837H746.266C743.441 102.837 740.711 104.004 738.577 106.123L733.809 110.861C730.924 113.738 727.227 115.324 723.401 115.328H705.659C703.178 115.328 700.798 116.455 699.042 118.461C697.286 120.468 696.298 123.19 696.294 126.029V131.517C696.294 132.566 696.113 133.605 695.762 134.573C695.411 135.542 694.896 136.422 694.248 137.163C693.599 137.904 692.829 138.491 691.981 138.891C691.134 139.291 690.226 139.496 689.31 139.494H686.318C685.064 139.494 683.834 139.108 682.755 138.377L665.025 126.348C663.227 125.129 661.737 123.395 660.702 121.318C659.667 119.24 659.123 116.89 659.122 114.498V99.0623L650.73 83.5687C648.41 79.2883 645.175 75.7562 641.329 73.3068C637.483 70.8574 633.155 69.5717 628.754 69.5714H592.424C591.105 69.5716 589.83 69.0281 588.833 68.0404C587.835 67.0528 587.182 65.6871 586.993 64.1934C586.804 62.6997 587.091 61.1779 587.802 59.9068C588.513 58.6356 589.6 57.7001 590.865 57.2716L622.731 46.4458C625.323 45.5659 627.965 44.8921 630.638 44.4294C656.929 48.5731 682.546 57.104 706.674 69.7501C723.949 78.8023 740.351 89.8912 755.615 102.837Z" fill="#B59B00"/>
<path d="M855.66 267C854.425 267.287 853.315 268.054 852.518 269.171C851.721 270.287 851.285 271.685 851.285 273.126V273.698C851.286 274.447 851.131 275.186 850.832 275.852C850.533 276.519 850.1 277.095 849.567 277.532C849.035 277.968 848.42 278.254 847.772 278.364C847.124 278.474 846.463 278.405 845.843 278.164L823.791 269.569C822.977 269.252 822.269 268.65 821.769 267.849C821.269 267.047 821.001 266.087 821.003 265.102V255.773C821.003 254.873 820.833 253.984 820.506 253.166C820.178 252.348 819.7 251.62 819.104 251.033C818.509 250.445 817.809 250.012 817.054 249.761C816.298 249.511 815.505 249.45 814.727 249.583L774.636 256.404C772.904 256.7 771.191 257.127 769.509 257.681V252.502C769.508 252.109 769.576 251.72 769.707 251.357C769.838 250.994 770.03 250.664 770.273 250.386C770.515 250.108 770.804 249.888 771.121 249.737C771.438 249.587 771.778 249.509 772.121 249.509H776.278C777.48 249.511 778.668 249.216 779.76 248.643C780.853 248.07 781.824 247.234 782.607 246.191L794.613 230.209C796.05 228.3 797.83 226.767 799.832 225.716C801.833 224.664 804.01 224.12 806.212 224.119H817.108C819.475 224.117 821.814 224.693 823.971 225.807C826.128 226.922 828.052 228.55 829.616 230.583L834.635 237.095C836.307 239.277 839.455 237.602 839.065 234.721C839.008 234.299 838.978 233.872 838.976 233.445C838.982 232.01 839.323 230.604 839.962 229.37C840.602 228.136 841.517 227.12 842.614 226.425C840.941 222.182 839.197 217.99 837.381 213.851C831.704 200.963 825.253 188.541 818.076 176.674L801.416 188.224C798.677 190.123 795.438 190.852 792.274 190.281C789.111 189.71 786.225 187.876 784.13 185.104L777.996 176.987L759.959 173.436C759.904 173.425 759.848 173.427 759.795 173.442C759.741 173.457 759.69 173.485 759.646 173.524C759.602 173.563 759.566 173.611 759.539 173.667C759.512 173.723 759.496 173.784 759.491 173.847C759.383 174.996 758.908 176.058 758.157 176.83C757.406 177.602 756.432 178.028 755.423 178.027H747.145C746.771 178.027 746.402 178.127 746.068 178.319C745.734 178.511 745.444 178.789 745.221 179.132C744.997 179.476 744.847 179.874 744.783 180.295C744.718 180.716 744.74 181.149 744.847 181.559L746.799 189.022C746.799 189.48 746.878 189.934 747.031 190.357C747.185 190.78 747.409 191.165 747.693 191.489C747.976 191.813 748.312 192.069 748.682 192.245C749.052 192.42 749.449 192.509 749.849 192.509H754.712C757.351 192.511 759.941 193.337 762.2 194.898C764.46 196.458 766.306 198.695 767.537 201.366L773.841 215.086C774.274 216.025 774.488 217.076 774.461 218.137C774.435 219.198 774.169 220.233 773.69 221.143C773.211 222.052 772.534 222.804 771.727 223.326C770.919 223.847 770.007 224.122 769.079 224.122H757.6C756.181 224.124 754.82 224.771 753.817 225.92C752.813 227.069 752.249 228.626 752.247 230.251V240.675C752.249 243.016 753.062 245.262 754.509 246.918C755.956 248.574 757.918 249.505 759.965 249.506C760.462 249.505 760.955 249.617 761.415 249.835C761.875 250.052 762.292 250.372 762.644 250.775C762.995 251.178 763.274 251.656 763.463 252.182C763.653 252.709 763.75 253.273 763.748 253.842V260.179C759.273 262.597 755.24 265.966 751.862 270.105L730.72 296.064C726.834 300.835 724.674 307.115 724.675 313.638V327.485C724.674 334.106 726.901 340.473 730.892 345.266L752.214 370.855C753.274 372.13 754.549 373.146 755.962 373.839C757.376 374.533 758.898 374.891 760.436 374.891H803.761C804.954 374.891 806.127 375.248 807.162 375.926C808.197 376.605 809.059 377.582 809.662 378.761C810.265 379.939 810.589 381.277 810.6 382.642C810.611 384.008 810.309 385.353 809.725 386.543L806.379 393.342C805.733 394.66 805.435 396.164 805.52 397.672C805.605 399.18 806.07 400.627 806.859 401.839L811.643 409.209C812.525 410.558 813 412.197 812.998 413.88V451.53C812.996 454.462 813.685 457.341 814.992 459.864L822.378 474.17C823.969 477.259 824.808 480.779 824.806 484.364V498.295L830.037 510.827C830.264 510.381 830.488 509.934 830.709 509.487C853.483 463.807 866.492 410.929 866.492 354.576C866.519 324.945 862.872 295.459 855.66 267ZM809.853 166.231H811.487C809.424 163.098 807.311 160.014 805.15 156.978C804.21 155.654 803.259 154.346 802.3 153.041C801.754 154.476 801.529 156.043 801.644 157.602C801.76 159.161 802.212 160.663 802.962 161.972C803.711 163.281 804.734 164.355 805.937 165.099C807.14 165.843 808.486 166.232 809.853 166.231Z" fill="#B59B00"/>
<path d="M732.25 624.26C725.838 626.091 691.641 664.05 570.42 672.413V622.441C570.42 611.783 574.117 601.561 580.697 594.019C587.277 586.476 596.204 582.23 605.517 582.211C606.632 582.211 607.76 582.273 608.899 582.396C678.422 592.054 726.094 608.355 732.25 624.26Z" fill="#E5F1EF"/>
<path d="M647.989 466.979C647.529 467.735 618.05 516.318 608.899 582.396C607.762 582.273 606.634 582.211 605.517 582.211C596.203 582.23 587.277 586.476 580.697 594.019C574.117 601.561 570.42 611.784 570.42 622.441V672.413C560.338 673.476 549.911 674.456 539.139 675.351C489.451 679.499 432.882 681.822 372.864 681.822C312.846 681.822 256.274 679.483 206.586 675.351C105.671 666.954 33.1485 651.154 17.7634 632.505C65.4578 675.415 563.042 633.398 569.926 591.923C571.022 585.325 568.016 580.478 562.331 576.927C557.212 574.416 545.546 566.577 487.001 566.941C446.67 567.19 451.557 561.925 452.196 560.936C460.747 547.704 599.804 515.409 647.989 466.979Z" fill="#C8D9D2"/>
<path d="M17.2392 631.423C57.8433 676.092 562.986 633.727 569.926 591.914C576.289 553.582 444.314 574.439 452.196 560.91C460.078 547.382 654.678 500.608 654.675 450.397C654.675 425.612 476.562 417.722 311.762 465.811C24.6167 549.606 5.40626 618.418 17.2392 631.423Z" fill="#E5F1EF"/>
<path d="M281.017 474.17V438.512C285.968 435.196 291.253 432.58 296.756 430.721L360.992 409.005C360.992 409.005 358.89 414.037 356.021 421.653L281.017 474.17Z" fill="#423C52"/>
<path d="M353.673 510.754H288.74C287.726 510.754 286.722 510.526 285.784 510.082C284.847 509.639 283.996 508.988 283.279 508.167C282.562 507.347 281.993 506.373 281.605 505.301C281.216 504.229 281.017 503.08 281.017 501.919V438.512C285.968 435.196 291.253 432.58 296.756 430.721L360.992 409.005C360.992 409.005 352.887 428.42 346.773 448.716C342.669 462.298 339.454 476.279 340.142 485.089C341.431 501.718 353.673 510.754 353.673 510.754Z" fill="white" stroke="#423C52" stroke-width="5" stroke-miterlimit="10" stroke-linecap="round"/>
<path d="M296.756 430.733L360.992 409.018C360.992 409.018 352.887 428.433 346.773 448.728L299.491 464.713C292.963 466.919 286.746 470.187 281.031 474.416V438.512C285.978 435.202 291.259 432.59 296.756 430.733Z" fill="#423C52"/>
<path d="M538.674 510.754H495.332C495.332 510.754 509.209 477.115 504.658 446.769C502.456 432.093 498.68 420.415 494.883 411.622C493.119 407.507 491.113 403.534 488.88 399.73C488.29 398.738 487.491 397.933 486.556 397.39C485.62 396.848 484.58 396.585 483.533 396.627C482.485 396.669 481.463 397.015 480.564 397.631C479.664 398.247 478.916 399.114 478.388 400.151C495.728 366.117 525.926 337.816 553.39 316.053C551.204 321.065 547.786 336.84 547.582 356.944C547.443 370.523 548.775 386.074 552.944 401.613C564.074 443.126 566.723 492.146 538.674 510.754Z" fill="white" stroke="#423C52" stroke-width="5" stroke-miterlimit="10" stroke-linecap="round"/>
<path d="M553.387 316.053C551.201 321.065 547.783 336.84 547.579 356.944C528.971 372.367 509.858 390.678 494.883 411.622C493.119 407.507 491.113 403.534 488.88 399.73C488.29 398.738 487.491 397.933 486.556 397.39C485.62 396.848 484.58 396.585 483.533 396.627C482.485 396.669 481.463 397.015 480.564 397.631C479.664 398.247 478.916 399.114 478.388 400.151C495.736 366.117 525.926 337.816 553.387 316.053Z" fill="#423C52"/>
<path d="M630.577 209.732H312.573C237.24 209.732 177.392 282.191 181.638 368.261L188.143 500.193C188.283 503.047 189.372 505.73 191.187 507.694C193.001 509.658 195.404 510.753 197.901 510.754H256.141L252.633 506.182C250.472 503.368 248.986 499.961 248.32 496.294C247.654 492.626 247.831 488.824 248.833 485.258L249.775 481.901C253.501 469.721 259.703 458.729 267.872 449.832C276.041 440.936 285.941 434.389 296.756 430.733L394.637 397.643C396.546 396.999 398.56 396.872 400.518 397.273C402.477 397.675 404.327 398.593 405.922 399.956C407.516 401.319 408.811 403.088 409.703 405.124C410.596 407.159 411.061 409.405 411.062 411.682V500.978C411.065 503.573 411.967 506.06 413.572 507.893C415.176 509.727 417.352 510.756 419.619 510.754H478.338C478.338 510.754 468.858 496.269 465.496 475.801C450.794 386.345 545.056 321.251 590.313 288.591L630.577 209.732Z" fill="white" stroke="#423C52" stroke-width="5" stroke-miterlimit="10" stroke-linecap="round"/>
<path d="M590.316 288.591C585.749 291.887 580.68 295.515 575.277 299.465C549.311 271.285 541.944 240.119 539.948 222.061L540.715 223.072C544.68 238.601 554.951 264.729 581.143 285.267L581.274 285.369C583.934 287.464 587.087 288.588 590.316 288.591Z" fill="#423C52"/>
<path d="M639.935 222.999C635.986 238.518 625.715 264.697 599.484 285.267L599.353 285.369C596.695 287.466 593.543 288.59 590.315 288.59C587.087 288.59 583.935 287.466 581.277 285.369L581.146 285.267C554.909 264.697 544.643 238.518 540.695 222.999C539.022 216.394 543.16 209.732 548.92 209.732H554.098C555.714 209.744 557.304 210.198 558.735 211.057C560.166 211.915 561.396 213.154 562.323 214.668L562.359 214.725C562.53 215.001 562.755 215.226 563.017 215.382C563.279 215.537 563.57 215.618 563.865 215.618C564.16 215.618 564.451 215.537 564.713 215.382C564.975 215.226 565.2 215.001 565.371 214.725C567.347 211.713 571.033 209.726 575.481 209.726H604.6C608.936 209.726 612.705 211.726 614.716 214.757C614.887 215.031 615.113 215.253 615.375 215.406C615.637 215.558 615.927 215.637 616.221 215.634C616.515 215.632 616.804 215.549 617.064 215.393C617.324 215.236 617.548 215.011 617.716 214.735L617.763 214.662C618.69 213.147 619.921 211.909 621.352 211.05C622.783 210.192 624.372 209.737 625.988 209.726H631.709C637.47 209.732 641.616 216.394 639.935 222.999Z" fill="white" stroke="#423C52" stroke-width="5" stroke-miterlimit="10" stroke-linecap="round"/>
<path d="M546.029 221.352C546.029 220.611 546.286 219.9 546.744 219.376C547.202 218.852 547.824 218.557 548.471 218.557H549.129C549.953 218.555 550.768 218.739 551.529 219.098C552.29 219.457 552.982 219.984 553.565 220.65C554.147 221.315 554.61 222.105 554.925 222.975C555.241 223.845 555.403 224.778 555.403 225.72" stroke="#423C52" stroke-width="5" stroke-miterlimit="10" stroke-linecap="round"/>
<path d="M634.818 221.352C634.818 220.985 634.755 220.622 634.632 220.283C634.509 219.944 634.33 219.635 634.103 219.376C633.876 219.116 633.607 218.911 633.31 218.77C633.014 218.63 632.696 218.557 632.376 218.557H631.72C630.898 218.557 630.084 218.742 629.324 219.102C628.564 219.461 627.874 219.989 627.293 220.654C626.711 221.319 626.25 222.109 625.935 222.978C625.62 223.848 625.458 224.779 625.458 225.72" stroke="#423C52" stroke-width="5" stroke-miterlimit="10" stroke-linecap="round"/>
<path d="M593.272 256.146H586.973C584.677 256.146 582.816 258.276 582.816 260.903V260.97C582.816 263.598 584.677 265.727 586.973 265.727H593.272C595.568 265.727 597.429 263.598 597.429 260.97V260.903C597.429 258.276 595.568 256.146 593.272 256.146Z" fill="#423C52"/>
<path d="M575.174 255.466C576.021 255.466 576.707 254.681 576.707 253.712C576.707 252.742 576.021 251.957 575.174 251.957C574.327 251.957 573.64 252.742 573.64 253.712C573.64 254.681 574.327 255.466 575.174 255.466Z" fill="#423C52"/>
<path d="M607.067 255.466C607.914 255.466 608.601 254.681 608.601 253.712C608.601 252.742 607.914 251.957 607.067 251.957C606.221 251.957 605.534 252.742 605.534 253.712C605.534 254.681 606.221 255.466 607.067 255.466Z" fill="#423C52"/>
<path d="M263.88 93.3255C263.88 93.3255 259.595 84.7109 245.925 91.1878C234.674 96.513 229.048 107.221 209.745 103.985C190.443 100.75 135.859 81.0832 135.859 81.0832V80.2504L241.296 77.6979C243.038 77.7028 244.747 78.2412 246.246 79.2573C247.745 80.2733 248.979 81.73 249.82 83.4761H259.238C260.49 83.4761 261.691 84.0452 262.576 85.0582C263.461 86.0713 263.958 87.4452 263.958 88.8778L263.88 93.3255Z" fill="white" stroke="#423C52" stroke-width="5" stroke-linecap="round" stroke-linejoin="round"/>
<path d="M307.323 66.2372H294.899C292.43 66.2378 290.003 65.5057 287.856 64.1123L280.606 59.4157C278.459 58.0209 276.033 57.2876 273.564 57.2875H264.745L275.309 54.9616C280.07 52.5398 285.371 51.8739 290.478 53.0562C295.585 54.2386 300.243 57.2106 303.807 61.5598L307.323 66.2372Z" fill="#423C52"/>
<path d="M275.091 55.6412C278.17 54.0744 281.502 53.2646 284.872 53.2642H254.961C242.877 53.2653 230.898 55.8258 219.629 60.8163L178.085 79.2103L231.264 77.934C231.264 77.934 272.462 56.7738 275.091 55.6412Z" fill="white" stroke="#423C52" stroke-width="5" stroke-miterlimit="10" stroke-linecap="round"/>
<path d="M263.967 88.8778L263.88 93.3255C263.88 93.3255 259.595 85.0299 245.924 91.5037C234.674 96.8288 229.048 107.221 209.745 103.985C190.443 100.75 135.859 81.0832 135.859 81.0832V80.2504L159.26 79.6857C154.5 66.2372 125.359 60.4813 82.3511 60.4813C65.4771 60.4813 65.1704 52.9451 65.1704 52.9451H158.437C169.344 52.9448 180.038 56.4038 189.33 62.9381L211.195 78.4317L241.29 77.7075C243.033 77.7102 244.742 78.2467 246.242 79.2611C247.742 80.2755 248.977 81.7309 249.819 83.4761H259.238C259.859 83.4749 260.473 83.6136 261.047 83.8845C261.621 84.1554 262.142 84.5531 262.581 85.0548C263.02 85.5566 263.369 86.1525 263.607 86.8085C263.844 87.4645 263.967 88.1677 263.967 88.8778Z" fill="white" stroke="#423C52" stroke-width="5" stroke-miterlimit="10" stroke-linecap="round"/>
<path d="M242.852 85.3075C243.545 85.3075 244.107 84.6647 244.107 83.8718C244.107 83.0788 243.545 82.436 242.852 82.436C242.159 82.436 241.597 83.0788 241.597 83.8718C241.597 84.6647 242.159 85.3075 242.852 85.3075Z" fill="#423C52"/>
<path d="M158.976 79.6857L177.818 79.3666" stroke="#423C52" stroke-width="5" stroke-miterlimit="10" stroke-linecap="round"/>
<path d="M889.548 632.087C889.547 640.931 887.521 649.62 883.672 657.289C879.823 664.958 874.285 671.339 867.61 675.796C860.935 680.254 853.356 682.632 845.628 682.693C837.899 682.755 830.292 680.498 823.563 676.148C816.835 671.798 811.219 665.506 807.277 657.899C803.335 650.292 801.203 641.636 801.095 632.793C800.986 623.95 802.904 615.229 806.658 607.498C810.412 599.768 815.87 593.298 822.49 588.733V133.515C822.49 126.585 824.895 119.939 829.177 115.039C833.459 110.139 839.266 107.387 845.322 107.387C851.377 107.387 857.185 110.139 861.467 115.039C865.749 119.939 868.154 126.585 868.154 133.515V588.736C874.684 593.237 880.086 599.595 883.834 607.191C887.583 614.787 889.551 623.363 889.548 632.087Z" fill="white" stroke="#423C52" stroke-width="5" stroke-miterlimit="10" stroke-linecap="round"/>
<path d="M831.127 181.269H859.915" stroke="#423C52" stroke-width="5" stroke-miterlimit="10" stroke-linecap="round"/>
<path d="M831.127 206.682H859.915" stroke="#423C52" stroke-width="5" stroke-miterlimit="10" stroke-linecap="round"/>
<path d="M831.127 232.092H859.915" stroke="#423C52" stroke-width="5" stroke-miterlimit="10" stroke-linecap="round"/>
<path d="M831.127 257.505H859.915" stroke="#423C52" stroke-width="5" stroke-miterlimit="10" stroke-linecap="round"/>
<path d="M831.127 282.918H859.915" stroke="#423C52" stroke-width="5" stroke-miterlimit="10" stroke-linecap="round"/>
<path d="M831.127 308.332H859.915" stroke="#423C52" stroke-width="5" stroke-miterlimit="10" stroke-linecap="round"/>
<path d="M831.127 333.745H859.915" stroke="#423C52" stroke-width="5" stroke-miterlimit="10" stroke-linecap="round"/>
<path d="M831.127 359.158H859.915" stroke="#423C52" stroke-width="5" stroke-miterlimit="10" stroke-linecap="round"/>
<path d="M831.127 384.571H859.915" stroke="#423C52" stroke-width="5" stroke-miterlimit="10" stroke-linecap="round"/>
<path d="M831.127 409.985H859.915" stroke="#423C52" stroke-width="5" stroke-miterlimit="10" stroke-linecap="round"/>
<path d="M831.127 435.398H859.915" stroke="#423C52" stroke-width="5" stroke-miterlimit="10" stroke-linecap="round"/>
<path d="M831.127 460.811H859.915" stroke="#423C52" stroke-width="5" stroke-miterlimit="10" stroke-linecap="round"/>
<path d="M831.127 486.225H859.915" stroke="#423C52" stroke-width="5" stroke-miterlimit="10" stroke-linecap="round"/>
<path d="M831.127 511.638H859.915" stroke="#423C52" stroke-width="5" stroke-miterlimit="10" stroke-linecap="round"/>
<path d="M831.127 537.051H859.915" stroke="#423C52" stroke-width="5" stroke-miterlimit="10" stroke-linecap="round"/>
<path d="M831.127 562.464H859.915" stroke="#423C52" stroke-width="5" stroke-miterlimit="10" stroke-linecap="round"/>
<path d="M831.127 587.878H859.915" stroke="#423C52" stroke-width="5" stroke-miterlimit="10" stroke-linecap="round"/>
<path d="M852.105 160.23V231.227H838.538V160.23C838.538 155.932 841.265 152.451 844.628 152.451H846.022C849.379 152.451 852.105 155.932 852.105 160.23Z" fill="white" stroke="#FE552F" stroke-width="6" stroke-linejoin="round"/>
<path d="M852.894 231.227H837.746V359.273H852.894V231.227Z" fill="#FE552F"/>
<path d="M860.927 631.994C860.93 635.108 860.221 638.168 858.872 640.872C857.522 643.576 855.579 645.829 853.234 647.409C850.889 648.988 848.224 649.839 845.503 649.877C842.782 649.915 840.1 649.138 837.722 647.624C835.344 646.11 833.354 643.912 831.947 641.246C830.541 638.581 829.768 635.541 829.704 632.428C829.641 629.315 830.289 626.237 831.585 623.499C832.882 620.761 834.781 618.459 837.094 616.82H853.544C855.803 618.42 857.666 620.654 858.959 623.309C860.251 625.965 860.928 628.955 860.927 631.994Z" fill="#BECDC8"/>
<path d="M853.547 616.82H837.097C837.309 616.663 837.526 616.52 837.749 616.376V486.362H852.9V616.376C853.118 616.52 853.332 616.663 853.547 616.82Z" fill="#BECDC8"/>
<path d="M852.894 359.273H837.746V486.358H852.894V359.273Z" fill="#FFDB00"/>
<path d="M849.359 257.355V621.334C851.582 622.746 853.434 624.813 854.724 627.32C856.013 629.827 856.693 632.684 856.692 635.593" stroke="white" stroke-width="5" stroke-miterlimit="10" stroke-linecap="round"/>
</svg>
