<svg width="1921" height="871" viewBox="0 0 1921 871" fill="none" xmlns="http://www.w3.org/2000/svg">
<path d="M1867.78 610.48C1865.86 677.149 1858.87 740.756 1842.77 798.439L1271.01 799.852C1254.92 742.169 1246 677.215 1246 610.48C1246 346.765 1385.19 133 1556.89 133C1728.58 133 1875.67 335.449 1867.78 610.48Z" fill="#B59B00"/>
<path d="M0 801.36C28.9897 771.881 73.4126 791.518 73.4126 791.518C73.4126 791.518 60.2122 730.835 117.516 712.592C183.216 691.659 209.494 743.522 209.494 743.522C209.494 743.522 225.635 644.012 311.28 653.317C448.169 668.193 365.962 811.518 516.399 765.867C588.456 744.002 599.907 800.903 599.907 800.903L0 801.36Z" fill="#DBE5E5"/>
<path d="M1921 799.429L1180.42 799.9C1209.75 770.421 1254.7 790.063 1254.7 790.063C1254.7 790.063 1241.34 729.375 1299.33 711.118C1321.01 704.294 1338.45 705.212 1352.11 709.545C1362.36 712.784 1373.35 712.612 1383.51 709.053C1393.66 705.494 1402.48 698.728 1408.7 689.714C1422.55 669.809 1448.14 651.848 1495.39 651.848C1535.71 651.848 1566.87 674.758 1601.35 697.291C1610.99 684.577 1627.37 676.241 1645.93 676.241C1675.61 676.241 1699.64 697.536 1699.64 723.804C1699.64 728.916 1698.72 733.984 1696.93 738.751C1724.08 742.731 1755.53 740.569 1793.57 728.005C1899.6 692.959 1921 799.429 1921 799.429Z" fill="#DBE5E5"/>
<path d="M272.77 861.351C272.77 866.682 249.173 871 220.064 871C190.956 871 167.359 866.682 167.359 861.351C167.359 857.664 178.66 854.457 195.266 852.832L181.235 827.365L204.658 841.728V804.836L218.256 833.242L241.694 736.609L237.89 837.81L261.948 822.467L245.62 852.926C261.811 854.555 272.77 857.72 272.77 861.351Z" fill="#B59B00"/>
<path d="M1724.27 741.577L1603.67 742.655C1601.31 742.547 1598.94 742.321 1596.55 741.963C1535.54 732.87 1501.04 712.766 1484.16 679.387C1479.8 682.462 1474.78 684.389 1469.53 685.001C1464.28 685.613 1458.97 684.891 1454.05 682.897C1449.14 680.904 1444.77 677.7 1441.33 673.565C1437.89 669.43 1435.48 664.49 1434.32 659.175C1433.16 653.861 1433.27 648.334 1434.66 643.076C1436.04 637.819 1438.66 632.991 1442.27 629.014C1445.88 625.037 1450.37 622.031 1455.37 620.26C1460.36 618.488 1465.7 618.004 1470.92 618.85C1470.64 608.485 1470.87 598.111 1471.6 587.769C1477.42 500.484 1520.46 437.423 1586.62 435.149C1652.77 432.874 1708.42 492.078 1711.27 579.519C1711.49 586.343 1711.37 593.147 1710.95 599.891C1713.84 599.447 1716.76 599.175 1719.68 599.076C1759.65 597.696 1797.85 628.485 1799.13 667.831C1800.4 707.176 1764.24 740.197 1724.27 741.577Z" fill="#FFDB00"/>
<path d="M1590.92 513.477V798.977" stroke="#B59B00" stroke-width="5" stroke-miterlimit="10"/>
<path d="M1563.38 499.265V546.126C1563.38 548.94 1563.92 551.727 1564.96 554.327C1566 556.927 1567.53 559.29 1569.46 561.28C1571.39 563.27 1573.68 564.849 1576.2 565.926C1578.72 567.003 1581.43 567.558 1584.16 567.558V567.558C1585.95 567.558 1587.67 568.292 1588.94 569.6C1590.21 570.908 1590.92 572.682 1590.92 574.532" stroke="#B59B00" stroke-width="5" stroke-miterlimit="10"/>
<path d="M1590.92 547.247C1590.92 542.483 1591.84 537.767 1593.64 533.379C1595.44 528.99 1598.07 525.019 1601.39 521.699L1613.08 509.992" stroke="#B59B00" stroke-width="5" stroke-miterlimit="10"/>
<path d="M1634.39 622.514L1614.8 638.525C1607.35 644.602 1601.34 652.337 1597.2 661.151C1593.07 669.965 1590.92 679.63 1590.92 689.422" stroke="#B59B00" stroke-width="5" stroke-miterlimit="10"/>
<path d="M1590.92 789.432C1590.92 782.188 1593.71 775.241 1598.67 770.118C1603.64 764.996 1610.38 762.119 1617.4 762.119H1655.66C1667.33 762.119 1678.51 757.341 1686.76 748.836C1695 740.332 1699.64 728.797 1699.64 716.769V670.835" stroke="#B59B00" stroke-width="5" stroke-miterlimit="10"/>
<path d="M1727.24 683.239V691.019C1727.24 694.208 1726.01 697.266 1723.83 699.522C1721.64 701.777 1718.68 703.045 1715.58 703.046H1711.3C1708.21 703.046 1705.24 704.313 1703.06 706.568C1700.87 708.822 1699.64 711.88 1699.64 715.069" stroke="#B59B00" stroke-width="5" stroke-miterlimit="10"/>
<path d="M1699.64 676.218C1699.64 676.218 1682.4 662.669 1690.16 639.486C1690.16 639.491 1707.39 653.039 1699.64 676.218Z" fill="#B59B00"/>
<path d="M1726.29 686.691C1726.29 686.691 1718.59 655.982 1742.22 659.265L1726.29 686.691Z" fill="#B59B00"/>
<path d="M1732.25 691.076C1732.25 691.076 1743.49 679.105 1757.74 691.076C1757.74 691.076 1749.19 699.726 1732.25 691.076Z" fill="#B59B00"/>
<path d="M1619.9 634.339C1619.9 634.339 1625.73 612.884 1645.28 613.863C1645.28 613.863 1642.55 632.611 1619.9 634.339Z" fill="#B59B00"/>
<path d="M1577.15 690.962C1577.15 690.962 1555.78 682.585 1559.11 661.2C1559.11 661.2 1575.09 663.268 1577.15 690.962Z" fill="#B59B00"/>
<path d="M1578.76 765.594C1578.76 765.594 1555.9 765.754 1551.5 744.577C1551.5 744.577 1567.13 740.541 1578.76 765.594Z" fill="#B59B00"/>
<path d="M1601.39 521.699C1601.39 521.699 1602.47 502.538 1623.36 499.269C1623.36 499.265 1625.15 514.744 1601.39 521.699Z" fill="#B59B00"/>
<path d="M1563.38 520.329C1563.38 520.329 1559.69 488.66 1564.96 479.684C1564.96 479.684 1580.79 493.722 1563.38 520.329Z" fill="#B59B00"/>
<path d="M1552.14 521.699C1552.14 521.699 1533.62 521.473 1533.31 499.269C1533.31 499.265 1546.6 502.665 1552.14 521.699Z" fill="#B59B00"/>
<path d="M1664.94 842.792C1664.94 842.792 1636.63 848.094 1629.84 813.208C1629.84 813.208 1660.89 816.076 1664.94 842.792Z" fill="#B59B00"/>
<path d="M1696.32 814.183C1696.32 814.183 1682.38 829.903 1661.55 812.634C1661.55 812.634 1681.04 800.447 1696.32 814.183Z" fill="#423C52"/>
<path d="M244.967 552.05C244.963 566.869 239.595 581.151 229.914 592.101C220.234 603.051 206.938 609.879 192.632 611.247C178.325 612.615 164.039 608.425 152.571 599.498C141.103 590.571 133.28 577.55 130.634 562.985C120.651 567.215 109.963 569.394 99.1695 569.399C44.3772 569.399 0 513.524 0 444.605C0 375.686 44.3955 319.811 99.1695 319.811C153.944 319.811 198.334 375.686 198.334 444.605C198.373 460.951 195.795 477.192 190.705 492.672C205.387 493.562 219.184 500.207 229.271 511.245C239.359 522.284 244.974 536.882 244.967 552.05Z" fill="#B59B00"/>
<path d="M78.4809 688.697C101.575 688.697 120.297 670.55 120.297 648.165C120.297 625.78 101.575 607.633 78.4809 607.633C55.3868 607.633 36.6653 625.78 36.6653 648.165C36.6653 670.55 55.3868 688.697 78.4809 688.697Z" fill="#FFDB00"/>
<path d="M221.653 485.961C228.918 485.961 234.808 479.887 234.808 472.394C234.808 464.901 228.918 458.827 221.653 458.827C214.388 458.827 208.499 464.901 208.499 472.394C208.499 479.887 214.388 485.961 221.653 485.961Z" fill="#B59B00"/>
<path d="M99.1558 396.628V800.207" stroke="#423C52" stroke-width="5" stroke-miterlimit="10" stroke-linecap="round"/>
<path d="M71.6135 382.914V429.776C71.6111 432.592 72.1468 435.381 73.19 437.984C74.2331 440.586 75.7633 442.951 77.6931 444.944C79.6229 446.936 81.9144 448.517 84.4368 449.596C86.9591 450.675 89.6629 451.23 92.3935 451.231C94.1862 451.231 95.9055 451.965 97.1735 453.272C98.4416 454.579 99.1546 456.352 99.1558 458.2" stroke="#423C52" stroke-width="5" stroke-miterlimit="10" stroke-linecap="round"/>
<path d="M78.2937 645.137V691.998C78.2931 694.814 78.8305 697.602 79.8751 700.203C80.9198 702.804 82.4512 705.167 84.3819 707.158C86.3126 709.148 88.6047 710.726 91.1271 711.803C93.6496 712.879 96.353 713.432 99.0828 713.43" stroke="#423C52" stroke-width="5" stroke-miterlimit="10" stroke-linecap="round"/>
<path d="M99.1558 430.892C99.1555 426.128 100.082 421.412 101.88 417.024C103.679 412.635 106.312 408.664 109.626 405.344L121.31 393.632" stroke="#423C52" stroke-width="5" stroke-miterlimit="10" stroke-linecap="round"/>
<path d="M142.624 506.159L123.036 522.142C115.591 528.219 109.575 535.955 105.439 544.77C101.304 553.585 99.1555 563.251 99.1558 573.044" stroke="#423C52" stroke-width="5" stroke-miterlimit="10" stroke-linecap="round"/>
<path d="M99.1558 673.077C99.1558 665.833 101.946 658.886 106.912 653.763C111.879 648.641 118.615 645.763 125.639 645.763H130.511C136.285 645.764 142.003 644.592 147.338 642.313C152.673 640.034 157.521 636.693 161.604 632.482C165.687 628.271 168.926 623.271 171.136 617.769C173.345 612.267 174.482 606.369 174.481 600.414V554.485" stroke="#423C52" stroke-width="5" stroke-miterlimit="10" stroke-linecap="round"/>
<path d="M202.088 566.879V574.664C202.088 577.852 200.86 580.91 198.673 583.165C196.487 585.42 193.522 586.686 190.431 586.686H186.148C183.055 586.686 180.089 587.953 177.902 590.209C175.715 592.465 174.486 595.524 174.486 598.714" stroke="#423C52" stroke-width="5" stroke-miterlimit="10" stroke-linecap="round"/>
<path d="M174.486 559.863C174.486 559.863 157.245 546.314 164.998 523.131C164.998 523.136 182.235 536.684 174.486 559.863Z" fill="#423C52"/>
<path d="M201.134 570.308C201.134 570.308 193.435 539.599 217.069 542.886L201.134 570.308Z" fill="#423C52"/>
<path d="M207.101 574.716C207.101 574.716 218.338 562.745 232.584 574.716C232.584 574.716 224.036 583.367 207.101 574.716Z" fill="#423C52"/>
<path d="M128.136 517.979C128.136 517.979 133.967 496.529 153.514 497.508C153.514 497.508 150.793 516.255 128.136 517.979Z" fill="#423C52"/>
<path d="M94.2747 591.885C94.2747 591.885 71.7277 595.785 64.1389 575.596C64.1252 575.596 78.9374 569.055 94.2747 591.885Z" fill="#423C52"/>
<path d="M77.4306 669.785C77.4306 669.785 60.3674 667.511 59.1665 651.259C59.1756 651.259 71.2299 649.884 77.4306 669.785Z" fill="#423C52"/>
<path d="M205.736 626.795C205.736 626.795 189.171 643.037 171.916 630.699C171.916 630.699 180.637 616.726 205.736 626.795Z" fill="#423C52"/>
<path d="M90.2748 495.144C90.2748 495.144 67.4173 495.304 63.0156 474.127C63.0111 474.127 78.6451 470.091 90.2748 495.144Z" fill="#423C52"/>
<path d="M109.626 405.344C109.626 405.344 110.708 386.178 131.602 382.914C131.602 382.914 133.392 398.389 109.626 405.344Z" fill="#423C52"/>
<path d="M71.6136 403.974C71.6136 403.974 67.9197 372.304 73.198 363.324C73.198 363.324 89.0376 377.362 71.6136 403.974Z" fill="#423C52"/>
<path d="M60.3766 405.344C60.3766 405.344 41.8568 405.113 41.5417 382.914C41.5509 382.914 54.838 386.31 60.3766 405.344Z" fill="#423C52"/>
<path d="M1752.64 811.674V32.8184" stroke="#423C52" stroke-width="5" stroke-miterlimit="10" stroke-linecap="round"/>
<path d="M1799.6 89.1029L1758.32 192.983C1754.57 202.428 1752.64 212.535 1752.64 222.741V240.023" stroke="#423C52" stroke-width="5" stroke-miterlimit="10" stroke-linecap="round"/>
<path d="M1780.49 137.189L1809.6 122.821" stroke="#423C52" stroke-width="5" stroke-miterlimit="10" stroke-linecap="round"/>
<path d="M1734.57 79.3972L1748.9 111.231C1751.36 116.715 1752.64 122.686 1752.64 128.731V145.684" stroke="#423C52" stroke-width="5" stroke-miterlimit="10" stroke-linecap="round"/>
<path d="M1692.79 175.385L1744.08 286.051C1749.71 298.212 1752.64 311.519 1752.64 324.996V351.99" stroke="#423C52" stroke-width="5" stroke-miterlimit="10" stroke-linecap="round"/>
<path d="M1842.11 348.25L1764.35 473.044C1756.71 485.231 1752.64 499.435 1752.64 513.949V538.399" stroke="#423C52" stroke-width="5" stroke-miterlimit="10" stroke-linecap="round"/>
<path d="M1794.54 101.832C1794.54 101.832 1785.64 70.0401 1819.19 57.1981C1819.2 57.1839 1827.91 88.5661 1794.54 101.832Z" fill="#423C52"/>
<path d="M1699.76 225.877C1699.76 225.877 1676.54 226.748 1670 201.064C1670 201.064 1694.7 198.017 1699.76 225.877Z" fill="#423C52"/>
<path d="M1827.85 383.452C1827.85 383.452 1840.3 362.416 1872.38 370.431C1872.38 370.431 1856.99 394.551 1827.85 383.452Z" fill="#423C52"/>
<path d="M1747.93 106.725C1747.93 106.725 1731.2 120.852 1714.41 100.48C1714.41 100.48 1735.82 90.6898 1747.93 106.725Z" fill="#423C52"/>
<path d="M1701.96 193.751C1701.96 193.751 1684.77 174.589 1701.66 144.912C1701.66 144.931 1722.34 164.285 1701.96 193.751Z" fill="#423C52"/>
<path d="M1790.84 432.362C1790.84 432.362 1800.89 406.777 1840.34 409.574C1840.34 409.574 1826.33 437.951 1790.84 432.362Z" fill="#423C52"/>
<path d="M1764.64 40.8759C1764.64 49.0464 1759.28 55.6769 1752.69 55.6769C1746.1 55.6769 1740.75 49.0464 1740.75 40.8759C1740.75 32.7054 1752.69 0 1752.69 0C1752.69 0 1764.64 32.696 1764.64 40.8759Z" fill="#B59B00"/>
<path d="M1741.76 95.3802C1741.76 95.3802 1714.1 87.2333 1722.97 52.8467C1722.97 52.8467 1749.59 69.5738 1741.76 95.3802Z" fill="#B59B00"/>
<path d="M1699.75 192.87C1699.75 192.87 1675.83 181.912 1677.09 147.521C1677.09 147.521 1704.19 156.948 1699.75 192.87Z" fill="#B59B00"/>
<path d="M1730.14 228.269C1730.14 228.269 1714.32 209.772 1726.55 184.521C1726.55 184.521 1743.02 206.07 1730.14 228.269Z" fill="#B59B00"/>
<path d="M1792.36 402.708C1792.36 402.708 1775.3 369.522 1803.77 346.452C1803.79 346.452 1817.64 377.344 1792.36 402.708Z" fill="#B59B00"/>
<path d="M1829.85 368.608C1829.85 368.608 1826.37 331.877 1854.65 320.104C1854.65 320.118 1862.44 351.151 1829.85 368.608Z" fill="#B59B00"/>
<path d="M1790.84 432.362C1790.84 432.362 1809.75 413.61 1848.69 427.252C1848.69 427.252 1825.03 447.577 1790.84 432.362Z" fill="#B59B00"/>
<path d="M1799.07 128.015C1799.07 128.015 1805.06 104.427 1833.55 111.175C1833.55 111.175 1824.73 133.977 1799.07 128.015Z" fill="#B59B00"/>
<path d="M1794.64 101.149C1794.64 101.149 1800.63 77.5607 1829.12 84.3089C1829.14 84.3089 1820.31 107.101 1794.64 101.149Z" fill="#B59B00"/>
<path d="M1360.78 323.13C1368.69 354.211 1338.83 352.2 1346.59 376.344C1354.36 400.488 1400.05 388.066 1400.05 388.066L1398.34 323.154L1360.78 323.13Z" fill="#FFDB00"/>
<path d="M1393 364.194L1393.14 386.935H1441.66L1428.82 349.921L1393 364.194Z" fill="#A0505A"/>
<path d="M1429.17 350.933L1393.14 386.94L1393.02 364.185L1428.82 349.921L1429.17 350.933Z" fill="#423C52"/>
<path d="M1360.78 323.13C1358.16 319.283 1355.71 304.628 1376.61 295.054C1397.5 285.48 1409.32 281.991 1430.63 298.534C1451.95 315.077 1479.59 329.441 1480.01 360.78C1480.44 392.12 1452.62 401.044 1427.3 397.781C1401.98 394.517 1400.49 363.733 1416.68 354.927L1401.45 327.072C1401.45 327.072 1370.29 337.06 1360.78 323.13Z" fill="#FFDB00"/>
<path d="M1499.34 379.603C1504.6 379.603 1508.87 375.199 1508.87 369.766C1508.87 364.332 1504.6 359.928 1499.34 359.928C1494.07 359.928 1489.8 364.332 1489.8 369.766C1489.8 375.199 1494.07 379.603 1499.34 379.603Z" fill="#FFDB00"/>
<path d="M1360.94 323.366C1376.72 334.578 1396.23 328.546 1396.23 328.546L1407.34 325.348C1411.07 324.265 1415.07 324.7 1418.5 326.565C1421.93 328.429 1424.53 331.58 1425.78 335.368C1427.02 339.155 1426.81 343.291 1425.18 346.921C1423.56 350.552 1420.64 353.401 1417.04 354.88L1392.55 364.665C1390.1 365.645 1387.48 366.077 1384.85 365.933C1382.23 365.789 1379.66 365.073 1377.32 363.832C1374.99 362.591 1372.93 360.853 1371.29 358.733C1369.66 356.612 1368.47 354.158 1367.82 351.531L1366.81 347.453L1363.15 348.259C1362.77 348.344 1362.36 348.337 1361.98 348.237C1361.59 348.137 1361.24 347.946 1360.94 347.681C1360.63 347.415 1360.4 347.082 1360.24 346.706C1360.08 346.33 1360.01 345.922 1360.03 345.513L1360.94 323.366Z" fill="#A0505A"/>
<path d="M1374.87 342.714C1375.9 342.331 1376.22 340.51 1375.57 338.647C1374.92 336.784 1373.56 335.585 1372.52 335.968C1371.49 336.351 1371.17 338.171 1371.82 340.034C1372.47 341.897 1373.83 343.097 1374.87 342.714Z" fill="#423C52"/>
<path d="M1414.41 330.095C1409.69 331.282 1406.86 336.419 1408.07 341.581" stroke="#423C52" stroke-width="5" stroke-miterlimit="10" stroke-linecap="round"/>
<path d="M1323.26 564.275C1312.95 575.534 1301.82 587.684 1290.39 600.126C1277.34 614.324 1263.9 628.904 1250.9 642.98C1208.4 688.951 1170.24 729.591 1163.94 734.263C1148.75 745.523 1123.58 762.188 1076.58 762.17C1064.55 762.17 1043.09 739.372 1032.14 726.756C1031.55 726.073 1031.18 725.231 1031.05 724.331C1030.92 723.431 1031.05 722.512 1031.42 721.686C1031.78 720.859 1032.37 720.16 1033.12 719.672C1033.86 719.185 1034.73 718.93 1035.61 718.939C1052.5 719.25 1075.74 717.225 1081.27 708.786C1091.24 693.608 1058.05 701.939 1059 687.237C1059 687.237 1101.73 680.39 1115.5 667.976C1121.02 663.003 1188.45 574.555 1246.2 498.397C1246.2 498.397 1250.04 533.5 1323.26 564.275Z" fill="#A0505A"/>
<path d="M1103.6 747.689C1091.31 751.357 1077.83 753.811 1059.77 753.811" stroke="#423C52" stroke-width="5" stroke-miterlimit="10" stroke-linecap="round"/>
<path d="M1094.05 737.357C1081.75 741.025 1067.37 743.479 1049.3 743.479" stroke="#423C52" stroke-width="5" stroke-miterlimit="10" stroke-linecap="round"/>
<path d="M1084.52 727.048C1072.23 730.717 1057.38 733.17 1039.32 733.17" stroke="#423C52" stroke-width="5" stroke-miterlimit="10" stroke-linecap="round"/>
<path d="M1249.47 642.494C1245.77 637.102 1243.8 630.655 1243.83 624.053C1243.83 607.1 1256.41 593.368 1271.94 593.368C1278.14 593.378 1284.15 595.59 1288.95 599.631" stroke="#423C52" stroke-width="5" stroke-miterlimit="10" stroke-linecap="round"/>
<path d="M1626.58 599.658V599.734C1626.58 657.459 1408.68 592.967 1408.68 592.967C1408.68 592.967 1625.11 554.925 1626.57 599.253C1626.57 599.385 1626.58 599.526 1626.58 599.658Z" fill="#423C52"/>
<path d="M1625.19 598.203C1623.73 556.046 1409.16 592.222 1409.16 592.222L1368.49 524.575C1367.52 522.967 1366.2 521.611 1364.65 520.611C1363.09 519.61 1361.33 518.993 1359.5 518.806C1357.68 518.619 1355.83 518.867 1354.11 519.532C1352.4 520.197 1350.85 521.26 1349.59 522.639C1339.55 533.663 1323.21 551.582 1304 572.557C1230.78 541.792 1226.96 506.68 1226.96 506.68C1247.25 479.917 1266.34 454.671 1281.13 435.1C1290.25 423.025 1301.93 413.257 1315.26 406.538C1328.6 399.82 1343.24 396.328 1358.09 396.329H1461.99C1476.04 396.326 1489.89 399.807 1502.37 406.48C1514.84 413.153 1525.58 422.822 1533.68 434.671C1568.28 485.352 1624.65 571.342 1625.19 598.203Z" fill="white" stroke="#423C52" stroke-width="5" stroke-miterlimit="10"/>
<path d="M1609.93 572.991C1609.93 572.991 1615.4 584.896 1620.73 606.12C1628.12 635.529 1632.5 675.478 1609.47 692.803C1571.57 721.294 1411.64 711.084 1411.64 711.084V801.19H1322.09C1304.51 801.19 1287.44 795.077 1273.64 783.838C1259.84 772.6 1250.11 756.892 1246.03 739.251C1241.95 721.611 1243.76 703.067 1251.16 686.615C1258.56 670.163 1271.11 656.763 1286.81 648.579C1334.41 623.747 1407.81 588.018 1428.87 584.863L1609.93 572.991Z" fill="#FE552F"/>
<path d="M1572.57 586.949C1586.43 633.943 1587.54 688.136 1561.31 707.769" stroke="#423C52" stroke-width="5" stroke-linecap="round" stroke-linejoin="round"/>
<path d="M1617.71 595.035C1574.98 581.708 1447.86 581.515 1428.89 584.906C1547.75 563.644 1610.07 572.398 1610.07 572.398C1610.07 572.398 1616.13 582.824 1617.71 595.035Z" fill="#423C52"/>
<path d="M1340.37 708.701H1407.1" stroke="#423C52" stroke-width="5" stroke-linecap="round" stroke-linejoin="round"/>
<path d="M1545.72 661.934L1517.5 681.614L1489.3 661.934V618.774H1545.72V661.934Z" stroke="#423C52" stroke-width="5" stroke-linecap="round" stroke-linejoin="round"/>
<path d="M1621.31 675.897L1603.62 661.934V618.774H1622.26" stroke="#423C52" stroke-width="5" stroke-linecap="round" stroke-linejoin="round"/>
<path d="M1668.45 821.044L1631.92 801.892C1627.32 800.335 1622.51 799.54 1617.67 799.537H1470.07C1469.98 799.542 1469.9 799.542 1469.81 799.537C1460.42 799.189 1452.86 779.132 1452.86 754.447C1452.86 729.54 1460.56 709.347 1470.07 709.347C1470.37 709.345 1470.68 709.367 1470.98 709.412L1623.65 705.584L1694.53 821.797C1694.53 821.797 1680.15 827.326 1668.45 821.044Z" fill="#423C52"/>
<path d="M1679.95 748.795C1699.81 778.266 1707.76 812.497 1699.06 818.812C1688.19 826.695 1657.82 807.717 1637.34 776.777C1616.85 745.838 1603.65 711.075 1626.51 705.584C1639.45 702.476 1657.6 715.643 1679.95 748.795Z" fill="white" stroke="#907B00" stroke-width="5" stroke-miterlimit="10"/>
<path d="M1615.81 731.013H1666.84" stroke="#907B00" stroke-width="5" stroke-miterlimit="10"/>
<path d="M1614.39 719.208H1656.08" stroke="#907B00" stroke-width="5" stroke-miterlimit="10"/>
<path d="M1618.66 741.51H1674.87" stroke="#907B00" stroke-width="5" stroke-miterlimit="10"/>
<path d="M1623.13 752.002H1682.05" stroke="#907B00" stroke-width="5" stroke-miterlimit="10"/>
<path d="M1628.8 762.499H1688.19" stroke="#907B00" stroke-width="5" stroke-miterlimit="10"/>
<path d="M1635.68 772.996H1693.31" stroke="#907B00" stroke-width="5" stroke-miterlimit="10"/>
<path d="M1642.36 783.493H1695.99H1697.47" stroke="#907B00" stroke-width="5" stroke-miterlimit="10"/>
<path d="M1650.68 793.985H1700.59" stroke="#907B00" stroke-width="5" stroke-miterlimit="10"/>
<path d="M1661.65 804.482H1701.92" stroke="#907B00" stroke-width="5" stroke-miterlimit="10"/>
<path d="M1606.76 824.058L1558.95 803.521C1554.34 801.964 1549.53 801.169 1544.69 801.166H1397.1C1397.02 801.171 1396.94 801.171 1396.85 801.166C1387.46 800.818 1379.9 780.766 1379.9 756.076C1379.9 732.388 1389.03 709.403 1398.09 707.213H1550.68L1623.58 821.176C1625.48 824.529 1613.37 827.218 1606.76 824.058Z" fill="#8C7200"/>
<path d="M1407.43 801.19H1402.99C1395.58 794.559 1390.2 776.019 1390.2 754.456C1390.2 733.18 1396.14 713.999 1403.9 707.227H1408.43C1400.75 709.582 1392.5 729.36 1392.5 754.456C1392.49 780.168 1400.11 798.84 1407.43 801.19Z" fill="white"/>
<path d="M1605.55 751.423C1625.42 780.898 1633.37 815.124 1624.67 821.439C1613.8 829.327 1583.42 810.349 1562.94 779.405C1542.46 748.461 1529.25 713.702 1552.11 708.211C1565.05 705.103 1583.2 718.275 1605.55 751.423Z" fill="white" stroke="#8C7200" stroke-width="5" stroke-miterlimit="10"/>
<path d="M1598.3 820.441L1585.2 814.818C1572.86 805.961 1562.17 794.882 1553.64 782.113C1536.65 756.443 1528.91 729.685 1534.38 715.53C1535.62 712.116 1537.9 709.206 1540.87 707.227H1546.54C1541.71 708.598 1538.34 711.687 1536.52 716.401C1531.32 729.86 1538.97 755.732 1555.55 780.785C1567.62 799.052 1584.39 813.194 1598.3 820.441Z" fill="white"/>
<path d="M1540.91 717.408H1576.97" stroke="#8C7200" stroke-width="5" stroke-miterlimit="10"/>
<path d="M1539.99 727.901H1587.52" stroke="#8C7200" stroke-width="5" stroke-miterlimit="10"/>
<path d="M1541.9 738.397H1595.48" stroke="#8C7200" stroke-width="5" stroke-miterlimit="10"/>
<path d="M1545.72 748.894H1604.05" stroke="#8C7200" stroke-width="5" stroke-miterlimit="10"/>
<path d="M1550.96 759.386H1610.86" stroke="#8C7200" stroke-width="5" stroke-miterlimit="10"/>
<path d="M1556.69 769.883H1616.14" stroke="#8C7200" stroke-width="5" stroke-miterlimit="10"/>
<path d="M1563.85 780.38H1620.92" stroke="#8C7200" stroke-width="5" stroke-miterlimit="10"/>
<path d="M1571 790.877H1624.15" stroke="#8C7200" stroke-width="5" stroke-miterlimit="10"/>
<path d="M1580.06 801.369H1627.18" stroke="#8C7200" stroke-width="5" stroke-miterlimit="10"/>
<path d="M1592.46 811.866H1628.17" stroke="#8C7200" stroke-width="5" stroke-miterlimit="10"/>
<g filter="url(#filter0_d_43_1043)">
<path d="M414.374 819.119H312.127C312.127 819.119 286.1 811.24 288.383 771.278C289.155 757.885 291.94 742.269 296.045 722.773L296.146 721.304C326.692 722.627 359.49 721.554 390.155 715.601C385.019 742.962 382.567 764.308 384.932 774.721C389.681 795.634 414.374 819.119 414.374 819.119Z" fill="white" stroke="#423C52" stroke-width="5" stroke-miterlimit="10"/>
<path d="M390.114 715.879L384.261 757.428C384.261 757.428 321.998 752.502 294.031 732.761L296.045 721.294H296.319C326.884 722.618 359.668 721.638 390.114 715.879Z" fill="#423C52"/>
<path d="M418.127 823.357C418.127 823.913 418.02 824.463 417.814 824.975C417.607 825.488 417.304 825.954 416.922 826.346C416.54 826.737 416.087 827.047 415.588 827.258C415.09 827.468 414.556 827.575 414.017 827.572H312.446C313.53 827.572 314.57 827.128 315.336 826.337C316.102 825.547 316.533 824.475 316.533 823.357C316.533 822.239 316.102 821.167 315.336 820.377C314.57 819.586 313.53 819.142 312.446 819.142H414.04C415.122 819.149 416.158 819.595 416.923 820.384C417.688 821.173 418.121 822.241 418.127 823.357Z" fill="white" stroke="#423C52" stroke-width="5" stroke-miterlimit="10"/>
<path d="M312.127 819.119H202.213C200.049 819.118 197.913 818.607 195.97 817.625C194.026 816.643 192.325 815.216 190.998 813.453C189.67 811.69 188.75 809.637 188.309 807.452C187.868 805.266 187.917 803.006 188.451 800.842L209.378 711.532C231.683 715.483 262.549 719.839 296.132 721.299L296.032 722.768C291.922 742.269 289.141 757.885 288.37 771.273C286.091 811.245 312.127 819.119 312.127 819.119Z" fill="white" stroke="#423C52" stroke-width="5" stroke-miterlimit="10"/>
<path d="M296.045 721.295L289.707 757.428C289.707 757.428 240.55 747.925 207.702 718.7L209.377 711.537C231.386 715.436 262.12 719.726 295.57 721.243L296.045 721.295Z" fill="#423C52"/>
<path d="M316.524 823.357C316.524 823.911 316.418 824.459 316.213 824.97C316.007 825.481 315.706 825.946 315.327 826.337C314.947 826.729 314.497 827.039 314.001 827.251C313.505 827.463 312.974 827.572 312.437 827.572H192.118C191.545 827.634 190.966 827.572 190.418 827.389C189.87 827.205 189.365 826.905 188.937 826.508C188.508 826.11 188.166 825.624 187.932 825.082C187.697 824.539 187.576 823.951 187.576 823.357C187.576 822.763 187.697 822.175 187.932 821.633C188.166 821.09 188.508 820.604 188.937 820.207C189.365 819.809 189.87 819.509 190.418 819.326C190.966 819.142 191.545 819.08 192.118 819.143H312.446C313.527 819.151 314.56 819.598 315.324 820.387C316.087 821.176 316.518 822.243 316.524 823.357Z" fill="white" stroke="#423C52" stroke-width="5" stroke-miterlimit="10"/>
<path d="M430.2 270.572L393.964 151.707C404.242 153.444 437.031 158.125 471.668 248.448C478.244 265.603 543.086 420.112 543.086 420.112C543.086 420.112 548.446 450.51 521.876 449.78C507.612 449.352 440.067 322.477 430.2 270.572Z" fill="#A0505A"/>
<path d="M451.409 439.434C445.806 496.331 407.059 633.204 391.594 715.601C327.213 728.099 251.974 719.077 209.41 711.537C187.99 707.742 174.466 704.323 174 704.205C177.004 613.557 231.107 548.627 250.924 404.506C261.974 324.139 260.969 238.808 260.659 183.578C260.636 178.987 261.493 174.436 263.181 170.188C264.868 165.939 267.354 162.076 270.494 158.821C273.633 155.566 277.366 152.984 281.477 151.221C285.587 149.459 289.995 148.551 294.447 148.551H378.051C386.982 148.555 395.692 151.417 402.979 156.743C410.266 162.069 415.771 169.596 418.734 178.285C433.798 222.462 463.755 314.071 451.409 439.434Z" fill="#FFDB00"/>
<path d="M368.449 424.257C361.851 488.495 309.871 629.658 296.803 725.175" stroke="#423C52" stroke-width="5" stroke-miterlimit="10" stroke-linecap="round"/>
<path d="M505.978 455.003L412.579 427.219C408.263 425.936 404.268 423.704 400.869 420.676C397.47 417.648 394.747 413.896 392.889 409.678C391.031 405.461 390.081 400.878 390.105 396.245C390.129 391.613 391.126 387.041 393.028 382.844L448.683 259.985L560.747 293.581L545.428 428.146C544.874 432.745 543.361 437.165 540.991 441.102C538.622 445.039 535.454 448.399 531.704 450.952C527.954 453.504 523.713 455.188 519.272 455.888C514.83 456.587 510.295 456.285 505.978 455.003Z" fill="white" stroke="#423C52" stroke-width="5" stroke-miterlimit="10" stroke-linecap="round"/>
<path d="M560.747 293.604C557.186 306.352 529.954 309.145 498.745 299.891C467.536 290.638 445.121 272.757 448.683 260.009C452.244 247.261 480.435 244.469 511.644 253.727C542.853 262.985 564.313 280.857 560.747 293.604Z" fill="white" stroke="#423C52" stroke-width="5" stroke-miterlimit="10" stroke-linecap="round"/>
<path d="M555.112 291.72C557.991 281.419 537.649 266.327 509.677 258.011C481.705 249.695 456.695 251.304 453.816 261.605C450.937 271.906 471.279 286.998 499.251 295.314C527.223 303.63 552.232 302.021 555.112 291.72Z" fill="#423C52"/>
<path d="M613.407 323.87L609.635 337.348L593.079 361.473L544.761 431.881L552.341 370.991L590.207 341.765L613.407 323.87Z" fill="white" stroke="#423C52" stroke-width="5" stroke-miterlimit="10" stroke-linecap="round"/>
<path d="M613.407 323.87L609.635 337.348L593.079 361.473C590.376 355.884 589.23 348.98 590.207 341.765L613.407 323.87Z" fill="#423C52"/>
<path d="M641.522 337.193C643.781 321.006 635.313 306.355 622.608 304.469C609.903 302.583 597.773 314.177 595.514 330.364C593.255 346.551 601.723 361.202 614.428 363.088C627.132 364.974 639.263 353.381 641.522 337.193Z" fill="white" stroke="#423C52" stroke-width="5" stroke-miterlimit="10" stroke-linecap="round"/>
<path d="M623.503 319.968C623.724 318.385 622.895 316.952 621.652 316.767C620.409 316.583 619.223 317.717 619.002 319.3C618.781 320.883 619.609 322.316 620.852 322.5C622.095 322.685 623.282 321.551 623.503 319.968Z" fill="white" stroke="#423C52" stroke-width="5" stroke-miterlimit="10" stroke-linecap="round"/>
<path d="M619.213 348.01C619.434 346.427 618.605 344.994 617.362 344.809C616.119 344.625 614.932 345.759 614.711 347.342C614.49 348.925 615.319 350.358 616.562 350.543C617.805 350.727 618.992 349.593 619.213 348.01Z" fill="white" stroke="#423C52" stroke-width="5" stroke-miterlimit="10" stroke-linecap="round"/>
<path d="M621.597 334.239C621.818 332.655 620.99 331.222 619.747 331.038C618.504 330.853 617.317 331.987 617.096 333.57C616.875 335.154 617.704 336.587 618.947 336.771C620.19 336.956 621.376 335.822 621.597 334.239Z" fill="white" stroke="#423C52" stroke-width="5" stroke-miterlimit="10" stroke-linecap="round"/>
<path d="M632.57 328.333C632.791 326.749 631.962 325.316 630.719 325.132C629.476 324.947 628.289 326.081 628.068 327.664C627.848 329.248 628.676 330.681 629.919 330.865C631.162 331.05 632.349 329.916 632.57 328.333Z" fill="white" stroke="#423C52" stroke-width="5" stroke-miterlimit="10" stroke-linecap="round"/>
<path d="M630.659 342.599C630.88 341.015 630.052 339.582 628.809 339.398C627.566 339.213 626.379 340.347 626.158 341.93C625.937 343.514 626.765 344.947 628.009 345.131C629.252 345.316 630.438 344.182 630.659 342.599Z" fill="white" stroke="#423C52" stroke-width="5" stroke-miterlimit="10" stroke-linecap="round"/>
<path d="M612.057 325.38C612.278 323.797 611.449 322.364 610.206 322.179C608.963 321.995 607.776 323.129 607.555 324.712C607.334 326.295 608.163 327.728 609.406 327.913C610.649 328.097 611.836 326.963 612.057 325.38Z" fill="white" stroke="#423C52" stroke-width="5" stroke-miterlimit="10" stroke-linecap="round"/>
<path d="M610.146 339.645C610.367 338.062 609.539 336.629 608.295 336.445C607.052 336.26 605.866 337.394 605.645 338.977C605.424 340.56 606.252 341.993 607.495 342.178C608.738 342.362 609.925 341.228 610.146 339.645Z" fill="white" stroke="#423C52" stroke-width="5" stroke-miterlimit="10" stroke-linecap="round"/>
<path d="M448.208 260.503L425.657 253.166C398.959 245.231 373.444 268.914 378.293 297.132L393.028 382.867L448.208 260.503Z" stroke="#423C52" stroke-width="5" stroke-miterlimit="10" stroke-linecap="round"/>
<path d="M630.297 327.949C638.373 327.949 646.118 331.257 651.829 337.147C657.539 343.037 660.747 351.025 660.747 359.354V691.895" stroke="#DBE5E5" stroke-width="5" stroke-miterlimit="10" stroke-linecap="round" stroke-dasharray="15 15"/>
<path d="M622.101 319.599H644.803C649.527 319.599 654.206 320.558 658.571 322.422C662.936 324.287 666.902 327.02 670.243 330.465C673.584 333.911 676.234 338.001 678.041 342.503C679.849 347.005 680.779 351.83 680.779 356.703V695.267" stroke="#DBE5E5" stroke-width="5" stroke-miterlimit="10" stroke-linecap="round" stroke-dasharray="15 15"/>
<path d="M628.872 342.227C634.402 342.792 638.333 352.841 638.333 370.185L638.789 703.221" stroke="#DBE5E5" stroke-width="5" stroke-miterlimit="10" stroke-linecap="round" stroke-dasharray="15 15"/>
<path d="M616.863 347.558V731.9" stroke="#DBE5E5" stroke-width="5" stroke-miterlimit="10" stroke-linecap="round" stroke-dasharray="15 15"/>
<path d="M568.057 370.548C568.057 370.548 577.395 388.829 575.82 402.218C574.244 415.606 554.679 439.27 533.355 449.781C533.355 449.781 546.382 441.582 538.784 413.52C534.926 399.255 568.057 370.548 568.057 370.548Z" fill="#A0505A"/>
<path d="M563.286 382.354C563.286 382.354 570.24 402.604 568.655 415.992" stroke="#423C52" stroke-width="5" stroke-miterlimit="10" stroke-linecap="round"/>
<path d="M555.177 392.686C555.177 392.686 562.131 412.936 560.546 426.324" stroke="#423C52" stroke-width="5" stroke-miterlimit="10" stroke-linecap="round"/>
<path d="M546.113 402.034C546.113 402.034 553.067 422.284 551.482 435.672" stroke="#423C52" stroke-width="5" stroke-miterlimit="10" stroke-linecap="round"/>
<path d="M443.45 482.34C426.602 476.331 373.9 439.142 328.332 373.67C317.147 357.617 306.931 340.869 297.739 323.522C278.366 286.927 262.426 245.048 254.239 198.85C250.476 177.626 257.759 164.977 267.59 157.683C287.265 143.084 315.076 152.295 323.501 175.719C344.847 235.055 400.233 373.976 463.134 412.827C475.919 420.715 439.026 418.841 436.546 421.921C431.898 427.68 448.701 437.739 492.708 449.583C502.882 452.319 452.874 485.707 443.45 482.34Z" fill="#A0505A"/>
<path d="M446.359 446.084C455.669 450.251 466.668 454.452 486.996 458.441" stroke="#423C52" stroke-width="5" stroke-miterlimit="10" stroke-linecap="round"/>
<path d="M437.295 453.953C446.605 458.125 457.125 461.831 477.435 465.82" stroke="#423C52" stroke-width="5" stroke-miterlimit="10" stroke-linecap="round"/>
<path d="M426.798 462.316C436.113 466.489 442.322 470.689 462.65 474.673" stroke="#423C52" stroke-width="5" stroke-miterlimit="10" stroke-linecap="round"/>
<path d="M299.155 323.032C300.595 322.109 302.141 321.375 303.757 320.847C316.51 316.689 330.797 326.206 335.674 342.105C339.327 353.995 336.669 366.093 329.738 373.185" stroke="#423C52" stroke-width="5" stroke-miterlimit="10" stroke-linecap="round"/>
<path d="M375.001 148.589C375.019 149.162 374.978 149.735 374.878 150.299C374.257 154.198 370.704 163.404 351.102 163.117C326.254 162.759 327.587 148.589 327.587 148.589L342.066 118.921H380.937L375.001 148.589Z" fill="#A0505A"/>
<path d="M375.001 148.589L380.937 118.921H351.258C351.258 118.921 351.203 141.572 375.001 148.589Z" fill="#423C52"/>
<path d="M394.694 79.9665C392.617 73.8916 386.932 72.4835 386.717 72.4035C386.804 72.5919 388.859 77.2069 379.736 87.4117C370.421 97.8332 351.289 93.1852 351.289 93.1852H340.984C338.542 93.1889 336.16 93.9653 334.16 95.4096C332.159 96.8539 330.636 98.8964 329.797 101.262C329.314 102.619 329.068 104.054 329.071 105.5V106.056C329.071 106.084 329.071 106.117 329.071 106.145C326.103 117.155 314.743 127.426 299.474 131.537C279.384 136.953 260.152 129.653 256.508 115.281C252.864 100.908 266.179 84.8311 286.265 79.4155C301.465 75.3185 316.186 78.4737 324.021 86.5217C322.994 66.743 334.843 50.6799 355.07 51.0048C388.781 51.5417 395.918 83.5408 394.694 79.9665Z" fill="#FE552F"/>
<path d="M236.582 130.124C242.51 130.124 247.317 125.167 247.317 119.053C247.317 112.938 242.51 107.982 236.582 107.982C230.653 107.982 225.847 112.938 225.847 119.053C225.847 125.167 230.653 130.124 236.582 130.124Z" fill="#FE552F"/>
<path d="M383.051 134.603C366.426 138.304 351.29 118.902 351.29 118.902H340.984C337.823 118.902 334.791 117.608 332.554 115.305C330.317 113.001 329.058 109.876 329.053 106.616V105.519C329.052 103.902 329.361 102.302 329.96 100.808C330.559 99.3148 331.438 97.9577 332.546 96.8145C333.654 95.6714 334.969 94.7646 336.417 94.1459C337.865 93.5272 339.417 93.2088 340.984 93.2088H351.29C351.29 93.2088 370.421 97.8568 379.736 87.4353C388.868 77.2305 386.804 72.6154 386.717 72.4271C387.546 72.677 388.355 72.9918 389.137 73.3689C391.598 74.5603 393.503 76.9997 394.886 80.2491C401.703 96.1803 396.046 131.711 383.051 134.603Z" fill="#A0505A"/>
<path d="M348.125 108.457C348.125 107.255 347.896 106.065 347.45 104.954C347.004 103.843 346.35 102.834 345.526 101.984C344.701 101.134 343.723 100.459 342.646 99.9994C341.569 99.5393 340.415 99.3025 339.249 99.3025" stroke="#423C52" stroke-width="5" stroke-miterlimit="10" stroke-linecap="round"/>
<path d="M397.795 95.7095C397.795 95.7095 384.722 95.2385 384.722 118.177" stroke="#423C52" stroke-width="5" stroke-miterlimit="10" stroke-linecap="round"/>
<path d="M394.368 107.44C394.754 105.826 394.341 104.333 393.445 104.105C392.549 103.877 391.51 105 391.123 106.613C390.737 108.227 391.15 109.72 392.046 109.948C392.942 110.176 393.982 109.053 394.368 107.44Z" fill="#423C52"/>
<path d="M373.86 106.8C374.278 105.052 373.831 103.436 372.862 103.189C371.892 102.942 370.767 104.158 370.349 105.906C369.931 107.653 370.377 109.269 371.347 109.516C372.316 109.763 373.442 108.547 373.86 106.8Z" fill="#423C52"/>
</g>
<defs>
<filter id="filter0_d_43_1043" x="170" y="51" width="517.279" height="787.095" filterUnits="userSpaceOnUse" color-interpolation-filters="sRGB">
<feFlood flood-opacity="0" result="BackgroundImageFix"/>
<feColorMatrix in="SourceAlpha" type="matrix" values="0 0 0 0 0 0 0 0 0 0 0 0 0 0 0 0 0 0 127 0" result="hardAlpha"/>
<feOffset dy="4"/>
<feGaussianBlur stdDeviation="2"/>
<feComposite in2="hardAlpha" operator="out"/>
<feColorMatrix type="matrix" values="0 0 0 0 0 0 0 0 0 0 0 0 0 0 0 0 0 0 0.25 0"/>
<feBlend mode="normal" in2="BackgroundImageFix" result="effect1_dropShadow_43_1043"/>
<feBlend mode="normal" in="SourceGraphic" in2="effect1_dropShadow_43_1043" result="shape"/>
</filter>
</defs>
</svg>
