<svg width="1801" height="795" viewBox="0 0 1801 795" fill="none" xmlns="http://www.w3.org/2000/svg">
<g clip-path="url(#clip0_44_438)">
<path d="M159.408 689.33C268.104 650.337 1770.53 682.762 1798.88 725.825C1843.2 793.127 750.644 814.924 507.379 772.829C386.887 751.978 627.918 748.526 626.033 735.366C621.194 701.56 104.822 708.911 159.408 689.33Z" fill="#DBE5E5"/>
<path d="M261.077 744.296C328.232 744.296 382.672 740.052 382.672 734.816C382.672 729.581 328.232 725.337 261.077 725.337C193.922 725.337 139.481 729.581 139.481 734.816C139.481 740.052 193.922 744.296 261.077 744.296Z" fill="#DBE5E5"/>
<path d="M758.451 672.752C459.635 669.719 202.083 674.018 159.403 689.33C156.439 690.395 155.157 691.379 155.391 692.294C12.6561 674.598 92.9186 657.165 118.41 654.281C145.065 651.26 59.9956 483.728 273.476 483.728C372.364 483.728 382.029 610.84 417.746 610.981C437.144 611.058 455.632 566.811 509.511 573.342C586.901 582.726 537.328 649.013 599.167 638.954C661.006 628.895 648.901 659.076 648.901 659.076C725.248 645.733 751.65 665.569 758.451 672.752Z" fill="#FFDB00"/>
<path d="M317.837 462.221C333.066 462.221 345.411 451.974 345.411 439.333C345.411 426.693 333.066 416.446 317.837 416.446C302.609 416.446 290.264 426.693 290.264 439.333C290.264 451.974 302.609 462.221 317.837 462.221Z" fill="#FFDB00"/>
<path d="M1798.76 725.657C1785.33 707.687 1513.11 691.486 1195.6 681.682C1228.49 611.019 1371.27 654.423 1371.27 654.423C1371.27 654.423 1427.62 537.996 1591.8 559.438C1726.79 577.065 1728.19 681.232 1728.19 681.232C1797.41 684.192 1798.83 721.217 1798.76 725.657Z" fill="#B59B00"/>
<path d="M1750.96 667.888C1758.58 667.888 1764.75 662.765 1764.75 656.444C1764.75 650.124 1758.58 645 1750.96 645C1743.35 645 1737.17 650.124 1737.17 656.444C1737.17 662.765 1743.35 667.888 1750.96 667.888Z" fill="#B59B00"/>
<path d="M1412.49 784.979L1397.24 768.183L1419.81 776.583L1395.12 734.546L1432.92 771.62L1467.66 702.609L1451.83 774.294L1475 765.322L1460.12 782.149L1412.49 784.979Z" fill="white"/>
<path d="M471.73 671.84L446.68 656.387L476.57 664.112L458.881 629.555L490.595 663.982V645.756L500.504 666.004L527.802 600.567L514.097 671.84H471.73Z" fill="#907B00"/>
<path d="M518.45 671.84L545.288 652.843L530.242 671.966L518.45 671.84Z" fill="#907B00"/>
<path d="M1520.64 682.143C1518.27 591.278 1476.62 427.844 1476.62 427.844C1476.62 427.844 1372.3 511.667 1353.33 527.818C1319.68 556.428 1358.87 599.289 1216.64 669.242L1122.35 610.439C1173.85 565.766 1343.53 347.515 1386.5 304.203L1579.09 246.705C1579.09 246.705 1610.4 268.765 1613.24 333.339C1616.09 397.914 1603.75 501.081 1639.81 557.782C1660.03 589.55 1649.67 642.086 1636.67 682.14L1520.64 682.143Z" fill="#A0505A"/>
<path d="M1564.83 246.705C1564.83 246.705 1596.14 268.765 1598.99 333.339C1601.83 397.914 1589.5 501.081 1625.55 557.782C1645.77 589.55 1635.41 642.086 1622.41 682.14" stroke="#423C52" stroke-width="5" stroke-miterlimit="10" stroke-linecap="round"/>
<path d="M1476.62 427.84L1456.7 319.427" stroke="#423C52" stroke-width="5" stroke-miterlimit="10" stroke-linecap="round"/>
<path d="M1595.96 267.27L1341.76 378.902C1338.78 380.325 1335.39 381.042 1331.96 380.974C1328.52 380.907 1325.17 380.058 1322.28 378.52C1350.45 344.57 1373.91 316.887 1386.49 304.203L1579.08 246.705C1579.08 246.705 1587.47 252.61 1595.96 267.27Z" fill="#423C52"/>
<path d="M1538.41 292.542C1538.41 292.542 1553.89 320.221 1599.03 332.878" stroke="#423C52" stroke-width="5" stroke-miterlimit="10" stroke-linecap="round"/>
<path d="M1216.64 668.453C1185.96 688.812 1160.15 702.609 1160.15 702.609L1046.13 633.888C1046.13 633.888 1051.33 627.705 1059.92 629.036C1085.59 633.019 1104.24 632.778 1119.04 615.544C1120.13 614.272 1121.23 612.966 1122.35 611.626L1216.64 668.453Z" fill="white" stroke="#FE552F" stroke-width="5" stroke-miterlimit="10"/>
<path d="M1160.96 703.097L1156.37 708.354C1155.95 708.818 1155.33 709.126 1154.64 709.211C1153.95 709.296 1153.25 709.151 1152.69 708.808L1129.57 694.873C1129 694.536 1128.61 694.026 1128.5 693.454C1128.38 692.882 1128.54 692.294 1128.95 691.821V691.821C1129.35 691.348 1129.52 690.76 1129.4 690.188C1129.28 689.616 1128.89 689.106 1128.32 688.77L1112.14 679.008C1111.58 678.665 1110.88 678.519 1110.19 678.605C1109.5 678.69 1108.88 678.998 1108.46 679.462V679.462C1108.04 679.924 1107.42 680.231 1106.74 680.316C1106.05 680.4 1105.35 680.255 1104.79 679.912L1041.18 641.624C1040.61 641.288 1040.23 640.778 1040.11 640.206C1039.99 639.634 1040.15 639.046 1040.56 638.573L1045.15 633.316L1160.96 703.097Z" fill="#FE552F"/>
<path d="M1133.7 640.53L1108.09 625.103L1116.12 618.679L1140.14 633.16L1133.7 640.53Z" fill="#FE552F"/>
<path d="M1635.71 682.144C1625.51 713.58 1614.62 737.33 1614.62 737.33H1476.62C1476.62 737.33 1476.46 729.792 1484.19 726.683C1507.29 717.383 1521.91 708.091 1521.68 686.931C1521.66 685.359 1521.63 683.764 1521.59 682.144H1635.71Z" fill="white" stroke="#FE552F" stroke-width="5" stroke-miterlimit="10"/>
<path d="M1615.6 737.33V743.815C1615.6 744.389 1615.33 744.939 1614.84 745.344C1614.35 745.75 1613.69 745.978 1613 745.978H1585.03C1584.34 745.978 1583.67 745.75 1583.18 745.344C1582.7 744.939 1582.42 744.389 1582.42 743.815V743.815C1582.42 743.24 1582.15 742.689 1581.66 742.283C1581.17 741.877 1580.5 741.648 1579.81 741.648H1560.21C1559.52 741.648 1558.85 741.877 1558.37 742.283C1557.88 742.689 1557.6 743.24 1557.6 743.815V743.815C1557.6 744.099 1557.53 744.381 1557.4 744.644C1557.27 744.906 1557.08 745.145 1556.84 745.346C1556.59 745.547 1556.31 745.706 1555.99 745.814C1555.67 745.923 1555.33 745.978 1554.99 745.978H1478.05C1477.7 745.978 1477.36 745.923 1477.05 745.814C1476.73 745.706 1476.44 745.547 1476.2 745.346C1475.96 745.145 1475.77 744.906 1475.63 744.644C1475.5 744.381 1475.44 744.099 1475.44 743.815V737.33H1615.6Z" fill="#FE552F"/>
<path d="M1550.62 700.004H1519.63L1521.54 690.891H1550.62V700.004Z" fill="#FE552F"/>
<path d="M1563.3 252.644L1386.5 304.203L1296.42 233.537C1291.83 229.928 1289.02 232.282 1288.4 237.508C1286.53 253.426 1288 282.769 1284.4 315.227H1183.15L1186.44 212.365C1187.07 192.593 1193.76 173.28 1205.87 156.243C1217.97 139.207 1235.1 125.007 1255.64 114.981L1411.62 38.8331C1468.88 10.8793 1542.7 30.1777 1570.32 80.3251L1612.42 156.729C1633.23 194.471 1610.48 238.889 1563.3 252.644Z" fill="#FFDB00"/>
<g opacity="0.5">
<path opacity="0.5" d="M1201.38 163.076V315.227H1199V167.219C1199.76 165.823 1200.55 164.442 1201.38 163.076Z" fill="white"/>
<path opacity="0.5" d="M1218.88 140.909V315.239H1216.5V143.354C1216.85 142.973 1217.22 142.591 1217.6 142.21C1217.98 141.829 1218.44 141.336 1218.88 140.909Z" fill="white"/>
<path opacity="0.5" d="M1236.38 126.295V315.227H1234V127.997L1234.46 127.673C1235.09 127.205 1235.73 126.746 1236.38 126.295Z" fill="white"/>
<path opacity="0.5" d="M1253.88 115.858V315.227H1251.49V117.087C1252.28 116.671 1253.08 116.259 1253.88 115.858Z" fill="white"/>
<path opacity="0.5" d="M1271.38 107.298V315.227H1268.99V108.462L1271.38 107.298Z" fill="white"/>
<path opacity="0.5" d="M1288.88 98.7537V235.208C1288.65 235.959 1288.5 236.725 1288.42 237.496C1288.25 238.862 1288.12 240.324 1288.01 241.883C1287.95 242.528 1287.91 243.184 1287.87 243.863C1287.64 247.601 1287.49 251.809 1287.38 256.409C1287.38 257.062 1287.35 257.718 1287.32 258.389C1287.24 262.318 1287.15 266.518 1287.04 270.936C1287.04 271.588 1287.01 272.248 1287 272.912C1286.89 276.936 1286.76 281.128 1286.59 285.462C1286.56 286.07 1286.53 286.68 1286.51 287.293V99.9171L1288.88 98.7537Z" fill="white"/>
<path opacity="0.5" d="M1306.38 90.2126V241.345L1303.99 239.476V91.3761L1306.38 90.2126Z" fill="white"/>
<path opacity="0.5" d="M1323.87 81.6677V255.074L1321.49 253.205V82.8312L1322.96 82.1179L1323.87 81.6677Z" fill="white"/>
<path opacity="0.5" d="M1341.37 73.1228V268.807L1338.99 266.934V74.2863L1341.37 73.1228Z" fill="white"/>
<path opacity="0.5" d="M1358.87 64.5857V282.532L1356.49 280.663V65.7454L1358.87 64.5857Z" fill="white"/>
<path opacity="0.5" d="M1376.37 56.0447V296.265L1373.99 294.396V57.2081L1376.37 56.0447Z" fill="white"/>
<path opacity="0.5" d="M1393.87 47.5V302.052L1391.48 302.742V48.6635L1393.87 47.5Z" fill="white"/>
<path opacity="0.5" d="M1411.37 38.9551V296.948L1408.98 297.646V40.1185L1411.37 38.9551Z" fill="white"/>
<path opacity="0.5" d="M1428.87 31.959V291.844L1426.48 292.542V32.7639C1427.27 32.4701 1428.07 32.2146 1428.87 31.959Z" fill="white"/>
<path opacity="0.5" d="M1446.36 27.7744V286.743L1443.98 287.438V28.1978C1444.77 28.0491 1445.57 27.9117 1446.36 27.7744Z" fill="white"/>
<path opacity="0.5" d="M1463.86 26.0425V281.624L1461.48 282.318V26.1417C1462.27 26.0997 1463.07 26.0654 1463.86 26.0425Z" fill="white"/>
<path opacity="0.5" d="M1481.36 26.6069V276.535L1478.98 277.233V26.3933C1479.79 26.4543 1480.57 26.5268 1481.36 26.6069Z" fill="white"/>
<path opacity="0.5" d="M1498.86 29.4908V271.431L1496.48 272.129V28.9568C1497.28 29.1246 1498.07 29.3077 1498.86 29.4908Z" fill="white"/>
<path opacity="0.5" d="M1516.36 34.9268V266.331L1513.97 267.025V34.0227C1514.78 34.3317 1515.57 34.614 1516.36 34.9268Z" fill="white"/>
<path opacity="0.5" d="M1533.86 43.4869V261.227L1531.47 261.925V42.0869C1532.27 42.5332 1533.1 42.9948 1533.86 43.4869Z" fill="white"/>
<path opacity="0.5" d="M1551.36 56.4032V256.123L1550.35 256.421L1548.97 256.802V54.2937C1549.26 54.5455 1549.55 54.7934 1549.84 55.0566C1550.35 55.4953 1550.86 55.9454 1551.36 56.4032Z" fill="white"/>
<path opacity="0.5" d="M1568.86 77.7539V250.84C1568.07 251.126 1567.27 251.397 1566.47 251.66V73.9622C1567.3 75.2057 1568.1 76.4684 1568.86 77.7539Z" fill="white"/>
<path opacity="0.5" d="M1586.36 109.404V242.409C1585.57 242.9 1584.78 243.378 1583.98 243.844V105.078L1586.36 109.404Z" fill="white"/>
<path opacity="0.5" d="M1603.87 141.165V229.348H1602.3C1602.04 229.638 1601.76 229.92 1601.49 230.206V136.843L1603.35 140.219L1603.87 141.165Z" fill="white"/>
<path opacity="0.5" d="M1285.77 299.999C1285.72 300.655 1285.67 301.315 1285.62 301.975H1183.88V299.999H1285.77Z" fill="white"/>
<path opacity="0.5" d="M1400.91 299.999L1394.13 301.975H1383.65L1381.12 299.999H1400.91Z" fill="white"/>
<path opacity="0.5" d="M1286.57 285.473C1286.55 286.081 1286.52 286.691 1286.49 287.304V287.449H1184.04L1184.1 285.473H1286.57Z" fill="white"/>
<path opacity="0.5" d="M1450.72 285.473L1446.37 286.743L1443.98 287.438V287.449H1365.14L1362.61 285.473H1450.72Z" fill="white"/>
<path opacity="0.5" d="M1287.03 270.947C1287.03 271.599 1287 272.259 1286.98 272.923H1184.5L1184.57 270.947H1287.03Z" fill="white"/>
<path opacity="0.5" d="M1500.53 270.947L1498.86 271.431L1496.48 272.13L1493.75 272.927H1346.62L1344.1 270.947H1500.53Z" fill="white"/>
<path opacity="0.5" d="M1287.36 256.421C1287.36 257.073 1287.33 257.729 1287.31 258.4H1184.97L1185.03 256.421H1287.36Z" fill="white"/>
<path opacity="0.5" d="M1550.35 256.421L1548.97 256.821L1543.56 258.4H1328.11L1325.59 256.421H1550.35Z" fill="white"/>
<path opacity="0.5" d="M1287.99 241.895C1287.94 242.539 1287.9 243.195 1287.86 243.874H1185.43L1185.49 241.895H1287.99Z" fill="white"/>
<path opacity="0.5" d="M1587.17 241.895C1586.9 242.07 1586.63 242.238 1586.36 242.41C1585.57 242.9 1584.78 243.378 1583.98 243.844V243.874H1309.62L1307.09 241.895H1587.17Z" fill="white"/>
<path opacity="0.5" d="M1604.07 227.353L1603.86 227.597V229.333H1185.9L1185.96 227.353H1604.07Z" fill="white"/>
<path opacity="0.5" d="M1613.77 212.857C1613.45 213.525 1613.11 214.181 1612.75 214.837H1186.36L1186.43 212.857H1613.77Z" fill="white"/>
<path opacity="0.5" d="M1618.86 198.32C1618.72 198.981 1618.56 199.64 1618.4 200.296H1187.59C1187.69 199.636 1187.8 198.976 1187.92 198.32H1618.86Z" fill="white"/>
<path opacity="0.5" d="M1620.16 185.773H1191.03C1191.24 185.112 1191.45 184.453 1191.68 183.797H1620.12C1620.15 184.457 1620.16 185.113 1620.16 185.773Z" fill="white"/>
<path opacity="0.5" d="M1618.26 171.247H1196.89C1197.21 170.587 1197.55 169.927 1197.89 169.271H1617.71C1617.9 169.927 1618.09 170.587 1618.26 171.247Z" fill="white"/>
<path opacity="0.5" d="M1612.43 156.725H1205.54C1205.99 156.057 1206.45 155.401 1206.96 154.745H1611.34L1612.43 156.725Z" fill="white"/>
<path opacity="0.5" d="M1604.43 142.199H1217.6C1218.02 141.768 1218.44 141.336 1218.88 140.909C1219.1 140.677 1219.34 140.448 1219.58 140.219H1603.34L1603.86 141.165L1604.43 142.199Z" fill="white"/>
<path opacity="0.5" d="M1596.42 127.672H1234.44C1235.08 127.202 1235.73 126.743 1236.38 126.295C1236.66 126.089 1236.95 125.891 1237.24 125.693H1595.33L1596.42 127.672Z" fill="white"/>
<path opacity="0.5" d="M1588.42 113.146H1259.4L1263.45 111.167H1587.33L1588.42 113.146Z" fill="white"/>
<path opacity="0.5" d="M1580.41 98.6199H1289.15L1293.2 96.6401H1579.33L1580.41 98.6199Z" fill="white"/>
<path opacity="0.5" d="M1572.41 84.0939H1318.91L1321.49 82.8313L1322.96 82.1179H1571.32L1572.41 84.0939Z" fill="white"/>
<path opacity="0.5" d="M1563.37 69.5714H1348.65L1352.7 67.5955H1561.83C1562.36 68.2478 1562.87 68.9077 1563.37 69.5714Z" fill="white"/>
<path opacity="0.5" d="M1549.84 55.0453H1378.43L1382.48 53.0693H1547.54C1548.03 53.4737 1548.51 53.8819 1548.99 54.2938C1549.27 54.5494 1549.56 54.7936 1549.84 55.0453Z" fill="white"/>
<path opacity="0.5" d="M1528.6 40.523H1408.16L1408.98 40.1186L1411.37 38.9742L1411.62 38.8522L1412.22 38.5623H1524.68C1526 39.1802 1527.31 39.8364 1528.6 40.523Z" fill="white"/>
</g>
<path d="M1502.86 190.801L1480.1 142.5" stroke="#423C52" stroke-width="5" stroke-miterlimit="10" stroke-linecap="round"/>
<path d="M1399.29 45.8787L1382.54 156.065" stroke="#423C52" stroke-width="5" stroke-miterlimit="10" stroke-linecap="round"/>
<path d="M1382.54 156.065L1278.82 104.689" stroke="#423C52" stroke-width="5" stroke-miterlimit="10" stroke-linecap="round"/>
<path d="M1382.06 155.275L1428.86 238.576" stroke="#423C52" stroke-width="5" stroke-miterlimit="10" stroke-linecap="round"/>
<path d="M1382.54 191.347C1385.82 191.347 1388.49 189.133 1388.49 186.403C1388.49 183.672 1385.82 181.459 1382.54 181.459C1379.25 181.459 1376.58 183.672 1376.58 186.403C1376.58 189.133 1379.25 191.347 1382.54 191.347Z" stroke="#423C52" stroke-width="5" stroke-miterlimit="10" stroke-linecap="round"/>
<path d="M1399.76 224.095C1403.05 224.095 1405.72 221.882 1405.72 219.152C1405.72 216.421 1403.05 214.208 1399.76 214.208C1396.48 214.208 1393.81 216.421 1393.81 219.152C1393.81 221.882 1396.48 224.095 1399.76 224.095Z" stroke="#423C52" stroke-width="5" stroke-miterlimit="10" stroke-linecap="round"/>
<path d="M1261.01 440.832C1260.15 448.695 1257.34 456.324 1252.76 463.242C1248.18 470.159 1241.92 476.215 1234.38 481.027C1214.46 493.742 1188.65 509.698 1184.1 510.019C1178.58 510.4 1169.63 491.369 1165.09 480.833C1164.24 478.865 1164.15 476.726 1164.84 474.715C1165.52 472.705 1166.95 470.921 1168.91 469.614L1178.41 464.083L1180.93 384.54L1183.16 315.243H1284.41L1261.01 440.832Z" fill="white" stroke="#423C52" stroke-width="5" stroke-miterlimit="10"/>
<path d="M1283.86 317.982L1278.81 344.841C1278.88 332.214 1258.59 323.429 1231.51 323.097C1205.35 322.784 1183.96 331.943 1182.21 343.963L1183.13 315.22C1183.35 302.536 1205.91 294.304 1233.08 294.621C1260.25 294.937 1284.09 305.298 1283.86 317.982Z" fill="white" stroke="#423C52" stroke-width="5" stroke-miterlimit="10"/>
<path d="M1197.59 321.499C1200.87 321.499 1203.54 319.285 1203.54 316.555C1203.54 313.825 1200.87 311.611 1197.59 311.611C1194.3 311.611 1191.63 313.825 1191.63 316.555C1191.63 319.285 1194.3 321.499 1197.59 321.499Z" fill="white" stroke="#423C52" stroke-width="5" stroke-miterlimit="10" stroke-linecap="round"/>
<path d="M968.838 738.345C940.617 721.56 935.488 687.068 957.257 660.492L993.949 614.373L1102.34 679.363L1061.13 722.766C1037.69 748.133 996.899 755.019 968.838 738.345Z" fill="white" stroke="#423C52" stroke-width="5" stroke-miterlimit="10"/>
<path d="M1256.81 404.544L1050.26 648.354" stroke="#423C52" stroke-width="10" stroke-miterlimit="10" stroke-linecap="round"/>
<path d="M1361.25 404.544H1256.81V327.869C1256.81 320.679 1267.01 316.83 1273.54 321.556L1367.88 389.838C1374.91 394.942 1370.57 404.544 1361.25 404.544Z" stroke="#FE552F" stroke-width="10" stroke-miterlimit="10"/>
<path d="M1011.28 693.782C1006.06 690.73 1010.73 677.924 1021.82 664.897L1040.74 642.425L1060.69 654.388L1040.93 676.36C1029.58 689.12 1016.48 696.818 1011.28 693.782Z" fill="white" stroke="#423C52" stroke-width="5" stroke-miterlimit="10"/>
<path d="M1235.76 460.97C1234.67 461.54 1233.44 461.912 1232.16 462.06C1230.88 462.209 1229.58 462.131 1228.34 461.831C1227.1 461.532 1225.95 461.018 1224.96 460.323C1223.98 459.628 1223.19 458.768 1222.63 457.8L1217.03 448.016C1216.72 447.48 1216.28 447.006 1215.73 446.624C1215.19 446.242 1214.55 445.961 1213.86 445.8C1213.17 445.639 1212.45 445.602 1211.75 445.692C1211.04 445.781 1210.37 445.995 1209.77 446.318L1170.87 467.764C1168.12 469.273 1166.11 471.539 1165.19 474.163C1164.26 476.786 1164.48 479.596 1165.82 482.096L1178.04 505.674C1178.53 506.615 1179.27 507.451 1180.21 508.116C1181.15 508.782 1182.26 509.259 1183.46 509.512C1184.66 509.764 1185.91 509.785 1187.11 509.573C1188.32 509.361 1189.45 508.921 1190.42 508.287L1242.86 472.49L1235.76 460.97Z" fill="white"/>
<path d="M1235.76 460.97C1234.67 461.54 1233.44 461.912 1232.16 462.06C1230.88 462.209 1229.58 462.131 1228.34 461.831C1227.1 461.532 1225.95 461.018 1224.96 460.323C1223.98 459.628 1223.19 458.768 1222.63 457.8L1217.03 448.016C1216.72 447.48 1216.28 447.006 1215.73 446.624C1215.19 446.242 1214.55 445.961 1213.86 445.8C1213.17 445.639 1212.45 445.602 1211.75 445.692C1211.04 445.781 1210.37 445.995 1209.77 446.318L1168.89 469.587C1166.93 470.895 1165.51 472.678 1164.82 474.689C1164.13 476.7 1164.22 478.838 1165.07 480.806C1169.61 491.342 1178.58 510.374 1184.08 509.992C1188.63 509.679 1214.45 493.723 1234.36 481.001" stroke="#423C52" stroke-width="5" stroke-miterlimit="10" stroke-linecap="round"/>
<path d="M1197.81 503.286C1189.91 503.286 1180.58 486.379 1176.99 474.092C1175.77 469.927 1176.79 465.555 1180.82 462.874" stroke="#423C52" stroke-width="5" stroke-miterlimit="10" stroke-linecap="round"/>
<path d="M1209.97 496.263C1204.46 496.645 1193.86 479.685 1189.38 466.974C1187.93 462.858 1189.18 458.437 1193.21 455.755" stroke="#423C52" stroke-width="5" stroke-miterlimit="10" stroke-linecap="round"/>
<path d="M1224.6 487.059C1219.08 487.44 1209.97 470.629 1205.59 457.873C1204.17 453.753 1205.75 449 1209.78 446.318" stroke="#423C52" stroke-width="5" stroke-miterlimit="10" stroke-linecap="round"/>
<path d="M1548.98 260.243L1340.23 379.558C1336.71 381.568 1332.47 382.521 1328.2 382.259C1323.94 381.998 1319.92 380.538 1316.79 378.119L1282.05 351.272C1280.89 350.378 1280.02 349.257 1279.53 348.011C1279.03 346.766 1278.92 345.437 1279.2 344.146L1283.56 320.114C1284.29 316.789 1286.06 313.683 1288.7 311.11C1291.34 308.536 1294.75 306.585 1298.59 305.454L1342.05 292.919L1491.59 194.146C1505.68 198.92 1518.11 206.549 1527.73 216.335C1537.35 226.122 1543.87 237.754 1546.68 250.168L1548.98 260.243Z" fill="white" stroke="#423C52" stroke-width="5" stroke-miterlimit="10"/>
<path d="M1279.57 348.068L1303.91 324.486" stroke="#423C52" stroke-width="5" stroke-miterlimit="10" stroke-linecap="round"/>
<path d="M1292.58 358.631L1316.92 335.048" stroke="#423C52" stroke-width="5" stroke-miterlimit="10" stroke-linecap="round"/>
<path d="M1306.07 369.582L1330.4 346" stroke="#423C52" stroke-width="5" stroke-miterlimit="10" stroke-linecap="round"/>
<path d="M1318.58 378.566L1342.92 354.984" stroke="#423C52" stroke-width="5" stroke-miterlimit="10" stroke-linecap="round"/>
<path d="M1561.33 253.293L1535.42 267.991C1546.93 259.743 1541.27 240.971 1523.78 223.813C1506.87 207.235 1484.28 200.231 1472.21 207.029L1497.77 189.76C1509.43 181.562 1533.12 188.875 1550.67 206.09C1568.22 223.306 1573 245.099 1561.33 253.293Z" fill="white" stroke="#423C52" stroke-width="5" stroke-miterlimit="10"/>
<path d="M1507.44 203.218C1510.72 203.218 1513.39 201.004 1513.39 198.274C1513.39 195.543 1510.72 193.33 1507.44 193.33C1504.15 193.33 1501.48 195.543 1501.48 198.274C1501.48 201.004 1504.15 203.218 1507.44 203.218Z" fill="white" stroke="#423C52" stroke-width="5" stroke-miterlimit="10" stroke-linecap="round"/>
<path d="M1288.77 77.2733C1319.18 70.5786 1313.58 60.1074 1319.68 56.0753C1328.68 50.1245 1336.85 60.8551 1339.28 64.5286L1345.55 59.89C1345.27 58.4557 1340.76 36.1438 1327.75 37.0898C1321.52 37.5437 1316.72 50.3343 1295.21 48.3888C1267.37 45.8635 1248.85 55.0301 1261.35 71.6582C1264.17 75.4156 1277.05 78.9632 1288.77 77.2733Z" fill="#EB7500"/>
<path d="M1357.39 65.4556L1382.06 155.275L1305.49 90.7391L1357.39 65.4556Z" fill="white"/>
<path d="M1355.39 79.3446C1360.29 102.137 1348.76 121.054 1341.85 121.405L1305.49 90.7581L1348.94 69.5906L1355.39 79.3446Z" fill="#423C52"/>
<path d="M1362 73.5007C1363.97 72.0482 1365.16 70.007 1365.31 67.8259C1365.47 65.6448 1364.57 63.5024 1362.82 61.8699L1360.61 59.8061C1358.86 58.1747 1356.4 57.1869 1353.77 57.0596C1351.14 56.9323 1348.56 57.6759 1346.59 59.1271L1339.28 64.5287C1336.86 60.8552 1328.68 50.1245 1319.69 56.0754C1313.6 60.0999 1319.19 70.5711 1288.77 77.2734C1288.77 77.2734 1303.73 101.401 1307.26 101.401C1310.78 101.401 1317.5 99.3107 1317.5 99.3107C1317.5 99.3107 1329.04 110.709 1332.12 110.709C1339.02 110.709 1354.18 94.7712 1354.18 79.0129L1362 73.5007Z" fill="white" stroke="#423C52" stroke-width="5" stroke-miterlimit="10"/>
<path d="M1306.92 77.8723C1306.92 77.8723 1313.64 75.2211 1320.86 75.6407" stroke="#423C52" stroke-width="5" stroke-miterlimit="10" stroke-linecap="round"/>
<path d="M1319.94 86.8601C1320.89 86.3505 1320.73 84.727 1319.58 83.2339C1318.43 81.7408 1316.71 80.9436 1315.76 81.4532C1314.8 81.9628 1314.96 83.5864 1316.11 85.0795C1317.27 86.5726 1318.98 87.3698 1319.94 86.8601Z" fill="#423C52"/>
<path d="M1350.52 71.1396C1348.36 68.374 1349.2 64.7272 1352.41 63.0029" stroke="#423C52" stroke-width="5" stroke-miterlimit="10" stroke-linecap="round"/>
<path d="M278.035 506.967L345.558 470.778C358.02 464.099 368.267 454.934 375.363 444.121C382.458 433.307 386.175 421.19 386.174 408.877V282.887C386.551 307.4 391.041 329.147 398.339 348.426C410.255 379.901 429.635 404.799 450.798 424.445C492.094 462.778 540.173 481.111 552.756 489.233C552.756 489.233 548.413 520.475 492.204 546.315C455.214 563.321 393.587 584.511 351.491 600.556L278.035 506.967Z" fill="#423C52"/>
<path d="M805.928 568.177L681.139 610.836C655.321 571.275 613.951 523.225 552.733 489.244C529.755 474.409 388.362 425.54 386.146 282.872C386.146 282.872 486.147 291.119 503.054 250.241C503.054 250.241 522.117 263.364 558.9 263.364C558.9 263.364 543.11 277.638 593.367 316.258C662.541 369.415 755.34 436.572 805.928 568.177Z" fill="#907B00"/>
<path d="M387.065 291.661C387.065 291.661 490.743 299.908 507.65 259.03" stroke="#423C52" stroke-width="5" stroke-miterlimit="10" stroke-linecap="round"/>
<path d="M503.1 269.738C503.1 269.738 486.584 294.438 536.851 333.061C606.015 386.203 698.814 453.36 749.402 584.965" stroke="#423C52" stroke-width="5" stroke-miterlimit="10" stroke-linecap="round"/>
<path d="M450.774 424.456C429.635 404.811 410.232 379.913 398.315 348.438H460.784C460.784 348.438 491.133 416.56 450.774 424.456Z" stroke="#423C52" stroke-width="5" stroke-miterlimit="10" stroke-linecap="round"/>
<path d="M279.198 683.647L268.945 689.163C268.225 689.526 267.36 689.638 266.541 689.474C265.722 689.309 265.015 688.882 264.574 688.285L258.821 680.915C258.345 680.338 258.164 679.627 258.318 678.939C258.473 678.252 258.949 677.642 259.643 677.246C260.072 677.013 260.423 676.694 260.664 676.319C260.905 675.943 261.028 675.523 261.022 675.098C261.023 674.556 260.833 674.026 260.475 673.572L254.795 666.298C254.354 665.701 253.647 665.274 252.828 665.109C252.009 664.945 251.144 665.057 250.424 665.42C249.941 665.675 249.379 665.807 248.807 665.802C248.256 665.798 247.715 665.68 247.233 665.458C246.752 665.236 246.345 664.917 246.049 664.531L240.296 657.162C239.82 656.584 239.639 655.873 239.793 655.186C239.948 654.498 240.424 653.889 241.118 653.492C241.547 653.259 241.898 652.94 242.139 652.564C242.38 652.189 242.503 651.769 242.497 651.344C242.497 650.802 242.307 650.272 241.95 649.818L236.27 642.54C236.052 642.244 235.767 641.987 235.429 641.783C235.092 641.579 234.709 641.432 234.303 641.351C233.897 641.27 233.476 641.256 233.063 641.31C232.651 641.364 232.255 641.485 231.899 641.666C231.416 641.921 230.854 642.053 230.282 642.048C229.731 642.044 229.19 641.926 228.708 641.704C228.227 641.482 227.82 641.164 227.524 640.778L221.771 633.408C221.294 632.831 221.112 632.12 221.267 631.431C221.421 630.743 221.898 630.134 222.593 629.738C223.022 629.505 223.373 629.186 223.614 628.811C223.855 628.435 223.978 628.016 223.972 627.59C223.973 627.048 223.783 626.518 223.425 626.065L217.745 618.786C217.305 618.19 216.597 617.762 215.778 617.599C214.958 617.435 214.094 617.548 213.375 617.913C212.891 618.167 212.329 618.299 211.757 618.294C211.206 618.29 210.665 618.172 210.184 617.95C209.702 617.728 209.295 617.41 209 617.024L203.246 609.654C202.77 609.076 202.589 608.366 202.744 607.678C202.898 606.99 203.374 606.381 204.068 605.984C204.497 605.751 204.847 605.432 205.088 605.057C205.329 604.681 205.453 604.262 205.447 603.837C205.446 603.294 205.255 602.764 204.896 602.311L199.206 595.086C198.766 594.489 198.059 594.062 197.239 593.897C196.42 593.733 195.556 593.845 194.836 594.208C194.35 594.462 193.787 594.594 193.214 594.59C192.663 594.586 192.122 594.467 191.641 594.245C191.159 594.024 190.752 593.705 190.456 593.32L184.703 585.946C184.227 585.368 184.047 584.657 184.202 583.969C184.357 583.281 184.835 582.672 185.53 582.276C185.958 582.043 186.309 581.724 186.55 581.349C186.791 580.973 186.914 580.554 186.908 580.129C186.909 579.587 186.719 579.056 186.362 578.603L180.681 571.328C180.241 570.732 179.534 570.304 178.715 570.14C177.895 569.975 177.031 570.087 176.311 570.451C175.827 570.707 175.263 570.839 174.689 570.832C174.138 570.829 173.597 570.711 173.115 570.489C172.633 570.267 172.226 569.948 171.931 569.562L166.178 562.188C165.941 561.903 165.775 561.581 165.689 561.243C165.603 560.904 165.597 560.554 165.674 560.214C165.75 559.873 165.907 559.549 166.134 559.258C166.362 558.968 166.656 558.718 167 558.522L184.192 550.454L184.794 551.297C183.154 552.264 182.027 553.718 181.646 555.357C181.265 556.996 181.66 558.694 182.749 560.098L279.198 683.647Z" fill="#423C52"/>
<path d="M182.75 560.075C182.149 559.3 181.754 558.428 181.592 557.516C181.429 556.604 181.503 555.675 181.807 554.789C182.112 553.902 182.64 553.08 183.357 552.377C184.074 551.674 184.964 551.105 185.967 550.71L214.344 539.609C234.046 531.911 256.992 520.711 284.487 504.045L350.664 600.064C348.752 600.827 346.836 601.59 344.883 602.311C252.396 636.33 302.764 668.838 278.577 682.895L182.75 560.075Z" fill="white" stroke="#423C52" stroke-width="5" stroke-miterlimit="10" stroke-linecap="round"/>
<path d="M276.146 509.344L341.151 603.673" stroke="#423C52" stroke-width="5" stroke-miterlimit="10" stroke-linecap="round"/>
<path d="M895.295 638.123L900.507 647.278C900.675 647.595 900.766 647.937 900.775 648.283C900.784 648.63 900.71 648.975 900.559 649.298C900.407 649.621 900.181 649.916 899.892 650.166C899.603 650.417 899.257 650.617 898.875 650.757L889.307 654.507C888.554 654.821 887.681 654.874 886.88 654.655C886.08 654.435 885.417 653.961 885.038 653.335C884.781 652.898 884.379 652.53 883.879 652.275C883.379 652.021 882.802 651.889 882.216 651.897C881.714 651.898 881.218 651.991 880.764 652.168L871.32 655.868C870.549 656.151 869.944 656.676 869.638 657.328C869.332 657.98 869.35 658.706 869.688 659.347C869.877 659.675 869.974 660.033 869.973 660.396C869.963 660.91 869.777 661.411 869.438 661.841C869.099 662.271 868.62 662.613 868.057 662.826L858.489 666.572C857.736 666.887 856.864 666.941 856.063 666.722C855.263 666.503 854.6 666.029 854.22 665.405C853.963 664.966 853.561 664.597 853.06 664.342C852.559 664.086 851.981 663.955 851.393 663.963C850.893 663.964 850.398 664.057 849.946 664.234L840.497 667.934C839.727 668.217 839.122 668.742 838.817 669.394C838.511 670.046 838.529 670.772 838.866 671.413C839.053 671.741 839.15 672.099 839.151 672.462C839.141 672.976 838.957 673.477 838.618 673.907C838.28 674.337 837.802 674.678 837.239 674.892L827.666 678.642C826.913 678.956 826.04 679.01 825.239 678.79C824.439 678.57 823.776 678.096 823.397 677.471C823.14 677.033 822.738 676.665 822.238 676.411C821.738 676.156 821.161 676.025 820.575 676.033C820.074 676.033 819.58 676.126 819.127 676.303L809.679 680.004C808.908 680.286 808.303 680.811 807.997 681.463C807.691 682.115 807.709 682.842 808.047 683.483C808.235 683.81 808.332 684.169 808.332 684.532C808.322 685.045 808.137 685.546 807.799 685.976C807.461 686.406 806.983 686.747 806.421 686.962L796.848 690.708C796.095 691.021 795.223 691.075 794.423 690.856C793.623 690.637 792.959 690.164 792.579 689.54C792.322 689.102 791.921 688.733 791.421 688.478C790.921 688.223 790.344 688.091 789.757 688.098C789.256 688.099 788.762 688.192 788.309 688.369L778.861 692.069C778.089 692.352 777.485 692.877 777.18 693.529C776.875 694.182 776.894 694.908 777.234 695.548C777.418 695.876 777.514 696.232 777.514 696.594C777.505 697.108 777.32 697.609 776.982 698.04C776.644 698.47 776.165 698.813 775.602 699.027L766.03 702.773C765.277 703.087 764.405 703.14 763.605 702.922C762.804 702.703 762.141 702.23 761.76 701.606C761.504 701.168 761.104 700.8 760.605 700.545C760.106 700.289 759.529 700.157 758.943 700.164C758.441 700.164 757.944 700.258 757.491 700.439L748.042 704.135C747.271 704.418 746.667 704.943 746.361 705.595C746.056 706.247 746.076 706.974 746.416 707.614C746.602 707.942 746.698 708.3 746.696 708.663C746.687 709.177 746.503 709.678 746.165 710.108C745.826 710.538 745.347 710.88 744.784 711.093L735.216 714.839C734.463 715.154 733.59 715.208 732.788 714.989C731.987 714.77 731.323 714.296 730.942 713.672L723.548 698.463L724.632 698.081C725.567 699.559 727.153 700.681 729.059 701.214C730.966 701.746 733.046 701.647 734.867 700.938L895.295 638.123Z" fill="#423C52"/>
<path d="M734.867 700.938C733.862 701.329 732.768 701.537 731.658 701.548C730.549 701.56 729.449 701.376 728.432 701.007C727.415 700.639 726.504 700.095 725.76 699.411C725.016 698.728 724.456 697.921 724.118 697.044C720.961 688.77 717.932 680.816 714.655 672.214C708.097 654.979 697.794 634.605 681.567 609.757L805.051 568.177C805.694 569.848 806.365 571.53 806.963 573.231C835.212 653.862 880.755 616.776 894.28 638.55L734.867 700.938Z" fill="white" stroke="#423C52" stroke-width="5" stroke-miterlimit="10" stroke-linecap="round"/>
<path d="M686.788 617.329L808.103 576.47" stroke="#423C52" stroke-width="5" stroke-miterlimit="10" stroke-linecap="round"/>
<path d="M574.576 257.871C568.346 257.87 562.18 256.838 556.438 254.833C550.695 252.829 545.493 249.893 541.135 246.198C536.777 242.503 533.352 238.123 531.06 233.315C528.768 228.507 527.656 223.368 527.788 218.198L530.885 105.185L596.051 103.896L620.656 212.167C625.78 235.982 603.726 257.871 574.576 257.871Z" fill="#423C52"/>
<path d="M530.885 105.162L530.219 76.3274C530.067 68.9117 536.653 61.8318 545.486 60.8285L593.648 56.4111L596.037 103.896L530.885 105.162Z" fill="#EB7500"/>
<path d="M572.154 73.1231C733.957 68.2327 783.649 14.2898 829.748 15.2816C858.631 15.9034 860.699 118.586 820.933 117.732C782.895 116.915 747.137 80.0849 614.236 74.8321L572.154 73.1231Z" fill="#FFDB00"/>
<path d="M572.154 73.1231C733.957 68.2327 783.649 14.2898 829.748 15.2816C858.631 15.9034 860.699 118.586 820.933 117.732C782.895 116.915 747.137 80.0849 614.236 74.8321L572.154 73.1231Z" stroke="#423C52" stroke-width="5" stroke-miterlimit="10"/>
<path d="M839.633 20.2598L838.562 109.172" stroke="#423C52" stroke-width="5" stroke-miterlimit="10"/>
<path d="M827.216 15.2815L825.984 117.247" stroke="#423C52" stroke-width="5" stroke-miterlimit="10"/>
<path d="M814.72 16.7197L813.507 117.133" stroke="#423C52" stroke-width="5" stroke-miterlimit="10"/>
<path d="M802.201 19.9966L801.062 114.474" stroke="#423C52" stroke-width="5" stroke-miterlimit="10"/>
<path d="M789.67 24.4404L788.631 110.51" stroke="#423C52" stroke-width="5" stroke-miterlimit="10"/>
<path d="M777.133 29.27L776.204 106.036" stroke="#423C52" stroke-width="5" stroke-miterlimit="10"/>
<path d="M764.586 34.6868L763.782 101.565" stroke="#423C52" stroke-width="5" stroke-miterlimit="10"/>
<path d="M752.054 39.291L751.351 97.3538" stroke="#423C52" stroke-width="5" stroke-miterlimit="10"/>
<path d="M739.522 43.7275L738.92 93.5202" stroke="#423C52" stroke-width="5" stroke-miterlimit="10"/>
<path d="M726.989 47.9807L726.484 90.0983" stroke="#423C52" stroke-width="5" stroke-miterlimit="10"/>
<path d="M714.462 51.929L714.039 87.0848" stroke="#423C52" stroke-width="5" stroke-miterlimit="10"/>
<path d="M701.944 55.3811L701.594 84.464" stroke="#423C52" stroke-width="5" stroke-miterlimit="10"/>
<path d="M689.425 58.5244L689.14 82.202" stroke="#423C52" stroke-width="5" stroke-miterlimit="10"/>
<path d="M676.916 61.3169L676.686 80.2795" stroke="#423C52" stroke-width="5" stroke-miterlimit="10"/>
<path d="M664.406 63.7734L664.227 78.662" stroke="#423C52" stroke-width="5" stroke-miterlimit="10"/>
<path d="M651.902 65.9097L651.764 77.3307" stroke="#423C52" stroke-width="5" stroke-miterlimit="10"/>
<path d="M639.401 67.7444L639.296 76.2625" stroke="#423C52" stroke-width="5" stroke-miterlimit="10"/>
<path d="M626.902 69.2932L626.828 75.4386" stroke="#423C52" stroke-width="5" stroke-miterlimit="10"/>
<path d="M614.411 70.575L614.355 74.8321" stroke="#423C52" stroke-width="5" stroke-miterlimit="10"/>
<path d="M789.674 24.1582L842.813 24.5969" stroke="#423C52" stroke-width="5" stroke-miterlimit="10"/>
<path d="M764.591 34.3091L847.284 34.9957" stroke="#423C52" stroke-width="5" stroke-miterlimit="10"/>
<path d="M739.164 44.4561L849.711 45.3716" stroke="#423C52" stroke-width="5" stroke-miterlimit="10"/>
<path d="M705.156 54.5305L850.906 55.7398" stroke="#423C52" stroke-width="5" stroke-miterlimit="10"/>
<path d="M660.73 64.521L851.117 66.1003" stroke="#423C52" stroke-width="5" stroke-miterlimit="10"/>
<path d="M601.837 74.3896L850.387 76.4534" stroke="#423C52" stroke-width="5" stroke-miterlimit="10"/>
<path d="M707.316 85.6238L848.604 86.7949" stroke="#423C52" stroke-width="5" stroke-miterlimit="10"/>
<path d="M748.125 96.3201L845.442 97.1288" stroke="#423C52" stroke-width="5" stroke-miterlimit="10"/>
<path d="M778.658 106.932L839.913 107.44" stroke="#423C52" stroke-width="5" stroke-miterlimit="10"/>
<path d="M252.093 65.696C252.093 65.696 331.344 102.5 398.95 92.6961" stroke="#423C52" stroke-width="5" stroke-miterlimit="10"/>
<path d="M196.348 174.623C196.348 174.623 240.603 122.187 329.336 106.242" stroke="#423C52" stroke-width="5" stroke-miterlimit="10"/>
<path d="M101.278 133.894C101.278 133.894 145.056 150.534 209.735 134.623" stroke="#423C52" stroke-width="5" stroke-miterlimit="10"/>
<path d="M572.154 73.123C558.307 73.2756 387.107 73.9546 37.624 184.236" stroke="#423C52" stroke-width="5" stroke-miterlimit="10"/>
<path d="M738.079 94.4165C713.07 87.1687 680.726 80.3405 636.235 77.1858L634.806 76.9302C634.806 76.9302 638.377 70.0981 642.848 66.1233C668.779 62.5166 694.248 56.9103 718.924 49.377L738.079 94.4165Z" fill="#423C52"/>
<path d="M221.716 45.3372C221.716 45.3372 246.371 43.2201 262.81 71.1434C262.81 71.1434 234.11 71.5401 221.716 45.3372Z" fill="#B59B00"/>
<path d="M0 202.295C0 202.295 6.17191 176.901 45.1519 180.849C45.1519 180.849 35.5103 208.932 0 202.295Z" fill="#B59B00"/>
<path d="M164.445 187.174C164.445 187.174 168.37 161.474 207.598 163.057C207.598 163.057 200.438 191.648 164.445 187.174Z" fill="#B59B00"/>
<path d="M214.441 192.133C214.441 192.133 200.217 175.814 223.494 159.407C223.494 159.407 237.736 178.793 214.441 192.133Z" fill="#423C52"/>
<path d="M229.372 192.457C229.372 192.457 208.889 181.661 223.214 159.269C223.214 159.277 245.08 172.914 229.372 192.457Z" fill="#B59B00"/>
<path d="M286.082 61.4694C286.082 61.4694 309.767 59.9435 320.889 86.4515C320.889 86.4515 293.66 86.2684 286.082 61.4694Z" fill="#423C52"/>
<path d="M296.606 49.2893C296.606 49.2893 323.205 55.5263 320.93 87.1917C320.93 87.1917 291.39 77.9907 296.606 49.2893Z" fill="#B59B00"/>
<path d="M244.486 86.2761C244.486 86.2761 256.403 71.1586 285.387 77.7885C285.387 77.7885 270.709 95.0956 244.486 86.2761Z" fill="#423C52"/>
<path d="M86.9717 191.705C86.9717 191.705 88.6629 173.082 120.52 164.579C120.52 164.579 117.583 186.411 86.9717 191.705Z" fill="#423C52"/>
<path d="M52.6699 155.661C52.6699 155.661 72.114 146.265 98.6261 163.237C98.6123 163.237 75.2757 173.597 52.6699 155.661Z" fill="#B59B00"/>
<path d="M83.4336 136.378C83.4336 136.378 100.819 124.522 130.245 137.755C130.245 137.755 109.206 151.083 83.4336 136.378Z" fill="#423C52"/>
<path d="M87.2617 109.32C87.2617 109.32 115.755 106.65 130.318 138.155C130.318 138.155 97.487 138.907 87.2617 109.32Z" fill="#B59B00"/>
<path d="M549.452 73.661L550.83 64.4066C551.29 62.7396 554.171 60.9734 556.938 60.6644L599.411 56.0869C605.592 55.4231 609.47 57.6471 608.602 61.3549L605.463 76.747C604.691 80.5617 599.948 83.6439 594.434 84.0597L542.673 87.7637C539.631 87.9964 543.036 75.8201 543.482 73.9585L549.452 73.661Z" fill="#EB7500"/>
<path d="M549.452 73.2795L546.147 73.4397C544.958 73.5369 543.84 73.957 542.966 74.6349C542.093 75.3127 541.514 76.2106 541.317 77.1895L540.205 85.0439C539.746 86.9817 541.616 88.2062 544.773 87.9888C566.152 86.5087 596.846 84.2924 600.78 82.7703C605.936 80.7829 608.087 67.5651 608.878 60.4203C609.185 57.6814 606.336 56.0105 601.796 56.2471" stroke="#423C52" stroke-width="5" stroke-miterlimit="10" stroke-linecap="round"/>
<path d="M601.791 56.2471L546.138 61.7669" stroke="#423C52" stroke-width="5" stroke-miterlimit="10" stroke-linecap="round"/>
<path d="M586.065 84.8112C593.308 81.6756 596.456 69.3962 595.821 61.7364C595.605 59.1424 593.28 57.3267 588.735 57.567" stroke="#423C52" stroke-width="5" stroke-miterlimit="10" stroke-linecap="round"/>
<path d="M572.687 85.6962C578.151 84.0368 582.154 71.273 582.2 63.0448C582.2 60.3745 579.659 58.635 575.113 58.8716" stroke="#423C52" stroke-width="5" stroke-miterlimit="10" stroke-linecap="round"/>
<path d="M556.359 87.2144C561.511 85.227 564.507 73.0735 564.456 64.8606C564.456 62.2094 561.828 60.2143 556.929 60.6644" stroke="#423C52" stroke-width="5" stroke-miterlimit="10" stroke-linecap="round"/>
<path d="M549.452 73.2795L548.358 79.1846" stroke="#423C52" stroke-width="5" stroke-miterlimit="10" stroke-linecap="round"/>
<path d="M703.791 93.2491L633.322 223.237C626.922 235.185 616.486 245.337 603.277 252.461C590.068 259.586 574.653 263.378 558.9 263.379C522.135 263.379 503.054 250.256 503.054 250.256C486.147 291.134 386.146 282.887 386.146 282.887V143.458C386.146 135.304 388.08 127.231 391.839 119.699C395.597 112.166 401.106 105.322 408.052 99.5568C414.997 93.7917 423.242 89.2187 432.317 86.0989C441.392 82.9791 451.118 81.3736 460.94 81.3741H462.879C505.835 81.3741 540.348 110.026 540.348 145.369V158.583L621.635 79.6194L703.791 93.2491Z" fill="#FE552F"/>
<path d="M558.9 263.379C499.406 263.379 445.007 215.612 435.021 185.941C435.021 185.941 446.887 276.31 558.9 282.887V263.379Z" fill="#423C52"/>
<path d="M544.966 152.7L529.042 170.065" stroke="#423C52" stroke-width="5" stroke-miterlimit="10" stroke-linecap="round"/>
<path d="M703.331 93.6306L621.194 79.9818C621.194 79.9818 638.85 51.2498 646.125 48.6483C650.831 46.9698 675.62 43.9105 695.758 42.3083C708.938 41.2593 720.142 40.8282 722.444 41.8162C722.932 42.026 723.212 42.5067 723.327 43.2124L723.065 44.9099C722.67 47.5 719.889 48.7017 716.852 49.3959C712.316 50.4297 709.457 50.7463 709.172 50.8493C706.608 51.7648 701.819 58.1811 695.726 65.6425C700.055 67.752 704.655 71.0288 706.392 74.9617C707.927 78.413 708.144 82.1733 707.012 85.7305L703.331 93.6306Z" fill="#EB7500"/>
<path d="M644.305 65.2305C649.654 58.4939 655.077 48.8657 658.735 47.5573C660.647 46.8744 669.337 45.7606 677.026 45.0205" stroke="#423C52" stroke-width="5" stroke-miterlimit="10" stroke-linecap="round"/>
<path d="M660.293 65.2306C666.3 57.6623 672.499 46.7944 676.617 45.3257C678.759 44.5628 687.775 43.5634 695.294 43.1628" stroke="#423C52" stroke-width="5" stroke-miterlimit="10" stroke-linecap="round"/>
<path d="M677.26 65.2305C683.267 57.6622 690.744 45.0128 694.857 43.5251C697.003 42.7622 703.033 41.6178 710.56 41.3965C714.533 41.2753 718.511 41.4118 722.458 41.8047L721.999 44.7878C721.672 46.924 719.747 48.1141 717.307 48.8466C714.237 49.7697 710.335 51.0476 709.191 51.4558C705.055 52.9244 698.653 61.9995 695.473 65.9514C704.999 70.0217 711.121 79.2303 702.895 92.5358L622.108 79.9703" stroke="#423C52" stroke-width="5" stroke-miterlimit="10" stroke-linecap="round"/>
<path d="M597.067 20.3817C592.582 17.1659 558.827 19.6874 518.202 27.3015C476.69 35.0719 444.856 44.6085 443.785 49.0145C444.369 39.2451 487.967 23.9369 487.967 23.9369L489.479 12.1115C489.604 11.1346 490.093 10.2144 490.879 9.47933C491.664 8.74422 492.706 8.23083 493.859 8.01078L530.123 1.08337C531.212 0.874133 532.352 0.936246 533.399 1.26193C534.446 1.58762 535.354 2.16242 536.01 2.9144L545.105 13.3513C584.131 11.9628 595.133 18.3523 597.067 20.3817Z" fill="white" stroke="#423C52" stroke-width="5" stroke-miterlimit="10" stroke-linecap="round"/>
<path d="M545.105 13.3513C536.571 14.5758 527.333 15.9758 517.742 17.7763C507.062 19.7752 497.007 21.8351 487.967 23.9484" stroke="#423C52" stroke-width="5" stroke-miterlimit="10" stroke-linecap="round"/>
<path d="M532.696 58.1772L517.007 90.1211L513.638 96.9875C499.53 86.8796 481.502 81.337 462.866 81.378H460.94C449.923 81.3652 439.04 83.3807 429.074 87.2792L429.152 87.2106L456.887 62.5946L485.15 37.5171L532.696 58.1772Z" fill="#EB7500"/>
<path d="M532.701 58.1772L517.112 89.9266C511.639 81.8967 506.041 71.1241 505.899 64.4294C505.807 60.3249 505.899 51.6618 505.651 46.4434L532.701 58.1772Z" fill="#423C52"/>
<path d="M496.671 34.1336C496.671 34.1336 505.178 32.2263 515.38 30.1511C515.38 30.1511 515.38 30.1893 515.38 30.2389C515.201 31.1048 513.813 37.9788 514.158 43.7694C514.355 47.1187 515.137 50.1056 517.058 51.3606C522.54 54.9387 542.154 54.6145 546.69 53.5311C546.69 53.5311 548.39 72.7074 544.852 73.1422C541.313 73.5771 511.529 66.9358 507.627 60.4623C504.934 55.9839 505.895 50.365 505.642 45.1465L505.766 41.9918C505.803 40.9775 505.595 39.9673 505.156 39.0204C504.717 38.0735 504.054 37.2088 503.207 36.4771C502.36 35.7453 501.346 35.1611 500.224 34.7587C499.101 34.3563 497.894 34.1438 496.671 34.1336Z" fill="#DBE5E5"/>
<path d="M505.72 53.2488H493.427C486.933 53.2488 481.938 49.4341 481.938 44.7383V38.9438" stroke="#423C52" stroke-width="5" stroke-miterlimit="10"/>
<path d="M490.964 34.1069H497.163C499.43 34.1079 501.604 34.855 503.208 36.1844C504.812 37.5137 505.715 39.3168 505.72 41.1983V51.8794H493.569C490.745 51.8794 488.037 50.9482 486.04 49.2906C484.043 47.6331 482.921 45.3849 482.921 43.0408V40.7864C482.921 39.9077 483.13 39.0376 483.535 38.2259C483.94 37.4141 484.534 36.6765 485.282 36.0552C486.031 35.4339 486.919 34.941 487.897 34.6048C488.875 34.2685 489.924 34.0955 490.982 34.0955L490.964 34.1069Z" fill="#EB7500"/>
<path d="M501.382 44.6659C501.382 41.1717 497.172 38.3374 491.975 38.3374" stroke="#423C52" stroke-width="5" stroke-miterlimit="10" stroke-linecap="round"/>
<path d="M555.937 50.0596C553.322 51.8584 550.176 53.0438 546.823 53.4928L546.667 53.5157C542.131 54.5991 522.517 54.9233 517.035 51.3452C515.114 50.0901 514.332 47.1033 514.135 43.754C513.79 37.9634 515.178 31.0894 515.357 30.2234C517.585 29.7809 519.85 29.3448 522.154 28.915C530.605 27.3281 538.698 25.9739 546.217 24.8677C546.217 24.8829 554.089 34.0915 555.937 50.0596Z" fill="#EB7500"/>
<path d="M528.161 37.4902C529.662 36.1145 531.496 35.0173 533.543 34.2705C535.59 33.5238 537.804 33.1442 540.04 33.1568" stroke="#423C52" stroke-width="5" stroke-miterlimit="10" stroke-linecap="round"/>
<path d="M535.941 42.7965C537.058 42.7965 537.963 41.5685 537.963 40.0538C537.963 38.539 537.058 37.311 535.941 37.311C534.824 37.311 533.919 38.539 533.919 40.0538C533.919 41.5685 534.824 42.7965 535.941 42.7965Z" fill="#423C52"/>
<path d="M517.232 90.3195L513.643 96.9837C499.535 86.8758 481.507 81.3332 462.87 81.3741H460.94C449.923 81.3614 439.04 83.3768 429.074 87.2754L456.694 62.5793C488.615 64.4333 517.232 90.3195 517.232 90.3195Z" fill="#E5F1EF"/>
<path d="M427.273 88.0003C437.713 83.6289 449.247 81.359 460.94 81.3742H462.88C481.516 81.3333 499.544 86.8759 513.652 96.9838" stroke="#423C52" stroke-width="5" stroke-miterlimit="10" stroke-linecap="round"/>
<path d="M1054.94 780.92C1068.78 780.92 1079.99 777.955 1079.99 774.298C1079.99 770.641 1068.78 767.676 1054.94 767.676C1041.11 767.676 1029.89 770.641 1029.89 774.298C1029.89 777.955 1041.11 780.92 1054.94 780.92Z" fill="#423C52"/>
<path d="M1003.45 772.147C1010.36 772.147 1015.97 770.145 1015.97 767.676C1015.97 765.207 1010.36 763.205 1003.45 763.205C996.532 763.205 990.925 765.207 990.925 767.676C990.925 770.145 996.532 772.147 1003.45 772.147Z" fill="#423C52"/>
<path d="M807.845 755.74C807.845 755.614 807.845 755.488 807.845 755.358C807.845 745.013 818.975 736.628 832.698 736.628C837.636 736.609 842.483 737.734 846.691 739.878C847.043 734.479 849.111 729.254 852.686 724.734C856.26 720.214 861.213 716.56 867.04 714.144C872.868 711.728 879.362 710.637 885.863 710.981C892.363 711.325 898.638 713.091 904.049 716.102C907.533 698.352 929.141 684.688 955.267 684.688C983.825 684.688 1006.98 701.018 1006.98 721.156C1006.98 722.753 1006.82 724.347 1006.52 725.924C1008.26 725.707 1010.01 725.597 1011.77 725.596C1018.15 725.595 1024.42 727.073 1029.85 729.863C1035.28 732.654 1039.67 736.646 1042.52 741.393L1041.86 741.522H1067.67C1069.15 734.642 1073.35 728.367 1079.61 723.693C1085.87 719.019 1093.83 716.214 1102.23 715.722C1110.63 715.23 1118.99 717.08 1125.98 720.977C1132.97 724.875 1138.19 730.598 1140.82 737.239C1145.57 735.189 1150.79 733.999 1156.14 733.749C1161.48 733.499 1166.83 734.195 1171.83 735.789C1176.83 737.383 1181.36 739.84 1185.13 742.997C1188.9 746.154 1191.82 749.94 1193.7 754.103V755.736L807.845 755.74Z" fill="#423C52"/>
</g>
<defs>
<clipPath id="clip0_44_438">
<rect width="1800.19" height="794.34" fill="white"/>
</clipPath>
</defs>
</svg>
