<svg width="1923" height="615" viewBox="0 0 1923 615" fill="none" xmlns="http://www.w3.org/2000/svg">
<path d="M1717.71 611.93H1841.01L1855.65 475.411H1703.08L1717.71 611.93Z" fill="#DBE5E5"/>
<path d="M1713.3 484.29H1845.42C1851.07 484.29 1855.65 479.987 1855.65 474.679V423.932C1855.65 418.624 1851.07 414.321 1845.42 414.321H1713.3C1707.66 414.321 1703.08 418.624 1703.08 423.932V474.679C1703.08 479.987 1707.66 484.29 1713.3 484.29Z" fill="#DBE5E5"/>
<path d="M1702.37 474.679C1702.37 479.986 1706.99 484.281 1712.69 484.281H1846.04C1851.73 484.281 1856.35 479.978 1856.35 474.679" stroke="white" stroke-width="6" stroke-linecap="round" stroke-linejoin="round"/>
<path d="M1702.37 480.296C1702.37 485.602 1706.99 489.898 1712.69 489.898H1846.04C1851.73 489.898 1856.35 485.595 1856.35 480.296" stroke="white" stroke-width="6" stroke-linecap="round" stroke-linejoin="round"/>
<path d="M1721.95 475.774H1836.78C1842.42 475.774 1847 471.471 1847 466.163V432.223C1847 426.915 1842.42 422.612 1836.78 422.612H1721.95C1716.3 422.612 1711.72 426.915 1711.72 432.223V466.163C1711.72 471.471 1716.3 475.774 1721.95 475.774Z" fill="#423C52"/>
<path d="M1793.68 518.355V547.821L1790.87 546.455L1788.09 547.804L1785.31 546.455L1782.52 547.804L1779.74 546.455L1776.95 547.804L1774.17 546.455L1771.38 547.804L1768.6 546.455L1765.8 547.821V511.634H1786.53V518.355H1793.68Z" stroke="white" stroke-width="7" stroke-linecap="round" stroke-linejoin="round"/>
<path d="M1793.68 517.825V518.355H1786.53V511.634H1787.09L1793.68 517.825Z" stroke="white" stroke-width="7" stroke-linecap="round" stroke-linejoin="round"/>
<path d="M1793.68 518.355H1786.53V511.634L1793.68 518.355Z" fill="white"/>
<path d="M1564.5 611.93H1688.01L1702.67 475.411H1549.84L1564.5 611.93Z" fill="#FFDB00"/>
<path d="M1560.2 484.29H1692.32C1697.97 484.29 1702.54 479.987 1702.54 474.679V423.932C1702.54 418.624 1697.97 414.321 1692.32 414.321H1560.2C1554.55 414.321 1549.97 418.624 1549.97 423.932V474.679C1549.97 479.987 1554.55 484.29 1560.2 484.29Z" fill="white" stroke="#FFDB00" stroke-width="5" stroke-miterlimit="10"/>
<path d="M1549.97 480.296C1549.97 481.557 1550.24 482.807 1550.75 483.972C1551.26 485.138 1552.02 486.197 1552.97 487.088C1553.92 487.98 1555.04 488.687 1556.28 489.169C1557.52 489.651 1558.85 489.899 1560.2 489.898H1692.32C1695.03 489.898 1697.63 488.886 1699.54 487.085C1701.46 485.285 1702.53 482.842 1702.53 480.296" stroke="white" stroke-width="5" stroke-miterlimit="10"/>
<path d="M1568.84 475.774H1683.67C1689.32 475.774 1693.9 471.471 1693.9 466.163V432.223C1693.9 426.915 1689.32 422.612 1683.67 422.612H1568.84C1563.2 422.612 1558.62 426.915 1558.62 432.223V466.163C1558.62 471.471 1563.2 475.774 1568.84 475.774Z" fill="#423C52"/>
<path d="M1637.38 516.449V514.477C1637.38 513.024 1636.77 511.632 1635.68 510.605C1634.58 509.578 1633.1 509.002 1631.56 509.002H1629.27V504.407C1629.27 504.366 1629.27 504.326 1629.27 504.284C1629.27 502.969 1627.67 501.902 1625.7 501.902C1623.73 501.902 1622.13 502.969 1622.13 504.284C1622.13 504.326 1622.13 504.366 1622.13 504.407V509.002H1619.84C1618.3 509.002 1616.82 509.578 1615.73 510.605C1614.63 511.632 1614.02 513.024 1614.02 514.477V516.449C1614.02 517.28 1614.37 518.077 1615 518.664C1615.62 519.252 1616.47 519.582 1617.35 519.582H1616.33C1615.71 519.582 1615.12 519.811 1614.69 520.219C1614.26 520.626 1614.01 521.179 1614.01 521.756V525.261C1614.01 525.838 1614.26 526.391 1614.69 526.799C1615.12 527.206 1615.71 527.435 1616.33 527.435H1635.06C1635.67 527.435 1636.26 527.206 1636.7 526.799C1637.13 526.391 1637.37 525.838 1637.37 525.261V521.756C1637.37 521.179 1637.13 520.626 1636.7 520.219C1636.26 519.811 1635.67 519.582 1635.06 519.582H1634.06C1634.94 519.58 1635.78 519.249 1636.41 518.662C1637.03 518.075 1637.38 517.279 1637.38 516.449V516.449ZM1625.7 506.259C1624.31 506.259 1623.19 505.492 1623.19 504.547C1623.19 503.601 1624.32 502.836 1625.7 502.836C1627.08 502.836 1628.21 503.603 1628.21 504.547C1628.21 505.491 1627.09 506.259 1625.7 506.259Z" fill="white"/>
<path d="M1637.38 530.483V555.614C1637.38 555.797 1637.35 555.977 1637.27 556.146C1637.2 556.315 1637.09 556.468 1636.96 556.598C1636.82 556.728 1636.66 556.831 1636.48 556.902C1636.3 556.973 1636.11 557.01 1635.92 557.011H1634.17C1633.9 557.01 1633.63 556.935 1633.39 556.796C1633.16 556.656 1632.97 556.458 1632.86 556.223C1632.83 556.136 1632.79 556.053 1632.76 555.969C1632.55 555.537 1632.21 555.172 1631.78 554.919C1631.35 554.665 1630.85 554.534 1630.34 554.541C1629.84 554.548 1629.34 554.693 1628.92 554.958C1628.5 555.223 1628.17 555.597 1627.97 556.035V556.051C1627.96 556.082 1627.95 556.111 1627.94 556.142C1627.94 556.149 1627.94 556.156 1627.94 556.163C1627.83 556.415 1627.64 556.631 1627.4 556.783C1627.16 556.935 1626.88 557.017 1626.59 557.017H1624.85C1624.57 557.016 1624.29 556.937 1624.06 556.791C1623.82 556.644 1623.63 556.436 1623.52 556.192V556.192C1623.5 556.132 1623.48 556.076 1623.45 556.011C1623.25 555.574 1622.91 555.202 1622.49 554.941C1622.06 554.679 1621.57 554.539 1621.06 554.538C1620.55 554.537 1620.06 554.675 1619.63 554.934C1619.2 555.194 1618.87 555.564 1618.66 556C1618.63 556.059 1618.61 556.12 1618.59 556.181C1618.59 556.181 1618.59 556.181 1618.59 556.181C1618.52 556.334 1618.42 556.472 1618.29 556.591C1618.16 556.72 1618 556.823 1617.82 556.893C1617.64 556.963 1617.45 556.999 1617.26 556.998H1615.52C1615.13 556.996 1614.76 556.847 1614.48 556.585C1614.21 556.323 1614.06 555.969 1614.06 555.602V530.483C1614.06 529.675 1614.4 528.9 1615.01 528.329C1615.61 527.758 1616.44 527.437 1617.3 527.437H1634.18C1635.03 527.447 1635.85 527.772 1636.45 528.342C1637.04 528.912 1637.38 529.681 1637.38 530.483Z" fill="white"/>
<path d="M1625.7 512.738C1623.51 512.738 1621.65 511.832 1621.2 510.52L1621.17 510.451V508.795H1622.13V510.294C1622.5 511.172 1624.01 511.826 1625.7 511.826C1627.39 511.826 1628.9 511.172 1629.27 510.294V508.466H1630.23V510.446L1630.21 510.515C1629.75 511.824 1627.89 512.738 1625.7 512.738Z" fill="#FFDB00"/>
<path d="M1635.98 520.028H1615.42C1615.3 520.028 1615.17 519.98 1615.08 519.895C1614.99 519.81 1614.94 519.695 1614.94 519.575C1614.94 519.455 1614.99 519.339 1615.08 519.254C1615.17 519.17 1615.3 519.122 1615.42 519.122H1635.98C1636.11 519.122 1636.23 519.17 1636.32 519.254C1636.41 519.339 1636.47 519.455 1636.47 519.575C1636.47 519.695 1636.41 519.81 1636.32 519.895C1636.23 519.98 1636.11 520.028 1635.98 520.028Z" fill="#FFDB00"/>
<path d="M1635.98 528.18H1615.42C1615.3 528.18 1615.17 528.133 1615.08 528.048C1614.99 527.963 1614.94 527.847 1614.94 527.727C1614.94 527.607 1614.99 527.492 1615.08 527.407C1615.17 527.322 1615.3 527.274 1615.42 527.274H1635.98C1636.11 527.274 1636.23 527.322 1636.32 527.407C1636.41 527.492 1636.47 527.607 1636.47 527.727C1636.47 527.847 1636.41 527.963 1636.32 528.048C1636.23 528.133 1636.11 528.18 1635.98 528.18Z" fill="#FFDB00"/>
<path d="M1410.19 611.93L1395.56 475.411H1548.13L1533.49 611.93" stroke="#DBE5E5" stroke-width="6" stroke-miterlimit="10"/>
<path d="M1547.49 480.296C1547.49 485.602 1542.95 489.898 1537.35 489.898H1406.34C1400.74 489.898 1396.2 485.595 1396.2 480.296" stroke="#DBE5E5" stroke-width="6" stroke-miterlimit="10"/>
<path d="M1537.9 414.32H1405.78C1400.13 414.32 1395.56 418.623 1395.56 423.931V474.678C1395.56 479.986 1400.13 484.289 1405.78 484.289H1537.9C1543.55 484.289 1548.13 479.986 1548.13 474.678V423.931C1548.13 418.623 1543.55 414.32 1537.9 414.32Z" fill="white" stroke="#DBE5E5" stroke-width="6" stroke-miterlimit="10"/>
<path d="M1529.26 422.614H1414.43C1408.78 422.614 1404.2 426.917 1404.2 432.224V466.165C1404.2 471.473 1408.78 475.776 1414.43 475.776H1529.26C1534.9 475.776 1539.48 471.473 1539.48 466.165V432.224C1539.48 426.917 1534.9 422.614 1529.26 422.614Z" fill="#423C52"/>
<path d="M1476.35 512.353V531.919C1476.35 534.753 1472.55 537.048 1467.87 537.048C1463.18 537.048 1459.39 534.753 1459.39 531.919V512.353C1459.39 515.187 1463.18 517.482 1467.87 517.482C1472.55 517.482 1476.35 515.187 1476.35 512.353Z" fill="#DBE5E5"/>
<path d="M1475.71 512.319V512.353C1475.71 515.187 1472.2 517.482 1467.87 517.482C1463.53 517.482 1460.02 515.187 1460.02 512.353V512.319C1460.05 509.502 1463.55 507.224 1467.87 507.224C1472.18 507.224 1475.68 509.502 1475.71 512.319Z" stroke="#DBE5E5" stroke-width="6" stroke-miterlimit="10"/>
<path d="M1467.87 537.048V552.232" stroke="#DBE5E5" stroke-width="6" stroke-miterlimit="10"/>
<path d="M1473.75 552.232H1461.98" stroke="#DBE5E5" stroke-width="6" stroke-miterlimit="10"/>
<path d="M1381.03 611.93H1257.21L1242.51 475.411H1395.72L1381.03 611.93Z" fill="#FE552F"/>
<path d="M1385.18 414.32H1253.06C1247.41 414.32 1242.83 418.623 1242.83 423.931V474.678C1242.83 479.986 1247.41 484.289 1253.06 484.289H1385.18C1390.83 484.289 1395.4 479.986 1395.4 474.678V423.931C1395.4 418.623 1390.83 414.32 1385.18 414.32Z" fill="white" stroke="#FE552F" stroke-width="5" stroke-miterlimit="10"/>
<path d="M1396.01 480.296C1396.01 485.602 1391.4 489.898 1385.71 489.898H1252.54C1246.84 489.898 1242.23 485.595 1242.23 480.296" stroke="white" stroke-width="6" stroke-linecap="round" stroke-linejoin="round"/>
<path d="M1376.53 422.614H1261.7C1256.06 422.614 1251.48 426.917 1251.48 432.224V466.165C1251.48 471.473 1256.06 475.776 1261.7 475.776H1376.53C1382.18 475.776 1386.76 471.473 1386.76 466.165V432.224C1386.76 426.917 1382.18 422.614 1376.53 422.614Z" fill="#423C52"/>
<path d="M1333.41 526.588C1333.41 532.842 1329.03 537.912 1323.63 537.912C1322.98 537.913 1322.34 537.84 1321.72 537.697C1319.9 537.278 1318 537.278 1316.18 537.697C1315.55 537.84 1314.91 537.913 1314.26 537.912C1308.86 537.912 1304.48 532.84 1304.48 526.588C1304.48 520.336 1308.86 515.261 1314.26 515.261C1315.93 515.269 1317.57 515.749 1318.95 516.64C1320.32 515.75 1321.96 515.269 1323.63 515.261C1329.03 515.261 1333.41 520.332 1333.41 526.588Z" fill="white"/>
<path d="M1318.94 516.64V509.306" stroke="white" stroke-width="7" stroke-linecap="round" stroke-linejoin="round"/>
<path d="M1327.75 507.945C1327.71 508.911 1327.43 509.855 1326.93 510.702C1326.44 511.55 1325.74 512.279 1324.9 512.834C1324.06 513.389 1323.09 513.755 1322.07 513.902C1321.06 514.05 1320.02 513.976 1319.04 513.687C1319.08 512.722 1319.37 511.78 1319.86 510.933C1320.36 510.087 1321.05 509.359 1321.89 508.804C1322.74 508.25 1323.7 507.885 1324.72 507.737C1325.73 507.589 1326.77 507.662 1327.75 507.951V507.945Z" fill="white"/>
<path d="M1887.76 612.737H1700.74C1700.74 612.737 1707.61 591.011 1733.56 590.04C1759.51 589.069 1789.34 604.861 1789.34 604.861C1789.34 604.861 1794.08 553.007 1838.67 550.091C1883.26 547.174 1887.76 612.737 1887.76 612.737Z" fill="#B59B00"/>
<path d="M1921.99 599.678C1916 607.731 1906.9 612.737 1906.9 612.737H1812.66C1802.1 592.468 1802.54 565.483 1804.8 554.082C1805.48 550.627 1810.08 549.371 1812.59 551.98C1827.74 567.7 1842.4 601.553 1842.4 601.553C1845.87 565.169 1866.45 531.358 1877.58 515.415C1880.51 511.219 1887.38 512.353 1888.59 517.239C1896.64 549.629 1881.21 580.483 1880.63 581.625C1887.27 569.499 1898.42 560.521 1905.99 555.421C1909.49 553.065 1914.34 555.567 1914.11 559.611C1913.15 576.298 1905.94 589.973 1899.24 599.267C1904.73 595.644 1910.9 593.33 1916.01 591.874C1920.94 590.469 1924.95 595.712 1921.99 599.678Z" fill="#907B00"/>
<path d="M1883.56 513.438C1883.56 513.438 1874.66 572.967 1855.67 612.108" stroke="#B59B00" stroke-width="5" stroke-miterlimit="10" stroke-linecap="round"/>
<path d="M1911.16 555.973C1911.16 555.973 1886.1 603.936 1868.48 612.108" stroke="#B59B00" stroke-width="5" stroke-miterlimit="10" stroke-linecap="round"/>
<path d="M1808.79 552.006C1808.79 552.006 1818.39 597.7 1829.83 612.108" stroke="#B59B00" stroke-width="5" stroke-miterlimit="10" stroke-linecap="round"/>
<path d="M1905.21 537.508C1907.68 537.508 1909.68 535.626 1909.68 533.304C1909.68 530.981 1907.68 529.099 1905.21 529.099C1902.74 529.099 1900.74 530.981 1900.74 533.304C1900.74 535.626 1902.74 537.508 1905.21 537.508Z" stroke="#B59B00" stroke-width="5" stroke-miterlimit="10"/>
<path d="M1783.18 587.46C1785.28 587.46 1786.99 585.854 1786.99 583.873C1786.99 581.892 1785.28 580.286 1783.18 580.286C1781.07 580.286 1779.36 581.892 1779.36 583.873C1779.36 585.854 1781.07 587.46 1783.18 587.46Z" stroke="#B59B00" stroke-width="5" stroke-miterlimit="10"/>
<path d="M1871.09 526.291L1877.73 542.536L1889.93 529.099" stroke="#B59B00" stroke-width="5" stroke-miterlimit="10" stroke-linecap="round"/>
<path d="M1865.87 535.22L1874.35 555.973L1889.93 538.807" stroke="#B59B00" stroke-width="5" stroke-miterlimit="10" stroke-linecap="round"/>
<path d="M1885.92 575.03V596.209H1900.17" stroke="#B59B00" stroke-width="5" stroke-miterlimit="10" stroke-linecap="round"/>
<path d="M1830.68 580.46L1825.38 604.861L1805.86 585.619" stroke="#B59B00" stroke-width="5" stroke-miterlimit="10" stroke-linecap="round"/>
<path d="M1348.2 601.988C1364.06 601.988 1376.92 589.898 1376.92 574.983C1376.92 560.069 1364.06 547.978 1348.2 547.978C1332.33 547.978 1319.47 560.069 1319.47 574.983C1319.47 589.898 1332.33 601.988 1348.2 601.988Z" fill="#907B00"/>
<path d="M1332.79 583.237L1365.81 554.718" stroke="#B59B00" stroke-width="5" stroke-miterlimit="10" stroke-linecap="round"/>
<path d="M1354.57 549.547L1352.23 566.445" stroke="#B59B00" stroke-width="5" stroke-miterlimit="10" stroke-linecap="round"/>
<path d="M1347.03 570.932L1374.34 565.336" stroke="#B59B00" stroke-width="5" stroke-miterlimit="10" stroke-linecap="round"/>
<path d="M1369.91 558.504L1366.64 566.914" stroke="#B59B00" stroke-width="5" stroke-miterlimit="10" stroke-linecap="round"/>
<path d="M1337.97 550.448L1336.61 579.933" stroke="#B59B00" stroke-width="5" stroke-miterlimit="10" stroke-linecap="round"/>
<path d="M1331.62 553.502L1337.28 565.267" stroke="#B59B00" stroke-width="5" stroke-miterlimit="10" stroke-linecap="round"/>
<path d="M1375.9 576.146L1344.59 592.029" stroke="#B59B00" stroke-width="5" stroke-miterlimit="10" stroke-linecap="round"/>
<path d="M1432.33 611.969H1143C1143.62 607.74 1148.07 589.366 1178.49 590.837C1178.49 590.837 1184.98 532.704 1248.61 529.139C1325.99 524.791 1345.61 592.468 1345.61 592.468C1345.61 592.468 1417.9 575.721 1432.33 611.969Z" fill="#B59B00"/>
<path d="M1222.85 611.969C1222.85 611.969 1195.83 585.485 1221.26 573.38C1239.96 564.47 1242.58 607.713 1242.58 607.713C1242.58 607.713 1242.35 585.752 1249.84 586.605C1257.32 587.458 1249.84 610.282 1249.84 610.282C1249.84 610.282 1265.26 598.325 1270.93 604.515C1276.61 610.706 1256.64 611.978 1256.64 611.978L1222.85 611.969Z" fill="#907B00"/>
<path d="M1797.87 368.056C1795.8 368.057 1793.8 368.739 1792.22 369.984C1790.63 371.23 1789.57 372.959 1789.2 374.87L1777.25 437.156C1776.99 438.331 1777.01 439.547 1777.31 440.714C1777.61 441.882 1778.18 442.971 1778.99 443.904C1779.79 444.836 1780.81 445.588 1781.96 446.105C1783.12 446.621 1784.38 446.89 1785.66 446.89H1755.31C1754.03 446.89 1752.77 446.621 1751.62 446.105C1750.46 445.588 1749.45 444.836 1748.64 443.904C1747.84 442.971 1747.26 441.882 1746.96 440.714C1746.66 439.547 1746.64 438.331 1746.9 437.156L1758.85 374.87C1759.22 372.959 1760.29 371.23 1761.87 369.984C1763.46 368.739 1765.46 368.057 1767.52 368.056H1797.87Z" fill="#FFDB00"/>
<path d="M1791.97 373.191C1792.67 369.774 1796.32 368.056 1799.95 368.056H1797.87C1795.8 368.057 1793.8 368.739 1792.22 369.984C1790.63 371.23 1789.57 372.959 1789.2 374.87L1777.25 437.156C1776.99 438.331 1777.01 439.547 1777.31 440.714C1777.61 441.882 1778.18 442.971 1778.99 443.904C1779.79 444.836 1780.81 445.588 1781.96 446.105C1783.12 446.621 1784.38 446.89 1785.66 446.89H1795.62C1796.9 446.89 1798.16 446.621 1799.31 446.105C1800.46 445.588 1801.48 444.836 1802.29 443.904C1803.09 442.971 1803.67 441.882 1803.97 440.714C1804.27 439.547 1804.29 438.331 1804.02 437.156L1791.97 373.191Z" fill="#EB7500"/>
<path d="M1790.76 370.665V436.067L1800.37 445.54" stroke="#FFDB00" stroke-width="5" stroke-miterlimit="10"/>
<path d="M1781.06 445.803L1790.76 436.067" stroke="#FFDB00" stroke-width="5" stroke-miterlimit="10"/>
<path d="M1833.52 385.115C1831.74 385.387 1831.31 379.318 1831.31 379.318C1829.96 360.525 1838.62 347.41 1840.93 344.774C1842.37 343.166 1843.75 342.133 1844.96 342.336C1847.92 342.834 1849.13 353.548 1845.9 365.319C1843.57 373.781 1836.75 384.626 1833.52 385.115Z" fill="#423C52"/>
<path d="M1833.43 384.592L1886.07 418.842C1891.94 422.103 1903.64 404.468 1903.05 385.55C1902.47 366.633 1895.13 351.561 1884.55 349.59L1844.96 342.829C1844.96 342.829 1849.85 351.878 1844.89 366.381C1839.84 381.148 1833.43 384.592 1833.43 384.592Z" stroke="#423C52" stroke-width="5" stroke-linejoin="round"/>
<path d="M1853.58 393.313C1854.91 393.313 1855.98 392.302 1855.98 391.056C1855.98 389.809 1854.91 388.798 1853.58 388.798C1852.26 388.798 1851.18 389.809 1851.18 391.056C1851.18 392.302 1852.26 393.313 1853.58 393.313Z" fill="#DBE5E5"/>
<path d="M1864.8 393.313C1866.13 393.313 1867.2 392.302 1867.2 391.056C1867.2 389.809 1866.13 388.798 1864.8 388.798C1863.48 388.798 1862.4 389.809 1862.4 391.056C1862.4 392.302 1863.48 393.313 1864.8 393.313Z" fill="#DBE5E5"/>
<path d="M1878.35 374.042C1879.67 374.042 1880.75 373.032 1880.75 371.785C1880.75 370.538 1879.67 369.528 1878.35 369.528C1877.02 369.528 1875.94 370.538 1875.94 371.785C1875.94 373.032 1877.02 374.042 1878.35 374.042Z" fill="#DBE5E5"/>
<path d="M1877.73 393.313C1879.06 393.313 1880.13 392.302 1880.13 391.056C1880.13 389.809 1879.06 388.798 1877.73 388.798C1876.41 388.798 1875.33 389.809 1875.33 391.056C1875.33 392.302 1876.41 393.313 1877.73 393.313Z" fill="#DBE5E5"/>
<path d="M1877.35 409.62C1878.67 409.62 1879.75 408.61 1879.75 407.363C1879.75 406.116 1878.67 405.105 1877.35 405.105C1876.02 405.105 1874.95 406.116 1874.95 407.363C1874.95 408.61 1876.02 409.62 1877.35 409.62Z" fill="#DBE5E5"/>
<path d="M1893.76 374.042C1895.09 374.042 1896.16 373.032 1896.16 371.785C1896.16 370.538 1895.09 369.528 1893.76 369.528C1892.44 369.528 1891.36 370.538 1891.36 371.785C1891.36 373.032 1892.44 374.042 1893.76 374.042Z" fill="#DBE5E5"/>
<path d="M1893.15 393.313C1894.48 393.313 1895.55 392.302 1895.55 391.056C1895.55 389.809 1894.48 388.798 1893.15 388.798C1891.82 388.798 1890.75 389.809 1890.75 391.056C1890.75 392.302 1891.82 393.313 1893.15 393.313Z" fill="#DBE5E5"/>
<path d="M1892.77 409.62C1894.09 409.62 1895.17 408.61 1895.17 407.363C1895.17 406.116 1894.09 405.105 1892.77 405.105C1891.44 405.105 1890.36 406.116 1890.36 407.363C1890.36 408.61 1891.44 409.62 1892.77 409.62Z" fill="#DBE5E5"/>
<path d="M1861.59 399.188C1861.59 399.639 1861.45 400.079 1861.18 400.452C1860.91 400.826 1860.53 401.115 1860.09 401.283L1856.79 399.161C1856.81 398.574 1857.08 398.017 1857.53 397.61C1857.98 397.202 1858.58 396.976 1859.21 396.98C1859.83 396.984 1860.43 397.216 1860.88 397.629C1861.32 398.041 1861.58 398.601 1861.59 399.188V399.188Z" fill="#DBE5E5"/>
<path d="M1870.41 401.982C1871.74 401.982 1872.81 400.971 1872.81 399.725C1872.81 398.478 1871.74 397.467 1870.41 397.467C1869.09 397.467 1868.01 398.478 1868.01 399.725C1868.01 400.971 1869.09 401.982 1870.41 401.982Z" fill="#DBE5E5"/>
<path d="M1885.7 363.917C1887.02 363.917 1888.1 362.906 1888.1 361.659C1888.1 360.413 1887.02 359.402 1885.7 359.402C1884.37 359.402 1883.3 360.413 1883.3 361.659C1883.3 362.906 1884.37 363.917 1885.7 363.917Z" fill="#DBE5E5"/>
<path d="M1885.86 383.503C1887.19 383.503 1888.27 382.492 1888.27 381.246C1888.27 379.999 1887.19 378.988 1885.86 378.988C1884.54 378.988 1883.46 379.999 1883.46 381.246C1883.46 382.492 1884.54 383.503 1885.86 383.503Z" fill="#DBE5E5"/>
<path d="M1899.16 383.503C1900.49 383.503 1901.56 382.492 1901.56 381.246C1901.56 379.999 1900.49 378.988 1899.16 378.988C1897.84 378.988 1896.76 379.999 1896.76 381.246C1896.76 382.492 1897.84 383.503 1899.16 383.503Z" fill="#DBE5E5"/>
<path d="M1885.25 401.801C1886.58 401.801 1887.65 400.79 1887.65 399.543C1887.65 398.297 1886.58 397.286 1885.25 397.286C1883.92 397.286 1882.85 398.297 1882.85 399.543C1882.85 400.79 1883.92 401.801 1885.25 401.801Z" fill="#DBE5E5"/>
<path d="M1885.25 417.2C1886.58 417.2 1887.65 416.19 1887.65 414.943C1887.65 413.696 1886.58 412.686 1885.25 412.686C1883.92 412.686 1882.85 413.696 1882.85 414.943C1882.85 416.19 1883.92 417.2 1885.25 417.2Z" fill="#DBE5E5"/>
<path d="M1853.42 374.042C1854.75 374.042 1855.83 373.032 1855.83 371.785C1855.83 370.538 1854.75 369.528 1853.42 369.528C1852.1 369.528 1851.02 370.538 1851.02 371.785C1851.02 373.032 1852.1 374.042 1853.42 374.042Z" fill="#DBE5E5"/>
<path d="M1865.41 374.042C1866.74 374.042 1867.82 373.032 1867.82 371.785C1867.82 370.538 1866.74 369.528 1865.41 369.528C1864.09 369.528 1863.01 370.538 1863.01 371.785C1863.01 373.032 1864.09 374.042 1865.41 374.042Z" fill="#DBE5E5"/>
<path d="M1859.81 383.503C1861.13 383.503 1862.21 382.492 1862.21 381.246C1862.21 379.999 1861.13 378.988 1859.81 378.988C1858.48 378.988 1857.4 379.999 1857.4 381.246C1857.4 382.492 1858.48 383.503 1859.81 383.503Z" fill="#DBE5E5"/>
<path d="M1846.25 382.927C1847.58 382.927 1848.65 381.916 1848.65 380.669C1848.65 379.423 1847.58 378.412 1846.25 378.412C1844.93 378.412 1843.85 379.423 1843.85 380.669C1843.85 381.916 1844.93 382.927 1846.25 382.927Z" fill="#DBE5E5"/>
<path d="M1839.2 387.679C1839.61 387.246 1840.18 386.969 1840.79 386.898C1841.41 386.827 1842.03 386.967 1842.54 387.293C1843.63 388.005 1843.89 389.411 1843.14 390.253L1839.2 387.679Z" fill="#DBE5E5"/>
<path d="M1871.8 383.503C1873.12 383.503 1874.2 382.492 1874.2 381.246C1874.2 379.999 1873.12 378.988 1871.8 378.988C1870.47 378.988 1869.39 379.999 1869.39 381.246C1869.39 382.492 1870.47 383.503 1871.8 383.503Z" fill="#DBE5E5"/>
<path d="M1853.06 354.773C1854.39 354.773 1855.47 353.763 1855.47 352.516C1855.47 351.269 1854.39 350.259 1853.06 350.259C1851.74 350.259 1850.66 351.269 1850.66 352.516C1850.66 353.763 1851.74 354.773 1853.06 354.773Z" fill="#DBE5E5"/>
<path d="M1865.25 354.773C1866.57 354.773 1867.65 353.763 1867.65 352.516C1867.65 351.269 1866.57 350.259 1865.25 350.259C1863.92 350.259 1862.85 351.269 1862.85 352.516C1862.85 353.763 1863.92 354.773 1865.25 354.773Z" fill="#DBE5E5"/>
<path d="M1878.35 354.931C1879.67 354.931 1880.75 353.92 1880.75 352.674C1880.75 351.427 1879.67 350.416 1878.35 350.416C1877.02 350.416 1875.94 351.427 1875.94 352.674C1875.94 353.92 1877.02 354.931 1878.35 354.931Z" fill="#DBE5E5"/>
<path d="M1859.64 363.917C1860.96 363.917 1862.04 362.906 1862.04 361.659C1862.04 360.413 1860.96 359.402 1859.64 359.402C1858.31 359.402 1857.24 360.413 1857.24 361.659C1857.24 362.906 1858.31 363.917 1859.64 363.917Z" fill="#DBE5E5"/>
<path d="M1847.3 358.984C1847.61 359.029 1847.92 359.133 1848.19 359.291C1848.46 359.448 1848.7 359.655 1848.89 359.9C1849.07 360.145 1849.21 360.422 1849.28 360.715C1849.35 361.009 1849.35 361.313 1849.3 361.609C1849.24 361.906 1849.12 362.189 1848.95 362.441C1848.78 362.694 1848.55 362.912 1848.29 363.081C1848.02 363.251 1847.72 363.368 1847.41 363.428C1847.1 363.488 1846.77 363.487 1846.46 363.428L1847.3 358.984Z" fill="#DBE5E5"/>
<path d="M1870.86 363.917C1872.18 363.917 1873.26 362.906 1873.26 361.659C1873.26 360.413 1872.18 359.402 1870.86 359.402C1869.53 359.402 1868.46 360.413 1868.46 361.659C1868.46 362.906 1869.53 363.917 1870.86 363.917Z" fill="#DBE5E5"/>
<path d="M1862.05 346.258C1861.99 346.556 1861.87 346.84 1861.7 347.094C1861.53 347.348 1861.3 347.567 1861.04 347.739C1860.78 347.911 1860.48 348.031 1860.16 348.094C1859.85 348.157 1859.53 348.16 1859.21 348.104C1858.9 348.048 1858.6 347.933 1858.33 347.767C1858.06 347.601 1857.83 347.387 1857.65 347.136C1857.47 346.886 1857.35 346.605 1857.28 346.309C1857.22 346.013 1857.22 345.708 1857.29 345.412L1862.05 346.258Z" fill="#DBE5E5"/>
<path d="M1845.13 364.297C1842.9 372.712 1839.43 379.588 1836.34 382.302L1830.54 378.769L1811.77 367.344L1809.43 372.102C1808.77 373.14 1807.84 374.002 1806.73 374.604C1805.61 375.207 1804.35 375.531 1803.06 375.544L1795.6 375.635C1795.4 375.637 1795.2 375.602 1795.02 375.532C1794.83 375.462 1794.66 375.359 1794.52 375.227C1794.38 375.095 1794.27 374.939 1794.19 374.766C1794.11 374.593 1794.07 374.407 1794.07 374.22C1794.07 373.039 1794.43 371.883 1795.11 370.892C1795.79 369.901 1796.77 369.118 1797.91 368.638L1799.92 367.799L1799.75 365.518C1799.75 364.585 1799.36 363.69 1798.66 363.03C1797.95 362.371 1797 362 1796.01 362H1789.06C1788.44 362 1787.82 362.145 1787.28 362.423C1786.73 362.701 1786.27 363.103 1785.93 363.592L1783.23 372.591C1783.8 373.318 1784.2 374.145 1784.42 375.023C1784.64 375.901 1784.66 376.812 1784.5 377.7L1784.18 379.381C1784.15 379.575 1784.06 379.757 1783.93 379.91C1783.8 380.063 1783.63 380.183 1783.44 380.258C1783.25 380.332 1783.04 380.359 1782.83 380.337C1782.62 380.314 1782.43 380.242 1782.26 380.128L1766.7 369.839C1765.29 368.855 1764.27 367.459 1763.79 365.869C1763.31 364.28 1763.4 362.586 1764.06 361.052L1772.69 346.519C1773.54 344.782 1774.86 343.286 1776.52 342.178C1778.18 341.071 1780.12 340.392 1782.15 340.209L1810.31 337.655C1812.16 337.655 1814.01 337.875 1815.81 338.312L1840.17 344.229L1846.72 345.82C1847.62 349.871 1847.12 356.759 1845.13 364.297Z" fill="white"/>
<path d="M1774.51 355.677L1769.93 364.994C1769.27 366.528 1769.18 368.222 1769.66 369.812C1770.14 371.401 1771.16 372.797 1772.57 373.781" stroke="#423C52" stroke-width="5" stroke-linecap="round" stroke-linejoin="round"/>
<path d="M1780.22 359.308L1775.64 368.627C1774.99 370.161 1774.9 371.854 1775.38 373.444C1775.85 375.033 1776.88 376.429 1778.29 377.414" stroke="#423C52" stroke-width="5" stroke-linecap="round" stroke-linejoin="round"/>
<path d="M1811.43 367.125L1815.21 358.992L1827.97 377.097L1811.43 367.125Z" fill="#423C52"/>
<g style="mix-blend-mode:multiply">
<path d="M1845.13 364.297C1842.9 372.712 1839.43 379.588 1836.34 382.302L1830.54 378.769C1829.91 374.636 1830.48 368.245 1832.31 361.301C1834.31 353.722 1837.32 347.391 1840.17 344.226L1846.72 345.816C1847.62 349.871 1847.12 356.759 1845.13 364.297Z" fill="#DBE5E5"/>
</g>
<path d="M1845.13 364.297C1842.9 372.712 1839.43 379.588 1836.34 382.302L1830.54 378.769L1811.77 367.344L1809.43 372.102C1808.77 373.14 1807.84 374.002 1806.73 374.604C1805.61 375.207 1804.35 375.531 1803.06 375.544L1795.6 375.635C1795.4 375.637 1795.2 375.602 1795.02 375.532C1794.83 375.462 1794.66 375.359 1794.52 375.227C1794.38 375.095 1794.27 374.939 1794.19 374.766C1794.11 374.593 1794.07 374.407 1794.07 374.22C1794.07 373.039 1794.43 371.883 1795.11 370.892C1795.79 369.901 1796.77 369.118 1797.91 368.638L1799.92 367.799L1799.75 365.518C1799.75 364.585 1799.36 363.69 1798.66 363.03C1797.95 362.371 1797 362 1796.01 362H1789.06C1788.44 362 1787.82 362.145 1787.28 362.423C1786.73 362.701 1786.27 363.103 1785.93 363.592L1783.23 372.591C1783.8 373.318 1784.2 374.145 1784.42 375.023C1784.64 375.901 1784.66 376.812 1784.5 377.7L1784.18 379.381C1784.15 379.575 1784.06 379.757 1783.93 379.91C1783.8 380.063 1783.63 380.183 1783.44 380.258C1783.25 380.332 1783.04 380.359 1782.83 380.337C1782.62 380.314 1782.43 380.242 1782.26 380.128L1766.7 369.839C1765.29 368.855 1764.27 367.459 1763.79 365.869C1763.31 364.28 1763.4 362.586 1764.06 361.052L1772.69 346.519C1773.54 344.782 1774.86 343.286 1776.52 342.178C1778.18 341.071 1780.12 340.392 1782.15 340.209L1810.31 337.655C1812.16 337.655 1814.01 337.875 1815.81 338.312L1840.17 344.229L1846.72 345.82C1847.62 349.871 1847.12 356.759 1845.13 364.297Z" stroke="#423C52" stroke-width="5" stroke-linejoin="round"/>
<path d="M1612.43 335.276L1637.36 369.879L1637.9 370.631C1639.3 373.287 1637.3 377.894 1633.02 381.488C1628.74 385.083 1623.65 386.431 1620.99 384.829L1620.26 384.238L1586.49 357.063L1612.43 335.276Z" fill="white" stroke="#FE552F" stroke-width="6" stroke-linejoin="round"/>
<path d="M1612.43 335.276C1616.49 339.553 1612.48 346.313 1605.31 352.329C1598.15 358.346 1590.55 361.339 1586.49 357.063C1582.42 352.788 1583.43 342.858 1590.59 336.841C1597.76 330.825 1608.37 330.999 1612.43 335.276Z" fill="white" stroke="#FE552F" stroke-width="6" stroke-linejoin="round"/>
<path d="M1596.06 342.6C1597.87 341.083 1598.61 339.095 1597.72 338.159C1596.83 337.223 1594.65 337.694 1592.84 339.211C1591.03 340.728 1590.29 342.717 1591.18 343.653C1592.07 344.588 1594.25 344.117 1596.06 342.6Z" fill="white" stroke="#FE552F" stroke-width="6" stroke-linejoin="round"/>
<path d="M1619.81 367.191L1589.97 335.78C1588.62 334.357 1587.77 332.574 1587.54 330.678C1587.31 328.783 1587.71 326.866 1588.69 325.194L1593.74 316.576" stroke="#FE552F" stroke-width="6" stroke-linecap="round" stroke-linejoin="round"/>
<path d="M1729.26 282.632L1719.58 289.154L1638.05 344.13V351.347C1638.05 352.691 1637.7 354.014 1637.02 355.199C1636.35 356.385 1635.38 357.396 1634.19 358.145L1623.42 364.93L1623.31 364.748C1622.51 363.464 1622.04 362.026 1621.93 360.544C1621.81 359.061 1622.06 357.574 1622.65 356.195L1625.38 352.366L1614.33 337.002L1612.79 334.934C1610.22 332.238 1604.34 331.004 1599.09 332.096L1642.01 289.038L1649.12 281.9C1659.27 277.476 1674.04 274.126 1691.04 274.126C1707.64 274.132 1722.66 278.284 1729.26 282.632Z" fill="#A0505A"/>
<path d="M1662.01 327.971L1654.52 333.02C1636.93 326.779 1628.15 313.789 1624.49 306.637L1626.06 305.059C1630.68 310.291 1642.83 322.192 1662.01 327.971Z" fill="#423C52"/>
<path d="M1593.68 373.463C1595.34 376.693 1600.35 378.988 1604.16 378.756L1609.94 378.394C1610.26 378.374 1610.57 378.293 1610.85 378.157C1611.13 378.02 1611.38 377.83 1611.57 377.6C1611.77 377.369 1611.92 377.102 1612 376.816C1612.09 376.529 1612.11 376.23 1612.06 375.935L1610.2 363.647C1610.06 362.742 1609.58 361.914 1608.84 361.315C1608.11 360.716 1607.17 360.386 1606.2 360.386H1594.55C1592.43 360.386 1589.76 360.023 1587.81 359.007C1587.74 358.969 1587.66 358.953 1587.58 358.96C1587.5 358.968 1587.42 359 1587.36 359.051C1587.3 359.102 1587.26 359.17 1587.24 359.245C1587.22 359.319 1587.23 359.397 1587.26 359.467L1593.68 373.463Z" fill="#A0505A"/>
<path d="M1592.31 369.658C1594.14 373.281 1597.73 375.318 1601.93 375.055L1608.83 374.658C1610.3 374.566 1611.28 373.147 1611.07 371.749" stroke="#423C52" stroke-width="5" stroke-linecap="round" stroke-linejoin="round"/>
<path d="M1590.24 365.129C1592.26 368.752 1596.06 370.622 1600.69 370.359L1607.7 369.962C1609.32 369.87 1610.51 368.426 1610.28 367.029" stroke="#423C52" stroke-width="5" stroke-linecap="round" stroke-linejoin="round"/>
<path d="M1587.69 359.422C1589.8 363.045 1594.34 365.754 1599.17 365.491L1606.51 365.094C1608.2 365.002 1609.44 363.732 1609.21 362.333" stroke="#423C52" stroke-width="5" stroke-linecap="round" stroke-linejoin="round"/>
<path opacity="0.5" d="M1731.77 289.038H1731.93L1669.45 329.828C1640.07 323.813 1624.67 302.653 1624.67 302.653L1637.69 289.038C1645.11 281.656 1665.56 274.134 1691.04 274.134C1716.3 274.132 1737.89 283.741 1731.77 289.038Z" fill="#FFDB00"/>
<path d="M1669.45 329.828C1640.07 323.813 1624.67 302.653 1624.67 302.653L1637.69 289.038C1645.11 281.656 1665.56 274.134 1691.04 274.134C1716.52 274.134 1738.27 283.917 1731.59 289.171L1669.45 329.828Z" stroke="#FFDB00" stroke-width="5" stroke-miterlimit="10" stroke-linecap="round"/>
<path d="M1628.88 298.242V307.481C1628.53 307.119 1628.2 306.766 1627.89 306.432V299.285L1628.88 298.242Z" fill="#FFDB00"/>
<path d="M1636.22 290.569V314.132C1635.88 313.858 1635.55 313.588 1635.22 313.322V291.613L1636.22 290.569Z" fill="#FFDB00"/>
<path d="M1643.56 284.69V319.366C1643.22 319.154 1642.89 318.942 1642.56 318.726V285.297C1642.89 285.096 1643.22 284.897 1643.56 284.69Z" fill="#FFDB00"/>
<path d="M1650.9 281.161V323.471C1650.56 323.306 1650.23 323.14 1649.9 322.973V281.571C1650.23 281.433 1650.56 281.296 1650.9 281.161Z" fill="#FFDB00"/>
<path d="M1658.24 278.621V326.631C1657.9 326.506 1657.57 326.379 1657.24 326.252V278.924L1658.24 278.621Z" fill="#FFDB00"/>
<path d="M1665.58 276.757V328.933C1665.24 328.846 1664.91 328.752 1664.58 328.667V276.978C1664.91 276.9 1665.24 276.829 1665.58 276.757Z" fill="#FFDB00"/>
<path d="M1672.92 275.435V327.569L1671.92 328.222V275.587L1672.48 275.502L1672.92 275.435Z" fill="#FFDB00"/>
<path d="M1680.25 274.588V322.779L1679.26 323.43V274.677C1679.59 274.645 1679.92 274.616 1680.25 274.588Z" fill="#FFDB00"/>
<path d="M1687.59 274.183V317.998L1686.59 318.65V274.21C1686.92 274.197 1687.26 274.183 1687.59 274.183Z" fill="#FFDB00"/>
<path d="M1694.93 274.208V313.214L1693.93 313.864V274.183C1694.27 274.183 1694.6 274.195 1694.93 274.208Z" fill="#FFDB00"/>
<path d="M1702.28 274.755V308.423L1701.28 309.075V274.65C1701.6 274.683 1701.94 274.726 1702.28 274.755Z" fill="#FFDB00"/>
<path d="M1709.6 275.842V303.644L1709.27 303.858L1708.6 304.295V275.67C1708.94 275.719 1709.27 275.78 1709.6 275.842Z" fill="#FFDB00"/>
<path d="M1716.95 277.536V298.856L1715.95 299.51V277.262C1716.28 277.352 1716.62 277.443 1716.95 277.536Z" fill="#FFDB00"/>
<path d="M1724.29 280.052V294.071L1723.29 294.723V279.645C1723.63 279.779 1723.96 279.915 1724.29 280.052Z" fill="#FFDB00"/>
<path d="M1731.62 289.036V289.232L1730.62 289.886V289.036H1731.62Z" fill="#FFDB00"/>
<path d="M1679.02 323.58L1677.58 324.52H1653.14C1652.46 324.214 1651.79 323.899 1651.14 323.58H1679.02Z" fill="#FFDB00"/>
<path d="M1689.59 316.681L1688.15 317.621H1640.93C1640.47 317.307 1640.02 316.994 1639.58 316.681H1689.59Z" fill="#FFDB00"/>
<path d="M1700.15 309.784L1698.71 310.724H1632.23C1631.88 310.405 1631.54 310.092 1631.22 309.784H1700.15Z" fill="#FFDB00"/>
<path d="M1710.71 302.885L1709.61 303.61L1709.27 303.825H1625.59C1625.24 303.403 1624.99 303.082 1624.84 302.885H1710.71Z" fill="#FFDB00"/>
<path d="M1721.28 295.988L1719.84 296.926H1630.14L1631.04 295.988H1721.28Z" fill="#FFDB00"/>
<path d="M1731.84 289.089L1731.62 289.232L1730.62 289.886L1730.4 290.028H1636.74L1637.64 289.089H1731.84Z" fill="#FFDB00"/>
<path d="M1730 283.143H1646.46C1647.1 282.827 1647.77 282.514 1648.45 282.205H1728.59C1729.1 282.516 1729.57 282.829 1730 283.143Z" fill="#FFDB00"/>
<path d="M1485.17 389.768V433.563C1485.17 437.277 1478.22 440.288 1469.64 440.288C1461.06 440.288 1454.11 437.277 1454.11 433.563V389.768C1454.11 381.973 1456.29 374.316 1460.43 367.565L1464.29 361.297V349.173C1464.29 346.941 1466.69 345.131 1469.64 345.131C1472.6 345.131 1475 346.943 1475 349.173V361.292L1478.85 367.56C1482.99 374.313 1485.17 381.972 1485.17 389.768Z" fill="white" stroke="#423C52" stroke-width="5" stroke-miterlimit="10"/>
<path d="M1481.47 406.77V413.674" stroke="#423C52" stroke-width="5" stroke-miterlimit="10" stroke-linecap="round"/>
<path d="M1475.14 367.56C1479.29 374.312 1481.47 381.971 1481.47 389.767V400.619" stroke="#423C52" stroke-width="5" stroke-miterlimit="10" stroke-linecap="round"/>
<path d="M1469.64 352.28C1471.82 352.28 1473.59 350.944 1473.59 349.296C1473.59 347.648 1471.82 346.312 1469.64 346.312C1467.46 346.312 1465.69 347.648 1465.69 349.296C1465.69 350.944 1467.46 352.28 1469.64 352.28Z" fill="#423C52"/>
<path d="M1481.91 432.161C1481.91 435.094 1476.42 437.473 1469.64 437.473C1462.86 437.473 1457.37 435.085 1457.37 432.161C1457.37 429.237 1462.86 425.189 1469.64 425.189C1476.42 425.189 1481.91 429.217 1481.91 432.161Z" fill="white" stroke="#423C52" stroke-width="5" stroke-miterlimit="10"/>
<path d="M1496.4 334.169V347.456C1496.4 349.165 1495.89 350.841 1494.93 352.293C1493.97 353.746 1492.6 354.918 1490.97 355.677L1475.17 363.047C1473.2 363.964 1471.15 361.96 1472.2 360.148L1475.16 353.496C1475.6 352.506 1475.67 351.405 1475.35 350.374L1472.66 341.678C1472.29 341.071 1471.77 340.565 1471.13 340.212C1470.49 339.86 1469.76 339.674 1469.02 339.675H1463.27C1462.63 339.674 1462 339.793 1461.4 340.024C1460.81 340.255 1460.27 340.593 1459.82 341.02C1459.36 341.446 1459 341.953 1458.76 342.51C1458.51 343.068 1458.38 343.665 1458.38 344.269V347.497L1461.1 348.898C1462.78 349.853 1463.62 351.565 1463.62 353.414V355.882H1456.1C1447.73 355.882 1443.21 351.856 1438.72 345.211L1428.87 330.643C1431.84 325.38 1441.75 319.887 1454.3 317.088C1460.05 315.804 1465.58 315.26 1470.38 315.38L1492.08 327.134C1493.39 327.847 1494.48 328.873 1495.24 330.108C1496 331.343 1496.4 332.743 1496.4 334.169V334.169Z" fill="#FFDB00"/>
<path d="M1485.34 357.896C1488.67 356.347 1490.77 353.503 1490.77 350.017V340.825" stroke="#423C52" stroke-width="5" stroke-linecap="round" stroke-linejoin="round"/>
<path d="M1475.9 362.676C1479.22 361.127 1483.14 356.746 1483.14 353.255V344.068" stroke="#423C52" stroke-width="5" stroke-linecap="round" stroke-linejoin="round"/>
<path d="M1463.5 303.309C1457.84 302.695 1450.66 303.215 1443.12 305.024C1432.32 307.61 1423.54 312.177 1419.49 316.8L1398.57 285.746C1393.97 278.251 1409.82 272.883 1425.11 274.199C1437.2 275.233 1451.11 280.297 1454.32 286.958L1463.5 303.309Z" fill="white" stroke="#FE552F" stroke-width="6" stroke-linejoin="round"/>
<path d="M1404.46 276.683V294.43" stroke="#FE552F" stroke-width="6" stroke-linecap="round" stroke-linejoin="round"/>
<path d="M1411.18 275.052V304.331" stroke="#FE552F" stroke-width="6" stroke-linecap="round" stroke-linejoin="round"/>
<path d="M1417.9 274.146V314.231" stroke="#FE552F" stroke-width="6" stroke-linecap="round" stroke-linejoin="round"/>
<path d="M1424.62 274.327V312.443" stroke="#FE552F" stroke-width="6" stroke-linecap="round" stroke-linejoin="round"/>
<path d="M1431.34 275.052V309.001" stroke="#FE552F" stroke-width="6" stroke-linecap="round" stroke-linejoin="round"/>
<path d="M1438.06 276.864V306.646" stroke="#FE552F" stroke-width="6" stroke-linecap="round" stroke-linejoin="round"/>
<path d="M1444.78 279.219V304.653" stroke="#FE552F" stroke-width="6" stroke-linecap="round" stroke-linejoin="round"/>
<path d="M1451.49 283.567V303.566" stroke="#FE552F" stroke-width="6" stroke-linecap="round" stroke-linejoin="round"/>
<path d="M1458.21 294.105V303.135" stroke="#FE552F" stroke-width="6" stroke-linecap="round" stroke-linejoin="round"/>
<path d="M1470.36 315.373C1465.57 315.255 1460.03 315.799 1454.28 317.083C1441.73 319.882 1431.83 325.375 1428.85 330.638L1419.49 316.792C1423.54 312.177 1432.33 307.61 1443.12 305.025C1450.67 303.213 1457.85 302.693 1463.5 303.309L1470.24 315.308L1470.36 315.373Z" fill="white" stroke="#FE552F" stroke-width="6" stroke-linejoin="round"/>
<path d="M1459.53 311.121C1460.86 311.121 1461.94 310.106 1461.94 308.855C1461.94 307.603 1460.86 306.588 1459.53 306.588C1458.2 306.588 1457.12 307.603 1457.12 308.855C1457.12 310.106 1458.2 311.121 1459.53 311.121Z" stroke="#FE552F" stroke-width="6" stroke-linecap="round" stroke-linejoin="round"/>
<path d="M1325.06 382.537V432.078C1325.06 433.428 1325.63 434.723 1326.65 435.677C1327.67 436.632 1329.04 437.168 1330.48 437.169H1324.32C1321.72 437.169 1319.23 436.197 1317.39 434.468C1315.55 432.738 1314.51 430.393 1314.51 427.947V412.802L1313.47 415.157C1312.73 416.825 1311.32 418.156 1309.56 418.87C1307.79 419.584 1305.8 419.625 1304 418.984C1302.2 418.343 1300.74 417.071 1299.92 415.435C1299.1 413.799 1298.99 411.928 1299.61 410.216L1299.8 409.673C1299.8 410.597 1300.19 411.484 1300.88 412.138C1301.58 412.791 1302.52 413.158 1303.51 413.158H1303.89C1304.88 413.158 1305.82 412.791 1306.52 412.137C1307.21 411.483 1307.6 410.596 1307.6 409.671V369.673C1307.6 367.186 1308.65 364.801 1310.52 363.042C1312.39 361.283 1314.93 360.295 1317.58 360.295V350.558H1324.1V360.294C1325.17 360.292 1326.23 360.49 1327.22 360.874C1328.21 361.258 1329.11 361.822 1329.86 362.533C1330.62 363.244 1331.22 364.088 1331.63 365.018C1332.04 365.947 1332.25 366.944 1332.25 367.95V386.126C1332.25 390.335 1332.81 402.759 1339.33 402.638C1339.33 402.638 1338.63 398.484 1343.1 398.562C1349.62 398.674 1349.05 410.137 1337.53 410.213C1326.28 410.287 1324.74 396.844 1325.06 382.537Z" fill="#FFDB00"/>
<path d="M1314.14 414.975V369.114C1314.14 367.686 1314.49 366.277 1315.17 365.001C1315.86 363.724 1316.85 362.615 1318.07 361.763" stroke="white" stroke-width="5" stroke-linecap="round" stroke-linejoin="round"/>
<path d="M1338.75 401.906C1338.63 404.595 1343.67 405.276 1343.67 402.631" stroke="white" stroke-width="5" stroke-linecap="round" stroke-linejoin="round"/>
<path d="M1265.53 338.522C1265.53 351.081 1261.46 361.274 1256.42 361.377C1251.38 361.274 1247.3 351.081 1247.3 338.522C1247.3 325.964 1251.38 315.77 1256.42 315.67C1261.46 315.77 1265.53 325.962 1265.53 338.522Z" fill="#423C52"/>
<path d="M1238.27 360.971C1233.19 360.971 1229.08 350.92 1229.08 338.522C1229.08 326.125 1233.19 316.072 1238.27 316.072H1256.24C1251.16 316.072 1247.05 326.123 1247.05 338.522C1247.05 350.922 1251.16 360.971 1256.24 360.971H1238.27Z" fill="white" stroke="#423C52" stroke-width="5" stroke-miterlimit="10"/>
<path d="M1238.27 316.072C1238.27 316.072 1235.79 310.661 1211.11 309.188C1211.11 309.188 1192.98 317.618 1184.03 337.519C1175.05 357.478 1182.2 369.115 1182.2 369.115C1212.53 370.955 1238.27 360.973 1238.27 360.973" stroke="#423C52" stroke-width="5" stroke-linecap="round" stroke-linejoin="round"/>
<path d="M1231.98 322.154C1231.98 322.154 1227.35 319.842 1218.31 319.393" stroke="#423C52" stroke-width="5" stroke-linecap="round" stroke-linejoin="round"/>
<path d="M1231 324.77H1222.88" stroke="#423C52" stroke-width="5" stroke-linecap="round" stroke-linejoin="round"/>
<path d="M1230.27 349.956C1227.94 351.181 1225.51 352.226 1223 353.083" stroke="#423C52" stroke-width="5" stroke-linecap="round" stroke-linejoin="round"/>
<path d="M1215.94 348.333H1230" stroke="#423C52" stroke-width="5" stroke-linecap="round" stroke-linejoin="round"/>
<path d="M1345.43 337.499H1339.64V345.977C1339.64 346.379 1339.55 346.775 1339.37 347.137C1339.18 347.5 1338.92 347.82 1338.59 348.074L1328.44 356.021C1328.11 356.303 1327.71 356.499 1327.27 356.591C1326.84 356.683 1326.38 356.668 1325.96 356.547C1325.53 356.426 1325.14 356.203 1324.84 355.9C1324.53 355.597 1324.31 355.225 1324.2 354.818L1322.23 347.43C1321.75 345.798 1320.71 344.359 1319.27 343.335C1317.84 342.31 1316.08 341.756 1314.28 341.758H1308.95C1307.87 341.758 1306.84 342.134 1306.05 342.812C1305.26 343.49 1304.76 344.422 1304.66 345.425C1304.56 346.428 1304.86 347.43 1305.51 348.236C1306.15 349.041 1307.09 349.591 1308.14 349.778L1311.46 350.369C1313.26 350.691 1314.89 351.596 1316.06 352.926C1317.23 354.256 1317.87 355.929 1317.87 357.656H1261.79C1257.84 357.656 1252.2 349.054 1251.27 338.526C1250.13 325.647 1252.79 319.396 1256.74 319.396H1304.27C1306.19 319.396 1308.11 319.656 1309.96 320.168L1326.11 324.185C1328.2 324.763 1329.67 325.5 1331.45 326.674L1346.11 335.091C1346.37 335.233 1346.58 335.452 1346.69 335.714C1346.81 335.976 1346.83 336.267 1346.75 336.542C1346.67 336.816 1346.5 337.059 1346.26 337.232C1346.02 337.405 1345.73 337.499 1345.43 337.499V337.499Z" fill="#EB7500"/>
<path d="M1328.73 325.643L1337.82 335.024C1338.67 335.904 1339.14 337.051 1339.15 338.242V345.669" stroke="#423C52" stroke-width="5" stroke-linecap="round" stroke-linejoin="round"/>
<path d="M1325.87 331.975L1333.27 339.765C1334.13 340.645 1334.6 341.794 1334.6 342.985V350.404" stroke="#423C52" stroke-width="5" stroke-linecap="round" stroke-linejoin="round"/>
<path d="M1321.16 335.767L1328.56 343.557C1329.42 344.438 1329.89 345.586 1329.89 346.776V354.195" stroke="#423C52" stroke-width="5" stroke-linecap="round" stroke-linejoin="round"/>
<path d="M506.277 613.42C619.092 613.42 710.546 606.473 710.546 597.903C710.546 589.334 619.092 582.387 506.277 582.387C393.463 582.387 302.009 589.334 302.009 597.903C302.009 606.473 393.463 613.42 506.277 613.42Z" fill="#B59B00"/>
<path d="M702.9 491.54C774.421 486.13 779.351 454.685 779.351 454.685C779.351 454.685 619.856 450.274 452.49 450.057C265.696 449.814 83.9943 461.262 73.9137 474.078C61.2206 490.198 306.579 501.63 313.478 493.774C318.854 487.655 300.933 483.451 283.015 478.279C271.765 475.03 294.43 451.421 502.18 471.128C587.953 479.268 647.353 495.745 702.9 491.54Z" fill="#907B00"/>
<path d="M334.137 479.941C349.847 479.941 362.583 477.794 362.583 475.147C362.583 472.499 349.847 470.353 334.137 470.353C318.426 470.353 305.69 472.499 305.69 475.147C305.69 477.794 318.426 479.941 334.137 479.941Z" fill="#907B00"/>
<path d="M718.61 415.197C718.626 427.935 717.582 440.648 715.491 453.183C677.151 452.376 624.462 451.419 565.632 450.778C563.803 439.022 562.891 427.12 562.904 415.197C562.904 340.574 597.759 280.081 640.76 280.081C683.76 280.081 718.61 340.574 718.61 415.197Z" fill="#C8D9D2"/>
<path d="M273.299 453.353C189.85 456.6 121.959 461.959 91.2307 468.088C101.984 449.59 139.125 417.146 185.881 409.532C237.308 401.152 266.675 419.585 273.299 453.353Z" fill="#C8D9D2"/>
<path d="M782.325 434.417C782.331 441.304 781.296 448.147 779.263 454.673H778.631H778.597C766.599 454.347 613.171 450.274 452.49 450.072C382.794 449.984 313.806 451.533 254.177 454.152C258.133 447.173 266.949 442.314 277.192 442.314C282.194 442.314 286.868 443.473 290.778 445.48C289.694 438.401 290.789 431.133 293.893 424.793C296.997 418.453 301.939 413.393 307.96 410.39C313.98 407.387 320.744 406.609 327.213 408.174C333.682 409.739 339.496 413.562 343.763 419.053C343.963 419.312 344.159 419.572 344.35 419.838C344.469 419.575 344.591 419.314 344.714 419.053C356.462 394.207 385.217 376.635 418.828 376.635C455.485 376.635 486.366 397.525 495.704 425.986C501.132 420.475 508.246 417.324 515.685 417.136C523.124 416.948 530.367 419.735 536.026 424.965C549.665 409.885 570.377 400.263 593.57 400.263C619.122 400.263 641.666 411.955 655.053 429.737C657.379 395.506 684.943 368.484 718.608 368.484C753.798 368.465 782.325 397.985 782.325 434.417Z" fill="#B59B00"/>
<path d="M79.3995 559.295L43.2576 521.833C42.3715 520.915 41.3268 520.195 40.1833 519.714C39.0398 519.233 37.82 519.001 36.5936 519.031C35.3672 519.061 34.1584 519.353 33.0362 519.889C31.914 520.426 30.9005 521.196 30.0537 522.157L6.42718 548.952C-1.04556 557.431 4.50555 571.472 15.331 571.472H81.1816L79.3995 559.295Z" fill="white" stroke="#DBE5E5" stroke-width="6" stroke-miterlimit="10"/>
<path d="M169.734 562.045L111.327 568.741L95.0405 519.536L141.169 502.918C143.177 502.194 145.368 502.344 147.276 503.336C149.185 504.328 150.662 506.086 151.395 508.236L169.734 562.045Z" fill="#A0505A"/>
<path d="M185.26 537.986L186.16 536.882C185.909 537.293 185.606 537.665 185.26 537.986V537.986Z" stroke="#FFE700" stroke-width="5" stroke-linecap="round" stroke-linejoin="round"/>
<path d="M224.97 543.254L248.093 575.895C250.053 578.662 246.84 584.908 240.913 589.816C234.986 594.725 228.591 596.483 226.631 593.714L203.508 561.073C199.377 555.219 196.833 548.235 196.162 540.904L195.511 534.022L189.114 524.995C187.937 523.331 188.637 520.61 190.689 518.905C192.742 517.2 195.343 517.183 196.522 518.847L202.917 527.872L208.886 530.347C215.25 532.95 220.82 537.419 224.97 543.254V543.254Z" fill="#423C52"/>
<path d="M90.1461 517.1L80.2725 542.031C79.0934 545.006 72.0144 544.577 64.4629 541.072C56.9114 537.566 51.7429 532.303 52.9197 529.336L62.7956 504.404C61.7065 507.386 66.8458 512.596 74.3568 516.08C81.8678 519.563 88.8973 520.006 90.1416 517.095L90.1461 517.1Z" stroke="#907B00" stroke-width="5" stroke-linecap="round" stroke-linejoin="round"/>
<path d="M90.171 517.044L90.144 517.1C88.8997 520.011 81.8658 519.568 74.3593 516.084C66.8528 512.601 61.7089 507.391 62.798 504.409C62.8037 504.389 62.8105 504.368 62.8182 504.348C63.9973 501.374 71.074 501.803 78.6278 505.308C86.1815 508.813 91.3479 514.07 90.171 517.044Z" stroke="#907B00" stroke-width="5" stroke-miterlimit="10" stroke-linecap="round"/>
<path d="M90.1855 516.67C92.0597 514.529 88.7425 507.832 82.7764 501.714C76.8102 495.596 70.4544 492.372 68.5801 494.514C66.7059 496.656 70.023 503.352 75.9892 509.47C81.9553 515.589 88.3112 518.812 90.1855 516.67Z" fill="white" stroke="#907B00" stroke-width="5" stroke-miterlimit="10" stroke-linecap="round"/>
<path d="M185.26 537.986L186.16 536.882C188.743 532.675 186.835 524.145 180.715 519.743C174.594 515.342 166.593 516.742 164.012 520.961C164.012 520.961 164.012 520.961 164.012 520.978L163.431 522.269C162.237 526.249 165.88 531.026 171.379 534.982C176.878 538.938 182.335 540.709 185.26 537.986ZM179.293 522.05C180.834 523.161 181.626 524.805 181.064 525.726C180.501 526.646 178.791 526.491 177.238 525.382C175.686 524.274 174.905 522.627 175.467 521.706C176.03 520.786 177.745 520.942 179.288 522.05H179.293Z" stroke="#FFE700" stroke-width="5" stroke-linecap="round" stroke-linejoin="round"/>
<path d="M177.243 525.382C175.701 524.272 174.909 522.627 175.472 521.707C176.034 520.786 177.744 520.942 179.297 522.05C180.85 523.158 181.63 524.805 181.068 525.726C180.505 526.647 178.786 526.491 177.243 525.382Z" stroke="#FFE700" stroke-width="5" stroke-linecap="round" stroke-linejoin="round"/>
<path d="M177.243 525.382C175.701 524.272 174.909 522.627 175.472 521.707C176.034 520.786 177.744 520.942 179.297 522.05C180.85 523.158 181.63 524.805 181.068 525.726C180.505 526.647 178.786 526.491 177.243 525.382Z" stroke="#FFE700" stroke-width="5" stroke-linecap="round" stroke-linejoin="round"/>
<path d="M160.796 554.837L184.479 513.865C184.859 513.213 185.397 512.686 186.034 512.342C186.672 511.999 187.385 511.851 188.095 511.917L201.864 513.213" stroke="#FE552F" stroke-width="5" stroke-miterlimit="10" stroke-linecap="round"/>
<path d="M153.758 563.648C150.106 561.017 148.063 557.239 148.807 554.762L149.129 554.043L163.406 522.269C162.212 526.25 165.855 531.026 171.354 534.982C176.853 538.938 182.335 540.709 185.26 537.986L163.739 564.537L163.253 565.138C161.422 566.851 157.41 566.276 153.758 563.648Z" stroke="#FFE700" stroke-width="5" stroke-linecap="round" stroke-linejoin="round"/>
<path d="M15.439 572.365C15.439 572.27 15.439 572.175 15.439 572.08C15.439 564.33 21.8316 558.05 29.7162 558.05C32.5533 558.036 35.3378 558.879 37.7559 560.486C37.9588 556.442 39.1473 552.528 41.2006 549.142C43.2539 545.757 46.0988 543.02 49.446 541.211C52.7931 539.402 56.5232 538.584 60.2569 538.842C63.9905 539.099 67.5946 540.422 70.7026 542.677C72.703 529.377 85.117 519.141 100.126 519.141C116.531 519.141 129.827 531.377 129.827 546.465C129.827 547.66 129.742 548.854 129.573 550.036C130.571 549.874 131.578 549.793 132.586 549.792C136.256 549.791 139.854 550.898 142.974 552.989C146.094 555.08 148.614 558.072 150.25 561.628L149.876 561.726H164.703C165.547 556.565 167.959 551.858 171.557 548.352C175.154 544.845 179.73 542.74 184.559 542.371C189.388 542.001 194.193 543.389 198.21 546.313C202.227 549.237 205.227 553.53 206.733 558.51C209.463 556.975 212.462 556.084 215.533 555.897C218.604 555.71 221.677 556.231 224.549 557.426C227.42 558.62 230.025 560.461 232.19 562.826C234.355 565.191 236.032 568.026 237.11 571.145V572.363L15.439 572.365Z" fill="#C8D9D2"/>
<path d="M241.664 569.472V567.803C241.664 566.799 241.296 565.835 240.64 565.125C239.983 564.414 239.093 564.015 238.165 564.015H232.524C231.596 564.015 230.706 564.414 230.05 565.125C229.394 565.835 229.025 566.799 229.025 567.803V598.495C229.025 599.5 229.394 600.464 230.05 601.175C230.706 601.885 231.596 602.285 232.524 602.286H238.165C239.094 602.285 239.984 601.885 240.64 601.175C241.296 600.464 241.664 599.5 241.664 598.495V596.829C241.664 597.546 241.795 598.255 242.048 598.917C242.301 599.579 242.673 600.181 243.141 600.687C243.609 601.194 244.164 601.596 244.776 601.87C245.387 602.144 246.043 602.286 246.705 602.286H249.88C252.217 602.286 254.458 601.281 256.111 599.492C257.763 597.703 258.691 595.277 258.691 592.747V588.995H266.085H266.283C268.401 588.995 270.109 586.379 270.109 583.149C270.109 579.919 268.392 577.303 266.283 577.303H266.085H258.691V573.552C258.691 571.022 257.763 568.596 256.111 566.807C254.458 565.018 252.217 564.013 249.88 564.013H246.705C246.043 564.013 245.387 564.154 244.775 564.429C244.164 564.703 243.608 565.105 243.14 565.612C242.672 566.119 242.301 566.721 242.047 567.383C241.794 568.045 241.664 568.755 241.664 569.472V569.472ZM267.316 579.033C268.835 579.033 270.068 580.874 270.068 583.147C270.068 585.419 268.835 587.256 267.316 587.256C265.797 587.256 264.56 585.415 264.56 583.147C264.56 580.879 265.788 579.037 267.312 579.037L267.316 579.033ZM258.937 588.983C256.774 588.983 255.021 586.37 255.021 583.137C255.021 579.905 256.774 577.291 258.937 577.291" fill="white"/>
<path d="M258.937 588.983C256.774 588.983 255.021 586.37 255.021 583.137C255.021 579.905 256.774 577.291 258.937 577.291M241.664 569.472V567.803C241.664 566.799 241.296 565.835 240.64 565.125C239.983 564.414 239.093 564.015 238.165 564.015H232.524C231.596 564.015 230.706 564.414 230.05 565.125C229.394 565.835 229.025 566.799 229.025 567.803V598.495C229.025 599.5 229.394 600.464 230.05 601.175C230.706 601.885 231.596 602.285 232.524 602.286H238.165C239.094 602.285 239.984 601.885 240.64 601.175C241.296 600.464 241.664 599.5 241.664 598.495V596.829C241.664 597.546 241.795 598.255 242.048 598.917C242.301 599.579 242.673 600.181 243.141 600.687C243.609 601.194 244.164 601.596 244.776 601.87C245.387 602.144 246.043 602.286 246.705 602.286H249.88C252.217 602.286 254.458 601.281 256.111 599.492C257.763 597.703 258.691 595.277 258.691 592.747V588.995H266.085H266.283C268.401 588.995 270.109 586.379 270.109 583.149C270.109 579.919 268.392 577.303 266.283 577.303H266.085H258.691V573.552C258.691 571.022 257.763 568.596 256.111 566.807C254.458 565.018 252.217 564.013 249.88 564.013H246.705C246.043 564.013 245.387 564.154 244.775 564.429C244.164 564.703 243.608 565.105 243.14 565.612C242.672 566.119 242.301 566.721 242.047 567.383C241.794 568.045 241.664 568.755 241.664 569.472V569.472ZM267.316 579.033C268.835 579.033 270.068 580.874 270.068 583.147C270.068 585.419 268.835 587.256 267.316 587.256C265.797 587.256 264.56 585.415 264.56 583.147C264.56 580.879 265.788 579.037 267.312 579.037L267.316 579.033Z" stroke="#C8D9D2" stroke-width="6" stroke-miterlimit="10"/>
<path d="M224.122 564.02H183.685C183.391 564.018 183.1 564.078 182.829 564.197C182.557 564.316 182.309 564.492 182.1 564.715C181.891 564.938 181.725 565.203 181.611 565.495C181.496 565.788 181.437 566.102 181.435 566.419V569.277C181.437 569.729 181.557 570.172 181.781 570.553C182.006 570.935 182.326 571.239 182.704 571.432C182.843 571.476 182.976 571.532 183.111 571.588" stroke="#C8D9D2" stroke-width="6" stroke-miterlimit="10"/>
<path d="M241.664 568.568V598.49" stroke="#C8D9D2" stroke-width="6" stroke-miterlimit="10"/>
<path d="M61.8125 587.134C61.8892 587.134 61.9636 587.134 62.038 587.134H61.8125Z" stroke="#B59B00" stroke-width="6" stroke-miterlimit="10"/>
<path d="M61.527 559.168C61.4481 559.168 61.3692 559.168 61.3015 559.182L61.527 559.168Z" stroke="#B59B00" stroke-width="6" stroke-miterlimit="10"/>
<path d="M102.941 572.458C103.136 580.47 99.624 586.769 95.1484 586.83L62.177 587.293C66.6278 587.185 70.1178 580.906 69.9175 572.921C69.7173 564.936 65.8335 559.075 61.3872 559.078L94.3541 558.613C98.8184 558.552 102.74 564.446 102.941 572.458Z" stroke="#B59B00" stroke-width="6" stroke-miterlimit="10"/>
<path d="M69.9264 572.977C70.0682 580.672 66.5872 586.995 62.1431 587.134H62.0374C61.9631 587.134 61.8889 587.134 61.8124 587.134C57.4696 586.974 53.8851 580.889 53.7433 573.33C53.6016 565.772 56.9611 559.533 61.2926 559.183C61.3691 559.183 61.4478 559.17 61.5176 559.168H61.6324C66.0809 559.129 69.7846 565.289 69.9264 572.977Z" stroke="#B59B00" stroke-width="6" stroke-miterlimit="10"/>
<path d="M123.793 590.199C123.337 590.673 122.78 591.019 122.172 591.207C121.564 591.395 120.923 591.419 120.304 591.277C119.685 591.136 119.108 590.832 118.622 590.394C118.136 589.955 117.757 589.395 117.517 588.762C117.139 587.782 116.694 586.834 116.185 585.926C115.442 584.601 114.582 583.356 113.618 582.209C108.409 576 101.242 573.717 97.0274 576.719L97.0049 576.699C97.5363 575.365 98.3321 574.174 99.336 573.211C100.985 571.591 102.912 570.729 104.48 570.748C104.826 569.915 105.328 569.169 105.954 568.556C106.858 567.642 108.01 567.066 109.239 566.912C109.048 565.073 110.06 562.661 111.991 560.763C113.755 559.027 115.839 558.162 117.461 558.328C117.759 556.896 118.468 555.603 119.486 554.635C120.024 554.103 120.636 553.666 121.3 553.341C121.3 553.341 117.67 573.084 136.891 572.414C136.902 572.673 136.909 572.936 136.909 573.194V573.208C136.758 574.46 134.938 578.633 133.759 579.785L123.793 590.199Z" fill="#FFE700"/>
<path d="M107.058 562.727L99.7566 554.023" stroke="#907B00" stroke-width="5" stroke-linecap="round" stroke-linejoin="round"/>
<path d="M107.484 543.479C108.396 544.672 109.044 546.076 109.376 547.583C109.708 549.09 109.717 550.659 109.401 552.17C109.085 553.681 108.453 555.093 107.553 556.298C106.653 557.503 105.51 558.468 104.212 559.119C103.3 557.926 102.654 556.521 102.322 555.015C101.99 553.508 101.982 551.939 102.298 550.429C102.614 548.918 103.245 547.506 104.145 546.301C105.044 545.096 106.186 544.131 107.484 543.479V543.479Z" fill="#907B00"/>
<path d="M121.302 553.344C120.638 553.669 120.026 554.105 119.488 554.637C118.47 555.606 117.761 556.899 117.463 558.33C115.841 558.172 113.757 559.036 111.993 560.766C110.062 562.663 109.05 565.075 109.241 566.914C109.241 566.914 109.356 568.439 107.216 570.064C106.828 570.375 106.384 570.596 105.913 570.713C105.442 570.829 104.954 570.839 104.48 570.741C102.905 570.721 100.985 571.584 99.3359 573.204C98.3464 574.155 97.5582 575.327 97.025 576.638C96.8404 572.463 98.1028 568.536 100.85 565.83C102.582 564.143 104.743 563.059 107.052 562.719C107.586 560.265 108.789 558.042 110.506 556.337C113.384 553.522 117.306 552.576 121.302 553.344Z" fill="#FE552F"/>
<path d="M125.181 589.648C127.19 587.885 126.509 587.317 128.676 585.814C129.06 585.546 129.452 585.29 129.855 585.054C130.773 584.511 131.628 583.852 132.402 583.091C135.185 580.358 136.664 576.565 136.877 572.451C136.877 572.426 136.87 572.403 136.855 572.384C136.841 572.365 136.821 572.352 136.799 572.347C136.777 572.343 136.754 572.347 136.734 572.358C136.714 572.37 136.699 572.389 136.691 572.412C136.23 573.738 135.484 574.927 134.516 575.88C133.547 576.833 132.383 577.522 131.119 577.893C131.032 577.915 130.95 577.958 130.879 578.018C130.808 578.078 130.75 578.154 130.709 578.24C130.667 578.326 130.643 578.421 130.638 578.518C130.633 578.616 130.648 578.713 130.68 578.804C131.18 580.297 130.581 582.328 129.09 583.795C127.598 585.261 125.714 585.704 124.38 585.049C124.299 585.01 124.21 584.99 124.121 584.992C124.032 584.994 123.944 585.017 123.864 585.06C123.784 585.102 123.714 585.164 123.658 585.24C123.603 585.315 123.563 585.403 123.543 585.497C123.343 586.389 122.746 587.417 121.849 588.299C120.391 589.731 118.653 590.272 117.798 589.602C117.807 589.602 120.024 594.176 125.181 589.648Z" fill="#FE552F"/>
<path d="M253.444 290.115C297.413 290.115 333.056 225.267 333.056 145.274C333.056 65.2813 297.413 0.434082 253.444 0.434082C209.475 0.434082 173.831 65.2813 173.831 145.274C173.831 225.267 209.475 290.115 253.444 290.115Z" fill="#907B00"/>
<path d="M279.937 42.9303C281.4 49.573 279.57 55.8966 275.806 58.1814C274.088 55.9568 272.883 53.3217 272.291 50.4938C270.831 43.8511 272.656 37.5324 276.425 35.2451C278.14 37.4703 279.344 40.104 279.937 42.9303V42.9303Z" fill="#B59B00"/>
<path d="M288.258 59.8304C285.702 63.5939 281.845 65.3575 279.08 64.2394C279.393 62.2859 280.13 60.4408 281.231 58.8561C283.787 55.0951 287.642 53.3315 290.409 54.4496C290.096 56.4021 289.358 58.2463 288.258 59.8304Z" fill="#B59B00"/>
<path d="M306.934 101.899C306.081 107.623 302.744 111.937 299.104 112.402C298.424 110.052 298.27 107.561 298.654 105.133C299.506 99.4091 302.841 95.0976 306.484 94.6348C307.163 96.9835 307.317 99.4728 306.934 101.899V101.899Z" fill="#B59B00"/>
<path d="M309.284 116.533C305.978 118.087 302.511 117.605 300.958 115.539C301.944 114.273 303.192 113.277 304.601 112.633C307.906 111.082 311.372 111.564 312.927 113.63C311.941 114.895 310.693 115.891 309.284 116.533V116.533Z" fill="#B59B00"/>
<path d="M240.305 65.5403C240.305 70.9943 238.381 75.6614 235.652 77.5955C232.923 75.6638 230.999 70.9943 230.999 65.5403C230.999 60.0864 232.923 55.4192 235.652 53.4851C238.381 55.4216 240.305 60.0912 240.305 65.5403Z" fill="#B59B00"/>
<path d="M228.796 78.0657C231.217 81.8462 231.946 86.0846 230.922 88.8469C228.17 88.9273 224.764 86.6887 222.343 82.9082C219.921 79.1277 219.192 74.8868 220.216 72.127C222.968 72.049 226.377 74.2852 228.796 78.0657Z" fill="#B59B00"/>
<path d="M209.235 202.291C212.883 201.105 216.422 201.597 218.31 203.316C217.613 205.874 214.908 208.4 211.26 209.586C207.613 210.773 204.071 210.281 202.183 208.561C202.883 206.001 205.59 203.477 209.235 202.291Z" fill="#B59B00"/>
<path d="M225.882 179.886C225.769 184.782 223.945 186.492 221.451 188.168C219.042 186.368 217.401 184.56 217.523 179.664C217.644 174.768 220.729 167.59 221.953 166.51C223.103 167.624 225.988 174.99 225.882 179.886Z" fill="#B59B00"/>
<path d="M239.833 160.399C239.72 165.295 237.895 167.005 235.402 168.681C232.992 166.881 231.352 165.073 231.473 160.177C231.595 155.281 234.68 148.102 235.904 147.023C237.054 148.136 239.938 155.503 239.833 160.399Z" fill="#B59B00"/>
<path d="M269.877 311.626C269.762 316.522 267.937 318.232 265.446 319.908C263.034 318.105 261.396 316.3 261.515 311.404C261.634 306.508 264.724 299.329 265.948 298.25C267.098 299.361 269.989 306.727 269.877 311.626Z" fill="#B59B00"/>
<path d="M242.047 369.892C244.342 374.114 243.622 376.61 242.33 379.453C239.405 379.307 237.137 378.708 234.84 374.486C232.542 370.265 231.662 362.402 232.176 360.789C233.697 361.077 239.75 365.671 242.047 369.892Z" fill="#B59B00"/>
<path d="M174.104 212.512C176.374 216.748 175.643 219.24 174.329 222.075C171.403 221.905 169.14 221.288 166.872 217.052C164.604 212.816 163.769 204.944 164.293 203.333C165.81 203.633 171.833 208.273 174.104 212.512Z" fill="#B59B00"/>
<path d="M273.938 326.049C271.812 328.168 270.275 328.022 268.459 327.525C268.151 325.528 268.192 323.913 270.32 321.793C272.449 319.674 276.864 318.02 277.865 318.14C277.903 319.216 276.065 323.935 273.938 326.049Z" fill="#B59B00"/>
<path d="M245.339 357.138C245.717 360.392 244.538 363.31 242.639 364.187C241.925 363.029 241.477 361.703 241.331 360.319C240.953 357.065 242.13 354.149 244.031 353.27C244.743 354.429 245.192 355.755 245.339 357.138Z" fill="#B59B00"/>
<path d="M251.959 454.267V27.9475" stroke="#B59B00" stroke-width="6" stroke-miterlimit="10"/>
<path d="M235.832 73.3013V113.837C235.832 115.464 236.128 117.075 236.703 118.578C237.279 120.082 238.122 121.448 239.185 122.598C240.248 123.748 241.51 124.661 242.898 125.283C244.287 125.906 245.775 126.226 247.279 126.226V126.226C248.52 126.226 249.71 126.76 250.587 127.71C251.465 128.661 251.958 129.949 251.959 131.292" stroke="#B59B00" stroke-width="6" stroke-miterlimit="10"/>
<path d="M235.832 172.32V224.935C235.832 227.574 236.8 230.104 238.524 231.97C240.247 233.835 242.584 234.883 245.022 234.883C246.861 234.883 248.625 235.674 249.926 237.082C251.227 238.49 251.958 240.399 251.959 242.391" stroke="#B59B00" stroke-width="6" stroke-miterlimit="10"/>
<path d="M237.623 300.686C237.623 306.179 241.28 310.634 245.794 310.634C249.198 310.634 251.959 313.996 251.959 318.142" stroke="#B59B00" stroke-width="6" stroke-miterlimit="10"/>
<path d="M221.487 184.5V199.061C221.487 201.138 222.249 203.13 223.606 204.599C224.963 206.068 226.803 206.893 228.722 206.893H230.938C232.235 206.893 233.479 207.451 234.396 208.444C235.314 209.437 235.829 210.784 235.83 212.188" stroke="#B59B00" stroke-width="6" stroke-miterlimit="10"/>
<path d="M275.849 53.0759V76.989C275.849 81.3743 274.239 85.58 271.375 88.6809C268.51 91.7818 264.625 93.5238 260.575 93.5238V93.5238C259.443 93.5238 258.322 93.7651 257.277 94.234C256.231 94.7029 255.282 95.3902 254.481 96.2565C253.681 97.1229 253.047 98.1513 252.614 99.2832C252.181 100.415 251.958 101.628 251.959 102.853" stroke="#B59B00" stroke-width="6" stroke-miterlimit="10"/>
<path d="M230.922 88.8469L233.652 93.6797C235.078 96.2003 235.832 99.0986 235.832 102.054" stroke="#B59B00" stroke-width="6" stroke-miterlimit="10"/>
<path d="M265.696 312.118V332.808C265.696 335.844 265.08 338.843 263.892 341.594C262.704 344.344 260.973 346.779 258.822 348.727L256.662 350.675C255.189 352.008 254.005 353.675 253.192 355.558C252.38 357.44 251.959 359.493 251.959 361.571" stroke="#B59B00" stroke-width="6" stroke-miterlimit="10"/>
<path d="M279.168 338.138C279.168 340.368 278.35 342.506 276.893 344.082C275.437 345.659 273.462 346.544 271.402 346.544H261.072" stroke="#B59B00" stroke-width="6" stroke-miterlimit="10" stroke-linecap="round"/>
<path d="M241.964 376.62V434.572C241.964 436.603 242.709 438.55 244.035 439.986C245.361 441.422 247.16 442.228 249.036 442.228V442.228C249.812 442.228 250.556 442.562 251.104 443.156C251.653 443.75 251.961 444.555 251.961 445.395" stroke="#B59B00" stroke-width="6" stroke-miterlimit="10"/>
<path d="M183.804 381.884C214.81 381.884 239.945 348.065 239.945 306.347C239.945 264.63 214.81 230.811 183.804 230.811C152.798 230.811 127.663 264.63 127.663 306.347C127.663 348.065 152.798 381.884 183.804 381.884Z" fill="#B59B00"/>
<path d="M201.922 276.805C203.097 282.135 202.147 287.262 199.782 290.261C199.561 290.533 199.283 290.745 198.971 290.879C198.659 291.013 198.323 291.066 197.989 291.032C197.655 290.998 197.333 290.879 197.049 290.685C196.766 290.491 196.529 290.227 196.358 289.915C195.401 288.195 194.699 286.323 194.276 284.368C192.816 277.726 194.643 271.407 198.41 269.12C200.126 271.344 201.33 273.978 201.922 276.805V276.805Z" fill="#907B00"/>
<path d="M149.987 380.467C154.06 384.53 155.59 390.108 153.88 393.769C151.622 393.059 149.552 391.779 147.84 390.035C143.77 385.969 142.24 380.396 143.95 376.732C146.206 377.443 148.275 378.723 149.987 380.467V380.467Z" fill="#907B00"/>
<path d="M143.909 393.399C146.935 393.574 149.379 395.347 149.838 397.54C148.657 398.093 147.371 398.335 146.087 398.246C143.063 398.071 140.621 396.297 140.162 394.105C141.342 393.553 142.626 393.311 143.909 393.399V393.399Z" fill="#B59B00"/>
<path d="M212.262 293.934C210.687 298.279 207.372 301.052 204.433 300.74C204.273 298.765 204.549 296.777 205.239 294.94C206.814 290.594 210.128 287.82 213.067 288.134C213.226 290.109 212.95 292.097 212.262 293.934V293.934Z" fill="#907B00"/>
<path d="M167.659 268.688C170.022 272.868 169.347 275.377 168.093 278.244C165.168 278.149 162.889 277.594 160.526 273.416C158.164 269.239 157.151 261.39 157.646 259.775C159.172 260.029 165.297 264.511 167.659 268.688Z" fill="#907B00"/>
<path d="M177.04 268.023C176.064 271.677 174.385 272.559 172.214 273.28C170.735 271.417 169.842 269.714 170.819 266.07C171.795 262.426 175.42 257.708 176.534 257.162C177.191 258.243 178.017 264.379 177.04 268.023Z" fill="#907B00"/>
<path d="M182.089 299.67V457.92" stroke="#907B00" stroke-width="6" stroke-miterlimit="10" stroke-linecap="round"/>
<path d="M197.991 294.799V312.632C197.992 318.965 195.846 325.078 191.961 329.812L186.695 336.228C183.728 339.845 182.089 344.515 182.089 349.353" stroke="#907B00" stroke-width="6" stroke-miterlimit="10" stroke-linecap="round"/>
<path d="M152.01 390.746C154.094 394.058 156.895 396.769 160.168 398.642C163.441 400.516 167.087 401.495 170.789 401.495H174.072C176.197 401.495 178.235 402.408 179.738 404.034C181.241 405.66 182.087 407.865 182.089 410.165" stroke="#907B00" stroke-width="6" stroke-miterlimit="10" stroke-linecap="round"/>
<path d="M204.922 303.561V307.702C204.922 308.133 204.844 308.56 204.692 308.958C204.54 309.356 204.316 309.718 204.035 310.023C203.753 310.328 203.419 310.57 203.051 310.735C202.683 310.9 202.289 310.985 201.891 310.985H200.37C199.768 310.985 199.19 311.244 198.764 311.705C198.339 312.166 198.099 312.791 198.099 313.443" stroke="#907B00" stroke-width="6" stroke-miterlimit="10" stroke-linecap="round"/>
<path d="M171.028 278.11V312.298C171.028 314.062 171.675 315.754 172.827 317.001C173.979 318.249 175.541 318.95 177.17 318.95C178.475 318.95 179.725 319.511 180.648 320.509C181.57 321.507 182.089 322.861 182.089 324.273" stroke="#907B00" stroke-width="6" stroke-miterlimit="10" stroke-linecap="round"/>
<path d="M196.112 380.5V382.966C196.112 384.889 195.406 386.733 194.15 388.093C192.894 389.453 191.19 390.217 189.413 390.217H185.935C184.916 390.217 183.939 390.655 183.219 391.435C182.498 392.215 182.094 393.273 182.094 394.375" stroke="#907B00" stroke-width="6" stroke-miterlimit="10" stroke-linecap="round"/>
<path d="M167.05 394.534C167.05 396.387 167.73 398.163 168.94 399.474C170.15 400.784 171.792 401.52 173.503 401.52" stroke="#907B00" stroke-width="6" stroke-miterlimit="10" stroke-linecap="round"/>
<path d="M164.14 284.88V292.365C164.14 293.593 164.591 294.77 165.392 295.638C166.194 296.506 167.282 296.993 168.415 296.993V296.993C168.759 296.992 169.099 297.064 169.416 297.206C169.733 297.347 170.022 297.555 170.265 297.818C170.507 298.08 170.7 298.392 170.831 298.736C170.962 299.079 171.029 299.447 171.028 299.819" stroke="#907B00" stroke-width="6" stroke-miterlimit="10" stroke-linecap="round"/>
<path d="M799.028 475.015C799.08 482.615 797.37 488.99 795.034 490.622C788.07 497.442 764.934 502.594 737.431 502.801C709.927 503.008 686.712 498.232 679.663 491.516C677.304 489.911 675.516 483.568 675.464 475.977C675.412 468.387 677.113 461.041 679.449 459.399C678.045 460.775 678.2 460.271 678.211 461.757C678.231 464.775 680.461 467.328 685.895 469.695C688.77 470.911 691.722 471.901 694.727 472.66C705.593 475.505 720.649 477.2 737.275 477.069C753.902 476.937 768.93 475.006 779.756 471.99C782.752 471.186 785.691 470.149 788.549 468.887C793.95 466.436 796.589 464.073 796.569 461.058C796.558 459.569 796.243 459.84 794.816 458.485C797.179 460.1 798.977 467.408 799.028 475.015Z" fill="#423C52" stroke="white" stroke-width="5" stroke-miterlimit="10" stroke-linecap="round"/>
<path d="M737.224 476.811C770.146 476.58 796.796 469.992 796.749 462.096C796.702 454.199 769.975 447.984 737.054 448.214C704.132 448.444 677.482 455.032 677.529 462.929C677.576 470.826 704.303 477.041 737.224 476.811Z" fill="#423C52" stroke="white" stroke-width="5" stroke-miterlimit="10" stroke-linecap="round"/>
<path d="M737.331 463.088C749.688 463.002 759.696 461.351 759.685 459.402C759.673 457.453 749.646 455.942 737.289 456.029C724.931 456.115 714.923 457.766 714.935 459.715C714.947 461.664 724.974 463.174 737.331 463.088Z" fill="#423C52" stroke="white" stroke-width="5" stroke-miterlimit="10" stroke-linecap="round"/>
<path d="M309.425 453.801L280.691 422.171L313.188 446.549L312.132 423.411L327.363 443.534L324.677 371.524L336.024 435.776L346.886 424.614L345.88 443.941L358.143 438.455L348.501 453.514L309.425 453.801Z" fill="#907B00"/>
<path d="M617.637 453.234L604.647 442.728L616.294 444.506L616.444 433.352L623.46 441.758L626.597 385.828L635.406 440.786L640.931 425.915L643.023 445.96L653.027 438.687L647.501 453.47L617.637 453.234Z" fill="#907B00"/>
<path d="M608.909 433.223C608.91 434.316 608.726 435.4 608.364 436.421C604.838 435.827 602.129 432.302 602.129 428.049C602.128 426.956 602.312 425.872 602.671 424.851C606.2 425.443 608.909 428.965 608.909 433.223Z" fill="#907B00"/>
<path d="M743.459 406.418C743.206 407.477 742.776 408.476 742.19 409.366C738.913 407.829 737.113 403.678 738.103 399.564C738.356 398.505 738.787 397.505 739.375 396.614C742.651 398.151 744.451 402.299 743.459 406.418Z" fill="#907B00"/>
<path d="M751.053 412.028C749.696 412.777 748.244 413.304 746.744 413.592C745.563 409.059 748.501 403.473 753.834 400.553C755.192 399.803 756.645 399.276 758.145 398.989C759.329 403.52 756.39 409.105 751.053 412.028Z" fill="#907B00"/>
<path d="M286.001 435.215C287.624 436.984 287.561 438.311 287.25 439.89C285.79 440.214 284.604 440.228 282.975 438.457C281.346 436.687 280.007 432.933 280.072 432.068C280.862 432.002 284.379 433.444 286.001 435.215Z" fill="#B59B00"/>
<path d="M804.314 472.731C803.522 473.168 802.674 473.475 801.798 473.642C801.109 470.996 802.824 467.735 805.938 466.029C806.731 465.593 807.579 465.285 808.454 465.116C809.147 467.761 807.426 471.023 804.314 472.731Z" fill="#907B00"/>
<path d="M781.599 501.481H752.972L737.939 492.427L765.616 499.214L754.365 485.692L765.227 491.27L764.191 475.001L772.051 489.592C772.127 489.745 772.249 489.867 772.396 489.936C772.544 490.006 772.709 490.02 772.864 489.976C773.02 489.932 773.158 489.833 773.255 489.695C773.352 489.556 773.404 489.386 773.401 489.212L768.82 417.195L780.811 471.359L791.742 437.447L788.48 487.938L810 477.049L793.65 495.034C792.235 497.039 790.411 498.665 788.321 499.783C786.231 500.901 783.93 501.482 781.599 501.481V501.481Z" fill="#907B00"/>
<path d="M357.478 430.587C355.351 432.709 353.814 432.56 351.998 432.066C351.69 430.066 351.731 428.453 353.857 426.334C355.983 424.215 360.403 422.561 361.404 422.68C361.447 423.757 359.604 428.468 357.478 430.587Z" fill="#907B00"/>
<path d="M573.035 169.911L539.685 119.878C534.921 112.729 528.657 106.908 521.408 102.893C514.159 98.8781 506.133 96.7849 497.99 96.7854H411.4C395.219 96.786 379.41 102.047 366.023 111.888L318.946 146.499C293.035 165.55 289.406 205.36 311.374 229.527L354.163 276.6L390.908 243.881L362.821 205.272C361.441 203.375 360.812 200.963 361.073 198.564C361.334 196.165 362.464 193.977 364.214 192.479L389.123 169.324C392.402 166.279 397.469 168.8 397.469 173.465V230.006H544.629C573.199 230.006 589.749 194.983 573.035 169.911ZM518.732 179.625H512.382V169.353C512.383 169.004 512.485 168.664 512.673 168.382C512.862 168.099 513.128 167.888 513.434 167.778C513.739 167.667 514.069 167.664 514.377 167.768C514.684 167.872 514.954 168.078 515.148 168.357L520.415 175.991C520.649 176.329 520.791 176.73 520.825 177.151C520.86 177.571 520.786 177.994 520.611 178.371C520.436 178.748 520.168 179.065 519.836 179.287C519.504 179.508 519.122 179.625 518.732 179.625V179.625Z" fill="#FF7500"/>
<path d="M480.279 96.7854H447.627L465.367 115.301L480.279 96.7854Z" stroke="white" stroke-width="5" stroke-miterlimit="10" stroke-linecap="round"/>
<path d="M424.901 96.7854H457.553L439.813 115.301L424.901 96.7854Z" stroke="white" stroke-width="5" stroke-miterlimit="10" stroke-linecap="round"/>
<path d="M303.098 167.821C309.189 171.17 313.773 180.295 314.169 191.205C314.596 203.041 309.966 213.199 303.31 216.314" stroke="white" stroke-width="5" stroke-miterlimit="10" stroke-linecap="round"/>
<path d="M577.821 179.808C572.279 182.441 567.068 188.867 564.282 197.392C561.132 207.014 561.955 216.655 565.794 222.384" stroke="white" stroke-width="5" stroke-miterlimit="10" stroke-linecap="round"/>
<path d="M376.361 264.523C386.675 255.301 392.854 246.432 390.908 243.881C388.961 241.331 379.626 246.074 369.306 255.284C358.987 264.494 352.205 274.04 354.158 276.603C356.112 279.165 366.048 273.755 376.361 264.523Z" fill="#C8D9D2"/>
<path d="M645.992 600.181C645.992 600.804 645.659 601.306 645.249 601.306H642.839C642.427 601.306 642.097 600.804 642.094 600.181C642.092 599.557 641.764 599.053 641.354 599.053H638.973C638.564 599.053 638.231 599.56 638.231 600.181C638.233 600.465 638.155 600.743 638.006 600.977C637.948 601.073 637.871 601.152 637.78 601.209C637.689 601.266 637.587 601.299 637.482 601.306H635.069C634.66 601.306 634.327 600.799 634.327 600.181C634.33 599.896 634.251 599.618 634.102 599.384C634.045 599.288 633.968 599.207 633.876 599.15C633.784 599.093 633.681 599.06 633.575 599.055H631.197C630.785 599.055 630.454 599.56 630.454 600.183C630.457 600.467 630.378 600.746 630.229 600.98C630.173 601.076 630.096 601.156 630.004 601.214C629.913 601.271 629.81 601.303 629.705 601.309H627.295C626.883 601.309 626.55 600.802 626.55 600.183C626.553 599.899 626.475 599.62 626.325 599.387C626.269 599.29 626.192 599.21 626.101 599.152C626.009 599.095 625.907 599.063 625.801 599.058H623.42C623.011 599.058 622.678 599.562 622.678 600.186C622.68 600.47 622.602 600.748 622.453 600.982C622.396 601.079 622.319 601.159 622.228 601.217C622.137 601.274 622.034 601.307 621.929 601.313H619.516C619.107 601.313 618.774 600.809 618.774 600.188C618.776 599.904 618.697 599.626 618.549 599.392C618.492 599.295 618.414 599.214 618.323 599.157C618.231 599.1 618.128 599.067 618.022 599.063H615.644C615.234 599.063 614.901 599.567 614.901 600.188C614.901 600.812 614.568 601.313 614.159 601.316H611.749C611.339 601.316 611.006 600.814 611.004 600.188C611.002 599.562 610.673 599.068 610.264 599.068H607.883C607.471 599.068 607.141 599.572 607.141 600.193C607.143 600.478 607.064 600.757 606.916 600.992C606.859 601.089 606.782 601.169 606.691 601.226C606.6 601.284 606.497 601.316 606.391 601.321H603.981C603.853 601.32 603.729 601.273 603.628 601.187C603.48 601.069 603.361 600.913 603.283 600.733C603.204 600.553 603.168 600.355 603.178 600.156C603.178 599.535 602.845 599.029 602.436 599.029H600.057C599.648 599.029 599.315 599.535 599.315 600.156C599.316 600.44 599.237 600.718 599.09 600.953C599.032 601.048 598.954 601.128 598.862 601.185C598.771 601.242 598.668 601.275 598.563 601.282H596.153C595.744 601.282 595.411 600.775 595.411 600.156C595.414 599.872 595.335 599.594 595.186 599.36C595.129 599.263 595.051 599.183 594.96 599.125C594.868 599.068 594.765 599.036 594.659 599.031H592.278C591.869 599.031 591.536 599.535 591.538 600.159C591.539 600.443 591.461 600.721 591.313 600.955C591.256 601.052 591.178 601.132 591.087 601.189C590.995 601.246 590.892 601.279 590.787 601.284H588.377C587.967 601.284 587.634 600.777 587.634 600.159C587.637 599.874 587.559 599.596 587.409 599.362C587.352 599.266 587.275 599.185 587.183 599.128C587.091 599.071 586.988 599.038 586.883 599.033H584.504C584.095 599.033 583.762 599.538 583.762 600.161C583.763 600.445 583.684 600.723 583.537 600.958C583.479 601.054 583.401 601.134 583.31 601.191C583.218 601.249 583.116 601.282 583.01 601.289H580.6C580.188 601.289 579.858 600.785 579.858 600.164C579.859 599.879 579.781 599.602 579.633 599.367C579.576 599.27 579.499 599.19 579.408 599.133C579.317 599.075 579.214 599.043 579.108 599.038H576.73C576.318 599.038 575.987 599.543 575.987 600.164C575.987 600.787 575.654 601.289 575.245 601.291H572.835C572.423 601.291 572.092 600.79 572.09 600.164C572.088 599.538 571.759 599.043 571.35 599.043H568.967C568.557 599.043 568.224 599.547 568.224 600.169C568.227 600.454 568.148 600.733 567.999 600.968C567.943 601.064 567.866 601.144 567.775 601.202C567.683 601.259 567.58 601.291 567.475 601.296H565.063C564.653 601.296 564.32 600.795 564.32 600.171L564.476 595.786H645.895L645.992 600.181Z" fill="white"/>
<path d="M645.942 595.942H569.469C564.71 595.942 563.598 592.756 561.913 587.938L542.741 533.147H608.576L619.343 568.083C621.297 574.421 625.064 579.92 630.099 583.785L645.942 595.942Z" fill="#423C52"/>
<path d="M460.19 533.147V589.787C460.19 591.419 459.591 592.984 458.526 594.138C457.46 595.293 456.014 595.942 454.506 595.942H378.962L387.117 588.559C390.376 585.608 392.997 581.92 394.797 577.753C396.596 573.586 397.529 569.043 397.53 564.444V533.147H460.19Z" fill="#423C52"/>
<path d="M378.726 600.32C378.726 600.943 379.057 601.448 379.464 601.448H381.865C382.274 601.448 382.603 600.946 382.605 600.322C382.607 599.699 382.936 599.197 383.343 599.197H385.713C386.12 599.197 386.453 599.701 386.453 600.322C386.448 600.605 386.523 600.883 386.667 601.119C386.723 601.215 386.8 601.295 386.891 601.353C386.981 601.41 387.084 601.444 387.189 601.45H389.59C389.999 601.45 390.33 600.946 390.33 600.325C390.327 600.04 390.406 599.762 390.555 599.528C390.611 599.431 390.688 599.351 390.779 599.293C390.871 599.236 390.974 599.204 391.079 599.199H393.446C393.856 599.199 394.184 599.703 394.184 600.327C394.182 600.611 394.261 600.889 394.409 601.124C394.465 601.22 394.542 601.3 394.633 601.357C394.724 601.415 394.826 601.447 394.931 601.452H397.33C397.74 601.452 398.073 600.948 398.073 600.327C398.071 600.043 398.149 599.765 398.298 599.53C398.354 599.434 398.43 599.354 398.521 599.297C398.612 599.239 398.715 599.207 398.82 599.202H401.191C401.599 599.202 401.929 599.706 401.929 600.329C401.927 600.614 402.005 600.892 402.154 601.126C402.21 601.223 402.287 601.303 402.378 601.361C402.469 601.418 402.571 601.452 402.676 601.457H405.077C405.485 601.457 405.818 600.953 405.818 600.332C405.816 600.048 405.894 599.77 406.043 599.535C406.099 599.439 406.176 599.358 406.267 599.301C406.359 599.244 406.461 599.211 406.567 599.207H408.934C409.344 599.207 409.674 599.713 409.674 600.334C409.674 600.955 410.005 601.457 410.412 601.46H412.813C413.221 601.46 413.551 600.958 413.554 600.334C413.556 599.711 413.884 599.211 414.292 599.211H416.661C417.071 599.211 417.401 599.716 417.401 600.337C417.4 600.622 417.478 600.9 417.626 601.136C417.682 601.232 417.759 601.313 417.85 601.37C417.941 601.427 418.043 601.46 418.148 601.465H420.547C420.676 601.463 420.8 601.415 420.9 601.328V601.328C421.048 601.21 421.167 601.054 421.245 600.874C421.324 600.695 421.36 600.496 421.35 600.298C421.35 599.677 421.681 599.172 422.088 599.172H424.458C424.865 599.172 425.196 599.677 425.196 600.298C425.195 600.582 425.273 600.86 425.421 601.094C425.478 601.191 425.555 601.271 425.646 601.329C425.737 601.386 425.84 601.42 425.945 601.426H428.344C428.751 601.426 429.084 600.921 429.084 600.3C429.082 600.016 429.161 599.738 429.309 599.504C429.366 599.407 429.443 599.327 429.534 599.27C429.625 599.212 429.728 599.18 429.833 599.175H432.205C432.612 599.175 432.943 599.679 432.941 600.303C432.94 600.587 433.018 600.865 433.166 601.099C433.222 601.196 433.3 601.276 433.391 601.333C433.482 601.39 433.585 601.423 433.69 601.428H436.089C436.496 601.428 436.827 600.924 436.827 600.303C436.824 600.018 436.903 599.74 437.052 599.506C437.108 599.409 437.185 599.329 437.277 599.272C437.368 599.215 437.471 599.182 437.576 599.177H439.943C440.351 599.177 440.684 599.682 440.684 600.305C440.683 600.589 440.761 600.867 440.909 601.102C440.966 601.197 441.043 601.277 441.134 601.335C441.226 601.392 441.328 601.426 441.433 601.433H443.834C444.243 601.433 444.572 600.929 444.572 600.308C444.57 600.023 444.649 599.746 444.797 599.511C444.852 599.414 444.929 599.333 445.02 599.276C445.111 599.219 445.214 599.187 445.319 599.182H447.686C448.096 599.182 448.426 599.689 448.426 600.31C448.426 600.931 448.757 601.433 449.164 601.435H451.563C451.975 601.435 452.303 600.934 452.306 600.31C452.308 599.686 452.634 599.187 453.041 599.187H455.415C455.823 599.187 456.153 599.691 456.153 600.312C456.151 600.597 456.229 600.876 456.378 601.111C456.434 601.208 456.511 601.288 456.602 601.346C456.693 601.403 456.795 601.435 456.9 601.44H459.301C459.709 601.44 460.042 600.936 460.042 600.312L459.922 596.951C459.913 596.679 459.806 596.422 459.625 596.233C459.443 596.045 459.202 595.94 458.95 595.94H378.728L378.726 600.32Z" fill="white"/>
<path d="M460.19 294.579V533.148H397.53V230.007H515.132L608.569 533.148H542.741L465.089 293.676C464.148 290.78 460.19 291.51 460.19 294.579Z" fill="#C8D9D2"/>
<path d="M401.806 533.148V240.237" stroke="white" stroke-width="5" stroke-miterlimit="10" stroke-linecap="round" stroke-dasharray="12 12"/>
<path d="M513.748 239.86L603.626 533.148" stroke="white" stroke-width="5" stroke-miterlimit="10" stroke-linecap="round" stroke-dasharray="12 12"/>
<path d="M397.53 230.491H516.039L519.077 239.787H397.53V230.491Z" stroke="white" stroke-width="5" stroke-miterlimit="10" stroke-linecap="round"/>
<path d="M452.578 239.755V271.076C452.578 277.872 457.168 283.384 462.83 283.384" stroke="white" stroke-width="5" stroke-miterlimit="10" stroke-linecap="round"/>
<path d="M454.758 237.236C455.965 237.236 456.943 236.177 456.943 234.871C456.943 233.565 455.965 232.506 454.758 232.506C453.551 232.506 452.573 233.565 452.573 234.871C452.573 236.177 453.551 237.236 454.758 237.236Z" stroke="white" stroke-width="5" stroke-miterlimit="10" stroke-linecap="round"/>
<path d="M521.558 268.798C514.549 268.798 507.827 265.784 502.87 260.419C497.914 255.053 495.129 247.776 495.128 240.188" stroke="white" stroke-width="5" stroke-miterlimit="10" stroke-linecap="round"/>
<path d="M397.276 268.555C404.285 268.555 411.008 265.54 415.964 260.175C420.921 254.81 423.706 247.533 423.706 239.945" stroke="white" stroke-width="5" stroke-miterlimit="10" stroke-linecap="round"/>
<path d="M608.927 533.145H539.411C538.342 533.144 537.303 532.766 536.45 532.068C535.598 531.37 534.978 530.39 534.686 529.277L532.073 519.307C531.866 518.516 531.831 517.683 531.971 516.875C532.111 516.066 532.422 515.304 532.88 514.648C533.338 513.991 533.93 513.459 534.61 513.092C535.29 512.725 536.039 512.534 536.799 512.533H606.315C607.384 512.534 608.423 512.912 609.276 513.61C610.128 514.308 610.748 515.288 611.04 516.401L613.653 526.371C613.86 527.162 613.895 527.995 613.755 528.803C613.615 529.612 613.304 530.374 612.846 531.03C612.388 531.686 611.796 532.219 611.116 532.586C610.436 532.953 609.687 533.144 608.927 533.145Z" fill="#DBE5E5" stroke="white" stroke-width="6" stroke-miterlimit="10"/>
<path d="M460.087 512.533H397.357C394.578 512.533 392.326 514.971 392.326 517.979V527.699C392.326 530.707 394.578 533.145 397.357 533.145H460.087C462.865 533.145 465.118 530.707 465.118 527.699V517.979C465.118 514.971 462.865 512.533 460.087 512.533Z" fill="#DBE5E5" stroke="white" stroke-width="6" stroke-miterlimit="10"/>
<path d="M439.475 168.23L453.413 198.815C454.594 201.407 451.336 205.762 446.136 208.539C440.936 211.316 435.758 211.462 434.579 208.873L420.642 178.285C418.162 172.841 417.049 166.787 417.415 160.73L417.755 155.105L413.9 146.645C413.189 145.086 414.067 143.045 415.86 142.088C417.653 141.131 419.685 141.62 420.392 143.179L424.246 151.639L428.576 154.771C433.238 158.143 436.997 162.785 439.475 168.23V168.23Z" stroke="#FFE700" stroke-width="5" stroke-linecap="round" stroke-linejoin="round"/>
<path d="M418.434 147.715C420.232 146.755 421.112 144.71 420.4 143.148C419.688 141.586 417.653 141.097 415.856 142.057C414.058 143.018 413.178 145.062 413.89 146.625C414.602 148.187 416.637 148.675 418.434 147.715Z" stroke="#FFE700" stroke-width="5" stroke-linecap="round" stroke-linejoin="round"/>
<path d="M501.051 214.056L471.108 219.03C465.728 219.924 461.061 216.022 461.477 210.977L464.627 150.268L467.971 152.506L470.579 149.252L473.954 151.512L476.553 148.258L479.929 150.519L482.527 147.264L485.903 149.527L488.502 146.27L491.877 148.533L494.577 145.16L491.427 206.001C491.001 211.046 495.671 214.95 501.051 214.056Z" fill="#FFDB00"/>
<path d="M496.656 146.482L498.184 144.57L517.832 201.611C519.632 206.288 516.257 211.528 510.875 212.422L501.041 214.056C495.661 214.95 490.992 211.045 491.411 206.001L494.561 145.157L496.656 146.482Z" fill="#907B00"/>
<path d="M469.06 138.563C468.325 140.392 465.841 140.984 463.514 139.888C461.187 138.792 459.893 136.417 460.631 134.588M449.106 146.536L447.9 145.966C447.175 145.625 446.354 145.609 445.619 145.922C444.883 146.236 444.292 146.852 443.976 147.637L442.056 152.409C441.9 152.797 441.815 153.215 441.808 153.639C441.801 154.063 441.87 154.484 442.014 154.879C442.157 155.273 442.37 155.633 442.642 155.939C442.914 156.244 443.239 156.488 443.598 156.657L465.744 167.102C466.103 167.272 466.489 167.363 466.881 167.371C467.273 167.379 467.663 167.304 468.027 167.149C468.392 166.994 468.725 166.763 469.008 166.468C469.29 166.174 469.516 165.822 469.673 165.433L471.592 160.661C471.749 160.273 471.833 159.854 471.84 159.43C471.847 159.006 471.777 158.584 471.633 158.189C471.49 157.794 471.275 157.434 471.003 157.129C470.731 156.824 470.406 156.58 470.046 156.411L468.844 155.843C469.362 156.087 469.918 156.219 470.482 156.23C471.047 156.241 471.607 156.132 472.132 155.908C472.657 155.685 473.137 155.351 473.543 154.927C473.949 154.503 474.274 153.997 474.499 153.437L475.579 150.757C475.974 149.779 476.188 148.726 476.207 147.658C476.226 146.591 476.05 145.529 475.691 144.535C475.331 143.541 474.794 142.633 474.11 141.864C473.426 141.095 472.608 140.479 471.704 140.051L469.004 138.775L471.52 132.52C471.547 132.464 471.569 132.413 471.592 132.354C472.314 130.564 471.009 128.213 468.682 127.124C466.356 126.035 463.885 126.588 463.163 128.379C463.14 128.437 463.122 128.491 463.1 128.549L460.584 134.805L457.884 133.526C456.058 132.665 453.991 132.624 452.137 133.413C450.283 134.202 448.795 135.756 447.999 137.733L446.919 140.412C446.461 141.538 446.435 142.815 446.845 143.963C447.254 145.11 448.068 146.036 449.106 146.536ZM464.729 128.089C465.246 126.805 466.995 126.384 468.635 127.161C470.276 127.938 471.182 129.597 470.66 130.888C470.138 132.179 468.394 132.593 466.756 131.821C465.118 131.048 464.218 129.385 464.729 128.089Z" stroke="white" stroke-width="5" stroke-miterlimit="10" stroke-linecap="round"/>
<path d="M439.196 159.512L425.427 193.724C425.326 193.971 425.27 194.237 425.264 194.507C425.257 194.777 425.3 195.046 425.39 195.299C425.48 195.551 425.614 195.782 425.786 195.977C425.958 196.173 426.165 196.33 426.393 196.44L428.456 197.414C428.783 197.566 429.144 197.614 429.495 197.554C429.847 197.494 430.175 197.327 430.443 197.073C430.522 196.971 430.61 196.876 430.695 196.783C431.183 196.311 431.786 196.003 432.433 195.895C433.079 195.788 433.741 195.886 434.337 196.178C434.932 196.47 435.437 196.943 435.789 197.539C436.142 198.136 436.326 198.83 436.32 199.538C436.319 199.547 436.319 199.556 436.32 199.565C436.318 199.613 436.318 199.661 436.32 199.709C436.318 199.72 436.318 199.732 436.32 199.743C436.314 200.009 436.356 200.274 436.444 200.522C436.534 200.774 436.668 201.004 436.841 201.198C437.013 201.393 437.219 201.548 437.448 201.655L439.507 202.63C439.842 202.785 440.211 202.833 440.571 202.766C440.93 202.699 441.264 202.52 441.532 202.252V202.252C441.588 202.181 441.647 202.118 441.707 202.055C442.188 201.574 442.787 201.255 443.431 201.136C444.076 201.017 444.739 201.104 445.339 201.385C445.939 201.666 446.451 202.13 446.812 202.72C447.173 203.311 447.368 204.002 447.373 204.71C447.375 204.809 447.369 204.908 447.357 205.007C447.361 205.4 447.469 205.784 447.668 206.113C447.868 206.442 448.15 206.701 448.483 206.861L450.541 207.835C451.006 208.049 451.53 208.055 451.998 207.852C452.466 207.648 452.841 207.251 453.039 206.749L466.808 172.539C467.25 171.439 467.271 170.194 466.865 169.078C466.46 167.961 465.661 167.065 464.645 166.586L444.702 157.176C444.199 156.937 443.657 156.808 443.108 156.796C442.559 156.785 442.013 156.89 441.501 157.107C440.99 157.324 440.523 157.648 440.127 158.061C439.732 158.474 439.415 158.967 439.196 159.512V159.512Z" stroke="white" stroke-width="5" stroke-miterlimit="10" stroke-linecap="round"/>
<path d="M448.449 146.227L470.046 156.411" stroke="white" stroke-width="5" stroke-miterlimit="10" stroke-linecap="round"/>
<path d="M365.047 179.372C320.75 180.855 285.95 220.93 287.322 268.883C288.695 316.836 325.714 354.507 370.011 353.024C414.307 351.54 449.106 311.463 447.733 263.51C446.36 215.557 409.332 177.886 365.047 179.372ZM368.046 298.121C362.159 298.319 356.351 296.622 351.355 293.245C346.359 289.869 342.4 284.965 339.979 279.152C337.557 273.34 336.783 266.881 337.752 260.593C338.722 254.304 341.393 248.468 345.426 243.822C349.46 239.176 354.676 235.93 360.414 234.493C366.152 233.056 372.155 233.494 377.664 235.75C383.172 238.007 387.939 241.981 391.361 247.17C394.783 252.359 396.706 258.53 396.889 264.903C397.13 273.449 394.226 281.749 388.815 287.977C383.404 294.206 375.929 297.852 368.035 298.114L368.046 298.121Z" fill="#423C52"/>
<path d="M401.637 264.742C401.848 272.134 400.029 279.427 396.411 285.7C392.793 291.973 387.538 296.943 381.31 299.983C375.082 303.022 368.162 303.994 361.424 302.776C354.686 301.558 348.433 298.204 343.456 293.139C338.479 288.074 335.001 281.525 333.462 274.32C331.923 267.115 332.392 259.578 334.81 252.661C337.228 245.745 341.486 239.76 347.046 235.463C352.606 231.167 359.218 228.752 366.046 228.523C375.202 228.217 384.096 231.861 390.77 238.654C397.445 245.446 401.354 254.83 401.637 264.742Z" stroke="white" stroke-width="5" stroke-linejoin="round"/>
<path d="M473.529 97.3726L459.447 68.8264L435.227 69.7253V97.3726C435.227 97.3726 446.817 113.588 473.529 97.3726Z" fill="#A0505A"/>
<path d="M459.688 74.2563L459.447 68.834L435.227 69.7328V97.3728C435.227 97.3728 437.81 100.985 443.343 103.095L456.763 84.297C458.81 81.4329 459.847 77.8732 459.688 74.2563V74.2563Z" fill="#423C52"/>
<path d="M462.377 64.0787C462.379 65.3527 462.019 66.5967 461.347 67.6423C460.674 68.6879 459.722 69.4846 458.617 69.9248L457.004 70.5679L457.128 73.0695C457.219 74.9345 456.826 76.7899 455.994 78.4258C455.162 80.0617 453.923 81.4127 452.418 82.3259L439.592 90.0403C438.955 90.4255 438.242 90.6405 437.513 90.6676C436.783 90.6946 436.058 90.5329 435.398 90.1959C434.738 89.8588 434.162 89.3562 433.717 88.7297C433.273 88.1032 432.972 87.3709 432.842 86.5936L431.924 81.0763L428.956 81.2492C428.728 81.2624 428.5 81.2269 428.286 81.1447C428.071 81.0626 427.873 80.9355 427.703 80.7706C427.534 80.6057 427.396 80.4062 427.298 80.1837C427.2 79.9611 427.143 79.7198 427.131 79.4735L426.292 62.527L438.949 56.5274C440.65 55.721 442.552 55.5519 444.352 56.0469C446.153 56.5419 447.75 57.6728 448.89 59.2605L449.601 60.2519L454.648 58.2399C455.517 57.8941 456.45 57.7808 457.369 57.9096C458.287 58.0383 459.163 58.4054 459.922 58.9795C460.681 59.5535 461.3 60.3177 461.728 61.2068C462.155 62.0959 462.378 63.0836 462.377 64.086V64.0787Z" fill="#A0505A"/>
<path d="M432.552 64.5126C432.552 64.5126 436.91 63.7819 440.328 65.0363" stroke="#423C52" stroke-width="5" stroke-miterlimit="10" stroke-linecap="round"/>
<path d="M436.433 72.3371C436.977 72.3055 437.373 71.3422 437.315 70.1856C437.258 69.0289 436.77 68.1169 436.225 68.1485C435.68 68.1802 435.285 69.1435 435.343 70.3001C435.4 71.4567 435.888 72.3687 436.433 72.3371Z" fill="#423C52"/>
<path d="M454.697 65.9984C454.53 65.5063 454.453 64.9832 454.473 64.4591C454.492 63.9351 454.606 63.4202 454.809 62.9441C455.013 62.4679 455.3 62.0397 455.656 61.684C456.012 61.3282 456.43 61.0519 456.884 60.8708" stroke="#423C52" stroke-width="5" stroke-miterlimit="10" stroke-linecap="round"/>
<path d="M456.23 57.8748C456.23 57.8748 454.94 42.1 445.204 42.6505C439.396 42.9793 439.675 48.253 439.675 48.253C439.675 48.253 438.141 40.597 430.949 43.011C428.956 43.6784 427.887 44.9378 427.313 46.1509C427.19 46.4201 427.016 46.6587 426.803 46.8513C426.59 47.044 426.343 47.1865 426.076 47.2699C425.809 47.3533 425.529 47.3757 425.254 47.3357C424.979 47.2957 424.715 47.1942 424.478 47.0375C422.745 45.8561 420.304 45.6369 416.512 47.5442C407.645 52.0067 414.991 67.8132 426.283 62.5249L437.468 57.222H437.484C439.288 56.4478 441.297 56.4449 443.103 57.2138C444.909 57.9826 446.377 59.4658 447.211 61.363L448.258 63.7404C448.38 64.0038 448.574 64.2208 448.813 64.3628C449.052 64.5048 449.325 64.5652 449.597 64.5359C449.868 64.5066 450.125 64.3891 450.333 64.1989C450.541 64.0086 450.692 63.7545 450.764 63.47C450.841 62.8075 450.73 58.7395 456.23 57.8748Z" fill="#423C52"/>
<path d="M427.826 265.074C425.351 269.604 414.352 289.072 407.125 290.894C398.664 293.028 382.823 284.897 365.468 272.973C362.937 271.234 360.381 269.42 357.799 267.531C360.542 263.863 364.55 259.542 369.302 255.286C376.876 248.514 383.928 244.164 387.904 243.35L390.998 246.585L392.55 248.212L394.371 247.674C397.446 246.77 400.695 246.826 403.741 247.837C406.788 248.848 409.508 250.772 411.587 253.386C412.467 254.494 413.222 255.712 413.837 257.013L416.496 264.321L427.32 264.155C427.42 264.152 427.52 264.178 427.609 264.23C427.697 264.282 427.771 264.359 427.823 264.453C427.874 264.547 427.902 264.654 427.902 264.763C427.903 264.872 427.877 264.979 427.826 265.074Z" fill="#A0505A"/>
<path d="M417.662 282.037C416.71 283.072 415.099 285.041 413.641 285.408C410.459 286.21 405.126 285.055 400.196 283.27" stroke="#423C52" stroke-width="5" stroke-miterlimit="10" stroke-linecap="round"/>
<path d="M422.936 274.403C421.984 275.438 420.373 277.406 418.915 277.774C415.734 278.575 410.176 277.908 405.246 276.123" stroke="#423C52" stroke-width="5" stroke-miterlimit="10" stroke-linecap="round"/>
<path d="M427.702 264.925C426.75 265.962 423.375 269.875 421.917 270.24C418.735 271.044 414.525 270.376 409.595 268.591" stroke="#423C52" stroke-width="5" stroke-miterlimit="10" stroke-linecap="round"/>
<path d="M416.487 263.673L406.479 258.57" stroke="#423C52" stroke-width="5" stroke-miterlimit="10" stroke-linecap="round"/>
<path d="M391.006 246.575C389.789 250.538 384.299 257.425 376.36 264.525C372.927 267.624 369.29 270.447 365.476 272.97C362.945 271.231 360.389 269.417 357.808 267.529C360.551 263.86 364.558 259.539 369.31 255.283C376.884 248.512 383.936 244.161 387.912 243.348L391.006 246.575Z" fill="#423C52"/>
<path d="M525.194 179.627H467.044V229.617H525.194V179.627Z" fill="#FF7500"/>
<path d="M512.598 179.14H468.027" stroke="white" stroke-width="5" stroke-miterlimit="10" stroke-linecap="round"/>
<path d="M474.804 204.576C474.804 190.664 471.429 178.412 467.802 178.412C463.934 178.412 460.8 190.664 460.8 204.576C460.8 218.487 463.934 229.765 467.802 229.765C471.67 229.765 474.804 218.485 474.804 204.576Z" fill="white"/>
<path d="M474.804 204.576C474.804 210.115 474.307 215.238 473.454 219.396H473.288H471.488C468.715 219.396 465.444 219.396 462.696 219.379H462.134C459.433 219.354 457.334 219.308 456.918 219.225C448.239 217.481 434.522 213.672 419.183 196.328C415.256 191.892 415.781 176.171 416.37 167.811C416.402 167.361 416.555 166.93 416.809 166.572C417.064 166.214 417.41 165.945 417.804 165.796C418.198 165.648 418.623 165.627 419.028 165.737C419.433 165.846 419.8 166.081 420.083 166.413C425.499 172.746 433.75 180.617 438.343 179.769C446.61 178.246 433.024 168.863 438.188 164.179C438.188 164.179 458.716 178.256 462.316 178.41H462.428C463.004 178.41 465.016 178.449 467.316 178.471H468.288C471.735 179.52 474.804 191.291 474.804 204.576Z" fill="#A0505A"/>
<path d="M432.344 200.827C427.119 197.553 422.81 193.168 416.912 186.501" stroke="#423C52" stroke-width="5" stroke-miterlimit="10" stroke-linecap="round"/>
<path d="M432.641 193.77C427.416 190.496 422.432 185.868 416.534 179.201" stroke="#423C52" stroke-width="5" stroke-miterlimit="10" stroke-linecap="round"/>
<path d="M432.938 186.714C427.713 183.44 422.729 178.812 416.829 172.145" stroke="#423C52" stroke-width="5" stroke-miterlimit="10" stroke-linecap="round"/>
<path d="M474.804 204.576C474.804 210.115 474.307 215.238 473.454 219.396H473.288H471.488C468.715 219.396 465.444 219.396 462.696 219.379H462.134C461.292 215.223 460.797 210.108 460.797 204.576C460.797 191.252 463.673 179.447 467.323 178.48H468.295C471.735 179.52 474.804 191.291 474.804 204.576Z" fill="#423C52"/>
</svg>
