<svg width="2023" height="551" viewBox="0 0 2023 551" fill="none" xmlns="http://www.w3.org/2000/svg">
<path d="M2022.3 406.436C2022.3 434.831 2016.83 462.362 2003.12 485.874C1838.1 485.874 1671.94 487.23 1520 489.584C1541.91 363.918 1655.6 404.473 1672.97 411.452C1672.92 409.787 1672.9 408.108 1672.9 406.436C1672.9 311.204 1751.11 234 1847.6 234C1851.23 234 1854.83 234.107 1858.41 234.322C1896.73 236.631 1931.72 251.132 1959.43 273.962C1997.86 305.582 2022.3 353.191 2022.3 406.436Z" fill="#B59B00"/>
<path d="M1820.61 320.524C1820.61 320.524 1813.11 461.87 1823.09 522.75" stroke="#41465A" stroke-width="6" stroke-miterlimit="10"/>
<path d="M1842.32 342.294C1842.32 342.294 1840.84 365.01 1819.27 371.049" stroke="#41465A" stroke-width="6" stroke-miterlimit="10"/>
<path d="M1775.93 381.057C1775.93 381.057 1781.64 414.853 1817.91 423.833" stroke="#41465A" stroke-width="6" stroke-miterlimit="10"/>
<path d="M1805.31 339.24C1805.31 339.24 1808.76 353.841 1819.17 356.195" stroke="#41465A" stroke-width="6" stroke-miterlimit="10"/>
<path d="M1842.68 347.922C1846.37 347.922 1849.36 344.722 1849.36 340.773C1849.36 336.825 1846.37 333.624 1842.68 333.624C1839 333.624 1836 336.825 1836 340.773C1836 344.722 1839 347.922 1842.68 347.922Z" fill="#FFDB00"/>
<path d="M1805.26 346.32C1808.51 346.32 1811.14 343.5 1811.14 340.022C1811.14 336.544 1808.51 333.725 1805.26 333.725C1802.01 333.725 1799.38 336.544 1799.38 340.022C1799.38 343.5 1802.01 346.32 1805.26 346.32Z" fill="#FFDB00"/>
<path d="M1820.42 305.853C1829.43 305.853 1836.73 298.039 1836.73 288.399C1836.73 278.76 1829.43 270.945 1820.42 270.945C1811.42 270.945 1804.11 278.76 1804.11 288.399C1804.11 298.039 1811.42 305.853 1820.42 305.853Z" fill="white"/>
<path d="M1820.91 327.623C1813.32 330.406 1804.43 328.847 1798.33 322.928C1796.05 320.796 1794.3 318.084 1793.25 315.041C1792.2 311.998 1791.88 308.722 1792.32 305.512C1799.74 302.742 1808.46 304.137 1814.57 309.797C1819.73 314.561 1821.85 321.256 1820.91 327.623Z" fill="#FFDB00"/>
<path d="M1819.49 327.623C1827.07 330.406 1835.96 328.847 1842.06 322.928C1844.35 320.796 1846.1 318.084 1847.15 315.041C1848.2 311.998 1848.52 308.722 1848.08 305.512C1840.66 302.742 1831.94 304.137 1825.82 309.797C1820.66 314.561 1818.54 321.256 1819.49 327.623Z" fill="#FFDB00"/>
<path d="M1819.49 327.623C1827.07 330.406 1835.96 328.847 1842.06 322.928C1844.35 320.796 1846.1 318.084 1847.15 315.041C1848.2 311.998 1848.52 308.722 1848.08 305.512C1840.66 302.742 1831.94 304.137 1825.82 309.797C1820.66 314.561 1818.54 321.256 1819.49 327.623Z" fill="#FFDB00"/>
<path d="M1775.32 367.843C1783.01 367.843 1789.25 361.168 1789.25 352.933C1789.25 344.698 1783.01 338.022 1775.32 338.022C1767.62 338.022 1761.38 344.698 1761.38 352.933C1761.38 361.168 1767.62 367.843 1775.32 367.843Z" fill="white"/>
<path d="M1776.88 386.622C1770.58 389.228 1763.04 388.225 1757.72 383.467C1755.73 381.751 1754.18 379.527 1753.2 377C1752.22 374.473 1751.85 371.724 1752.12 369.004C1758.29 366.417 1765.68 367.288 1770.99 371.844C1773.08 373.555 1774.72 375.814 1775.75 378.404C1776.78 380.993 1777.17 383.824 1776.88 386.622Z" fill="#FFDB00"/>
<path d="M1775.7 386.666C1782.18 388.755 1789.61 387.127 1794.56 381.927C1796.42 380.051 1797.82 377.705 1798.61 375.105C1799.4 372.504 1799.57 369.731 1799.1 367.042C1792.77 364.972 1785.47 366.449 1780.49 371.459C1778.53 373.339 1777.07 375.726 1776.23 378.39C1775.39 381.054 1775.21 383.905 1775.7 386.666V386.666Z" fill="#FFDB00"/>
<path d="M1925.26 465.826C1925.26 465.826 1926.27 506.148 1959.45 506.608H1986.57" stroke="#41465A" stroke-width="6" stroke-miterlimit="10" stroke-linecap="round"/>
<path d="M1924.67 453.225C1932.01 453.225 1937.96 446.86 1937.96 439.008C1937.96 431.157 1932.01 424.792 1924.67 424.792C1917.34 424.792 1911.39 431.157 1911.39 439.008C1911.39 446.86 1917.34 453.225 1924.67 453.225Z" fill="white"/>
<path d="M1926.17 471.127C1920.16 473.619 1912.98 472.66 1907.9 468.104C1906 466.468 1904.52 464.348 1903.58 461.939C1902.65 459.53 1902.3 456.909 1902.56 454.317C1908.46 451.85 1915.48 452.683 1920.56 457.024C1922.55 458.657 1924.12 460.814 1925.1 463.285C1926.08 465.756 1926.45 468.458 1926.17 471.127Z" fill="#FFDB00"/>
<path d="M1925.04 471.177C1931.21 473.158 1938.3 471.613 1943.03 466.653C1944.8 464.865 1946.13 462.63 1946.88 460.151C1947.64 457.673 1947.8 455.031 1947.35 452.468C1941.31 450.493 1934.38 451.9 1929.6 456.651C1927.74 458.445 1926.33 460.726 1925.53 463.271C1924.73 465.817 1924.56 468.54 1925.04 471.177V471.177Z" fill="#FFDB00"/>
<path d="M1859.31 550.388C1859.31 550.388 1883.45 549.448 1899.75 529.779C1906.96 521.078 1898.75 507.814 1888.49 511.657L1853.28 524.832C1853.28 524.832 1890.17 486.864 1895.68 410.493C1896.91 393.406 1877.51 384.117 1866.44 396.51C1847.85 417.333 1825.12 449.023 1813.58 488.921C1813.58 488.921 1812.78 457.63 1791.33 425.821C1782.59 412.834 1763.4 418.482 1762.06 434.421C1761.68 438.908 1761.47 443.811 1761.47 449.117C1761.47 449.117 1748.19 433.039 1731.65 416.305C1718.32 402.839 1697.01 417.283 1702.71 435.923C1708.02 453.257 1727.27 486.776 1736.65 500.462C1736.65 500.462 1700.44 485.892 1690.57 502.986C1676.95 526.567 1735.72 550.943 1735.72 550.943L1859.31 550.388Z" fill="#907B00"/>
<path d="M185.814 371.804L230.941 345.343C239.27 340.46 246.118 333.759 250.86 325.852C255.602 317.946 258.086 309.086 258.085 300.083V207.963C258.337 225.886 261.338 241.787 266.215 255.884C274.179 278.897 287.131 297.102 301.274 311.466C328.873 339.494 361.005 352.899 369.414 358.837C369.414 358.837 366.512 381.68 328.947 400.574C304.226 413.008 263.039 428.502 234.906 440.233L185.814 371.804Z" fill="#423C52"/>
<path d="M538.613 416.559L455.214 447.75C437.96 418.823 410.312 383.691 369.399 358.845C354.042 347.998 259.547 312.266 258.067 207.952C258.067 207.952 324.899 213.982 336.198 184.093C336.198 184.093 348.938 193.688 373.521 193.688C373.521 193.688 362.968 204.125 396.555 232.363C442.785 271.23 504.804 320.333 538.613 416.559Z" fill="#907B00"/>
<path fill-rule="evenodd" clip-rule="evenodd" d="M339.908 188.83C340.761 189.216 341.166 190.285 340.813 191.218C337.742 199.341 330.812 204.828 322.546 208.547C314.254 212.278 304.359 214.351 294.919 215.474C285.463 216.599 276.376 216.78 269.662 216.681C266.302 216.632 263.53 216.512 261.596 216.404C260.628 216.351 259.87 216.3 259.352 216.262C259.093 216.244 258.894 216.228 258.759 216.218C258.691 216.212 258.639 216.208 258.604 216.205L258.564 216.202L258.55 216.2C258.549 216.2 258.549 216.2 258.678 214.418L258.549 216.2C257.629 216.12 256.942 215.239 257.016 214.233C257.089 213.227 257.894 212.476 258.814 212.556L258.805 212.675C258.814 212.556 258.814 212.556 258.814 212.556L258.824 212.557L258.859 212.56C258.89 212.562 258.938 212.566 259.002 212.571C259.13 212.582 259.321 212.596 259.572 212.615C260.075 212.651 260.816 212.7 261.765 212.753C263.664 212.859 266.394 212.977 269.707 213.025C276.337 213.123 285.279 212.944 294.557 211.84C303.852 210.734 313.397 208.711 321.275 205.166C329.178 201.61 335.147 196.642 337.725 189.821C338.078 188.888 339.055 188.445 339.908 188.83Z" fill="#423C52"/>
<path fill-rule="evenodd" clip-rule="evenodd" d="M337.625 199.353C338.129 198.515 337.921 197.388 337.157 196.829C336.39 196.268 335.353 196.493 334.84 197.333L336.229 198.349C334.84 197.333 334.839 197.334 334.838 197.336L334.835 197.34L334.83 197.349L334.816 197.372C334.806 197.389 334.793 197.411 334.778 197.438C334.748 197.491 334.709 197.563 334.662 197.652C334.569 197.831 334.446 198.081 334.308 198.401C334.033 199.042 333.696 199.963 333.412 201.15C332.844 203.529 332.497 206.948 333.269 211.26C334.814 219.893 340.779 231.818 357.766 246.098L358.784 244.649L357.766 246.098C359.628 247.663 361.514 249.244 363.422 250.843C408.934 288.983 467.009 337.654 499.276 429.49C499.607 430.432 500.574 430.902 501.435 430.54C502.296 430.178 502.726 429.12 502.395 428.178C469.784 335.362 411.044 286.141 365.537 248.009C363.6 246.387 361.688 244.784 359.802 243.199C343.195 229.239 337.883 218.015 336.548 210.557C335.88 206.825 336.194 203.963 336.645 202.074C336.872 201.126 337.135 200.416 337.332 199.958C337.43 199.73 337.512 199.565 337.564 199.465C337.59 199.415 337.608 199.382 337.618 199.365L337.625 199.353Z" fill="#423C52"/>
<path fill-rule="evenodd" clip-rule="evenodd" d="M263.781 254.064H309.033L309.474 255.148L307.948 255.892C309.474 255.148 309.474 255.149 309.475 255.149L309.476 255.152L309.479 255.161L309.492 255.191C309.502 255.218 309.518 255.256 309.537 255.306C309.577 255.405 309.634 255.55 309.707 255.739C309.854 256.116 310.063 256.665 310.318 257.365C310.829 258.763 311.527 260.761 312.278 263.176C313.776 267.995 315.503 274.521 316.372 281.263C317.237 287.966 317.283 295.095 315.246 300.999C313.16 307.045 308.917 311.697 301.58 313.268L300.745 313.447L300.121 312.813C285.852 298.306 272.713 279.875 264.637 256.539L263.781 254.064ZM306.843 257.72H268.645C276.429 278.909 288.533 295.893 301.761 309.486C307.387 308.021 310.5 304.402 312.12 299.708C313.865 294.65 313.898 288.243 313.064 281.773C312.234 275.342 310.576 269.054 309.114 264.353C308.385 262.009 307.708 260.071 307.216 258.722C307.075 258.339 306.95 258.003 306.843 257.72Z" fill="#423C52"/>
<path d="M186.591 500.986L179.739 505.02C179.258 505.285 178.68 505.367 178.133 505.247C177.585 505.127 177.113 504.814 176.818 504.378L172.973 498.989C172.655 498.567 172.534 498.048 172.637 497.545C172.741 497.042 173.059 496.596 173.523 496.306C173.809 496.136 174.044 495.903 174.205 495.628C174.366 495.354 174.449 495.047 174.444 494.736C174.445 494.34 174.318 493.952 174.079 493.62L170.283 488.301C169.988 487.865 169.516 487.553 168.968 487.433C168.421 487.312 167.843 487.394 167.362 487.66C167.039 487.846 166.663 487.943 166.281 487.939C165.913 487.936 165.551 487.849 165.229 487.687C164.907 487.525 164.635 487.292 164.438 487.01L160.593 481.621C160.275 481.199 160.154 480.679 160.257 480.177C160.36 479.674 160.678 479.228 161.142 478.938C161.429 478.768 161.663 478.534 161.824 478.26C161.985 477.986 162.068 477.679 162.064 477.368C162.064 476.972 161.937 476.584 161.698 476.252L157.902 470.93C157.757 470.714 157.566 470.526 157.34 470.377C157.115 470.228 156.859 470.12 156.588 470.061C156.316 470.002 156.035 469.992 155.759 470.031C155.484 470.071 155.219 470.159 154.981 470.292C154.658 470.478 154.283 470.575 153.9 470.571C153.532 470.568 153.171 470.481 152.849 470.319C152.527 470.157 152.255 469.924 152.058 469.642L148.212 464.253C147.893 463.831 147.772 463.311 147.875 462.808C147.978 462.305 148.297 461.86 148.762 461.57C149.048 461.4 149.283 461.166 149.444 460.892C149.605 460.618 149.687 460.311 149.683 460C149.684 459.603 149.557 459.216 149.318 458.884L145.522 453.562C145.228 453.126 144.755 452.814 144.207 452.694C143.659 452.574 143.082 452.657 142.601 452.924C142.278 453.11 141.902 453.207 141.52 453.203C141.152 453.2 140.79 453.113 140.468 452.951C140.146 452.789 139.874 452.556 139.677 452.274L135.832 446.885C135.514 446.463 135.393 445.943 135.496 445.44C135.599 444.937 135.918 444.492 136.382 444.202C136.668 444.031 136.902 443.798 137.063 443.524C137.224 443.249 137.307 442.943 137.303 442.632C137.303 442.235 137.174 441.847 136.934 441.516L133.132 436.233C132.838 435.797 132.365 435.485 131.818 435.365C131.27 435.244 130.693 435.326 130.211 435.592C129.887 435.777 129.51 435.874 129.127 435.871C128.759 435.868 128.398 435.781 128.076 435.619C127.754 435.457 127.482 435.224 127.284 434.942L123.439 429.551C123.121 429.128 123.001 428.608 123.105 428.105C123.208 427.602 123.527 427.157 123.992 426.867C124.278 426.697 124.513 426.464 124.674 426.189C124.835 425.915 124.917 425.608 124.913 425.297C124.914 424.901 124.787 424.513 124.548 424.181L120.752 418.862C120.457 418.426 119.985 418.114 119.437 417.994C118.89 417.873 118.312 417.955 117.831 418.221C117.507 418.408 117.13 418.505 116.747 418.5C116.378 418.497 116.017 418.411 115.695 418.249C115.373 418.086 115.101 417.853 114.904 417.571L111.059 412.18C110.901 411.971 110.79 411.736 110.732 411.488C110.674 411.241 110.671 410.985 110.722 410.736C110.773 410.487 110.878 410.25 111.03 410.038C111.182 409.825 111.378 409.642 111.608 409.499L123.098 403.6L123.5 404.217C122.404 404.923 121.651 405.986 121.396 407.185C121.141 408.384 121.406 409.625 122.134 410.651L186.591 500.986Z" fill="#423C52"/>
<path d="M122.134 410.634C121.732 410.068 121.469 409.43 121.36 408.764C121.251 408.097 121.301 407.417 121.504 406.769C121.707 406.121 122.061 405.52 122.54 405.006C123.019 404.492 123.614 404.076 124.284 403.787L143.249 395.671C156.416 390.042 171.751 381.853 190.126 369.667L234.353 439.873C233.076 440.431 231.795 440.989 230.49 441.516C168.679 466.39 202.341 490.159 186.177 500.437L122.134 410.634Z" fill="white"/>
<path fill-rule="evenodd" clip-rule="evenodd" d="M190.608 367.21L236.917 440.722L234.973 441.571C233.697 442.128 232.397 442.694 231.068 443.231L231.066 443.232C215.717 449.408 206.461 455.454 200.9 461.11C195.392 466.711 193.483 471.952 192.87 476.705C192.559 479.122 192.578 481.46 192.673 483.753C192.698 484.365 192.73 484.984 192.761 485.605C192.845 487.248 192.93 488.9 192.898 490.433C192.854 492.59 192.585 494.756 191.689 496.774C190.778 498.824 189.285 500.575 187.016 502.017L185.756 502.819L120.816 411.759L120.813 411.754C120.256 410.968 119.874 410.059 119.715 409.084C119.556 408.108 119.629 407.114 119.924 406.175C120.218 405.24 120.719 404.4 121.37 403.701C122.02 403.003 122.808 402.459 123.67 402.087L123.675 402.085L142.64 393.968C155.704 388.384 170.953 380.244 189.26 368.104L190.608 367.21ZM143.857 397.373C143.857 397.373 143.857 397.373 143.857 397.373L124.897 405.487C124.896 405.488 124.896 405.488 124.895 405.488C124.418 405.694 124.018 405.981 123.71 406.311C123.402 406.641 123.197 407.003 123.084 407.363C122.972 407.721 122.947 408.086 123.005 408.443C123.063 408.8 123.208 409.166 123.453 409.513C123.453 409.513 123.454 409.514 123.454 409.515L186.542 497.977C187.586 497.095 188.248 496.156 188.684 495.175C189.282 493.829 189.519 492.258 189.558 490.351C189.586 488.97 189.513 487.539 189.432 485.956C189.398 485.305 189.364 484.628 189.334 483.919C189.236 481.548 189.207 478.946 189.562 476.195C190.281 470.611 192.555 464.604 198.625 458.432C204.642 452.313 214.357 446.06 229.913 439.8L230.49 441.516L229.911 439.801C229.912 439.801 229.912 439.801 229.913 439.8C230.541 439.547 231.164 439.286 231.786 439.02L232.978 440.911L234.353 439.873L233.734 438.175C233.082 438.46 232.434 438.743 231.786 439.02L189.643 372.122C190.091 371.827 190.541 371.53 190.992 371.23L190.126 369.667L188.751 370.705L189.643 372.122C171.795 383.863 156.802 391.839 143.857 397.373Z" fill="#423C52"/>
<path fill-rule="evenodd" clip-rule="evenodd" d="M183.604 372.036C184.364 371.463 185.404 371.673 185.928 372.504L229.371 441.475C229.895 442.306 229.704 443.444 228.944 444.017C228.184 444.59 227.144 444.38 226.62 443.549L183.176 374.579C182.653 373.747 182.844 372.609 183.604 372.036Z" fill="#423C52"/>
<path d="M598.337 467.701L601.82 474.395C601.933 474.627 601.994 474.877 602 475.13C602.006 475.383 601.956 475.635 601.855 475.872C601.754 476.108 601.603 476.324 601.409 476.507C601.216 476.69 600.985 476.836 600.73 476.938L594.335 479.68C593.832 479.91 593.249 479.949 592.714 479.788C592.179 479.628 591.736 479.281 591.482 478.824C591.311 478.504 591.042 478.235 590.708 478.049C590.374 477.863 589.988 477.767 589.596 477.772C589.261 477.773 588.93 477.841 588.626 477.97L582.314 480.676C581.799 480.882 581.395 481.266 581.19 481.743C580.986 482.22 580.998 482.751 581.224 483.22C581.35 483.459 581.415 483.721 581.414 483.987C581.407 484.362 581.283 484.729 581.057 485.043C580.83 485.357 580.51 485.607 580.134 485.763L573.739 488.502C573.236 488.732 572.653 488.772 572.118 488.612C571.583 488.452 571.14 488.105 570.886 487.649C570.715 487.328 570.446 487.058 570.111 486.871C569.776 486.684 569.39 486.588 568.997 486.594C568.663 486.595 568.332 486.663 568.03 486.792L561.715 489.498C561.2 489.705 560.796 490.089 560.592 490.566C560.388 491.042 560.4 491.573 560.625 492.042C560.75 492.281 560.815 492.543 560.815 492.809C560.809 493.184 560.686 493.551 560.46 493.865C560.233 494.179 559.914 494.429 559.538 494.585L553.14 497.327C552.637 497.557 552.053 497.596 551.518 497.435C550.983 497.275 550.54 496.928 550.287 496.471C550.115 496.151 549.846 495.882 549.512 495.696C549.178 495.51 548.793 495.414 548.401 495.419C548.066 495.42 547.736 495.488 547.434 495.617L541.119 498.323C540.603 498.529 540.199 498.913 539.995 499.39C539.79 499.867 539.803 500.398 540.029 500.867C540.154 501.106 540.219 501.368 540.219 501.634C540.212 502.009 540.089 502.375 539.862 502.689C539.636 503.004 539.317 503.254 538.941 503.41L532.544 506.149C532.041 506.379 531.458 506.418 530.923 506.258C530.388 506.098 529.945 505.752 529.691 505.296C529.519 504.975 529.251 504.706 528.917 504.519C528.583 504.332 528.197 504.236 527.805 504.241C527.47 504.242 527.14 504.31 526.837 504.439L520.523 507.145C520.007 507.351 519.603 507.735 519.399 508.212C519.195 508.689 519.208 509.22 519.435 509.689C519.559 509.928 519.623 510.189 519.623 510.453C519.616 510.829 519.493 511.195 519.267 511.51C519.041 511.825 518.721 512.076 518.345 512.232L511.948 514.971C511.444 515.201 510.862 515.24 510.327 515.08C509.792 514.92 509.349 514.574 509.094 514.118C508.923 513.798 508.655 513.529 508.322 513.342C507.988 513.155 507.603 513.059 507.212 513.064C506.876 513.064 506.544 513.132 506.241 513.264L499.926 515.967C499.411 516.174 499.007 516.558 498.803 517.035C498.599 517.512 498.612 518.043 498.839 518.511C498.964 518.751 499.028 519.013 499.027 519.278C499.021 519.653 498.898 520.02 498.671 520.334C498.445 520.649 498.125 520.899 497.749 521.054L491.354 523.793C490.851 524.024 490.267 524.063 489.732 523.903C489.196 523.743 488.753 523.397 488.498 522.94L483.556 511.82L484.281 511.541C484.906 512.621 485.966 513.442 487.24 513.831C488.514 514.22 489.904 514.148 491.121 513.63L598.337 467.701Z" fill="#423C52"/>
<path d="M491.121 513.63C490.449 513.915 489.718 514.067 488.977 514.076C488.235 514.084 487.5 513.95 486.821 513.68C486.141 513.411 485.532 513.013 485.035 512.513C484.538 512.013 484.164 511.423 483.937 510.782C481.827 504.732 479.803 498.917 477.613 492.627C473.231 480.026 466.345 465.129 455.5 446.96L538.026 416.559C538.456 417.78 538.905 419.01 539.304 420.254C558.183 479.209 588.62 452.092 597.659 468.013L491.121 513.63Z" fill="white"/>
<path fill-rule="evenodd" clip-rule="evenodd" d="M539.01 414.267L539.585 415.902C539.677 416.163 539.771 416.428 539.866 416.696C540.206 417.653 540.56 418.65 540.88 419.649L540.881 419.65C545.544 434.213 550.87 443.296 556.279 449.037C561.662 454.752 567.216 457.251 572.519 458.483C575.188 459.104 577.802 459.405 580.334 459.628C581.027 459.689 581.72 459.744 582.409 459.799C584.2 459.943 585.961 460.083 587.594 460.312C592.154 460.949 596.408 462.346 599.078 467.049L600.137 468.915L491.73 515.332L491.726 515.334C490.861 515.701 489.931 515.893 488.995 515.904C488.058 515.915 487.124 515.745 486.251 515.399C485.379 515.053 484.576 514.534 483.905 513.859C483.233 513.184 482.704 512.363 482.379 511.441L482.376 511.434C480.575 506.269 478.836 501.275 477.004 496.012C476.69 495.109 476.373 494.199 476.052 493.278C471.721 480.824 464.895 466.044 454.101 447.96L452.92 445.982L539.01 414.267ZM479.175 491.977C474.902 479.692 468.297 465.304 458.073 447.941ZM458.073 447.941L537.045 418.849C537.282 419.522 537.511 420.187 537.727 420.86C542.503 435.773 548.061 445.408 553.952 451.661C559.868 457.941 566.027 460.712 571.824 462.059C574.704 462.729 577.486 463.045 580.067 463.272C580.821 463.339 581.551 463.397 582.259 463.453C584.012 463.593 585.633 463.723 587.171 463.938C590.565 464.412 593.117 465.255 594.95 467.21L490.516 511.926C490.516 511.926 490.515 511.926 490.515 511.926C490.036 512.129 489.505 512.242 488.959 512.248C488.412 512.254 487.876 512.155 487.39 511.962C486.903 511.769 486.489 511.492 486.165 511.167C485.844 510.844 485.624 510.485 485.497 510.126C483.695 504.961 481.957 499.967 480.124 494.702C479.81 493.802 479.494 492.894 479.175 491.977" fill="#423C52"/>
<path fill-rule="evenodd" clip-rule="evenodd" d="M541.649 422.039C541.943 422.996 541.473 424.032 540.599 424.355L459.522 454.229C458.648 454.551 457.7 454.037 457.405 453.08C457.111 452.124 457.581 451.087 458.456 450.765L539.532 420.89C540.407 420.568 541.354 421.082 541.649 422.039Z" fill="#423C52"/>
<path d="M383.997 189.672C379.834 189.672 375.712 188.917 371.875 187.451C368.037 185.986 364.56 183.839 361.648 181.137C358.735 178.436 356.446 175.233 354.915 171.718C353.383 168.202 352.639 164.444 352.728 160.665L354.798 78.0329L398.349 77.0902L414.793 156.255C418.217 173.668 403.478 189.672 383.997 189.672Z" fill="#423C52"/>
<path d="M354.798 78.0162L354.352 56.9329C354.251 51.5108 358.652 46.3341 364.555 45.6006L396.743 42.3707L398.34 77.0902L354.798 78.0162Z" fill="#EB7500"/>
<path d="M382.378 54.59C490.513 51.0143 523.723 11.5728 554.531 12.298C573.834 12.7526 575.217 87.8312 548.64 87.2064C523.219 86.6095 499.321 59.6802 410.502 55.8395L382.378 54.59Z" fill="#FFDB00"/>
<path fill-rule="evenodd" clip-rule="evenodd" d="M414.206 54.185C456.695 56.3649 484.037 63.8684 503.868 71.003C508.957 72.834 513.545 74.6383 517.752 76.3146C518.438 76.5879 519.113 76.8576 519.779 77.1233C523.202 78.4905 526.362 79.7523 529.358 80.8623C536.515 83.5139 542.581 85.2358 548.676 85.3789C554.441 85.5144 558.86 81.6047 562.005 74.9864C565.157 68.3522 566.844 59.3074 567.121 50.0969C567.397 40.894 566.26 31.7364 563.927 24.9234C561.534 17.936 558.201 14.2128 554.495 14.1255C547.115 13.9518 539.504 16.1814 530.415 19.8143C526.31 21.455 521.942 23.3655 517.177 25.4493C516.674 25.6695 516.166 25.8916 515.654 26.1155C510.301 28.4548 504.467 30.9844 498.023 33.549C477.629 41.6659 451.179 50.1119 414.206 54.185ZM529.268 16.3804C538.45 12.7102 546.543 10.2816 554.567 10.4705C560.514 10.6105 564.591 16.4426 567.056 23.6408C569.581 31.0134 570.747 40.6716 570.46 50.2171C570.174 59.7549 568.43 69.3911 564.97 76.6726C561.502 83.97 556.128 89.2108 548.605 89.0339C541.99 88.8786 535.535 87.0105 528.286 84.325C525.25 83.2 522.046 81.9206 518.623 80.5535C517.96 80.2887 517.289 80.0206 516.609 79.7497C512.41 78.0768 507.862 76.2884 502.824 74.4759C482.706 67.2379 454.68 59.5792 410.436 57.666L382.31 56.4164L382.328 52.7629C436.193 50.9818 471.353 40.2735 496.881 30.1134C503.272 27.5696 509.065 25.058 514.414 22.7204C514.928 22.4961 515.437 22.2732 515.943 22.0521C520.697 19.9728 525.113 18.0412 529.268 16.3804Z" fill="#423C52"/>
<path fill-rule="evenodd" clip-rule="evenodd" d="M558.751 80.9256L559.467 15.9159L562.808 15.9599L562.093 80.9696L558.751 80.9256Z" fill="#423C52"/>
<path fill-rule="evenodd" clip-rule="evenodd" d="M550.345 86.8301L551.168 12.2759L554.51 12.32L553.687 86.8742L550.345 86.8301Z" fill="#423C52"/>
<path fill-rule="evenodd" clip-rule="evenodd" d="M542.007 86.7464L542.817 13.3274L546.159 13.3716L545.348 86.7906L542.007 86.7464Z" fill="#423C52"/>
<path fill-rule="evenodd" clip-rule="evenodd" d="M533.689 84.8025L534.451 15.7234L537.792 15.7675L537.031 84.8466L533.689 84.8025Z" fill="#423C52"/>
<path fill-rule="evenodd" clip-rule="evenodd" d="M525.382 81.9045L526.076 18.9727L529.417 19.0168L528.723 81.9486L525.382 81.9045Z" fill="#423C52"/>
<path fill-rule="evenodd" clip-rule="evenodd" d="M517.077 78.6328L517.697 22.5038L521.039 22.548L520.418 78.677L517.077 78.6328Z" fill="#423C52"/>
<path fill-rule="evenodd" clip-rule="evenodd" d="M508.775 75.364L509.313 26.4645L512.654 26.5084L512.116 75.408L508.775 75.364Z" fill="#423C52"/>
<path fill-rule="evenodd" clip-rule="evenodd" d="M500.467 72.2846L500.937 29.8308L504.278 29.8751L503.808 72.3289L500.467 72.2846Z" fill="#423C52"/>
<path fill-rule="evenodd" clip-rule="evenodd" d="M492.159 69.4816L492.562 33.0747L495.903 33.1189L495.501 69.5258L492.159 69.4816Z" fill="#423C52"/>
<path fill-rule="evenodd" clip-rule="evenodd" d="M483.848 66.9798L484.186 36.1847L487.527 36.2286L487.19 67.0237L483.848 66.9798Z" fill="#423C52"/>
<path fill-rule="evenodd" clip-rule="evenodd" d="M475.531 64.7763L475.814 39.0714L479.155 39.1154L478.872 64.8203L475.531 64.7763Z" fill="#423C52"/>
<path fill-rule="evenodd" clip-rule="evenodd" d="M467.214 62.8603L467.447 41.5957L470.789 41.6396L470.555 62.9042L467.214 62.8603Z" fill="#423C52"/>
<path fill-rule="evenodd" clip-rule="evenodd" d="M458.891 61.2062L459.081 43.8939L462.423 43.9379L462.232 61.2502L458.891 61.2062Z" fill="#423C52"/>
<path fill-rule="evenodd" clip-rule="evenodd" d="M450.568 59.8003L450.721 45.9354L454.062 45.9797L453.909 59.8446L450.568 59.8003Z" fill="#423C52"/>
<path fill-rule="evenodd" clip-rule="evenodd" d="M442.241 58.6179L442.361 47.7318L445.702 47.7758L445.582 58.6619L442.241 58.6179Z" fill="#423C52"/>
<path fill-rule="evenodd" clip-rule="evenodd" d="M433.912 57.6443L434.004 49.2936L437.345 49.3377L437.253 57.6885L433.912 57.6443Z" fill="#423C52"/>
<path fill-rule="evenodd" clip-rule="evenodd" d="M425.579 56.8628L425.65 50.6346L428.991 50.68L428.921 56.9081L425.579 56.8628Z" fill="#423C52"/>
<path fill-rule="evenodd" clip-rule="evenodd" d="M417.247 56.2612L417.296 51.7678L420.637 51.8116L420.588 56.3049L417.247 56.2612Z" fill="#423C52"/>
<path fill-rule="evenodd" clip-rule="evenodd" d="M408.911 55.8158L408.948 52.7031L412.29 52.7505L412.253 55.8632L408.911 55.8158Z" fill="#423C52"/>
<path fill-rule="evenodd" clip-rule="evenodd" d="M563.249 20.9369L527.736 20.6162L527.763 16.9604L563.277 17.2812L563.249 20.9369Z" fill="#423C52"/>
<path fill-rule="evenodd" clip-rule="evenodd" d="M566.238 28.5402L510.972 28.0382L511 24.3824L566.265 24.8845L566.238 28.5402Z" fill="#423C52"/>
<path fill-rule="evenodd" clip-rule="evenodd" d="M567.859 36.1268L493.979 35.4574L494.006 31.8016L567.887 32.471L567.859 36.1268Z" fill="#423C52"/>
<path fill-rule="evenodd" clip-rule="evenodd" d="M568.658 43.7077L471.251 42.8236L471.279 39.1678L568.686 40.052L568.658 43.7077Z" fill="#423C52"/>
<path fill-rule="evenodd" clip-rule="evenodd" d="M568.799 51.2831L441.561 50.1284L441.588 46.4727L568.827 47.6274L568.799 51.2831Z" fill="#423C52"/>
<path fill-rule="evenodd" clip-rule="evenodd" d="M568.311 58.8528L402.202 57.3438L402.23 53.6881L568.338 55.197L568.311 58.8528Z" fill="#423C52"/>
<path fill-rule="evenodd" clip-rule="evenodd" d="M567.119 66.4142L472.695 65.5579L472.722 61.9022L567.147 62.7585L567.119 66.4142Z" fill="#423C52"/>
<path fill-rule="evenodd" clip-rule="evenodd" d="M565.006 73.97L499.968 73.3787L499.996 69.723L565.034 70.3143L565.006 73.97Z" fill="#423C52"/>
<path fill-rule="evenodd" clip-rule="evenodd" d="M561.311 81.5091L520.374 81.1382L520.401 77.4824L561.339 77.8534L561.311 81.5091Z" fill="#423C52"/>
<path fill-rule="evenodd" clip-rule="evenodd" d="M167.774 50.818C167.774 50.8176 167.773 50.8174 168.477 49.1595C169.18 47.5016 169.18 47.5015 169.18 47.5016L169.188 47.5052L169.214 47.5185C169.238 47.5305 169.274 47.5489 169.323 47.5734C169.421 47.6223 169.569 47.6956 169.765 47.7915C170.157 47.9832 170.74 48.265 171.5 48.6221C173.02 49.3363 175.248 50.3513 178.064 51.5483C183.697 53.9428 191.678 57.0624 201.061 59.9591C219.864 65.764 244.134 70.622 266.384 67.0921L266.863 70.7101C243.931 74.3484 219.128 69.3356 200.153 63.4776C190.647 60.5428 182.563 57.3831 176.853 54.956C173.998 53.7421 171.734 52.7108 170.182 51.9814C169.405 51.6167 168.806 51.3274 168.4 51.1284C168.197 51.0289 168.042 50.952 167.937 50.8995C167.884 50.8733 167.844 50.8532 167.817 50.8394L167.785 50.8235L167.774 50.818Z" fill="#423C52"/>
<path fill-rule="evenodd" clip-rule="evenodd" d="M132.498 129.984C132.498 129.983 132.499 129.983 131.222 128.804C129.945 127.625 129.945 127.624 129.946 127.623L129.954 127.613L129.974 127.588C129.991 127.566 130.015 127.536 130.046 127.496C130.109 127.417 130.2 127.302 130.321 127.154C130.563 126.858 130.92 126.427 131.394 125.879C132.341 124.781 133.753 123.211 135.63 121.295C139.384 117.463 145 112.246 152.482 106.666C167.446 95.5062 189.882 82.889 219.804 77.0063L220.395 80.6046C191.015 86.3806 169.013 98.7626 154.364 109.687C147.039 115.15 141.555 120.247 137.91 123.968C136.087 125.828 134.725 127.344 133.823 128.389C133.372 128.911 133.036 129.316 132.816 129.587C132.705 129.722 132.624 129.824 132.571 129.891C132.544 129.924 132.525 129.949 132.513 129.964L132.5 129.98L132.498 129.984Z" fill="#423C52"/>
<path fill-rule="evenodd" clip-rule="evenodd" d="M67.0935 100.733C67.0927 100.733 67.0919 100.733 67.6856 99.0241C68.2792 97.3154 68.2787 97.3152 68.2783 97.3151L68.2796 97.3156L68.2906 97.3201C68.3015 97.3246 68.3194 97.3318 68.3444 97.3418C68.3943 97.3618 68.4722 97.3925 68.5776 97.433C68.7885 97.5139 69.1095 97.6336 69.5368 97.7834C70.3916 98.0829 71.6717 98.5026 73.3474 98.9727C76.6989 99.9128 81.6314 101.054 87.9068 101.837C100.457 103.403 118.376 103.54 139.769 97.7818L140.568 101.332C118.736 107.208 100.413 107.078 87.528 105.469C81.0859 104.665 76.0024 103.491 72.5175 102.514C70.7749 102.025 69.4316 101.585 68.5174 101.265C68.0604 101.105 67.7106 100.974 67.4717 100.883C67.3523 100.837 67.2607 100.801 67.1972 100.775C67.1655 100.763 67.1408 100.753 67.1232 100.746L67.1022 100.737L67.0957 100.734L67.0935 100.733Z" fill="#423C52"/>
<path fill-rule="evenodd" clip-rule="evenodd" d="M382.055 52.7657C382.167 52.7645 382.268 52.7633 382.36 52.7622L382.397 56.4178C382.304 56.419 382.2 56.4201 382.085 56.4214C370.959 56.5454 256.669 57.819 25.6476 137.576L24.642 134.089C256.095 54.1838 370.707 52.8935 382.055 52.7657Z" fill="#423C52"/>
<path d="M493.268 70.1591C476.554 64.8597 454.938 59.8671 425.205 57.5605L424.249 57.3736C424.249 57.3736 426.636 52.3782 429.624 49.4719C446.954 46.8349 463.975 42.7357 480.467 37.2275L493.268 70.1591Z" fill="#423C52"/>
<path d="M148.175 34.2738C148.175 34.2738 164.653 32.7258 175.639 53.1424C175.639 53.1424 156.459 53.4325 148.175 34.2738Z" fill="#B59B00"/>
<path d="M0 149.037C0 149.037 4.12477 130.469 30.1756 133.356C30.1756 133.356 23.732 153.89 0 149.037Z" fill="#B59B00"/>
<path d="M109.901 137.98C109.901 137.98 112.524 119.19 138.74 120.347C138.74 120.347 133.955 141.252 109.901 137.98Z" fill="#B59B00"/>
<path d="M143.313 141.606C143.313 141.606 133.808 129.674 149.364 117.678C149.364 117.678 158.882 131.852 143.313 141.606Z" fill="#423C52"/>
<path d="M153.292 141.843C153.292 141.843 139.603 133.95 149.177 117.578C149.177 117.583 163.79 127.554 153.292 141.843Z" fill="#B59B00"/>
<path d="M191.192 46.0691C191.192 46.0691 207.022 44.9535 214.454 64.3354C214.454 64.3354 196.257 64.2015 191.192 46.0691Z" fill="#423C52"/>
<path d="M198.225 37.1633C198.225 37.1633 216.002 41.7236 214.482 64.8764C214.482 64.8764 194.74 58.149 198.225 37.1633Z" fill="#B59B00"/>
<path d="M163.394 64.207C163.394 64.207 171.358 53.1536 190.728 58.0012C190.728 58.0012 180.919 70.6556 163.394 64.207Z" fill="#423C52"/>
<path d="M58.1245 141.294C58.1245 141.294 59.2548 127.677 80.5451 121.46C80.5451 121.46 78.5825 137.422 58.1245 141.294Z" fill="#423C52"/>
<path d="M35.2003 114.939C35.2003 114.939 48.195 108.069 65.9134 120.478C65.9042 120.478 50.3081 128.054 35.2003 114.939Z" fill="#B59B00"/>
<path d="M55.7596 100.84C55.7596 100.84 67.3784 92.1711 87.044 101.847C87.044 101.847 72.9836 111.592 55.7596 100.84Z" fill="#423C52"/>
<path d="M58.3181 81.0563C58.3181 81.0563 77.3602 79.1039 87.0932 102.14C87.0932 102.14 65.1517 102.689 58.3181 81.0563Z" fill="#B59B00"/>
<path d="M367.206 54.9833L368.127 48.2168C368.434 46.9979 370.36 45.7065 372.209 45.4806L400.594 42.1336C404.725 41.6483 407.317 43.2744 406.737 45.9855L404.639 57.2397C404.123 60.0289 400.953 62.2825 397.268 62.5865L362.676 65.2948C360.642 65.4649 362.918 56.562 363.216 55.2008L367.206 54.9833Z" fill="#EB7500"/>
<path fill-rule="evenodd" clip-rule="evenodd" d="M406.617 41.3852C407.926 42.2278 408.768 43.682 408.581 45.5049C408.314 48.1531 407.81 51.9946 406.915 55.3931C406.468 57.0889 405.904 58.7529 405.182 60.1243C404.48 61.4574 403.499 62.7628 402.112 63.3485C402.112 63.3488 402.111 63.3491 402.11 63.3494M359.381 62.9797C359.256 63.6295 359.287 64.3151 359.535 64.9661C359.793 65.6433 360.237 66.1525 360.738 66.508C361.7 67.1892 362.954 67.3764 364.194 67.2829C371.338 66.7419 380.051 66.0652 387.309 65.3843C390.937 65.044 394.215 64.7013 396.757 64.3725C398.027 64.2083 399.129 64.0456 400.006 63.886C400.834 63.7355 401.601 63.5646 402.11 63.3494M359.381 62.9797L360.122 57.2551L360.132 57.2037C360.35 56.0106 360.983 54.9853 361.847 54.2515C362.708 53.5206 363.77 53.0972 364.862 52.9996L364.889 52.9972L367.125 52.8785C368.047 52.8296 368.83 53.6074 368.875 54.6158C368.919 55.6241 368.208 56.4812 367.287 56.5301L365.11 56.6456C364.621 56.6941 364.198 56.883 363.896 57.1392C363.609 57.3832 363.467 57.6544 363.415 57.885L362.688 63.5082C362.892 63.5915 363.298 63.6859 363.965 63.6357C371.109 63.0946 379.796 62.4199 387.024 61.7418C390.639 61.4026 393.875 61.0639 396.365 60.7419C397.611 60.5808 398.655 60.4259 399.458 60.2797C400.311 60.1245 400.759 60.0016 400.906 59.939L400.908 59.9381C401.244 59.7968 401.734 59.3499 402.287 58.2996C402.82 57.287 403.294 55.9359 403.704 54.3809C404.521 51.2787 405 47.6769 405.26 45.1011L405.261 45.0979C405.279 44.9188 405.272 44.7614 404.922 44.536C404.479 44.2507 403.611 44 402.275 44.0762C401.354 44.1287 400.568 43.354 400.52 42.3458C400.472 41.3376 401.18 40.4778 402.101 40.4253C403.799 40.3285 405.401 40.6022 406.617 41.3852" fill="#423C52"/>
<path fill-rule="evenodd" clip-rule="evenodd" d="M403.848 42.0703C403.939 43.0749 403.268 43.97 402.35 44.0697L365.156 48.1056C364.238 48.2052 363.42 47.4716 363.329 46.467C363.238 45.4624 363.908 44.5672 364.827 44.4676L402.02 40.4317C402.938 40.332 403.757 41.0656 403.848 42.0703Z" fill="#423C52"/>
<path fill-rule="evenodd" clip-rule="evenodd" d="M397.809 42.4205C399.041 43.2777 399.745 44.6014 399.86 46.1126L399.86 46.1135C400.093 49.1911 399.635 53.1007 398.479 56.5674C397.342 59.9762 395.385 63.3705 392.339 64.8134C391.492 65.2145 390.508 64.7886 390.142 63.8622C389.775 62.9357 390.164 61.8596 391.011 61.4585C392.805 60.6086 394.321 58.3675 395.34 55.3138C396.339 52.3184 396.721 48.9389 396.53 46.416M397.809 42.4205C396.632 41.6015 395.1 41.2904 393.371 41.3904ZM396.016 45.5054C395.62 45.2303 394.856 44.9655 393.548 45.0411C392.626 45.0945 391.84 44.3204 391.791 43.3123C391.742 42.3042 392.45 41.4437 393.371 41.3904M396.016 45.5054C396.356 45.742 396.501 46.0302 396.53 46.4151Z" fill="#423C52"/>
<path fill-rule="evenodd" clip-rule="evenodd" d="M388.737 43.3406C390.005 44.1925 390.763 45.5702 390.763 47.221V47.2312H390.763C390.746 50.4797 390.025 54.5338 388.832 57.9548C388.234 59.6698 387.492 61.2981 386.611 62.6112C385.749 63.8949 384.629 65.064 383.22 65.532C382.337 65.8254 381.404 65.2801 381.136 64.3141C380.868 63.3482 381.366 62.3273 382.249 62.0339C382.666 61.8954 383.249 61.4429 383.917 60.4475C384.566 59.4815 385.179 58.1732 385.71 56.6513C386.774 53.6009 387.406 49.9837 387.421 47.2168C387.42 46.9171 387.328 46.6838 386.989 46.4559C386.574 46.1775 385.767 45.9197 384.443 45.9951C383.521 46.0475 382.735 45.2728 382.687 44.2646C382.64 43.2564 383.348 42.3966 384.269 42.3442C385.983 42.2466 387.543 42.5382 388.737 43.3406Z" fill="#423C52"/>
<path fill-rule="evenodd" clip-rule="evenodd" d="M378.904 48.5425C378.903 46.8914 378.122 45.4749 376.816 44.6035C375.563 43.768 373.91 43.4733 372.05 43.6604C371.131 43.7527 370.455 44.6426 370.539 45.6479C370.624 46.6532 371.437 47.3932 372.356 47.3009C373.769 47.1588 374.632 47.4289 375.076 47.7251C375.465 47.9843 375.563 48.264 375.563 48.5487V48.5543L375.563 48.5599C375.579 51.3719 375.113 54.9019 374.241 57.8684C373.806 59.3503 373.289 60.6231 372.724 61.5753C372.143 62.5535 371.615 63.0215 371.221 63.1878C370.36 63.5511 369.931 64.6092 370.263 65.5511C370.595 66.493 371.563 66.9619 372.423 66.5986C373.751 66.0383 374.764 64.8506 375.526 63.5662C376.304 62.2559 376.931 60.6593 377.422 58.9874C378.404 55.648 378.922 51.7347 378.904 48.5425Z" fill="#423C52"/>
<path fill-rule="evenodd" clip-rule="evenodd" d="M367.51 52.907C368.417 53.0909 369.017 54.0446 368.849 55.0373L368.118 59.3549C367.95 60.3475 367.078 61.0032 366.171 60.8193C365.263 60.6355 364.664 59.6817 364.832 58.6891L365.563 54.3714C365.731 53.3788 366.603 52.7231 367.51 52.907Z" fill="#423C52"/>
<path d="M470.353 69.3056L423.257 164.349C418.98 173.085 412.006 180.507 403.178 185.717C394.35 190.926 384.048 193.699 373.521 193.699C348.95 193.699 336.198 184.105 336.198 184.105C324.899 213.993 258.067 207.963 258.067 207.963V106.017C258.066 100.055 259.359 94.1523 261.871 88.6447C264.383 83.1372 268.065 78.1329 272.706 73.9176C277.348 69.7024 282.859 66.3587 288.923 64.0776C294.988 61.7965 301.488 60.6226 308.052 60.623H309.349C338.056 60.623 361.122 81.5723 361.122 107.414V117.076L415.447 59.34L470.353 69.3056Z" fill="#FE552F"/>
<path d="M373.521 193.699C333.759 193.699 297.404 158.773 290.73 137.079C290.73 137.079 298.66 203.154 373.521 207.963V193.699Z" fill="#423C52"/>
<path fill-rule="evenodd" clip-rule="evenodd" d="M365.337 111.427C366.018 112.11 366.063 113.266 365.44 114.01L354.798 126.706C354.174 127.45 353.117 127.5 352.437 126.818C351.757 126.136 351.711 124.979 352.335 124.235L362.977 111.539C363.6 110.795 364.657 110.745 365.337 111.427Z" fill="#423C52"/>
<path d="M470.046 69.5845L415.152 59.6049C415.152 59.6049 426.952 38.5969 431.814 36.6947C434.959 35.4675 451.526 33.2306 464.984 32.0592C473.793 31.2921 481.281 30.977 482.819 31.6994C483.145 31.8528 483.332 32.2042 483.409 32.7202L483.234 33.9614C482.97 35.8552 481.112 36.7338 479.081 37.2414C476.05 37.9973 474.14 38.2288 473.949 38.3041C472.235 38.9735 469.035 43.6648 464.963 49.1204C467.856 50.6628 470.93 53.0587 472.091 55.9343C473.117 58.4578 473.262 61.2072 472.506 63.8081L470.046 69.5845Z" fill="#EB7500"/>
<path fill-rule="evenodd" clip-rule="evenodd" d="M454.129 33.8672C454.217 34.872 453.544 35.7651 452.626 35.8618C450.073 36.1306 447.359 36.4669 445.13 36.7968C444.015 36.9619 443.032 37.1238 442.258 37.2729C441.441 37.4303 440.973 37.5526 440.804 37.6182M454.129 33.8672C454.04 32.8623 453.224 32.126 452.305 32.2228ZM452.305 32.2228C449.719 32.4951 446.961 32.8366 444.682 33.174ZM444.682 33.174C443.543 33.3425 442.513 33.5117 441.678 33.6725ZM441.678 33.6725C440.887 33.825 440.151 33.9916 439.68 34.1757ZM439.68 34.1757L439.679 34.1759ZM435.469 44.6102C434.319 46.406 433.094 48.3191 431.906 49.956C431.332 50.7466 430.281 50.8785 429.559 50.2508C428.836 49.623 428.716 48.4732 429.289 47.6826C430.422 46.1215 431.53 44.389 432.637 42.6591C433.255 41.6934 433.872 40.7285 434.492 39.7948C435.331 38.5325 436.172 37.3373 436.982 36.3835C437.748 35.4808 438.664 34.5732 439.679 34.1759M435.469 44.6102C436.07 43.6709 436.651 42.7636 437.195 41.9448ZM437.195 41.9448C438.014 40.7119 438.761 39.6599 439.431 38.8707ZM439.431 38.8707C440.143 38.0307 440.597 37.6995 440.804 37.6183Z" fill="#423C52"/>
<path fill-rule="evenodd" clip-rule="evenodd" d="M466.342 32.5867C466.391 33.5948 465.684 34.4556 464.763 34.5093C462.284 34.6537 459.555 34.9066 457.275 35.1914C456.135 35.3339 455.119 35.4829 454.31 35.628C453.461 35.7803 452.953 35.9093 452.753 35.9871C452.469 36.0982 451.925 36.5092 451.113 37.4615C450.344 38.3623 449.49 39.5582 448.559 40.9495C447.92 41.905 447.239 42.9633 446.536 44.0556C445.254 46.0475 443.899 48.1527 442.592 49.9556C442.018 50.7463 440.967 50.8786 440.244 50.251C439.521 49.6234 439.401 48.4736 439.974 47.6829C441.233 45.9481 442.472 44.0208 443.708 42.0977C444.426 40.9809 445.143 39.8656 445.863 38.7902C446.814 37.369 447.762 36.0311 448.67 34.967C449.534 33.9545 450.54 32.9695 451.631 32.5437L451.632 32.5435C452.148 32.3423 452.93 32.1709 453.769 32.0203C454.65 31.8623 455.723 31.7057 456.896 31.5592C459.243 31.266 462.039 31.007 464.585 30.8586C465.507 30.8049 466.293 31.5786 466.342 32.5867Z" fill="#423C52"/>
<path fill-rule="evenodd" clip-rule="evenodd" d="M480.905 33.3472C478.918 33.1957 476.922 33.153 474.928 33.2196L474.926 33.2197C469.986 33.3785 466.156 34.2011 464.947 34.6691C464.686 34.7745 464.101 35.2354 463.187 36.3377C462.331 37.3699 461.365 38.7371 460.326 40.2944C459.606 41.3738 458.846 42.5542 458.073 43.7529C456.675 45.9235 455.237 48.1545 453.931 49.9555C453.357 50.7463 452.306 50.8786 451.583 50.251C450.861 49.6234 450.74 48.4736 451.313 47.6829C452.569 45.9514 453.896 43.8914 455.249 41.7899C456.035 40.5682 456.831 39.3325 457.627 38.1392C458.683 36.5566 459.733 35.0618 460.712 33.881C461.63 32.7749 462.699 31.671 463.814 31.2299L463.823 31.2265C465.489 30.5786 469.713 29.73 474.827 29.5654C477.554 29.4744 480.284 29.5769 482.994 29.872L484.748 30.0631L484.173 34.1481C484.173 34.1489 484.173 34.1496 484.173 34.1504M480.905 33.3472L480.87 33.5961C480.836 33.8401 480.731 34.0607 480.445 34.3087C480.125 34.5861 479.621 34.8541 478.905 35.089L478.904 35.0893C476.837 35.7693 474.203 36.7128 473.401 37.0254" fill="#423C52"/>
<path d="M399.028 16.027C396.03 13.6758 373.471 15.5194 346.321 21.0866C318.578 26.7681 297.303 33.741 296.587 36.9625C296.977 29.8194 326.115 18.6265 326.115 18.6265L327.125 9.98014C327.209 9.26586 327.536 8.59306 328.06 8.05556C328.585 7.51807 329.281 7.1427 330.052 6.9818L354.288 1.91669C355.016 1.7637 355.778 1.80911 356.478 2.04725C357.177 2.28538 357.784 2.70566 358.222 3.25548L364.3 10.8866C390.382 9.87137 397.735 14.5432 399.028 16.027Z" fill="white"/>
<path fill-rule="evenodd" clip-rule="evenodd" d="M355.981 3.79274C355.547 3.64503 355.064 3.61491 354.603 3.71184L330.366 8.7773C329.876 8.87954 329.475 9.11045 329.202 9.38993C328.933 9.66539 328.812 9.95947 328.783 10.212L327.641 19.9775L326.668 20.3513L326.662 20.3321C326.668 20.3513 326.668 20.3513 326.668 20.3513L326.65 20.3585L326.59 20.3817C326.536 20.4024 326.456 20.4336 326.351 20.4748C326.141 20.5571 325.832 20.6793 325.437 20.8376C324.648 21.1544 323.518 21.6156 322.16 22.1915C319.441 23.3444 315.821 24.9519 312.196 26.7765C310.55 27.605 308.915 28.4721 307.371 29.356C308.467 28.9741 309.627 28.586 310.847 28.1934C319.791 25.3155 332.103 22.1387 346.013 19.29C359.632 16.4974 372.117 14.635 381.592 13.7659C383.066 13.6307 384.47 13.5193 385.797 13.4321C380.765 12.7334 373.829 12.3448 364.36 12.7134L363.564 12.7444L356.963 4.45668C356.963 4.45659 356.963 4.45677 356.963 4.45668C356.748 4.1872 356.416 3.94055 355.981 3.79274ZM353.974 0.121401C354.968 -0.0873954 356.009 -0.0266166 356.974 0.301842C357.939 0.630245 358.82 1.22431 359.482 2.05437L365.038 9.03041C377.714 8.58638 385.983 9.49026 391.308 10.7319C396.674 11.9831 399.24 13.621 400.237 14.7658L398.054 17.5127C398.057 17.5148 398.057 17.5146 398.054 17.5127C398.039 17.5035 397.951 17.451 397.745 17.381C397.509 17.3011 397.185 17.2201 396.758 17.147C395.903 17.0008 394.751 16.9048 393.309 16.8703C390.431 16.8015 386.546 16.9802 381.871 17.409C372.53 18.2657 360.16 20.1087 346.629 22.8833C332.796 25.7161 320.598 28.8665 311.79 31.7007C307.379 33.12 303.86 34.447 301.421 35.5998C300.196 36.1791 299.3 36.6885 298.714 37.1128C298.421 37.3253 298.25 37.4845 298.163 37.5836C298.143 37.6063 298.13 37.6222 298.124 37.6313C298.139 37.6057 298.181 37.5267 298.211 37.3942L294.919 36.8535C295.003 35.329 295.815 33.9819 296.74 32.8847C297.698 31.7478 298.986 30.6335 300.432 29.5681C303.33 27.432 307.104 25.315 310.799 23.4553C314.507 21.5888 318.196 19.9517 320.952 18.7827C322.332 18.1976 323.481 17.7286 324.287 17.4053C324.393 17.3627 324.493 17.3226 324.587 17.2851L325.468 9.74833C325.606 8.57234 326.138 7.5208 326.918 6.72128C327.695 5.92588 328.687 5.40598 329.739 5.18638C329.739 5.18635 329.739 5.18641 329.739 5.18638L353.973 0.121609C353.973 0.12154 353.974 0.12147 353.974 0.121401ZM298.117 37.6404C298.117 37.6404 298.119 37.6374 298.124 37.6313C298.12 37.6374 298.118 37.6404 298.117 37.6404Z" fill="#423C52"/>
<path fill-rule="evenodd" clip-rule="evenodd" d="M365.954 10.627C366.085 11.6263 365.451 12.5526 364.538 12.696C358.842 13.5901 352.697 14.6093 346.322 15.9186L346.321 15.9188C339.2 17.377 332.505 18.8776 326.495 20.4148C325.597 20.6447 324.698 20.0341 324.488 19.051C324.278 18.068 324.836 17.0848 325.735 16.855C331.807 15.3019 338.552 13.7903 345.706 12.3255M365.954 10.627C365.823 9.62771 364.977 8.93385 364.063 9.07724ZM364.063 9.07724C358.352 9.97378 352.151 11.0017 345.707 12.3253Z" fill="#423C52"/>
<path d="M356.008 43.6621L345.522 67.0185L343.271 72.039C333.843 64.6485 321.794 60.5958 309.339 60.6258H308.052C300.69 60.6165 293.416 62.0901 286.756 64.9406L286.808 64.8904L305.344 46.892L324.232 28.556L356.008 43.6621Z" fill="#EB7500"/>
<path d="M356.011 43.6621L345.593 66.8763C341.935 61.0051 338.194 53.1285 338.099 48.2335C338.038 45.2324 338.099 38.8982 337.933 35.0826L356.011 43.6621Z" fill="#423C52"/>
<path d="M331.932 26.082C331.932 26.082 337.617 24.6875 344.435 23.1702C344.435 23.1702 344.435 23.1981 344.435 23.2343C344.315 23.8675 343.388 28.8935 343.618 33.1275C343.75 35.5763 344.272 37.7603 345.556 38.6779C349.22 41.2941 362.329 41.057 365.36 40.2649C365.36 40.2649 366.496 54.286 364.131 54.604C361.767 54.9219 341.861 50.066 339.254 45.3328C337.454 42.0583 338.096 37.9499 337.927 34.1343L338.01 31.8277C338.035 31.0861 337.896 30.3475 337.602 29.6551C337.309 28.9628 336.866 28.3305 336.3 27.7955C335.734 27.2604 335.056 26.8333 334.306 26.5391C333.556 26.2449 332.749 26.0895 331.932 26.082Z" fill="#DBE5E5"/>
<path fill-rule="evenodd" clip-rule="evenodd" d="M323.756 29.5991V33.8359C323.756 34.857 324.247 35.9111 325.297 36.7707C326.352 37.6331 327.909 38.2305 329.764 38.2305H337.979V41.8864H329.764C327.278 41.8864 324.996 41.0892 323.297 39.6987C321.593 38.3054 320.414 36.2482 320.414 33.8359V29.5991H323.756Z" fill="#423C52"/>
<path d="M328.117 26.0624H332.261C333.775 26.0632 335.228 26.6094 336.3 27.5814C337.372 28.5534 337.976 29.8718 337.979 31.2475V39.0571H329.859C327.971 39.0571 326.161 38.3763 324.827 37.1643C323.492 35.9524 322.743 34.3086 322.743 32.5947V30.9463C322.743 30.3038 322.882 29.6677 323.153 29.0741C323.423 28.4806 323.82 27.9412 324.32 27.487C324.821 27.0327 325.415 26.6723 326.068 26.4265C326.722 26.1806 327.422 26.0541 328.13 26.0541L328.117 26.0624Z" fill="#EB7500"/>
<path fill-rule="evenodd" clip-rule="evenodd" d="M327.122 29.1556C327.122 28.146 327.87 27.3276 328.793 27.3276C330.817 27.3276 332.723 27.9281 334.172 28.9945C335.61 30.0534 336.751 31.712 336.751 33.7828C336.751 34.7923 336.003 35.6107 335.08 35.6107C334.157 35.6107 333.409 34.7923 333.409 33.7828C333.409 33.2987 333.143 32.6436 332.306 32.0276C331.48 31.4192 330.243 30.9835 328.793 30.9835C327.87 30.9835 327.122 30.1651 327.122 29.1556Z" fill="#423C52"/>
<path d="M371.54 37.7267C369.792 39.0419 367.69 39.9087 365.449 40.237L365.345 40.2537C362.313 41.0458 349.205 41.2829 345.541 38.6667C344.257 37.749 343.735 35.5651 343.603 33.1163C343.373 28.8823 344.3 23.8562 344.42 23.2231C345.908 22.8996 347.423 22.5807 348.962 22.2664C354.61 21.1061 360.019 20.116 365.044 19.3071C365.044 19.3183 370.305 26.0513 371.54 37.7267Z" fill="#EB7500"/>
<path fill-rule="evenodd" clip-rule="evenodd" d="M360.907 27.1958C359.605 27.1878 358.323 27.4299 357.146 27.8995C355.969 28.3692 354.936 29.0511 354.105 29.884C353.425 30.5661 352.368 30.5157 351.745 29.7715C351.121 29.0273 351.167 27.871 351.848 27.1889C353.023 26.0099 354.442 25.0873 356.001 24.465C357.561 23.8427 359.238 23.5297 360.925 23.54C361.848 23.5457 362.592 24.3687 362.587 25.3782C362.581 26.3877 361.829 27.2015 360.907 27.1958Z" fill="#423C52"/>
<path d="M358.176 32.4162C358.923 32.4162 359.528 31.5184 359.528 30.4108C359.528 29.3032 358.923 28.4054 358.176 28.4054C357.43 28.4054 356.825 29.3032 356.825 30.4108C356.825 31.5184 357.43 32.4162 358.176 32.4162Z" fill="#423C52"/>
<path d="M345.673 67.1635L343.274 72.0362C333.846 64.6456 321.797 60.593 309.342 60.6229H308.052C300.69 60.6136 293.416 62.0872 286.756 64.9377L305.215 46.8807C326.548 48.2363 345.673 67.1635 345.673 67.1635Z" fill="#E5F1EF"/>
<path fill-rule="evenodd" clip-rule="evenodd" d="M342.307 73.522C333.185 66.3715 321.484 62.4217 309.352 62.4508L309.349 62.4508L308.05 62.4508C300.45 62.4399 292.963 64.0546 286.197 67.1538C285.346 67.5436 284.367 67.1048 284.011 66.1736C283.655 65.2424 284.056 64.1715 284.907 63.7816C292.096 60.4884 300.024 58.7836 308.054 58.795H309.347C322.124 58.7647 334.519 62.92 344.254 70.5502C345.004 71.1382 345.176 72.2801 344.639 73.1007C344.101 73.9214 343.057 74.11 342.307 73.522Z" fill="#423C52"/>
</svg>
