<svg width="26" height="26" viewBox="0 0 26 26" fill="none" xmlns="http://www.w3.org/2000/svg">
<path d="M2.01145 9.99375L3.79844 4.88973C4.48246 2.93414 6.32734 1.625 8.39922 1.625H17.6008C19.6727 1.625 21.516 2.93414 22.2016 4.88973L23.9891 9.99375C25.1672 10.4812 26 11.6441 26 13V22.75C26 23.6488 25.2738 24.375 24.375 24.375H22.75C21.8512 24.375 21.125 23.6488 21.125 22.75V20.3125H4.875V22.75C4.875 23.6488 4.1473 24.375 3.25 24.375H1.625C0.727695 24.375 0 23.6488 0 22.75V13C0 11.6441 0.830781 10.4812 2.01145 9.99375ZM5.54023 9.75H20.4598L19.1344 5.96172C18.9059 5.31172 18.2914 4.875 17.6008 4.875H8.39922C7.70859 4.875 7.09414 5.31172 6.86562 5.96172L5.54023 9.75ZM4.875 13C3.9777 13 3.25 13.7262 3.25 14.625C3.25 15.5238 3.9777 16.25 4.875 16.25C5.77383 16.25 6.5 15.5238 6.5 14.625C6.5 13.7262 5.77383 13 4.875 13ZM21.125 16.25C22.0238 16.25 22.75 15.5238 22.75 14.625C22.75 13.7262 22.0238 13 21.125 13C20.2262 13 19.5 13.7262 19.5 14.625C19.5 15.5238 20.2262 16.25 21.125 16.25Z" fill="black"/>
</svg>
